<?xml version="1.0" standalone="no"?>
<!DOCTYPE svg PUBLIC "-//W3C//DTD SVG 20010904//EN"
 "http://www.w3.org/TR/2001/REC-SVG-20010904/DTD/svg10.dtd">
<svg version="1.0" xmlns="http://www.w3.org/2000/svg"
 width="300.000000pt" height="225.000000pt" viewBox="0 0 300.000000 225.000000"
 preserveAspectRatio="xMidYMid meet">
<metadata>
Created by potrace 1.10, written by Peter Selinger 2001-2011
</metadata>
<g transform="translate(0.000000,225.000000) scale(0.100000,-0.100000)"
fill="#ffffff" stroke="none">
<path d="M1100 1575 c-23 -20 -54 -44 -67 -55 l-25 -19 122 -146 c67 -80 125
-145 128 -145 14 0 50 43 46 55 -10 25 24 23 50 -4 l26 -27 2 -279 3 -280 33
0 33 0 1 295 0 295 -79 89 c-43 49 -109 125 -146 170 -38 44 -72 82 -76 84 -5
1 -27 -13 -51 -33z m60 -30 c0 -35 -48 -77 -80 -70 -14 4 -27 9 -29 11 -3 3
13 22 35 44 46 46 74 52 74 15z m50 -35 c36 -45 32 -75 -5 -40 -38 36 -47 18
-12 -22 68 -78 117 -137 117 -141 0 -3 -6 -7 -14 -10 -9 -4 -42 26 -92 84 -75
89 -76 91 -55 105 12 9 21 26 21 40 0 13 2 24 4 24 2 0 19 -18 36 -40z m-73
-79 c14 -18 18 -30 11 -38 -7 -8 -19 -1 -44 26 -19 21 -34 41 -34 44 0 14 47
-9 67 -32z m261 -132 l32 -37 0 -286 c0 -250 -2 -285 -15 -280 -13 5 -15 45
-15 276 l0 269 -86 95 c-69 76 -83 98 -74 109 12 14 50 -22 158 -146z m-160
13 c35 -41 42 -56 33 -65 -10 -9 -19 -4 -43 23 -17 19 -43 49 -58 66 -26 29
-27 33 -12 48 15 15 17 15 26 -2 5 -9 29 -41 54 -70z"/>
<path d="M1747 1578 c-9 -13 -34 -43 -56 -68 -22 -24 -37 -48 -35 -52 3 -4 -1
-8 -8 -9 -7 0 -50 -42 -95 -92 l-83 -92 0 -297 0 -298 40 0 40 0 0 278 1 277
25 28 c15 18 31 27 40 23 8 -3 12 -11 9 -16 -8 -12 10 -37 35 -50 14 -7 28 4
71 57 29 36 58 71 64 77 10 11 79 96 103 128 11 14 4 23 -56 72 -38 31 -72 56
-74 56 -3 0 -13 -10 -21 -22z m82 -46 c7 -7 25 -20 38 -29 18 -12 21 -18 12
-30 -10 -11 -15 -11 -31 4 -16 14 -23 15 -39 5 -27 -17 -42 -6 -28 19 8 17 7
24 -10 38 -15 13 -17 21 -9 29 12 12 20 7 67 -36z m-71 0 c16 -11 7 -36 -29
-75 -27 -29 -30 -30 -45 -15 -15 15 -14 19 16 57 36 44 38 45 58 33z m69 -123
c-18 -21 -38 -39 -45 -39 -27 0 -23 31 8 70 31 39 33 40 51 24 17 -16 17 -18
-14 -55z m-52 51 c4 -6 -15 -36 -42 -67 -26 -31 -60 -70 -74 -86 -15 -18 -30
-27 -37 -23 -9 5 2 24 33 60 25 29 45 56 45 59 0 8 53 64 62 66 4 0 10 -4 13
-9z m-167 -135 c-40 -47 -75 -85 -78 -85 -3 0 -5 -124 -5 -275 1 -270 0 -275
-20 -275 -20 0 -20 5 -19 283 l1 282 83 92 c72 79 85 90 97 77 13 -12 5 -25
-59 -99z m149 34 c17 -17 -86 -142 -104 -127 -19 16 -17 22 35 82 51 60 53 61
69 45z"/>
</g>
</svg>
