<svg xmlns="http://www.w3.org/2000/svg" width="223.5" height="94.5" viewBox="0 0 223.5 94.5"><g transform="translate(-347.5 -1375)"><line x2="217" transform="translate(347.5 1462.5)" fill="none" stroke="#fff" stroke-width="1"/><line y2="89" transform="translate(354.5 1380.5)" fill="none" stroke="#fff" stroke-width="1"/><g transform="translate(353 1375)" fill="#fff"><path d="M 2.381508588790894 6.5 L 0.6184914112091064 6.5 L 1.5 2.386293411254883 L 2.381508588790894 6.5 Z" stroke="none"/><path d="M 1.5 4.77259635925293 L 1.236984968185425 6 L 1.763015031814575 6 L 1.5 4.77259635925293 M 1.5 0 L 3 7 L 0 7 L 1.5 0 Z" stroke="none" fill="#fff"/></g><g transform="translate(571 1461) rotate(90)" fill="#fff"><path d="M 2.381508588790894 6.5 L 0.6184914112091064 6.5 L 1.5 2.386293411254883 L 2.381508588790894 6.5 Z" stroke="none"/><path d="M 1.5 4.77259635925293 L 1.236984968185425 6 L 1.763015031814575 6 L 1.5 4.77259635925293 M 1.5 0 L 3 7 L 0 7 L 1.5 0 Z" stroke="none" fill="#fff"/></g></g></svg>