<svg xmlns="http://www.w3.org/2000/svg" width="187" height="183.933" viewBox="0 0 187 183.933"><g transform="translate(-56 193)"><path d="M153.6-190.9c-3.4,2.1-4.6,3.7-3.9,5.5a1.762,1.762,0,0,1-.6,1.9c-.7.4-1.1-.6-1.1-2.8,0-1.9-.6-4-1.4-4.6-2.1-1.8-6.3-.3-8.7,3a8.606,8.606,0,0,1-5.4,3.5c-3.7.7-6.1,2.7-5,4.4.3.5.1,1-.4,1a1.028,1.028,0,0,1-1.1-1c0-.5-1-1-2.2-1-1.3-.1-3.6-.1-5.3-.1a6.048,6.048,0,0,1-4.3-2,4.357,4.357,0,0,0-2.6-1.9c-2.1,0-4.7,3.5-4,5.5.6,1.5.4,1.6-1.5.6-1.2-.7-2.7-.9-3.3-.4a9.531,9.531,0,0,1-3.8.7c-2.9.1-4,3.7-1.8,6.3,1.8,2.2,1.8,9.1,0,9.8-.8.3-3.3-1.2-5.8-3.5-2.4-2.2-4.8-4-5.3-4-1.7,0-3.2,2.8-2.7,5.4.5,3-1.8,4.8-4.9,3.6-4.4-1.6-6.1,2.3-2.9,6.8.8,1.2,1.2,2.2.8,2.2-.3,0,.1,1.2,1.1,2.6,2.1,3.2,1.4,4.1-1.7,2-2.8-2-5.2-2-6.7-.2-1.4,1.7-.5,4.3,1.9,5.1a4,4,0,0,1,2.3,2.6c.4,1.5.1,1.9-1.2,1.4a3.854,3.854,0,0,0-3.5,1.4c-1.6,1.8-1.6,2,.8,3.9,3.2,2.4,3.3,3.2.4,2.9a3.273,3.273,0,0,0-3.3,2.1,31.817,31.817,0,0,1-3.4,4.6c-1.2,1.2-1.8,2.5-1.5,2.9a8.536,8.536,0,0,1,.8,3.6c.2,2.4-.2,3.1-1.5,3.1-3,0-4.9,1.2-4.9,3,0,2.4,1.9,3.6,5.9,3.9,4.2.2,4.7.6,3.2,2.5-.9,1.1-.8,1.7.4,2.9,2,2.1,1.9,3.7-.2,3.7a7.727,7.727,0,0,0-3.6,1.4c-1.7,1.3-1.7,1.5.4,2.9a4.894,4.894,0,0,0,3.8,1c1.3-.5,1.3-.3-.2,1.5-1.1,1.1-1.6,2.6-1.2,3.1.3.6-.2,1.1-1.2,1.1a7.725,7.725,0,0,0-3.9,1.4c-1.6,1.3-1.7,1.8-.6,3.5A12.053,12.053,0,0,1,60-77.6a9.192,9.192,0,0,0,1.8,4.7c1.7,2,2.2,2.1,6.1,1.2,4-1.1,4.1-1,3.5,1A10.067,10.067,0,0,1,70-67.6c-.5.5-.4,1.6.2,2.6,1,1.5,1.6,1.6,4.1.8,2.5-.9,3.2-.7,5.5,1.6a8.065,8.065,0,0,1,2.7,5.8c0,2.4.6,3.5,2.3,4.4,1.5.7,2,1.4,1.3,1.8-1.7,1.1-1.3,4.6.5,5.3a4.906,4.906,0,0,0,3.5-.5c2.4-1.5,4.2-1.5,5.6-.1.9.9.6,2-1.2,4.3-2.4,3.2-2.4,3.2-.4,4.4,2.1,1.4,3.8.7,6.6-2.6a1.752,1.752,0,0,1,2.2-.7c1.8,1,1.3,3.7-1.1,6.2L99.6-32l2.1,2.2,2.1,2.1,2.5-2.6c2.3-2.5,4.8-2.7,2.7-.2-1.1,1.3,1.6,5.9,3,5,.4-.3.6.4.3,1.4-.8,3,6.5,10.3,9.5,9.5a4.646,4.646,0,0,0,2.9-3.3c.6-2.5,7.2-10,7.4-8.4a28.571,28.571,0,0,1-.1,3.9c-.2,4.4,2.4,6.8,6.7,6.1,3-.5,3.3-.3,3.3,1.8,0,4.5,7.8,7.5,9.6,3.7a10.425,10.425,0,0,0,.9-4.2c.4-6.8.6-7.8,2-8.4,2.5-.9,4.6.5,5.2,3.5.8,4.3,2.8,5.5,5.8,3.5,1.4-.9,2.5-2,2.5-2.5,0-1.2,5.9-.8,6.8.5a18.944,18.944,0,0,0,3.1,2.7c2.9,1.9,6.1.7,6.1-2.3a9.165,9.165,0,0,1,1.1-3.9c.9-1.3.9-2.6.1-4.9-.6-1.7-.8-3.3-.5-3.5.2-.3,2.3.7,4.6,2.3,3.7,2.5,4.4,2.7,5.7,1.4,1.3-1.2,1.2-1.7-.2-4.2-1.6-2.8-1.4-5.2.5-5.2.6,0,2.9,1.9,4.9,4.1,3.2,3.5,4,3.9,5.3,2.9,2.1-1.8,1.9-3.6-1.1-7.5l-2.5-3.3,4.6.3c4.2.2,4.7,0,6.1-2.7l1.5-2.9,3,2.6c1.7,1.4,3.4,2.5,3.9,2.5,1,0,2-2.5,2-5a4.8,4.8,0,0,1,1.5-3c2-1.6,1.9-2-1-5.4-1.4-1.6-2.5-3.3-2.5-3.8,0-.8,2.4-1.2,4.4-.9,2.6.5,5.6-1.1,5.6-2.9,0-1.7-4-5.2-7.3-6.3-1.8-.6.6-3.7,2.8-3.7,1.3,0,2.7-.5,3-1,.4-.6,2.5-.8,5.4-.4,5.3.7,6.7-.2,5.6-3.7-.4-1.2-1.9-2.2-3.6-2.6-2.8-.5-3.4-1.6-2.9-5.6a5.086,5.086,0,0,0-1-3.2c-1-1.2-.9-1.6.3-2.1a3.538,3.538,0,0,1,2.5,0c.5.3,1.7-.1,2.7-.8,2.8-2,1.1-4.4-4-5.8s-5.4-2.2-2.4-5.5c1.8-1.9,2-2.5.9-3.8-1.6-2-.8-2.8,2.7-2.7,3.8,0,7.3-2.4,7.3-5,0-3.4-2.6-4.6-7.5-3.5a14.225,14.225,0,0,1-5.9.4c-2.6-1-1.8-3.4,1.4-4.6,1.7-.5,3-1.6,3-2.4,0-1.8-2.4-3.9-3.4-2.9-.4.4-.5-.9-.1-2.9.8-4.1-1.2-6.5-4.5-5.4-3.5,1.1-2.2-1,1.5-2.4,3.3-1.1,3.5-1.5,3.5-5.6,0-4.5-1.9-6.8-4.7-5.8-.7.3-1.3-.2-1.3-1,0-3-2.4-3.7-5.8-1.7-4.9,3-6.1,2.4-2.4-1.1,2-1.9,3.1-3.7,2.8-4.6a11.8,11.8,0,0,1-.6-1.9c0-1-8.7-.3-9.8.8-2,2-3.6-.5-2-3.1,1.2-2,1-2.4-1.2-4.2-1.4-1.1-3.5-2.9-4.6-3.9-2.5-2.3-4.5-2.5-6.2-.8-.9.9-1.2.9-1.2-.3a5.866,5.866,0,0,1,2-3.4c2.3-2.1,2.6-4.8.6-6.4s-4.2-.4-6.6,3.6-3.6,3.9-2-.1c.8-2.1.7-3.1-.5-4.2a5.531,5.531,0,0,1-1.5-2.8,4.159,4.159,0,0,0-1.5-2.6c-1.2-1-2.2-.8-5.1.9l-3.7,2.2-1.4-2.1c-1.2-1.6-2.2-2-4-1.5-2.1.5-2.4.3-1.9-1.1.7-1.7-1.8-5.4-3.7-5.4-.5,0-1.8,1-2.8,2.1-1.6,1.8-2,1.9-2.5.6C158.5-192.7,156.8-192.9,153.6-190.9Zm-7.8,6.4c.2,3-.2,4.5-1,4.5-.9,0-.8.3.2,1,2.2,1.4,4,1.2,4-.5,0-.8.4-1.5,1-1.5.5,0,.7.8.4,1.7-.5,1.5-.4,1.6.5.3.6-.8,1.1-3.4,1.1-5.8,0-4.6.6-5.1,2.6-2.5,1.2,1.7,1.3,1.6.8-.3-.7-2.5,1.4-4.3,2.6-2.3a3.2,3.2,0,0,1-.1,3,10.719,10.719,0,0,0-.9,4.1c0,1.7-.3,1.9-.9.9-.7-1-1.1-.5-1.6,1.8-.5,2.2-1.2,3.1-2.6,3.1a1.728,1.728,0,0,0-1.9,1.6c0,1.3.3,1.4,1.4.5s1.6-.9,2.3.1c1.3,2.1,10.3,6,10.3,4.5,0-.6.5-.4,1.1.6.8,1.4.7,2.2-.8,3.4s-1.5,1.4-.1.9a1.769,1.769,0,0,1,2.2.7c.3.7.5.6.5-.3-.2-2.3,1.2-6,2.2-6,.5,0,.9.7.9,1.5,0,.9.6,1.2,1.8.8,1.1-.4.9.1-.8,1.6-2.1,1.9-2.2,2.2-.5,1.6,4.6-1.5,6.6-1.5,7.2,0a3.074,3.074,0,0,1-.6,2.8c-.9.9-1.1.8-.6-.4.4-1.1,0-1.8-1.4-2.2-1.3-.3-1.9-.1-1.4.5.3.7.1.8-.5.4a3.387,3.387,0,0,0-2.9.3c-1.2.7-1.4,1-.4,1.1,1,0,1.1.3.2,1.4s-.6,1.7,1.4,3c2.1,1.4,2.3,1.9,1.3,3a3.409,3.409,0,0,1-2.8.9c-1.3-.4-1.3-.4,0,.6s1.1,1.5-1.3,3.6c-2.6,2.3-3,5.4-.5,3.9.8-.5.9-.1.5,1a1.521,1.521,0,0,0,.8,2.2c1.8.7,1,2.4-1.1,2.4-.9,0-1.2-.5-.8-1.2.5-.8.2-.9-.9-.5-.9.3-1.9.2-2.2-.3-.4-.6.2-1,1.1-1,1.6,0,1.1-1.5-.4-1.5a4.754,4.754,0,0,1-2-.9c-.7-.4-1.6-.5-1.9-.2-.4.3-.1.6.5.6s.9,1,.7,2.1c-.3,1.2-.2,1.9.2,1.6.3-.4,1.8.2,3.3,1.3s3,1.7,3.3,1.4.8,0,1.3.7c.5.8.3,1-.7.4-.8-.4-.1.6,1.5,2.3s3.3,2.9,3.8,2.6c1-.6,1.1-3.4.1-3.3-1.8.3-4.7-.3-3.7-.7.7-.3,1-1.5.7-2.7-.4-1.8-.3-1.9.6-.7.6.8,1.1,1,1.1.4a5.984,5.984,0,0,0-2-2.9c-2.2-2-2.7-4.1-.7-2.9.9.6.9.4-.1-.8-.8-1-.9-1.8-.3-2.2.8-.5,3.8,3.3,3.3,4.1a1.447,1.447,0,0,0,1.2,2.3,4.423,4.423,0,0,1,2.8,1.4,12.52,12.52,0,0,0,3.8,2.1c3.1.9,8.1,5.5,7.4,6.7-.3.5,0,.7.7.6,1.8-.4,6.2,6.3,4.9,7.6s-5.7-1-5.7-3c0-.8.4-1.4.9-1.4.4,0,.8.5.8,1.2,0,.6.3.8.7.5.7-.8-5.5-6.7-6.9-6.7-.5,0,.4,1.2,1.9,2.6,1.8,1.6,2.2,2.4,1.1,2-2.5-.8-2.2.3.9,3.6a7.951,7.951,0,0,0,5.5,2.8c1.5,0,2.8.5,2.8,1.2a6.294,6.294,0,0,0,1.6,3c1.4,1.4,1.4,2,.4,3.3-1.3,1.5-3.5,1.1-2.5-.6.4-.5.1-.9-.5-.9s-1,.8-.8,1.7q.45,1.8,2.7,1.5c1.7-.1,2.2.2,1.7,1.3a5.112,5.112,0,0,0,0,3c.7,1.7,3.4,2.1,3.4.4a.552.552,0,0,0-.9-.5c-.5.3-1.1-1-1.3-2.9-.3-3.1,0-3.8,2.1-4.8,2.7-1.3,4.5-6.3,1.9-5.5-.7.3-1.2,1.6-1,2.9.1,1.3-.1,1.9-.5,1.4a3.174,3.174,0,0,0-2.5-1c-1,0-1.8-.3-1.8-.8V-123c0-1.7.3-1.9,1.9-1,2.9,1.5,3.4,1.3,2.9-1.5-.4-1.7,0-2.9,1.1-3.6,1.2-.7,1.3-1.2.4-1.5a2.348,2.348,0,0,1-1.3-1.9,2.323,2.323,0,0,0-.9-1.9c-.5-.4-.7.3-.4,1.4a11.466,11.466,0,0,1-.1,4.5c-.9,3.5-3.8,3.2-7.1-.7-2.3-2.7-2.4-3.3-1.1-4,1.4-.8,2.4-6.8,1.2-6.8a15.632,15.632,0,0,1-2-.6c-.9-.3-1.6-.1-1.6.6,0,.6.5.8,1,.5.6-.3,1-.2,1,.4a14.229,14.229,0,0,0,.6,2.8c.5,1.7.5,1.7-.9,0-1.5-1.8-1.6-1.8-2.7,0-.8,1.3-1.3,1.4-1.6.5a9.082,9.082,0,0,0-2-2.6c-1.8-1.9-1.8-3,.1-2.2,1.3.4,1.4.2.5-1.4-1-1.8-2.9-2.5-5.5-2-.5.1-.1-.8.9-1.9,1.6-1.8,1.7-2.1.3-2.1a2.1,2.1,0,0,0-1.9,1.1c-.2.6-1-.2-1.7-1.8-.7-1.5-1.7-3.6-2.2-4.6-.6-1-.5-1.7.1-1.7a.908.908,0,0,1,1,.8c0,.4.9,1.3,2.1,2,1.8,1.1,2.3,1.1,3.4-.5.7-1,1.1-2.1.9-2.5-1-1.6.9-.7,2.4,1.2,1.2,1.4,2.1,1.7,3.2,1,.8-.5,1.1-1.2.7-1.7-.5-.4-1.2-.1-1.6.6-1.1,1.7-2.3-.2-1.5-2.3.4-1,.1-1.6-.9-1.6-1.9,0-3.9,2.4-2.9,3.5.4.4-.6.5-2.3.1-1.6-.4-3.2-1.2-3.3-1.7-.3-.6-.9-.5-1.7.1-1,.9-1.1,1.8-.4,3.7a5.576,5.576,0,0,1,.3,3.5c-.3.5,1.1,2.8,3.2,5.1l3.9,4.1-5-4.1a70.827,70.827,0,0,1-7-6.4l-2-2.3,2.6,1.6c3.3,2.1,4.8,1,1.8-1.3l-2.2-1.6L175-156l2.3-2.3-2.9-1.6c-1.6-.9-3-2.2-3.1-2.9-.4-1.7.4-1.5,4,1,1.7,1.2,2.7,1.7,2.3,1s-.2-1.2.3-1.2a1.266,1.266,0,0,0,1.1-1.4c0-1.9,3.1-2.9,4.4-1.4.6.7.7.9.2.5-.6-.4-1.5.2-2.2,1.5-1,1.8-.9,2.5.5,3.6,1.5,1.2,1.4,1.3-.3.8-1.6-.6-1.7-.4-.5,1,1.2,1.5,1.4,1.4,2.3-.5a3.334,3.334,0,0,1,2.8-2.1,1.694,1.694,0,0,0,1.8-1.6c0-.8.4-1.3.8-1a2.741,2.741,0,0,0,2.2-.4c1-.6-1-2-7-4.9-6.3-3.1-8.6-3.8-9.2-2.9-.6,1-.8.9-.8-.3,0-1.9-5-3.6-13.2-4.4-3.2-.4-5.8-1.1-5.8-1.7,0-.7,1.9-.8,5.4-.4l5.5.7.7-3.6c.4-2.4,1-3.3,1.6-2.7s.6,1.7-.1,3a12.218,12.218,0,0,0-1.1,2.5c0,.3,3.3,1.7,7.3,3.2a140.621,140.621,0,0,1,13.6,6.2c6.6,3.5,6.5,3.5,9-.6a1.461,1.461,0,0,1,2.1-.6c.9.5.4,1.4-1.5,3.1-2.5,2.2-2.6,2.9-.2,2.5.5-.1.6.3.3.8s.5,1.6,1.8,2.5c2.4,1.5,2.6,1.4,4.6-1.1,1.1-1.4,2.4-2.3,2.8-1.9s-.5,1.8-2,3.1l-2.6,2.3,3.5,3.3c4.1,3.9,12.4,15.3,12.7,17.3a7.072,7.072,0,0,0,1.3,2.8c2.1,2.5,6.4,16.8,7,23.4.5,5.1.9,6.4,2.2,6.3,2.9-.3,4.1.1,4.1,1.2,0,.7-1,.9-2.4.7-2.1-.4-2.5,0-3,3.1-1,6.2-.7,10.1.8,10.1,1.2,0,4.6,4,4.6,5.5,0,.3-.8.5-1.7.5-1.5,0-1.5.1.2,1.3,1.4,1.1,1.5,1.6.5,2.2a1.54,1.54,0,0,1-2.1-.6c-.6-1-.9-1-.9-.2,0,1.5,3.4,3.4,6.7,3.8,2.9.3,4.8,1.9,3.9,3.4-.9,1.3-4.3,1.4-5.1.2-.3-.5-1.9-1.2-3.5-1.6-1.7-.4-2.8-1-2.5-1.5.3-.4-.2-1-1-1.4-.8-.3-1.5-1-1.5-1.6s.4-.9.9-.5c.6.3.8-.4.6-1.5s.1-2,.8-2c.8,0,.8-.3-.1-1.2s-.7-1.4.6-2.4c1.6-1.2,1.5-1.3-.5-1.4-1.7,0-2.2.8-2.8,4.2-1,6-5.9,17.6-10.6,24.8-3.5,5.5-4.9,8.4-3.2,6.7.3-.4,1.2-.2,2,.4.7.6,1.3.8,1.3.5,0-1.7,4,1.7,5.4,4.5,3,6,.9,8.2-3.2,3.4-2.2-2.6-5.2-2.5-5.2.2,0,.8-.5,1.1-1.1.7-.8-.4-.9,0-.4,1.5.9,3-.6,2.5-3.5-1.2-1.4-1.7-1.9-2.8-1.2-2.3.8.5,1.1.3,1-.6-.2-.7.7-1.4,1.9-1.6,1.4-.2,2-.8,1.7-1.7-.4-1,.1-1.2,1.8-.8,2.3.5,2.3.5.3-1-1.9-1.5-2.1-1.5-4.3.9-1.2,1.4-2.7,2.2-3.3,1.8-.8-.4-.6-1,.6-1.7,1.7-.9,1.6-1.1-.6-2.3-1.8-1-2-1.3-.7-1.4a3.105,3.105,0,0,1,2.3,1c1.1,1.7,2.8-.2,7.9-8.9,4.7-8,5.4-10.1,3.5-10.1-.6,0-.9.6-.6,1.4.7,1.7-1.7,5.2-4.4,6.6-3.1,1.7-7.8-2-7.3-5.7.4-2.2.3-2.4-.4-.8-.8,1.8-.9,1.8-1.9.1-.7-1.2-1.3-1.5-1.7-.7-.4.6-.3,1.1.2,1.1s1.7,1.2,2.7,2.6c1.4,2.2,1.5,2.8.2,4.2-2.8,3.4-2.8,4.1.2,5.7,3.5,1.8,4.1,1.8,4.1.4,0-.5-.5-.7-1.2-.3-.7.5-.9.2-.5-.8a2.65,2.65,0,0,0-.4-2.5c-.6-.6-.4-1.5.7-2.4,1.2-.9,1.5-1,1-.2-.4.7-.3,1.3.1,1.3,1.5,0,1.4,5.7-.2,7-1.1,1-1.8,1-2.9.1-1-.8-1.6-.9-2.1-.1-.9,1.5-2.5,1.2-1.9-.4.8-2-1.2-2.8-2.6-1.1-1,1.2-.6,1.7,2.4,3.1,3.6,1.8,4,4,.5,2.9-1.4-.5-1.7-.3-1.3.9.9,2.3-1.9,2-4.1-.4-1-1.1-1.3-2-.7-2a1.126,1.126,0,0,0,1.2-1c0-2.2-1.9-.8-3.4,2.5-1,2-2.1,3.3-2.5,3-.5-.2-1.6.4-2.5,1.4A15.481,15.481,0,0,1,184-43c-2,.8-2.6,1.7-2.3,3.1.3,1,0,1.9-.6,1.9s-1.1-.7-1.1-1.5-.4-1.5-1-1.5c-.5,0-1-.7-1-1.5s.5-1.5,1.1-1.5c.5,0,.7-.5.3-1.2-.5-.8-1.1-.6-2,.7-1.1,1.5-1.1,2.2.1,4.6,1.8,3.3,1.9,4.9.5,4.9-.6,0-1.5-1.2-2-2.6-.6-1.4-1.5-2.2-2.1-1.8-.8.4-.8.9,0,1.7a5.458,5.458,0,0,1,1,3.7c0,2.3-.1,2.3-1.2.7-3.1-4.8-3-4.7-6.4-3-2.5,1.1-3.3,2.2-3.3,4.1,0,2.1-.3,2.3-1.2,1.4-1-1-1-1.7,0-3.2.7-1.2.8-2.1.2-2.5-1.7-1-3,.5-3,3.5,0,1.6-.4,3.1-.9,3.4-.9.6-1.8-2.9-2.6-9.9-.7-5.7-1.5-8.8-2.2-8.1-.3.3-1.3,0-2-.6-1.2-1-1.4-.8-1.1.7.4,2.3-2.8,3.3-4.6,1.5-.8-1-.5-1.1,1.4-.5q2.4.6,1.2-.3c-1.1-.7-1.1-1.2.2-2.5,2.1-2,2-3.1,0-2.3a3.216,3.216,0,0,1-3-.5c-1.7-1.4-1.9.2-.3,1.8,2,2-.1,3.6-2.2,1.7-1.4-1.3-1.6-2.1-.8-3.5.6-1.3.6-1.9-.1-1.9a1.233,1.233,0,0,0-1,1.3c0,1.6-4.5,3.9-5.4,2.9-1.2-1.2-10.1-3.1-10.9-2.3a12.394,12.394,0,0,0-1.4,4.7c-.6,3.6-.5,3.8,1,2.5,1.2-.9,1.4-1.8.8-2.5A2.243,2.243,0,0,1,126-50c.8-1.3,1-1.3,1,.1a2.652,2.652,0,0,0,1.4,2.2c1,.4,1.3.1,1-.7-.4-1.1.4-1.2,3.8-.6,2.4.5,4.5.6,4.7.4s1,.1,1.8.7c1,.9,1.3.8,1.3,0,0-.7.5-.9,1-.6a1.216,1.216,0,0,1,.5,1.6c-.3.5.1.6.9.3,1.1-.4,1.6,0,1.6,1.3,0,2.5,2.9,6.5,4.2,5.7.6-.4.5-1-.3-1.5-1.2-.7-1.1-.9.1-1,.8,0,.4-.5-1-.9-2.4-.9-2.4-.9.5-.7,1.9.1,2.9.7,2.7,1.5-.1.8.2,1.1.8.7a3.5,3.5,0,0,0,1-2.6c0-1,.4-1.9,1-1.9,1.6,0,.5,4.2-1.6,5.8-1.1.8-1.3,1.3-.4,1,1.2-.4,4.6,3.9,3.8,4.8a61.367,61.367,0,0,1-9.6.5c-.7-.1-1-.6-.7-1.1.3-.6.1-1-.4-1-.6,0-1.1.9-1.1,1.9a3.5,3.5,0,0,1-1,2.6,1.1,1.1,0,0,0-.5,1.5c.3.5-.5,1-1.7,1.2-1.3.2,4.3.3,12.4.3,8,0,14.9-.3,15.3-.7s.3-2.1-.3-3.7c-.9-2.5-.8-3.1.4-3.1,1.3,0,1.9,1.8,1.5,4.7-.3,2.1,2.4,1.5,11.6-2.5,9.5-4,17.9-9.6,18.8-12.5a3.2,3.2,0,0,1,2.7-1.7c2.1,0,2.1.1-.3,2.6-3.6,3.9-15.3,11.4-21.1,13.5-6.2,2.2-6.2,2.3-4.9,4.6.6,1,1.1,1.4,1.1.8,0-.5,1,1.1,2.3,3.5,2.3,4.6,2.4,7,.3,7-2.6,0-5.6-4.6-5.9-8.9-.2-3.7-.4-4.1-2.2-3.6-5.7,1.7-15.9,2.5-23.6,1.9l-8.5-.6.4,3.8c.3,2.8,0,4.1-1.4,5.1-2.3,1.7-3.4,1.7-3.4-.2,0-.9-.6-1.2-1.5-.9-1.8.7-1.8.1-.1-4.6,1.6-4.3,2.9-4.5,3.8-.5l.7,3-.2-2.9c-.2-2.7-.7-3-6.4-4.6a39.9,39.9,0,0,1-8.7-3.3c-3.1-2.1-4.2-2.2-2.6-.2.8.9.9,2.5.4,4.2a13.516,13.516,0,0,0-.6,3.5c.1.5-.2.8-.7.8s-1.1.9-1.4,2c-.6,2.4-3.2,2.7-4.1.4-.8-2,.2-3.6,1.6-2.8.7.4.8.2.4-.4s0-2.5.9-4.1a17.315,17.315,0,0,0,1.5-3.9c0-.6-2.4-2.2-5.2-3.7a52.919,52.919,0,0,1-6.8-4,21.506,21.506,0,0,0-3.7-2.4c-1.9-1-2.4-.7-4,1.9-1,1.7-2.6,3-3.7,3-1.7,0-1.5-.5,1.4-3.5l3.3-3.4-8.4-8.8C83.9-62,78.4-70.2,76-77.4l-1.1-3.3-3.7,1.8c-4.4,2.1-8.6,2.8-8.9,1.4-.1-.6,2.4-1.7,5.5-2.5,4.4-1.2,5.7-1.9,5.7-3.4a2.657,2.657,0,0,0-1.3-2.4c-.8-.2-1,.2-.5,1.4.4,1.2.3,1.5-.5,1-.7-.4-1.2-.3-1.2.2,0,1.1-9.9,1.2-10.6.1-.2-.5.8-1.1,2.3-1.5C70.1-86.5,72-87.2,72-88.5c0-1.2-.5-1.2-2.5-.3-2.7,1.2-4.1.6-3-1.2a1.96,1.96,0,0,1,2.2-.6c2.3.9,3.4-.3,2.3-2.4-.8-1.5-1.8-1.7-5-1.3-2.5.4-4,.2-4-.5,0-.6,1.9-1.2,4.3-1.4,4-.3,4.2-.5,4.5-3.6s.1-3.3-2.2-3c-1.4.2-2.4-.2-2.3-.7.1-.6,1.2-.9,2.5-.7,2.2.3,2.9-1.2,1.4-3.5-.4-.6-3.4-1.3-6.6-1.5-3.9-.2-6.1-.8-6.4-1.6-.3-1,.6-1.3,3.4-1.2a37.351,37.351,0,0,0,4.9,0,13.821,13.821,0,0,1,2.9,0c2.2.2,3.6-1.6,3.6-4.7,0-1.8-.7-2.3-4.5-2.9-2.5-.3-4.5-1.1-4.5-1.6,0-1,5.2-.4,8.6.9.8.3,1.4,0,1.4-.5,0-.6-1.6-1.4-3.5-1.8-1.9-.3-3.5-1-3.5-1.5,0-1.3,1.5-1.1,5.4.5,3.1,1.3,3.3,1.3,2.9-.4-.3-1.1-1.8-2.2-3.4-2.5-1.6-.4-3.2-1.1-3.5-1.7-.7-1,2.1-.7,5.8.7,1,.4,2.2-1.1,3.8-4.5,1.9-4,2.7-4.9,4.2-4.4,1,.3,1.8,0,1.8-.6s-.4-.9-.9-.5c-2.5,1.5-1.8-2,1.4-6.6,3.9-5.7,4.4-7.5,1.8-6.4-3.4,1.4-6.2,1.3-6.7-.2-.5-1.1-.1-1.3,1.7-.8,1.9.5,1.9.4-.5-1.1-3.1-2.1-5.2-6-3.7-6.9,1.1-.7,6.9,1.6,6.9,2.7,0,.4.7.5,1.6.1,1.1-.4,1.2-.9.5-1.6-1.5-1.5-1.4-2.7.4-2.7s6.6,5.1,5.8,6.3c-.3.5-1,.4-1.6-.2-1.3-1.3-4.7-1.5-4.7-.2,0,.5.9,1.3,2,1.6,1.1.4,1.8,1.1,1.5,1.6-.4.5-.1.9.5.9s.8.4.5,1c-1,1.6.1,1.1,1.6-.7,1-1.1,1-1.4.2-.9-2.3,1.3-1.4-1.1,1-2.7l2.2-1.5-5.2-5.4c-2.9-2.9-5.3-5.7-5.3-6.1,0-1.5,4-.6,4.9,1.1a18.89,18.89,0,0,0,4.5,4.5l3.4,2.6,7.7-5a125.9,125.9,0,0,1,14.2-8c5.6-2.6,6.2-3.2,5.3-4.9-1.3-2.3-1.3-3,0-3,.5,0,1.2,1.1,1.6,2.4.8,3.5,4.6,2.4,4.2-1.3-.2-1.4.2-2.7.7-2.9.6-.1,1.1.8,1.3,2.2.3,2.3.6,2.4,7.4,2.3,3.9-.1,6.4-.3,5.5-.5-1.3-.3-1.7-1.4-1.7-4.8,0-2.5-.5-4.4-1.1-4.4-.7,0-.8,1.1-.4,3,.4,1.6.3,3.5-.2,4.2-.5.8-1-.1-1.4-2.7-.8-4.6-.2-6.8,1.6-6.1.8.3,1.6-.3,2-1.2C144.5-192.4,145.7-189.7,145.8-184.5Zm20.6-5.6c.3.4.1,2.1-.4,3.7a44.467,44.467,0,0,0-1.4,5.5c-.3,1.5-1.2,2.6-2.2,2.6-1.2,0-1.4-.7-1-2.6.4-1.4.9-4.3,1.3-6.4C163.2-190.7,165.1-192.2,166.4-190.1Zm5.8,8.1a9.7,9.7,0,0,0-1.2,3.5c0,.8-.5,1.5-1.1,1.5-.8,0-.9-1.2-.4-3.7.9-4.8,1.5-5.7,2.8-4.4C173.2-184.2,173.1-183.4,172.2-182Zm12.3-2c.7,1.2-1.9,5.3-2.8,4.4-.3-.3-.3.5-.1,1.8l.5,2.3-1.4-2.4c-.8-1.4-1.7-1.9-2.1-1.3a1.1,1.1,0,0,0,.6,1.5c1,.3.8.9-.4,2.3-1.7,1.8-1.8,1.8-1.8-.1,0-1.7-.2-1.8-1.1-.5-.8,1.1-.9.8-.4-1.5.7-3.1,3.5-7,3.5-4.7,0,2,1.7,1.4,2.3-.8C181.8-185.1,183.5-185.6,184.5-184ZM137-182.1c1.4,2.6,1.3,4.2-.2,3.8-2.2-.4-3.8-5.7-1.8-5.7C135.5-184,136.4-183.1,137-182.1Zm-23.4.8a31.572,31.572,0,0,0,2,4.5c1.8,3.3,1.8,3.9-.1,3.2-1.1-.5-1.3-.2-.9,1,.7,1.9-.7,2.1-2.4.4a1.537,1.537,0,0,1-.2-2.3c.7-.8.4-1.9-1-3.5-2.1-2.5-2.4-3.3-1.3-4.3A2.332,2.332,0,0,1,113.6-181.3Zm7.2,4.4c.4,4-1.3,3-2.4-1.5-.5-2.2-.4-2.8.7-2.4C119.9-180.6,120.6-178.8,120.8-176.9Zm66.2-1.9c-.1,2.5-3.7,6.1-5.4,5.5a2.475,2.475,0,0,1-1.6-1.9c0-1,.2-1,.9,0,.6,1,1.1.6,1.9-1.7C183.9-179.9,187-181.3,187-178.8Zm9.3.4c.8.9-5.5,9.3-7,9.4-1.8,0-1.6-.7,1.2-4.4,1.4-1.8,2.5-3.8,2.5-4.4C193-179.1,195.2-179.4,196.3-178.4Zm-90.1,2.1c2.7,3.1,4.1,6.4,3.1,7.4s-6.3-6-6.3-8.1C103-178.5,104.5-178.2,106.2-176.3Zm-4.9,1a23.493,23.493,0,0,0,2.6,4.8c1.2,1.9,1.7,3.5,1.2,4.4-.6.9-1.5.2-3.2-2.6a39.707,39.707,0,0,0-3.6-5.1c-1.8-1.9-1.6-3.2.6-3.2A2.745,2.745,0,0,1,101.3-175.3Zm.7,8.8c0,.8-.4,1.5-1,1.5-.5,0-1-.7-1-1.5s.5-1.5,1-1.5C101.6-168,102-167.3,102-166.5Zm102,1.3c0,1.3-3.6,4.3-4.3,3.6-.9-.9,1.6-4.4,3-4.4C203.4-166,204-165.6,204-165.2Zm-17,3.3c0,.5-.7.9-1.5.9a13.47,13.47,0,0,0-2.2.1,1.4,1.4,0,0,1-1.1-.9c-.1-.5.9-1,2.3-1S187-162.4,187-161.9Zm31,5.9c0,1.1-.5,2-1.2,2a5.942,5.942,0,0,0-2.8,1.5,3.263,3.263,0,0,1-5.4-1c-.3-.8.8-1.9,2.7-2.9C215.7-158.6,218-158.4,218-156Zm-47.9,6.3c-.6.8-.7,1.8-.3,2.2.4.5.1.5-.6.1-1-.6-1-1.1-.1-2.2a4.145,4.145,0,0,1,1.6-1.4C171-151,170.7-150.4,170.1-149.7Zm53.7.6c.2.7-.5,1.5-1.7,1.8a2.626,2.626,0,0,0-2.1,2.2c0,1.4-.2,1.4-1,.1-.9-1.3-1.4-.7-1.1,1.2,0,.4-.6.5-1.4.2-2.1-.8-1.4-2.5,2-5C221.7-151,223.1-151.1,223.8-149.1ZM85-148c0,.5-.2,1-.4,1-.3,0-.8-.5-1.1-1-.3-.6-.1-1,.4-1A1.028,1.028,0,0,1,85-148Zm-4.7,6.5a1.551,1.551,0,0,1-2.1.8c-1.3-.5-1.4-.3-.5.7,1.3,1.4.6,4.3-.8,3.4a1.129,1.129,0,0,1-.4-1.5c.4-.5.1-.9-.5-.9-.7,0-.9-.8-.5-1.9.4-1.4-.1-2.1-2.5-2.9-2.9-1-3.7-2.2-2.4-3.4C71.7-148.3,80.9-142.9,80.3-141.5Zm3.2-4.5c.3.5.2,1-.4,1a2.335,2.335,0,0,1-1.6-1c-.3-.6-.2-1,.4-1A2.039,2.039,0,0,1,83.5-146ZM230-144.9c0,1.5-.5,1.9-1.5,1.5-.8-.3-1.5-.1-1.5.3,0,.5.7,1.2,1.6,1.5,1.3.5,1.4.9.4,2.1-.7.8-1.5,1.3-1.9,1.1-.3-.2-1.7.2-3.1.9-2.3,1.2-2.6,1.1-4.2-1.3l-1.7-2.6,4.7-2.7C228.5-147.5,230-147.6,230-144.9ZM73.9-135.4c1.7.8,2.9,1.9,2.6,2.4-.7,1.1-6.8-1.4-7.3-2.9S70.1-137.3,73.9-135.4Zm119.5,1.5a1.019,1.019,0,0,1-1.5.3,1.019,1.019,0,0,1-.3-1.5,1.019,1.019,0,0,1,1.5-.3A1.019,1.019,0,0,1,193.4-133.9Zm36,3.7c-.7,2.5-3.6,2.9-5.3.8-1-1.2-.7-1.7,1.6-3C229-134.1,230.2-133.4,229.4-130.2ZM233-124c0,1.4-2.4,2.2-5.2,1.8l-2.3-.5,2.5-1.1C231.2-125.2,233-125.3,233-124ZM70.5-115.9c.5.5-.5.9-2.8.9-2.7,0-3.7-.4-3.7-1.6,0-1.3.6-1.5,2.8-.9A9.928,9.928,0,0,1,70.5-115.9ZM242-113.5c0,2.1-2.3,3.2-7.7,3.7-3.9.4-5.3.1-5.8-.9-1-2.8-.5-3.3,3.3-3.4a21.037,21.037,0,0,0,5.7-.8C239.9-115.9,242-115.2,242-113.5Zm-3.7,20.4c1.8,1.8.1,2.3-5.2,1.6-3.6-.5-5.1-1.1-5.1-2.2,0-1.3.9-1.5,4.6-1C235.1-94.5,237.7-93.7,238.3-93.1ZM74.4-76.7c-.3.9-2,1.9-3.7,2.3a12.759,12.759,0,0,0-4.4,1.6c-1.2,1-3.3.3-3.3-1.1,0-.4,2.2-1.3,5-2,2.7-.7,5.3-1.7,5.6-2.3C74.5-79.6,75.1-78.5,74.4-76.7ZM229-73.4c0,1.5-1.4,1.7-4.4.5-1.7-.7-1.8-.8-.1-2.4,1.3-1.4,2-1.5,3.1-.6A3.783,3.783,0,0,1,229-73.4ZM75.9-66.9c-2.6,2-4.9,2.4-4.9.9,0-.5,1.5-1.7,3.3-2.5,1.7-.8,2.2-1.2,1-.9-1.3.3-2.3.1-2.3-.5,0-1.6,3.4-1.8,4.4-.3C78-69.1,77.6-68.2,75.9-66.9ZM225-64.7c4.8,2.5,6,4.4,3.6,5.3-1,.4-3.4-.5-5.9-2.2-2.3-1.5-3.6-2.9-2.9-3.2.7-.2,1-.8.6-1.3C219.6-67.4,220.2-67.2,225-64.7Zm-3,5.1c0,1-2.8.7-3.5-.4-1.1-1.8.5-3.1,2.1-1.6A5.085,5.085,0,0,1,222-59.6Zm-15,0c0,.3-.4.8-1,1.1-.5.3-1,.1-1-.4a1.1,1.1,0,0,1,1-1.1C206.6-60,207-59.8,207-59.6ZM85.5-57c-.3.5.1,1,1,1s1.3.4,1,1A1.85,1.85,0,0,1,84-56c0-1.1.5-2,1.1-2C85.6-58,85.8-57.6,85.5-57Zm135.6,3c3.2,3,4,4.3,3.2,5.1-.9.9-1.9.5-4.2-1.7-1.7-1.6-3.1-3.5-3.1-4.1,0-.7-.4-1.3-1-1.3a.665.665,0,0,0-.7.9.779.779,0,0,1-.5,1c-.8.1-.8-.6-.1-2.7C215.5-58.7,216.5-58.3,221.1-54ZM91.5-50.9c.9,1.3-2.3,4.9-4.4,4.9-1.4-.1-1.4-.2.1-1.4,1-.7,1.5-1.6,1.2-1.9-.8-.7.4-2.7,1.6-2.7A2.018,2.018,0,0,1,91.5-50.9Zm105,4.9c0,1.8-1.5,3-7.4,6.1-4,2.2-7.9,3.9-8.5,3.9s-.3-.5.7-1.1a3.366,3.366,0,0,0,1.7-2.3c0-.7,2.2-2.7,5-4.5a44.329,44.329,0,0,0,5.6-4.2C194.6-49.8,196.5-48.5,196.5-46Zm8.3,3.2c1.4,1.4,1.6,2.8.2,2.8-.5,0-1.4-.9-2-2C201.8-44.2,202.9-44.7,204.8-42.8Zm-2,6.8c3.4,4.1,4,6,1.9,6-1.5,0-7.8-8.5-7-9.4C198.8-40.5,199.5-40,202.8-36ZM107-33.9c-1.9,3.6-5,5.4-5,2.8,0-1.6,5.3-7.8,6.2-7.3C108.6-38.1,108.1-36.1,107-33.9Zm5.1.2c-1.3,1.3-2.6.3-1.6-1.2a1.282,1.282,0,0,1,1.7-.5C112.8-35,112.8-34.4,112.1-33.7Zm2.8,1.9c-1.8,3.5-3,4.8-4,4.2s3-6.4,4.3-6.4C115.7-34,115.5-33,114.9-31.8Zm78.4,1c1.2,2.1,1.5,3.4.8,4.1s-1.4.1-2.1-1.9c-.8-2-1.3-2.5-1.9-1.5-1.1,1.7-2.5-.4-1.7-2.4C189.3-34.9,191.4-34.2,193.3-30.8Zm-40.6-.6a2.026,2.026,0,0,1-1.9.1c-.8-.3-.5-.6.6-.6C152.5-32,153.1-31.7,152.7-31.4Zm-27,2.2c1.4-1.1,1.5-1,.8,1.2-.7,2.5-.7,2.5,1,.5,1.5-1.8,1.6-1.8,1.1-.2a14.6,14.6,0,0,0-.6,2.6c0,.5-1,.7-2.2.6-2-.2-2.3.2-2.5,3.3-.2,4.1-1.5,5.7-3.8,4.8-1.6-.6-1.6-.8-.2-2.9a33.788,33.788,0,0,0,2.8-6.7c.7-2.3,1.5-3.8,1.7-3.1C124.1-28.2,124.6-28.2,125.7-29.2Zm56.3-.4c0,.2.7,2,1.5,4,1.3,3.1,1.3,3.6.1,3.6-.8,0-1.9-1.4-2.5-3.1-1.4-3.9-1.4-4.9-.1-4.9C181.6-30,182-29.8,182-29.6Zm-10.5,6.8c.5,1.8.3,2.8-.4,2.8a1.23,1.23,0,0,1-1.1-1.3,27.117,27.117,0,0,0-.6-3.7c-.5-1.7-.4-2.2.4-1.5A7.976,7.976,0,0,1,171.5-22.8Zm-22.7-1.7c2.1-.4,2.2-.1,2.1,6.5-.1,4.8-.5,7-1.5,7.4a1.606,1.606,0,0,1-1.9-.4c-.3-.5-1.3-.6-2.2-.3-1.4.5-1.5.1-1-3.3a51.557,51.557,0,0,0,.7-7.9c0-2.3.4-3.5.8-2.8A2.925,2.925,0,0,0,148.8-24.5Zm18.3,3.3a1.8,1.8,0,0,0-1.1,1.7,3.586,3.586,0,0,1-1.4,2.4c-1.8,1.5-3.2-.4-3.4-4.9-.2-3.3-.1-3.4,1.3-1.6,1.5,2,1.5,2,1.5,0,0-1.6.2-1.7,1-.4.8,1.2,1,1.2,1-.5.1-1.7.3-1.6,1.1.5C167.8-22.3,167.8-21.4,167.1-21.2Z" fill="#fff"/><path d="M136.5-174.9c-5,1.2-6.9,2.9-3.3,2.9,1.5,0,2.9-.4,3.2-.9.7-1.1,10.6-1,10.6.1,0,.4-1,.8-2.2.8-2.2.1-2.2.1-.4,1.5,1.1.8,1.6,1.8,1.1,2.2-.4.5-1,.2-1.2-.5-.6-1.5-6.3-4.6-7.1-3.8-.3.3,0,.6.7.6s.9.5.5,1.2c-.5.8-.2.9.9.5,2-.7,2-.6.8,2.6l-.9,2.4,4-1.4c4.2-1.4,5.5-1.2,4.3.7a2.351,2.351,0,0,1-2.6.7c-1.1-.3-1.6-.1-1.3.5.3.5,1.8.7,3.1.3,2.1-.5,2.4-.3,1.9,1.1-.5,1.2-.2,1.5,1,1a9.87,9.87,0,0,1,2.5-.6c.6,0,.7-.5.4-1-1-1.7,1.2-1.1,2.6.7,1.2,1.5,1.2,1.6-.3,1-1-.3-1.8-.2-1.8.4s-.6.7-1.2.3c-1-.5-1-.4-.1.6,2.5,2.7,6.3-1.7,6.3-7.4a2.763,2.763,0,0,0-2.2-3c-3.4-.9-4.8-.7-4.8.5,0,.6.6.9,1.2.7a2.574,2.574,0,0,1,2.5.8c1.7,1.6,1.7,4.7.1,4.1a1.694,1.694,0,0,1-1-2c.2-1.1-.2-1.5-1.3-1.1a2.391,2.391,0,0,0-1.5,2,1.266,1.266,0,0,1-1.1,1.4c-.6,0-.9-.7-.5-1.5.3-.8,0-1.5-.6-1.5s-.8-.3-.5-.7c.4-.3.2-1.2-.4-2-.6-.7-.7-1.3-.2-1.3s.9-.9,1-2c.2-1.7-.4-2-4-1.9A55.67,55.67,0,0,0,136.5-174.9Z" fill="#fff"/><path d="M126.6-173.4a1.589,1.589,0,0,1-2.1,1c-.8-.3-1.5-.1-1.5.3,0,.5-1.2,1.4-2.7,1.9a17.12,17.12,0,0,0-4.8,2.7c-2,1.6-2,1.6,0,.7a7.882,7.882,0,0,1,2.8-1c2.7-.1,6.7-1.5,6.7-2.4,0-1.4,5.2,0,6.6,1.8,1,1.3,1.2,1.3,1.8-.1.3-.9,0-1.5-.9-1.5-.8,0-1.7-1.1-2.1-2.5C129.7-175.3,127.5-175.8,126.6-173.4Z" fill="#fff"/><path d="M133.7-165.2c-2.1,7.3-2.2,6.9,1.2,6.4,1.9-.3,3.1-1.1,3.5-2.6.4-1.3.9-1.7,1.3-1,1.1,1.5,5.7,3.9,4.9,2.5-.4-.6,0-1.1.9-1.1,1.2,0,1.4.4.6,1.9-.9,1.5-1.9,1.8-5.8,1.5l-4.8-.3,4,.8c2.2.5,5.6,1.1,7.5,1.4,1.9.4,4.9.9,6.6,1.2,2.3.4,3.1.2,3.1-1,0-1.1-.4-1.2-1.4-.4-1,.9-1.3.8-1.3-.2a3.983,3.983,0,0,0-2.1-2.7c-1.8-1.1-2.3-1.1-3.5.5-1.4,1.7-1.5,1.7-.9-.3.6-2.4-2.5-5.9-3.2-3.7-.7,2-2.3,1.5-2.3-.6,0-1.8-.3-1.9-2.9-1-2,.7-2.8,1.5-2.4,2.5.3.8,0,1.4-.5,1.4-1.7,0-2.5-4.1-1.2-5.4,1-.8,1.1-.8.6.1-.4.7-.2,1.3.5,1.3.6,0,.9-.8.6-1.9-.3-1.4-.1-1.8.9-1.4.8.3,1.4.2,1.4-.2,0-.7-2.6-3.5-3.2-3.5C135.6-171,134.7-168.4,133.7-165.2Zm18.8,8.2c.3.5-.1,1-.9,1-.9,0-1.6-.5-1.6-1a.923.923,0,0,1,.9-1A1.9,1.9,0,0,1,152.5-157Z" fill="#fff"/><path d="M159.7-167a2.715,2.715,0,0,0,.3,2.5c1.1.7,3.2-3,2.3-3.9C161.2-169.5,160.2-169,159.7-167Z" fill="#fff"/><path d="M120.2-166.7a3.889,3.889,0,0,0-2.2,2.9c0,1.1-.5,1.6-1.1,1.3a1.864,1.864,0,0,1-.6-2c.4-.8-.5-1.2-2.4-1.3-3.3-.1-4.8,1.6-2.8,2.9,1,.7.6.8-1.2.4-2.2-.5-3.5.2-7.8,4.4-2.8,2.7-5.1,4.7-5.1,4.4s-.9.2-2,1.2c-1.2,1-1.9,2.4-1.6,3.1.2.6-.3,2.2-1.1,3.4-1.5,2.1-1.5,2.2.7,1,1.8-.9,2.5-.9,4,.5,1.8,1.6,1.9,1.5,2.5-1.9.5-2.6,1.2-3.6,2.6-3.6,1.1,0,1.9-.4,1.9-.9,0-1.6-4,.1-5.1,2.1-.9,1.6-1.3,1.7-2.2.8-.9-1-.9-1.4.1-1.7.6-.3,1-.9.6-1.4-.3-.5.8-.9,2.5-.9,3.6,0,6.3-3.5,3.3-4.3-1.3-.4-1.1-.5.6-.6,1.3-.1,2.2.5,2.2,1.4,0,.8.5,1.5,1,1.5.7,0,.7-.7,0-2a4.028,4.028,0,0,1-.4-3.3c.5-.7-.1-.5-1.2.3-1.8,1.4-1.8,1.4-.5-.2,1.3-1.8,3.6-1.5,2.6.3-1,1.5,3.2,1,4.5-.6,1.4-1.7,5.6-2,6.5-.5.8,1.3,4.5,1.3,4.5.1a2.215,2.215,0,0,0-1.2-1.7c-.7-.4-.8-.3-.4.4s.3,1.2-.3,1.2c-1.2,0-2.4-3.6-1.6-4.9.8-1.4,3.5-.2,3.5,1.5a3.174,3.174,0,0,0,1.9,2.3c2.3,1.3,6.3,7.9,5.1,8.6-.4.3-1.1-.1-1.4-.7-.3-.7-.3-.2,0,1.1.4,1.5.2,2.1-.5,1.7-.7-.5-.7.3.1,2.6q2.1,6.45,1.8,1.8c-.5-5.4-.1-6,3.3-6.1,3-.1,3-.2.7-.8l-2.5-.7,2.5-.7c1.4-.3,2.7-.2,2.8.3.2.6,1.2,1,2.3,1,1,0,1.9.4,1.9,1,0,.5.7.6,1.7.3,1.2-.5,1.4-.3.8.7s-.3,1.2,1.3.8c1.2-.4,2.5-.2,2.8.3,1.1,1.8,2.5.8,2-1.4-.3-1.2-.3-1.6,0-1,.8,1.8,2.4,1.6,2.4-.3,0-1.3-.7-1.5-3-1-1.7.3-2.9.2-2.6-.3s-1-1.1-2.9-1.3c-2-.2-3.5,0-3.5.7,0,.6-.3.6-.8-.1-1.1-1.6-8.2-2.6-8.2-1.1,0,.7-.4.6-1-.3-1.3-2-1.2-3.3.1-2.4.7.4,1,.1.7-.7a1.7,1.7,0,0,0-1.9-1.1c-.8.2-1.1.1-.8-.3.4-.3-.4-1.7-1.8-3.1-1.3-1.3-2.2-2.8-1.9-3.2C125.1-168,122.9-167.9,120.2-166.7Z" fill="#fff"/><path d="M162-163c0,.5.7.7,1.5.4.8-.4,1.5-.8,1.5-1s-.7-.4-1.5-.4S162-163.6,162-163Z" fill="#fff"/><path d="M191.7-161.4c-1.8,2.5-1,3.3,1.1,1.2,1.5-1.5,2.4-.6,1.6,1.6a1.784,1.784,0,0,1-2.5,1.1c-1.1-.4-1.9-.2-1.9.4s.8,1.1,1.8,1.1a4.235,4.235,0,0,1,3,2.1c.8,1.2.9,1.9.4,1.5-.5-.3-1.7,0-2.6.7-1.5,1.1-1.3,1.6,1.9,4.7,2,1.9,3.4,2.8,3,2-.6-1.6,3.3-5.7,5.7-6.1,2.8-.3,3.5.2,3.5,2.8a14.616,14.616,0,0,0,.8,4.6c.7,1.7.8,1.7,2,0,1.3-1.7,1.4-1.6,2.3.7.5,1.4.7,2.7.3,3-1.7,1.4-.8,2.9,1.9,2.8,1.8-.1,2.7-.5,2.3-1.2-3.9-6.6-5.5-8.6-6.6-8-.7.4-.9.4-.5-.1,1.1-1.2-2.4-5.6-9.4-11.7l-6.3-5.5Zm5.8,4.5c-.4.5.3.9,1.4.9,1.2,0,2.1.4,2.1,1s-.9.6-2.5,0c-1.4-.5-2.5-.7-2.5-.4s-.5.2-1-.1c-.8-.5-.7-1.1.1-2.1C196.3-159.1,198.4-158.5,197.5-156.9Zm1.8,7c-2.1,2.2-3,2.6-4.1,1.6-1.2-.9-1-1.5,1.2-3.4,1.4-1.2,3.3-2,4.1-1.7C201.7-152.9,201.4-152.2,199.3-149.9Z" fill="#fff"/><path d="M160.3-161.2c.6,2.7-2,4.3-3.3,2.1-.5-.7-1.2-1-1.7-.5-.4.4,0,1.2.9,1.7a2.7,2.7,0,0,1,1.3,2.7c-.2,1.1.3,1.9,1.1,1.9s1.3-.6,1-1.2a3.385,3.385,0,0,1,.3-2.4c.6-.9,1.6-.3,3.4,1.8,2.5,3.1,4.7,4,4.7,2.1,0-.5-1.6-2-3.6-3.4-1.9-1.3-3.1-2.5-2.5-2.7.5-.2.3-1.2-.6-2.4C159.8-163.5,159.8-163.5,160.3-161.2Z" fill="#fff"/><path d="M163.3-160.1c0,1.1.5,1.7.9,1.5,1.1-.7,1-3.4-.1-3.4C163.5-162,163.2-161.1,163.3-160.1Z" fill="#fff"/><path d="M165.7-159.7a3.647,3.647,0,0,0,.8,3c1.2,1.7,3.1,2.4,2.1.8-.4-.5.3-.7,1.4-.4,2.8.7,2.5-.2-.9-2.6C166.9-160.5,166.1-160.7,165.7-159.7Z" fill="#fff"/><path d="M114-157.9c0,.5.5.7,1,.4.6-.3,1-.8,1-1.1,0-.2-.4-.4-1-.4A1.1,1.1,0,0,0,114-157.9Z" fill="#fff"/><path d="M125.2-158.1c-1,.6-1,1,.3,2.1,1.9,1.5,2.5,1.1,1.6-1.2C126.7-158.3,126-158.6,125.2-158.1Z" fill="#fff"/><path d="M120-157c0,.5.8,1.4,1.8,2,1.5,1,1.5,1.1-.3.7a4.185,4.185,0,0,0-3.3.9c-1.5,1.6-4.1.8-6.3-1.9-1.6-1.9-1.6-1.9-2.2.2-.4,1.7,0,2.4,2,3.2,1.3.5,2.8.7,3.3.4.4-.3,1,.1,1.3.8.6,1.5,6.7,2.2,6.7.7,0-.5-1.2-1-2.7-1.1-2.5,0-2.6-.1-.8-.9,3.9-1.7,5.8-1.2,5.3,1.3-.3,1.3,0,2.4.6,2.4s1.1-1.3,1.2-2.9c.1-1.5-.4-2.8-1-2.8s-1.7-.9-2.4-2C121.9-158.1,120-158.7,120-157Z" fill="#fff"/><path d="M79-156.1a1.9,1.9,0,0,0,1,1.6c.6.3.7-.1.4-.9C79.7-157.2,79-157.5,79-156.1Z" fill="#fff"/><path d="M161-154c0,1.3.5,1.8,1.5,1.4,1.2-.5,1.3-1,.4-2C161.4-156.5,161-156.4,161-154Z" fill="#fff"/><path d="M82.5-153a2.335,2.335,0,0,0,1.6,1c.6,0,.7-.5.4-1a2.039,2.039,0,0,0-1.6-1C82.3-154,82.2-153.6,82.5-153Z" fill="#fff"/><path d="M150.9-147.5c-1.5,3.2-2.2,5.8-1.7,6.3s2.9.7,5.3.5c3.4-.4,4.7-.1,6.4,1.6,2.2,2.2,5.1,2.8,5.1,1.2,0-.5-1.6-1.5-3.5-2.2-3.4-1.2-3.4-1.4-3.2-6.6.2-3.1-.2-5.3-.8-5.3-.5,0-1.9-.3-3-.5C153.9-152.9,153-152,150.9-147.5Zm5.3-2.7a.939.939,0,0,0-.6,1.4c.4.7.2.8-.4.4-.7-.4-1.2-.2-1.2.3,0,.6.9,1.1,2,1.1,1.5,0,2,.6,1.9,2.7-.1,1.7-.3,2.1-.6,1-.6-2.1-2.9-2.2-3.7-.1-.3.8-1.1,1.2-1.6.9-.8-.5-.8-1.1,0-2,.6-.7,1-1.7.8-2.1-.4-1.5,2.5-5.3,3.6-4.7C157-150.9,156.9-150.5,156.2-150.2Z" fill="#fff"/><path d="M108.3-150.6c1.4,1.1,1.5,1.5.5,1.9-.8.4-.7.6.5.6.9.1,1.7.6,1.7,1.2s-.7.8-1.6.5a10.347,10.347,0,0,0-2.4-.6c-.5,0-1.1-.8-1.3-1.8-.3-.9-.5,0-.6,2.1-.1,2.4.3,3.6.9,3.2a1.17,1.17,0,0,0,.6-1.4c-.3-.4.1-.8.8-.8,1.5,0,1,2.7-.7,3.8-.5.4-.2,1.9.7,3.5,1,2,1.5,2.4,1.6,1.1a1.655,1.655,0,0,1,1.5-1.7c1.2,0,1.4.4.5,1.9-1.6,3-3.1,3.5-3.7,1.2-.6-2.4-2-2.8-2-.6,0,.8.4,1.5.8,1.5.5,0,.6.6.3,1.3-.5,1.4-4.2,1.7-6.1.4a2.4,2.4,0,0,0-2.3-.2c-.5.3-1-.1-1-1s.4-1.4.9-1.1c.8.5,2.1-1.4,2.6-3.9.6-3.1,1.8-5.4,2.6-4.9,1,.6,1.2-.7.3-3-.7-1.9-2.6-2.2-2.3-.4.3,1.6-1.4,5.9-4.6,11.9L94-131.2l3.2-.2c2.9-.1,3.3.2,3.6,2.7.3,2.8.4,2.8,2.3,1.1,1.5-1.4,1.7-2,.7-3.3s-1-1.4.2-.4c1.1,1,1.8.9,3.7-.9,2.2-2.1,2.4-2.1,4-.5,1.1,1.1,1.3,1.7.5,1.7a1.135,1.135,0,0,0-1.2,1.1c0,.6.7.8,1.6.5,1.4-.5,1.5-.4.5.8a2.474,2.474,0,0,0-.6,2.6c.3.5-.3,2.3-1.4,3.9-2.3,3.2-1.9,7,.4,5.1a4.574,4.574,0,0,0,1.5-2.8c0-.9.2-3.2.3-5,.1-1.7.5-3.2.8-3.2,1.2,0,1.6-6.5.6-9a27.205,27.205,0,0,1-1.2-4c-.3-3.1-2.8-9.5-3.9-10.2C107.6-152.6,106.5-152,108.3-150.6Zm3.3,8.1a1.293,1.293,0,0,0,.7,1.8c.7.2-.3.4-2.1.5-1.8,0-3-.4-2.7-.9a2.991,2.991,0,0,1,2.2-.9c1,0,1.3-.6.9-1.6-.3-.9-.2-1.2.5-.9A1.674,1.674,0,0,1,111.6-142.5Zm2.4,5.4a1.9,1.9,0,0,1-1,1.6c-.5.3-1-.1-1-.9,0-.9.5-1.6,1-1.6A.923.923,0,0,1,114-137.1Z" fill="#fff"/><path d="M131.8-150.4c-1.1,1.1-1,9.4.1,9.4a1.655,1.655,0,0,0,1.3-1c.2-.6.9-.1,1.6,1,1.2,1.9,1.1,2-1.5,1.4-2.3-.4-2.5-.3-1.3.6,1.1.9,1.2,1.3.2,1.7a1.073,1.073,0,0,0-.5,1.6c.5.8.2.8-.8,0s-1.4-2.3-1.1-4.3l.4-3.1-3.6,2.2c-2,1.1-3.3,2.5-3,3a.552.552,0,0,1-.5.9c-.6,0-1.1,1.3-1.1,3,0,4.2-1.8,3.7-2.6-.7-.6-3.1-.8-3.4-1.4-1.8-.4,1.1-.4,2.2.1,2.5a8.377,8.377,0,0,1,1.5,3.4c.6,2.4.8,2.6,1.6,1.2.8-1.3,1.3-1.5,2.4-.5a2.2,2.2,0,0,1,.8,2.3c-.3.6.5-.1,1.8-1.7,1.8-2,2.7-2.4,3.5-1.6s2.1.4,4.7-1.6a20.319,20.319,0,0,0,3.6-3.1c0-1.1-1.8-.1-4.3,2.2-1.6,1.4-3.1,2.3-3.5,2-1.3-1.3,5.8-6.9,10.9-8.6,3.9-1.3,5.9-2.7,7.2-4.9,1.7-2.7,1.7-3.1.3-3.1a1.58,1.58,0,0,0-1.6,1.6c0,1.3-.4,1.1-1.8-.6-1.6-2-1.9-2.1-2.5-.7-.4,1.1-.1,1.7.8,1.7,2.1,0,1.9,1.4-.5,3.5-1.7,1.6-2,1.6-2,.2a2.316,2.316,0,0,1,1.8-2c1.2-.3,1-.5-.7-.6-2-.1-2.2-.3-1.1-1.6.8-1,1-1.9.4-2.5C140.2-150.2,132.7-151.3,131.8-150.4Zm6.2,3.3a3.5,3.5,0,0,0,1,2.6,2.234,2.234,0,0,1,1,1.8c-.1.7-.5.6-1.3-.4a14.287,14.287,0,0,0-3.2-2.7c-1.8-1-1.8-1.1-.2-1.2,1,0,1.5-.5,1.2-1-.3-.6-.1-1,.4-1C137.5-149,138-148.1,138-147.1Zm0,6.5c0,.6-.7.2-1.5-.8a8.14,8.14,0,0,1-1.5-3c0-.6.7-.2,1.5.8A8.141,8.141,0,0,1,138-140.6Zm-10,2.4a5.089,5.089,0,0,0,1.3,3.1c1,1.1.9,1.3-.1.7-.8-.5-1.6.3-2.3,2.3-.6,1.7-1.5,2.9-1.9,2.6-.9-.6-.8-2.4.3-4.3.5-.7.3-1.2-.3-1.2s-.8-.5-.5-1a1.276,1.276,0,0,1,1.7-.4c.6.4.8-.1.3-1.5-.4-1.2-.2-2.1.4-2.1S128-139.2,128-138.2Z" fill="#fff"/><path d="M164.3-149.5a3.071,3.071,0,0,0-.1,2.1c.3.3.8-.4,1.1-1.6C165.9-151.3,165.2-151.7,164.3-149.5Z" fill="#fff"/><path d="M186-147.8c0,1.9.4,2.8,1.3,2.5.6-.2,1.1-1.4.9-2.6-.2-2.1-.1-2.1,1.5-.6,1,1,1.2,1.9.6,2.3-2.1,1.4-1,3.7,2,3.9,1.8,0,4.1,1.3,6.1,3.2,3.5,3.4,4.9,3.9,4,1.6-.4-.8-.2-1.5.4-1.5.5,0,1.2,1.2,1.5,2.7.9,4.2,2.9,6.5,4.7,5.3,1.3-.8,1.1-1.2-.8-2.6-1.3-.9-2.1-2.2-1.8-2.9a1.293,1.293,0,0,0-.7-1.8c-.7-.2-.8-.8-.3-1.3s1.1-.4,1.3.3c.5,1.5,3.3,1.8,3.3.4,0-1.5-5.9-2.4-7.4-1.2a1.731,1.731,0,0,1-2.1.3c-.5-.4-.5-.1,0,.7.5,1,.4,1.2-.4.7-1.7-1.1-.5-2.4,3-3.1,2.4-.5,2.8-1,1.9-1.9-1-.8-1.4-.8-1.7.1-.7,2-2.3,1.5-2.3-.6a3.3,3.3,0,0,0-1.2-2.7c-.8-.5-.9.2-.5,2.4.8,3.8-.8,3.9-3.6.4-1.8-2.2-2-2.2-3.3-.5-1.2,1.6-1.3,1.6-.9-.8a4.655,4.655,0,0,0-4.1-5.5C186.5-150.8,186-149.8,186-147.8Z" fill="#fff"/><path d="M203.6-150.1c-.4.6-.2,1.1.5,1.1s.5.8-.6,2c-2.1,2.3-1.1,2.7,1.1.5a2.385,2.385,0,0,0,.6-3.1C204.6-150.7,204.1-150.9,203.6-150.1Z" fill="#fff"/><path d="M113.9-149.1c1.1.7,1.1.9,0,1.3-.8.3-1,1.1-.5,2.4.7,1.8.8,1.8,1.8.1,1.1-2.1.4-4.7-1.4-4.7C112.8-150,112.8-149.8,113.9-149.1Z" fill="#fff"/><path d="M120.1-146.1c-2,1.3-2.5,5.7-.7,6.4a2.487,2.487,0,0,0,2.6-.9,4.013,4.013,0,0,1,2.5-1.4,4.14,4.14,0,0,0,2.6-1.8c1.3-1.5,1.2-1.6-.4-.3-1.5,1.2-1.7,1.2-1.2-.2a1.606,1.606,0,0,0-.4-2.1c-.5-.4-1.2.3-1.6,1.4a2.637,2.637,0,0,1-2.2,2c-1.4,0-1.4-.3.2-2C123.4-147.1,122.6-147.7,120.1-146.1Z" fill="#fff"/><path d="M86.5-143.9c-1.1,1.7.1,2.1,1.5.4.8-.9.8-1.5.2-1.5A2.174,2.174,0,0,0,86.5-143.9Z" fill="#fff"/><path d="M103-140.5a1.538,1.538,0,0,0,1.5,1.5c.9,0,1.2-.6.9-1.5-.4-.8-1-1.5-1.5-1.5S103-141.3,103-140.5Z" fill="#fff"/><path d="M87-137.8c-2.3,3.1-4.2,7-7.5,15.9l-1.3,3.7,3.4-.1c3.3-.1,3.4-.2,3.5-4.1,0-6.6,2-10.9,5.7-12.8,3-1.4,3.1-1.7,1.3-2.3a3.477,3.477,0,0,1-2.3-2.1C89.6-140.7,88.8-140.2,87-137.8ZM84.5-128c.3.5.1,1-.4,1a1.1,1.1,0,0,1-1.1-1c0-.6.2-1,.4-1C83.7-129,84.2-128.6,84.5-128Zm-1.8,6.2c-.3.7-.5.2-.5-1.2s.2-1.9.5-1.3A5.279,5.279,0,0,1,82.7-121.8Z" fill="#fff"/><path d="M145.5-138.9c-.4.5,0,1.8.9,2.8s1.3,2.1,1,2.4c-.4.4-1.3-.1-2.1-1.1-1.4-1.6-1.4-1.6-.9.1.8,2.6-1.6,1.6-2.9-1.1-.5-1.2-1.3-2.2-1.8-2.2-.4,0-.3.9.3,1.9.7,1.4.6,2.1-.3,2.5-.8.3-.7.9.6,1.9,1.2,1,1.4,1.7.8,2.2a2.344,2.344,0,0,0-1.1,1.8c0,.7.5.4,1.1-.6,1.2-2,6.6-5,7.2-3.9.2.4.3.2.2-.3-.2-.6.4-1.6,1.1-2.3.8-.7,1.4-.9,1.4-.5,0,1.5,3.8,1.2,4.4-.2.3-1,0-1.2-1.1-.8-1,.4-1.4.2-.9-.5.4-.8-.3-.8-2.5-.2-3.6,1.1-5.3.5-4.5-1.6C147-140.2,146.4-140.5,145.5-138.9Zm-2.5,7c0,.6-.4.7-1,.4a2.335,2.335,0,0,1-1-1.6c0-.6.5-.7,1-.4A2.039,2.039,0,0,1,143-131.9Z" fill="#fff"/><path d="M175-138.8a.988.988,0,0,0,1,.8c.6,0,1,.7,1,1.5s.5,1.5,1,1.5c1.3,0,1.3-1.7,0-2.5a1.17,1.17,0,0,1-.6-1.4c.3-.4-.1-.8-.9-.8S175-139.3,175-138.8Z" fill="#fff"/><path d="M116.1-137.4c0,1.1.3,1.4.6.6a2.026,2.026,0,0,0-.1-1.9C116.3-139.1,116-138.5,116.1-137.4Z" fill="#fff"/><path d="M159.5-137a1.216,1.216,0,0,1-1.6.5c-.5-.4-.9-.1-.9.5,0,.7.6,1,1.4.7a1.554,1.554,0,0,1,2,.9,2.423,2.423,0,0,0,2.3,1.3c1.7-.1,1.7-.2.1-.6s-2.2-1.5-1.9-3.6C161.1-138.3,160.2-138.2,159.5-137Z" fill="#fff"/><path d="M197-136.3a16.759,16.759,0,0,1-.6,4c-.5,1.5-.4,1.5.5.3.8-1.2,1.2-.9,2.2,1.9,1.1,3,1.3,3.2,2,1.5,1.1-2.7,1.1-3.6-.1-2.9-.5.3-.8,0-.5-.7s-.4-2.4-1.5-3.8C197.1-138.4,197-138.4,197-136.3Z" fill="#fff"/><path d="M183.5-136a2.335,2.335,0,0,0,1.6,1c.6,0,.7-.5.4-1a2.039,2.039,0,0,0-1.6-1C183.3-137,183.2-136.6,183.5-136Z" fill="#fff"/><path d="M207-136.1c0,1.2,2.8,2.2,3.5,1.2.3-.5-.2-1.2-1.1-1.5C207.3-137.2,207-137.2,207-136.1Z" fill="#fff"/><path d="M213.9-133.5c1,1.1,1.6,2.6,1.4,3.2-.3.8.4,1.3,2,1.3,2.5,0,3.3,2.5,1,3.4a.884.884,0,0,1-1.3-.9c0-.8-.4-1.5-1-1.5a.987.987,0,0,0-1,.9c0,1.4,2.2,2.6,4.3,2.3,1.8-.3,2.4,1.4.7,2-1.3.4,1,9.1,2.7,10.1,1.8,1.1,1.6,2.7-.3,2.7-1.2,0-1.5.6-1,2.2a22.87,22.87,0,0,1,.6,4,1.793,1.793,0,0,0,1.8,1.8c1.4,0,1.4.3-.5,1.8a7.372,7.372,0,0,0-2.6,4,7.638,7.638,0,0,1-1.5,3.4c-.9.9-1.2.7-1.2-.9,0-2.9-1.5-3.7-3.1-1.5-1.3,1.5-1.2,1.6.4.3,1.5-1.2,1.7-1.1,1.7.3,0,1.3-.8,1.5-4.1,1.2-2.3-.2-4.5-.9-4.9-1.6-.5-.8-.9-.7-1.4.6-.3.9-.4,1.9-.1,2.2s.5,0,.5-.6c0-.7.9-.3,2,.8,2.2,2.2,4,2.6,4,1,0-1.4,8.9-.6,10.3,1,1,1,.6,1.1-1.6.8-1.5-.3-3-.1-3.3.4s-1.2.4-2-.3c-1-.8-1.7-.7-3,.6-1.5,1.5-1.4,1.5,1.1.9,2.8-.7,2.8-.6,2.2,3-.5,3.2-.3,3.8,1.8,4.8,2,.9,2.2,1.4,1.4,3-.8,1.4-1.4,1.6-2.9.8-1.3-.7-2-.6-2.3.3-.3.7-.6.4-.6-.6-.1-1-.6-1.5-1.1-1.2-1.6,1,.5,3.1,4,4.4l3,1,2.6-8.2c2.4-7.1,2.7-9.9,2.8-21.2.1-13.5-.9-18.8-5.6-29.7-1.8-4.1-2.3-4.7-4.8-4.5C212.2-135.5,212.2-135.5,213.9-133.5ZM225-103.9a.923.923,0,0,1-1,.9c-.5,0-1-.7-1-1.6,0-.8.5-1.2,1-.9A1.9,1.9,0,0,1,225-103.9Zm-.5,8.7c-.8.8-2.5-1-2.5-2.6,0-1.3.2-1.3,1.4.4C224.2-96.4,224.7-95.3,224.5-95.2Zm-1,2.2a2.145,2.145,0,0,1-1.6,1,.987.987,0,0,1-.9-1c0-.6.7-1,1.6-1C223.4-94,223.8-93.6,223.5-93Zm-1.3,5.8c-.7.2-1,.8-.6,1.3.3.5-.4.9-1.4.9-1.5,0-1.9-.5-1.5-1.9.3-1.3,1.1-1.7,2.6-1.3C222.5-87.9,222.9-87.5,222.2-87.2Zm-.6,4.5c.4.4-.2.7-1.4.7s-2.2-.4-2.2-.9C218-83.9,220.6-83.8,221.6-82.7Z" fill="#fff"/><path d="M180.6-133.5c.7,1.8-1.7,2-3.4.3-.8-.8-1.2-.8-1.2-.1,0,.6,1.1,1.8,2.4,2.7,2.3,1.4,2.5,1.4,2.8-.2.3-1.4.6-1.3,1.7.7,1.1,1.9,1.1,2.5,0,3.2-1,.6-.7.8.8.6,1.7-.1,2-.5,1.3-1.8a2.516,2.516,0,0,1-.3-2.3c.3-.3.1-.6-.5-.6s-1.4-.9-1.7-2-1-2-1.5-2S180.3-134.3,180.6-133.5Z" fill="#fff"/><path d="M92.1-132.4c0,1.1.3,1.4.6.6a2.026,2.026,0,0,0-.1-1.9C92.3-134.1,92-133.5,92.1-132.4Z" fill="#fff"/><path d="M166.8-133.3a2.026,2.026,0,0,0,1.9-.1c.4-.3-.2-.6-1.3-.5C166.3-133.9,166-133.6,166.8-133.3Z" fill="#fff"/><path d="M170.6-132.5c.6,1.5-.4,1.9-4,1.5-1.1-.1-1.5.3-1.2.9.9,1.4,5.6,1.5,5.6.1,0-.5.7-.7,1.5-.4.8.4,1.3.9,1.1,1.3-.3.4.4.7,1.4.8a2.857,2.857,0,0,0,2.6-.9c.4-.7.2-.8-.4-.4-.7.4-2.3-.4-3.7-1.8C170.5-134.4,169.8-134.6,170.6-132.5Z" fill="#fff"/><path d="M79.3-131.5c-.8,2.2.6,3.3,1.7,1.5,1.3-2,1.2-3,0-3C80.4-133,79.7-132.3,79.3-131.5Z" fill="#fff"/><path d="M116.2-131.3a25.878,25.878,0,0,1-.6,4.3c-.3,1.4-.8,4.1-1.1,6-.4,2.7-.3,3,.4,1.5a12.3,12.3,0,0,0,1-4.3c.1-1.3.5-2,1.1-1.7.7.4.8-.3.4-2.2-.4-1.5-.3-2.5.2-2,1.1,1,1.4,8.8.3,8.1-.5-.3-.9.7-.9,2.1a8.384,8.384,0,0,1-2.8,5.4c-1.5,1.6-2.6,3.3-2.4,4a.8.8,0,0,1-.8,1.1c-.7,0-.9.8-.5,2.1.6,1.8.4,2.1-1.2,1.7-1.1-.3-2,0-2,.6,0,.7,1.3,1.3,2.9,1.4,2.6.2,2.8,0,2.2-2.3-.7-2.9,1.2-3.5,2.1-.6a6.9,6.9,0,0,0,1.8,3c1,.8,1.4.2,1.5-2.6.4-4.6,1-5.7,2.8-4.2.7.6,1.1,1.6.8,2.1s.3,1.8,1.5,2.9a6.249,6.249,0,0,1,2.1,3.6c0,1.5-.1,1.5-1.2,0s-1.3-1.1-1.5,2.5c-.2,2.3-.7,4.6-1.2,5.1-.6.6-.7-.6-.4-3.2.4-2.7.2-4.1-.6-4.1-.6,0-1.1,1-1.2,2.2a23.984,23.984,0,0,1-.5,4.6c-.2,1.4,0,2.1.6,1.7s1,.6.9,2.2c0,1.5-.3,2.2-.6,1.5-.2-.6-.9-1-1.3-.7-1.3.8,0,3.5,1.6,3.5a1.841,1.841,0,0,0,1.6-1.8c.1-.9.2-2.4.3-3.2a12.166,12.166,0,0,1,1.9-4.3,15.579,15.579,0,0,0,2.1-5.5,10.321,10.321,0,0,1,1-4.2c.6-1,.4-1.2-.8-.7-1.6.6-2.3-.8-1.8-3.6.1-.5-.3-.6-.9-.2-.5.3-1,.2-1-.4a1.723,1.723,0,0,1,.8-1.4c.4-.2.1-.2-.6,0-.8.2-1.2-.4-1-1.5s1.1-1.6,2.7-1.4c1.4.2,2.1,0,1.7-.7-.4-.5-1.9-.9-3.5-.8-2.4.2-3,.8-4.1,4.5-.7,2.3-1.7,4.5-2.2,4.8-.6.4-.7-.2-.3-1.6.5-1.5.3-2-.3-1.6a1.2,1.2,0,0,1-1.6-.3c-.3-.5.3-1.1,1.4-1.4,1.4-.3,2-1.4,2-3.1,0-1.6.6-2.6,1.5-2.6a1.561,1.561,0,0,0,1.5-1.6,10.238,10.238,0,0,1,2-4.4c1.1-1.6,1.7-3.5,1.4-4.4-.8-2.1-2.7-.9-2,1.3.4,1.1.1,1-.9-.4a14.6,14.6,0,0,1-2.2-4.3C117.7-133.4,116.1-133.8,116.2-131.3Z" fill="#fff"/><path d="M150.8-132.3a2.026,2.026,0,0,0,1.9-.1c.4-.3-.2-.6-1.3-.5C150.3-132.9,150-132.6,150.8-132.3Z" fill="#fff"/><path d="M156-131.5c.7.8.9,1.5.4,1.5-.4,0,.2,1.1,1.5,2.4,1.8,1.9,2.1,3.1,1.7,6.7-.5,3.9-.5,4,.3,1a22.178,22.178,0,0,1,3-6.2c2-2.7,2-2.8.1-3.4-1.1-.4-2-1.1-2-1.7s-.2-.9-.5-.6c-.9.8.6,3.8,1.6,3.2.5-.3.9-.1.9.4,0,1.5-2.6,2.2-3.8,1a2.523,2.523,0,0,1-.5-2.5,2.087,2.087,0,0,0-.8-2.4C155.7-133.5,154.6-133.1,156-131.5Z" fill="#fff"/><path d="M136.2-129.4c-1.4,1.6-.5,1.8,1.7.5.7-.5.9-1.1.5-1.4C137.9-130.6,136.9-130.2,136.2-129.4Z" fill="#fff"/><path d="M90.3-129.3C88-128.9,87-127,89-127a.945.945,0,0,1,1,1c0,.5-.7.7-1.5.4-.8-.4-1.5-.1-1.5.5s1.4,1,3.3.8c3-.2,3.2-.5,2.9-3a8.237,8.237,0,0,0-.6-2.6A7.907,7.907,0,0,1,90.3-129.3Z" fill="#fff"/><path d="M95.8-128.2c-.3,1.2-.2,2,.3,1.6.5-.3.9-.1.9.4s.7.9,1.5.9,1.5-.4,1.5-.9c0-.4-.6-.8-1.4-.8a2.111,2.111,0,0,1-1.8-1.8C96.5-130.2,96.3-130.1,95.8-128.2Z" fill="#fff"/><path d="M109.2-128.4c.3,1.3,0,2.1-.7,2.1s-1.1-.6-.8-1.4c1-2.6-.7-1.2-2.3,1.9-1.7,3.2-1.6,3.2.1,1.8s1.8-1.3,1.2.2a2.159,2.159,0,0,0,.5,2.4c.6.4.8.3.5-.2a2.446,2.446,0,0,1,.4-2.4c.6-1.1.9-1.2.9-.2,0,.7.4,1.1.9.7,1-.5.5-5.5-.6-6.5C109-130.3,108.9-129.6,109.2-128.4Z" fill="#fff"/><path d="M143.4-128.9q-.6,1.05.3.6c.6-.4,1.3,0,1.6.7.4,1.1-.3,1.6-2.6,1.9-3.1.4-3.1.4.6.5,3.9.2,5-1.5,2.3-3.7C144.5-129.8,144-129.8,143.4-128.9Z" fill="#fff"/><path d="M149-129c0,.6,1.1.8,2.8.4,3.9-1,4-1.4.4-1.4C150.4-130,149-129.5,149-129Z" fill="#fff"/><path d="M208.7-127.4c-1.4,1.4.6,3.4,2.8,2.8,1.3-.3,2.6-.1,2.9.5.4.6.2,1.1-.3,1.1-.6,0-1.1,2.1-1.1,5,0,2.7-.3,5-.7,5-.5,0-.8,1.8-.8,3.9,0,2.2.3,3.7.7,3.5.6-.4,2.4-13.1,2-14.7-.1-.4.3-.7.8-.7,2,0,.9-2.9-1.9-4.9C209.9-128.2,209.6-128.3,208.7-127.4Z" fill="#fff"/><path d="M168.6-126.2c-.3.5.8,1.9,2.4,3.1,1.7,1.2,3,1.7,3,1.1s.5-.8,1-.5c.6.3,1,.2,1-.4a2.039,2.039,0,0,0-1-1.6c-.5-.3-1-.1-1,.4a1.11,1.11,0,0,1-1.1,1.1c-.5,0-.7-.5-.4-1,.3-.6.1-1-.5-1s-.8-.5-.5-1c.3-.6-.1-1-.9-1A2.85,2.85,0,0,0,168.6-126.2Z" fill="#fff"/><path d="M177-126.1a1.9,1.9,0,0,0,1,1.6c.6.3.7-.1.4-.9C177.7-127.2,177-127.5,177-126.1Z" fill="#fff"/><path d="M136.2-124.9c-2.2.8-3.1,2.9-1.2,2.9.6,0,1-.6,1-1.3,0-.9.3-.8.9.2.7,1.1.9,1.1,1.3,0,.3-1,.8-.7,1.6.8a5.094,5.094,0,0,1,.3,4.5c-.8,2.3-.7,2.3,5.5,2.3,3.5,0,6.4-.3,6.4-.8s.9-.7,2-.4a2.5,2.5,0,0,0,3.1-1.5c.8-1.5.8-1.9,0-1.4-.6.4-1.1.3-1.1-.3,0-.5-.9-1.3-2-1.6-1.1-.4-1.8-1.1-1.4-1.6a1.012,1.012,0,0,1,1.4-.4.914.914,0,0,0,1.3-.2c.3-.5-.7-.9-2.3-.9-3.3-.2-3.5,2.1-.5,4.9,1.1,1,1.4,1.6.8,1.2-.7-.3-1.3-.2-1.3.4,0,1-3.8.6-4.9-.5-.3-.4.2-.4,1.2-.1.9.4,1.7.2,1.7-.3a.923.923,0,0,0-.9-1c-.5,0-.8-1.1-.6-2.5.3-3.4-.2-3.1-1.9.7-1,2.5-1,3.7-.2,4.8.9,1.3.9,1.3-.6.2-.9-.8-2.2-1.1-2.8-.7-1.8,1.1-1.1-1,1-2.8,2.1-1.7,2.7-3.7,1.1-3.7-.5,0-1.1.7-1.5,1.5-.6,1.7-2.6,2-2.6.4C141-124.2,138.5-125.7,136.2-124.9Z" fill="#fff"/><path d="M99.7-123.3c-1.4,1.4-1.8,1.4-3.3.2-1.6-1.3-1.7-1.1-1.1,2.5.9,5.8,2.2,6.6,5.6,3.1,2.4-2.6,2.7-3.3,1.6-5.2C101.4-124.8,101.2-124.8,99.7-123.3Zm.1,4.2c-.7,1.2-1.6,2.1-2.1,2.1-1.4,0-.3-3.5,1.3-4.1C101.1-122,101.3-121.5,99.8-119.1Z" fill="#fff"/><path d="M181.6-124.1c-.3.5.1,1.1.9,1.5a2.277,2.277,0,0,1,1.5,1.7c0,.8-.6.7-1.7-.2-1.6-1.3-1.7-1.2-.5.3,1.1,1.4,1,1.8-.7,2.8-2.5,1.3-2.7,2.6-.4,3.4,1,.4,2.6-.2,4.1-1.6l2.5-2.3-.6,2.5c-.6,2.4-.5,2.4.8.6,3.3-4.3.4-5.8-3.7-2-3.1,2.8-3,1.6.1-1.9,1.7-2,2.4-5,1-4.1a.552.552,0,0,1-.9-.5C184-125.2,182.3-125.3,181.6-124.1Z" fill="#fff"/><path d="M123.7-123.4c-.7.8,3.2,8.4,5.1,9.9.9.7,1.2,3.2.9,8.2-.1,3.9.1,6.9.5,6.7.5-.3.7.6.4,2.1-.3,1.4-.7,5.9-1,9.8-.5,6.5-.4,6.8.6,3.4,1.2-3.9,3.5-5.3,2.4-1.5a27.5,27.5,0,0,0-.6,5.2c0,2.1-.3,2.6-1.2,1.8-.9-.7-1.7-.6-2.6.4-1.3,1.4-1.2,1.5.8,1.8a2.713,2.713,0,0,1,1.9,1.5c.7,1.1,1.1,1,1.9-.5,1.3-2.7,2.1-11.3,1.1-12a3.59,3.59,0,0,1-.9-2.7c0-1.8.2-1.9,1-.7.5.8,1,1,1,.5a6.988,6.988,0,0,0-1.4-3c-.7-1.1-1.5-5.2-1.8-9.2-.5-6.5-.3-7.4,1.7-9.3,1.3-1.2,2.9-1.8,3.8-1.4,1.2.4,1.4.1,1-1.5-.4-1.7-.8-1.9-2-1-1,.9-1.7.9-2.5.1a5.386,5.386,0,0,0-3.4-1.2c-2.2,0-5.7-4.2-5.7-6.7C124.7-124.2,124.6-124.2,123.7-123.4Zm8.7,10.5c-.6,1.1-2.4.2-2.4-1.1,0-.5.7-.7,1.5-.4C132.3-114,132.7-113.4,132.4-112.9Z" fill="#fff"/><path d="M163-123.7c0,.1-.4,1.7-.9,3.5-.6,1.8-.6,3-.1,2.7s1.2,1,1.6,3c.5,2.8.9,3.3,1.9,2.5s1.4-.7,1.7.7c.3,1.5.5,1.4,1-.5.4-1.3.4-2.1.1-1.8-.8.8-3.3-2-3.3-3.8a2.517,2.517,0,0,0-1-2.1,2.333,2.333,0,0,1-1-1.7c0-.7.5-.7,1.4.1,1.1.9,1.5.9,1.8,0q.45-1.2,2.1.6c2.4,2.4,3.5,1,1.2-1.5C168.1-123.6,163-124.9,163-123.7Z" fill="#fff"/><path d="M91.6-121.6c.3.9,1.1,1.6,1.6,1.6,1.3,0,.5-2.3-1-2.8C91.5-123,91.2-122.6,91.6-121.6Z" fill="#fff"/><path d="M209.8-120.8a4.032,4.032,0,0,0,.7,1.8,4.032,4.032,0,0,0,.7-1.8c.3-1.1,0-1.9-.7-1.9S209.5-121.9,209.8-120.8Z" fill="#fff"/><path d="M191.6-120.4c-.9,2.4-.7,4.6.4,3.9.6-.3.7.1.4.9-.3.9-1,1.4-1.4,1.1-.5-.3-.6.4-.3,1.5s.9,2,1.4,2,.5-.7.2-1.7c-.4-1-.2-1.4.5-.9a2.608,2.608,0,0,1,1,2.4,59.9,59.9,0,0,0,.9,6.7,54.517,54.517,0,0,1,.7,9.8c-.2,4.7-.1,4.8,1.1,2.3a10.207,10.207,0,0,0,.9-5.8c-.6-5.5-2.7-14.2-3.4-15.1-1-1.1-.1-4.7,1.2-4.7.5,0,.4-.9-.2-2C193.7-122.4,192.4-122.6,191.6-120.4Zm2,2.1c-1,1-1.9-.5-1-1.8.6-1.1.8-1.1,1.2,0A2.085,2.085,0,0,1,193.6-118.3Z" fill="#fff"/><path d="M73.7-119.1c-.4,1.7-.3,2.1.5,1.3a2.724,2.724,0,0,0,.6-2.3C74.5-120.9,74.1-120.4,73.7-119.1Z" fill="#fff"/><path d="M86.5-117.9c-.5,2.3-1,2.8-1.6,1.8-.6-1.1-.9-1-1.5.4-.6,1.7-.8,1.7-2.5.1-1.1-1-2.1-1.5-2.3-1.3-1.5,1.5-2.3,13.9-1.6,24.4C77.9-80.4,78.6-76,79.9-76c.4,0,1.3,2.2,2.1,4.9.7,2.8,1.8,4.9,2.3,4.8s1.2.4,1.5,1.2q.45,1.35-.9.6c-.8-.4.7,1.4,3.2,3.9,2.6,2.5,4.5,4.7,4.2,4.9-.2.3,2,2.4,4.9,4.8,7.1,5.7,7.7,6.3,5.5,5.6-1.1-.4-1.6-.3-1.2.3a1.927,1.927,0,0,0,1.8.8c.7-.1,4,1.4,7.5,3.5a50.819,50.819,0,0,0,8.7,4.3,5.9,5.9,0,0,1,3.1,1.5c.3.5,1.9.9,3.5.9,1.8,0,2.8-.4,2.4-1-.3-.6-.1-1,.5-1s.8-.5.5-1.1c-.5-.6-1.2-.4-2.2.8-1.3,1.7-1.4,1.7-.9,0,.3-1.1,0-1.7-1-1.7-.8,0-1.2.4-.9,1s.4,1,.2,1a21.1,21.1,0,0,1-3.2-4c-2.7-4-5.1-4.5-4-.9.5,1.4.2,1.9-1.2,1.9-1.5,0-1.6-.2-.3-1.1,1.2-.9,1.2-1-.4-.5-1.4.5-1.7.2-1.2-1,.3-.8-.1-2.8-.9-4.4-1.9-3.6-1.9-4.1,0-3.4.8.4,1.2,1,.9,1.5a.552.552,0,0,0,.5.9c1.6,0,1.4-.8-1-4.6-1.1-1.9-2.5-3.1-3-2.8-.6.4-.6,1.1.1,1.9a3.28,3.28,0,0,1,.4,2.9c-.5,1.4-1,1.2-2.5-1.4a11.678,11.678,0,0,1-1.9-4.5,2.462,2.462,0,0,0-1-2c-.6-.4-.7.1-.4,1.2.5,1.6.3,1.5-1.1-.2-1.2-1.4-1.9-1.6-2.2-.8a2.215,2.215,0,0,1-1.9,1.3c-.9,0-1.2.5-.9,1,.5.8,1.1.8,1.9,0,1-.7,2.6.5,6.5,4.9a74,74,0,0,1,5.1,6.4c0,.3-.9.3-2,0s-2-.9-2-1.4-.7-.9-1.5-.9-3.5-2.1-6-4.6L97-55.2l3.2-2.8c2-1.7,2.9-3.3,2.5-4.3-.3-.9-.1-1.7.4-1.9,1.8-.6-.3-3.8-2.5-3.7-2,0-2,.1.2,1,1.3.5,2,1.3,1.7,1.9a1.28,1.28,0,0,1-1.8.3c-2.7-1.7-4.5-1.2-5.2,1.4-.3,1.5-.9,2.2-1.3,1.6a2.7,2.7,0,0,0-2.4-.7c-1.9.2-2.4-1.1-.8-2.1.6-.3,1-.1,1,.5s.5.8,1,.5a2.039,2.039,0,0,0,1-1.6c0-.6-.4-.7-1-.4-.5.3-1,.3-1.1-.2a21.007,21.007,0,0,0-.4-2.6c-.3-1.8,1-2.3,2-.7a2.817,2.817,0,0,0,2.1,1c1.2,0,1.2-.3.2-2a4.106,4.106,0,0,0-2.7-2c-1.2,0-1.2-.3-.3-1.2,2.7-2.7.9-5.5-3-4.9-.5,0-.8-.4-.8-1,0-.7,1.2-.8,3.3-.4l3.2.6-3.1-1.6c-1.7-.9-3.1-2.2-3.1-3,0-1.7,2.8-2.9,3.6-1.6.4.6,1.2.6,2.1.1,1.3-.8,1.2-1-.3-1-1,0-1.5-.5-1.2-1,.3-.6-.1-1-.9-1a2.817,2.817,0,0,0-2.1,1,1.1,1.1,0,0,1-1.6.4c-.5-.3-.9-.2-.8.3a32.6,32.6,0,0,1,0,4.6c-.1,3.5-.2,3.7-1.7,2.3-2.1-2.2-2.7-2-1.2.4a3.882,3.882,0,0,0,3.3,1.9,20.369,20.369,0,0,1,3.5,0c1.3.1,1.3.2,0,1.1s-1.3,1,0,1c1.2.1,1.2.3-.2,1.1a2.091,2.091,0,0,0-1.1,2.7c.6,1.5.5,1.6-1.3.2-1.2-.9-1.5-.9-.7-.1a3.2,3.2,0,0,1,.6,2.8c-.5,1.2-.7,1.2-1.4.1-.7-1-.9-1-.9-.1,0,1.8-1.7,1.6-2.4-.3a2.3,2.3,0,0,1,1-2.8c1.5-1.2,1.5-1.5,0-4.4-.9-1.8-2.4-3.2-3.4-3.1-1.4,0-1.4.2.3,1,2,.9,2,.9,0,.6-1.6-.2-1.9-.9-1.7-3.7a16.85,16.85,0,0,0-.3-4.9c-.5-1.4-.7-1.4-1.6-.1s-1,1.3-.6,0a1.658,1.658,0,0,1,1.6-1.3c.6.2,1.1-.4,1.1-1.3,0-1.4.2-1.5,1.7-.3,1.4,1.2,1.6,1.2,1.1-.1a2.452,2.452,0,0,1,.9-2.5c1.2-.9,1-1.1-.6-1.1-1.2,0-2.1.5-2.1,1.1,0,.5-.5.3-1-.5-.8-1.3-1-1.2-1,.2,0,1-.4,1.8-1,1.8-1.7,0-1.1-2.8.8-3.9,1.6-1,1.5-1-.3-1.1-1.9-.1-1.9-.1-.2-1.4s1.7-1.5.1-3c-1.5-1.6-1.5-1.9.6-4.2,1.3-1.3,1.9-2.4,1.3-2.4a1.986,1.986,0,0,0-1.6,1.2c-.3.7-.6-1-.6-3.9-.1-2.8.3-5.4.8-5.7,1.1-.7,2.3,2.2,1.5,3.5-.9,1.5,1.8,1,3.8-.8,1.7-1.5,1.8-1.5,1.8.1a2.553,2.553,0,0,1-1.5,2.2,3.033,3.033,0,0,0-1.5,2.5c0,2.6,1.8,2.4,2.2-.3.3-2.5,1.7-3.2,3.7-1.9,1.2.8,1.2,1.2.2,2.5-.7.9-1.6,1.4-2,1.2-.4-.3-.6,1.6-.6,4,.1,2.5-.1,4-.5,3.4-.5-.8-.9-.6-1.4.5-.9,2.4-.8,2.6,1.2,2.3,1.4-.2,1.6.3,1.4,3.1-.3,3.1-.2,3.3,2,2.8a15.117,15.117,0,0,1,3.1-.7c.4,0,.7-1,.8-2.3,0-1.8.3-1.5,1.4,1.3l1.4,3.5-.6-3.9c-.4-2.6-.2-3.7.5-3.2.6.3,1.7-.3,2.5-1.4,1.3-1.8,1.5-1.9,2.1-.5a3.311,3.311,0,0,1,0,2.6c-.3.5.4.9,1.5.9,2.6,0,2.6-.5.1-4.1-1.3-1.7-2.6-2.6-3.5-2.3-.8.4-1.3.9-1,1.4.8,1.3-4,3.1-7,2.7-2.6-.3-3-.7-2.7-3.3a6.671,6.671,0,0,1,4.6-5.7.764.764,0,0,0,.3-1.3c-.4-.5-1.2-.2-1.7.6s-1.3,1.1-1.7.6c-.4-.4,0-1.4,1-2.1,2.4-1.7,1.8-3.7-1.5-5.2-3.5-1.5-3.8-5.5-.6-7.7l2.2-1.6H89.3C87.7-121,87-120.2,86.5-117.9ZM85-112.5c-.7.9-1.5,1.3-1.7,1.1-.7-.7.7-2.6,1.9-2.6C85.8-114,85.8-113.4,85-112.5Zm7.7,19.1a2.026,2.026,0,0,1-1.9.1c-.8-.3-.5-.6.6-.6C92.5-94,93.1-93.7,92.7-93.4Zm-.4,2.1a5.279,5.279,0,0,1-2.5,0c-.7-.3-.2-.5,1.2-.5S92.9-91.6,92.3-91.3Zm-2.5,26c-.6.7-1.4,1-1.9.7-1.5-.9-1-2,1-2C90.4-66.6,90.6-66.3,89.8-65.3ZM99-63.8c0-.7.5-1,1-.7,1.5.9,1.2,3.1-.6,4.9-2.5,2.6-7,2-10.6-1.5-3.3-3-3.3-3-.3-1,3.3,2.2,8.7,3.8,8.4,2.5a18.548,18.548,0,0,1,0-3.4c.1-2,.3-2.2,1.1-1C98.7-62.9,99-62.9,99-63.8Z" fill="#fff"/><path d="M133.7-119.5c.3.8.9,1.2,1.4.9,1.2-.7,1.1-1.1-.5-1.7C133.6-120.7,133.3-120.4,133.7-119.5Z" fill="#fff"/><path d="M137-119c-.9,1.6-.8,2,.5,2,.8,0,1.5-.9,1.5-2s-.2-2-.5-2A5.516,5.516,0,0,0,137-119Z" fill="#fff"/><path d="M101.8-116.5c-1.3,1.9-2.7,3.3-3.3,3.1-1.4-.5-4.5,1.3-4.5,2.6,0,.6.9.3,2-.7,1.6-1.5,2-1.5,2-.3a13.929,13.929,0,0,0,1.6,4.6c.8,1.8,1.2,3.7.8,4.3q-.6,1.05.3.6c.5-.3,2.8,2.5,5.1,6.4,4.5,7.3,5,8.8,2.8,7-1.5-1.3-5.9-.1-7.2,2-.4.8-.3,1,.4.5.7-.4,1.2-.2,1.2.3a1.2,1.2,0,0,1-1.2,1.1c-1,0-.9.3.1.9.9.6,1,1,.2,1.2-1.4.5.5,10.9,2,10.9.8,0,.5-2.9-.7-6.8-.2-.7,0-1.1.5-.8s1.1,0,1.4-.8c.8-2.1,4.7-2.8,4.7-.8,0,1.2.3,1.3,1.2.4s.8-2.4-.1-6.6c-.7-3.1-1.7-5.8-2.2-6.1-1.8-1.2-.9-3.4,2.3-5.6,2.7-2,3.1-2.1,2.5-.5-.6,1.4-.3,1.7.9,1.2s1.4-.1.9,1.7c-1,3.2-2.5,4.4-1.9,1.6.2-1.3.2-1.8-.2-1.2-.9,2-2.4,1.5-1.7-.5.6-1.5.5-1.5-1-.3-2.1,1.6-2.2,3.1-.3,3.1.8,0,1.8,2.2,2.7,6,.7,3.3,1.6,6,1.9,6,1.3,0,.9-5.5-.6-7.1-1.4-1.6-1.4-1.9.5-3.8,2.3-2.3,2.9-8,.9-8.2-.7-.1-2.5-.3-4-.4-1.9-.3-2.5,0-2.2,1,.8,2-1.7,3-3.1,1.2a3.733,3.733,0,0,0-2.6-1.7c-1.2,0-1.2-.2,0-.9a2.531,2.531,0,0,0,.8-2.9c-.2-1.2-.2-2.2.2-2.4,1.2-.6,4.8-8.3,4.4-9.6-.5-1.3-2.5-1.7-2.1-.5.4,1.3-2.4,7.3-3.1,6.9-.4-.3-1.3-.1-2.1.5-1,.6-1.1.9-.2.9a1.12,1.12,0,0,1,1.2,1c0,1.7-1.9,1.1-3-1.1-1-1.7-.8-2.1.9-2.6,1.1-.3,1.9-.9,1.6-1.3a1.1,1.1,0,0,1,.5-1.5,1.216,1.216,0,0,0,.5-1.6c-.4-.5,0-.9.8-.9a4.371,4.371,0,0,0,2.7-1.5c1-1.3.9-1.5-.9-1.5C104.8-120,103.2-118.7,101.8-116.5Zm5.8,29.8c.6.6-1.9,3.7-2.9,3.7-.3,0-.4-1.1-.3-2.4C104.5-87.6,106.1-88.3,107.6-86.7Z" fill="#fff"/><path d="M121-118.9c0,.5.5.7,1,.4.6-.3,1-.8,1-1.1,0-.2-.4-.4-1-.4A1.1,1.1,0,0,0,121-118.9Z" fill="#fff"/><path d="M174-117.4c0,1.4.4,2.3.9,2s.7-1.5.4-2.6C174.6-120.8,174-120.5,174-117.4Z" fill="#fff"/><path d="M216-119a1.075,1.075,0,0,0,1,1,1,1,0,0,0,1-1,.945.945,0,0,0-1-1A1,1,0,0,0,216-119Z" fill="#fff"/><path d="M89.6-115.8c.4,3.4.4,3.4,1.3,1.9,1-1.5.4-4.1-.8-4.1C89.7-118,89.4-117,89.6-115.8Z" fill="#fff"/><path d="M171.2-115.5c0,1.6.2,2.2.5,1.2a7.556,7.556,0,0,0,0-3C171.4-117.9,171.2-117.2,171.2-115.5Z" fill="#fff"/><path d="M207.7-116.6c-.3.8.2,1.6,1.4,1.9,2.3.6,2.4.1.5-1.8C208.4-117.7,208.1-117.7,207.7-116.6Z" fill="#fff"/><path d="M75.5-115.7c-.4,1-.5,2.1-.1,2.4,1,1,1.8-.4,1.3-2.4C76.3-117.4,76.3-117.4,75.5-115.7Z" fill="#fff"/><path d="M215-114.9a45.6,45.6,0,0,1-.7,6.4c-.3,2.3-.2,3.7.3,3.2a3.315,3.315,0,0,0,.9-2c0-.7.9-1.1,2-.9,1.5.2,1.7.1.6-.6-.7-.5-1.5-2.4-1.7-4.2C215.9-117,215-118.3,215-114.9Z" fill="#fff"/><path d="M110.5-114c-.3.5-.1,1,.4,1a1.1,1.1,0,0,0,1.1-1c0-.6-.2-1-.4-1C111.3-115,110.8-114.6,110.5-114Z" fill="#fff"/><path d="M141.6-114.2c-.3.5.1.9.9.9s1.2-.4.9-.9c-.3-.4-.7-.8-.9-.8S141.9-114.6,141.6-114.2Z" fill="#fff"/><path d="M155.4-112.5c.5,1.9.3,2.3-.9,1.9-.8-.4-1.5-.1-1.5.5s-1.7,1.1-3.7,1.2c-2.1,0-3.2.3-2.5.6s3.3.2,5.8-.2c4.1-.6,4.4-.9,4.4-3.6,0-1.6-.5-2.9-1.1-2.9C155.2-115,155-114,155.4-112.5Z" fill="#fff"/><path d="M158.8-110.8c-.5,5.7,2.2,11.4,4.5,9.2.9-.9-1.6-4.4-3-4.4a1.233,1.233,0,0,1-1.3-1c0-.6.7-1,1.5-1,1,0,1.5-1.1,1.5-3.5C162-116.8,159.3-116.1,158.8-110.8Z" fill="#fff"/><path d="M176.5-113.3c-.5,1.2-.9,1.4-1.2.5-.8-2.1-2.1-1.3-1.6.9l.6,2.1,2-2.1c1.2-1.1,1.8-2.3,1.5-2.6S176.9-114.3,176.5-113.3Z" fill="#fff"/><path d="M203-113.2a25.954,25.954,0,0,1,2.3,9.2c0,.9,1,2.1,2.3,2.7,2.4,1.1,2.5,1.4-.6-4.7a15.623,15.623,0,0,1-1-5.3c0-2.5-.4-3.3-2-3.4C202.5-114.8,202.3-114.5,203-113.2Z" fill="#fff"/><path d="M151-113c2,1.3,3.3,1.3,2.5,0a2.783,2.783,0,0,0-2.3-1C149.7-114,149.7-113.8,151-113Z" fill="#fff"/><path d="M187.5-113.1a2.318,2.318,0,0,1-2.3.6,6.236,6.236,0,0,0-3.7,1.2c-2,1.5-2,1.5.1,1.1,1.7-.4,2-.1,1.6,1.8-.5,2.7-1.2,2.9-3.2,1.1-1.2-1-1.2-.9-.1.5a3.106,3.106,0,0,1,.5,3c-.6,1-.3.9.9-.1,1.5-1.2,1.7-1.1,1.7.3a1.681,1.681,0,0,1-1.2,1.7c-.7,0-.4.4.7.9a12.294,12.294,0,0,0,4.8.3c1.7-.4,2.7-.1,2.7.6s.3,1,.8.8c.4-.3.8.8.9,2.4.2,2-.2,2.7-.9,2.3s-.8-.3-.4.5a1.387,1.387,0,0,0,1.7.6c1.1-.7,1.2.5.1,2.3a2.11,2.11,0,0,1-2.5.6c-.9-.3-1.7-.2-1.7.4,0,1.5,3.7,2.1,4.9.9,1.3-1.3,1.5-7.4.2-8.2-.6-.3-.6-1.8-.1-3.7.5-1.7.6-3.6.2-4.2a7.215,7.215,0,0,1-1.1-3.5c0-.6-1-.9-2.1-.8-1,.1-1.7.3-1.5.6.3.2-.1,1.4-.9,2.7-.8,1.2-1.2,2.4-.9,2.8,1,.9,3.2-1.4,2.7-2.8a.884.884,0,0,1,.9-1.3c2.1,0,.5,5.1-1.7,5.5-5,1-6.3-5.8-1.5-8.7,1.7-1,2.6-2.2,2.1-2.5A1.251,1.251,0,0,0,187.5-113.1Z" fill="#fff"/><path d="M207.7-110.9a4.712,4.712,0,0,0-.2,2.8c.3.2.5-.2.5-1,0-1.1.2-1.1,1,.1.9,1.3,1,1.3,1,0a5.785,5.785,0,0,0-.9-2.8C208.5-112.8,208.1-112.6,207.7-110.9Z" fill="#fff"/><path d="M73-110.5c0,.8.5,1.5,1,1.5.6,0,1-.7,1-1.5s-.4-1.5-1-1.5C73.5-112,73-111.3,73-110.5Z" fill="#fff"/><path d="M138.9-110.3c-3.6,4.6-4.1,6.4-2.3,8.4,1.7,1.9,1.4,2.3-2,1.9-1.1-.1-1.6.3-1.1.9a1.124,1.124,0,0,0,1.5.6,1.266,1.266,0,0,1,1.6.6c.4.7.3.9-.4.5a1.276,1.276,0,0,0-1.7.4c-.3.5-.1,1,.5,1s1.5,1,2,2.2c.9,2.3.9,2.3.9-.2.1-1.8,1.1-3.1,3.5-4.4,3-1.6,3.3-2.1,2.3-3.7-1.1-1.8-1.2-1.7-2.5.6-.7,1.4-1.7,2.5-2.3,2.5s-.7-.5-.4-1.1c.4-.6-.1-1.7-1.1-2.5-1.7-1.4-1.7-1.5-.1-1,1.2.4,1.7,0,1.7-1.2a4.443,4.443,0,0,1,4.5-4.3c1.7-.1,1.7-.2.2-.6-.9-.2-1.5-.9-1.2-1.4C143.6-112.8,140.3-112,138.9-110.3Z" fill="#fff"/><path d="M177.5-111c-.3.5-.1,1,.4,1a1.1,1.1,0,0,0,1.1-1c0-.6-.2-1-.4-1C178.3-112,177.8-111.6,177.5-111Z" fill="#fff"/><path d="M171.1-109.4c0,1.1.3,1.4.6.6a2.026,2.026,0,0,0-.1-1.9C171.3-111.1,171-110.5,171.1-109.4Z" fill="#fff"/><path d="M95.7-109.3c-1.3,1.2-.7,3.3.8,3.3.8,0,1.5-.5,1.5-1a1.028,1.028,0,0,0-1.1-1c-.5,0-.7-.5-.4-1C97.2-110.1,96.7-110.3,95.7-109.3Z" fill="#fff"/><path d="M164.1-108.1c-1.2.7-.9,1.7,1.5,5.5,1.7,2.6,3.1,4,3.5,3.4a2.573,2.573,0,0,0-2-3.9c-1.2,0-1.1-.4.7-1.6,2.1-1.5,2.1-1.6.5-2.9C166.2-109.2,165.9-109.2,164.1-108.1Zm3.9,1.5c0,1.1-1.9,1.5-2.5.6-.3-.5.1-1,.9-1C167.3-107,168-106.8,168-106.6Z" fill="#fff"/><path d="M173-107.1c-1.4,2.7-1.3,3.1.8,3.1,1.4,0,1.5-.2.2-1-.8-.5-1-1-.4-1,.7,0,1.4-.7,1.8-1.5C176.2-109.7,174.2-109.3,173-107.1Z" fill="#fff"/><path d="M197.7-108.3c-1.3,1.3-.7,3.3,1.1,3.3,1.3,0,1.4-.2.3-.9a1.707,1.707,0,0,1-.7-2C199.2-109.1,198.7-109.4,197.7-108.3Z" fill="#fff"/><path d="M133-106c0,1.9.3,2.1,1.2,1.2s.9-1.5,0-2.4S133-107.9,133-106Z" fill="#fff"/><path d="M144.5-106c-.3.5-.1,1,.4,1a1.1,1.1,0,0,0,1.1-1c0-.6-.2-1-.4-1C145.3-107,144.8-106.6,144.5-106Z" fill="#fff"/><path d="M176-105.6a5.734,5.734,0,0,0,1.8,1.7c1.5,1.3,1.6,1.2.3-.4S176-106.4,176-105.6Z" fill="#fff"/><path d="M200.9-105.3c-.4,3.6-.4,6.1,0,5.8,1.2-1.2,3.1,3.7,2.6,6.7-.3,1.8-.3,2.9.1,2.6,1.3-1.4,4.6,4.2,4,6.7s-4.3,4.2-7,3.2c-1-.4-1.3.1-1.1,1.8.1,1.4-.1,2.2-.6,2-.4-.3-1.1.4-1.4,1.6-.5,1.3-1.2,1.8-2.2,1.4-1.2-.4-1.3-.2-.5.8.8.9.5,1.7-1.2,3.2l-2.4,2,1.9,3.7c1.1,2.1,2.2,3.8,2.6,3.8.3,0,.3-.3,0-.7-.4-.3,0-1.5,1-2.5.9-1,1.3-2.1.9-2.5s-1.1-.1-1.5.6c-.7,1-1,1-1.6.1-1-1.7,1.1-2.8,4.1-2.2,2,.4,2.3.9,1.8,2.6-.6,2-.5,2,1.2.4,1.7-1.7,1.7-1.8-.1-3.2-1.1-.8-2.3-1.2-2.7-1-.5.3-.8.1-.8-.5s-.7-.8-1.6-.4c-1.4.5-1.4.3-.3-1.4.8-1.3,1.9-1.9,3.2-1.5,1.4.4,1.8.2,1.3-.7-.9-1.4,3.2-6.3,4.5-5.5a.552.552,0,0,0,.9-.5c0-.6,1-1.1,2.2-1.1,2.1,0,2.2,0,.2,1.8a13.286,13.286,0,0,1-3.9,2.6c-1.3.6-1.6,1-.7,1.3,2,.8,5.9-2.3,7-5.6.7-1.9.7-3.1.1-3.1a.923.923,0,0,0-.9,1,1.126,1.126,0,0,1-1.2,1c-.7,0-.6-.6.4-1.8,1.3-1.4,1.3-2.2.2-4.8-.7-1.7-1.9-3.4-2.7-3.7-1.5-.6-2.1-5.7-.6-5.7.4,0,.7-.9.6-2-.2-2.7-1.7-2.5-1.7.2v2.2l-1.6-2.3c-1.3-1.8-1.4-2.8-.5-4.7.8-1.9.8-2.4-.4-2.4C201.7-106,201-105.7,200.9-105.3Z" fill="#fff"/><path d="M73.1-103.4c0,1.1.3,1.4.6.6a2.026,2.026,0,0,0-.1-1.9C73.3-105.1,73-104.5,73.1-103.4Z" fill="#fff"/><path d="M95-104.2c0,.5.9,1.7,2.1,2.8,2.1,1.9,2.1,1.9,1.8-.6C98.5-104.3,95-106.3,95-104.2Z" fill="#fff"/><path d="M150.2-104.3a1.421,1.421,0,0,1,1.1,2.1c-.5,1.3-.3,1.4.7.5a2.863,2.863,0,0,1,2.6-.6c.8.3,1.4.1,1.4-.5,0-1-3.5-2.2-6-2.1C148.9-104.8,148.9-104.7,150.2-104.3Z" fill="#fff"/><path d="M145.6-103.2a5.43,5.43,0,0,1,1.7,2.2c.4,1,.6.8.6-.8.1-1.5-.5-2.2-1.6-2.2S144.9-103.7,145.6-103.2Z" fill="#fff"/><path d="M218.5-102.7c-.4,1-.5,2.1-.1,2.4,1,1,1.8-.4,1.3-2.4C219.3-104.4,219.3-104.4,218.5-102.7Z" fill="#fff"/><path d="M198-101.4c0,.8.5,1.2,1,.9a1.216,1.216,0,0,0,.5-1.6C198.6-103.5,198-103.2,198-101.4Z" fill="#fff"/><path d="M81.1-101.4c.1,1.7,1.8,4.9,1.8,3.6.1-.7.5-1.1,1-.8s1.1-.1,1.5-.9a1.718,1.718,0,0,0-.4-2c-.6-.4-1-.1-1,.6,0,.8-.4.8-1.5-.1C81.7-101.7,81-101.9,81.1-101.4Z" fill="#fff"/><path d="M157-99.5c-1.6,3-.9,4,1.9,2.6,1.7-.9,2.2-.8,3.1.9.6,1.1.8,2.6.4,3.2s-.3.8.4.4a1.1,1.1,0,0,1,1.5.6c.3.7.6.8.6.3.1-.6-.8-2.5-1.9-4.3-1.8-2.9-2.2-3.1-4.3-2.1-2.2,1.2-2.2,1.2-.4-.9,1-1.1,1.4-2.3.9-2.6S157.7-100.8,157-99.5Z" fill="#fff"/><path d="M212.2-100.3c-1.6,2.8-1.5,4.6.1,4a1.425,1.425,0,0,0,.9-1.6c-.1-.7.1-1,.6-.7a2.505,2.505,0,0,0,2.2-.5c1.3-.7,1.2-.9-.2-.9a2.222,2.222,0,0,1-2-1.2C213.5-102,212.9-101.7,212.2-100.3Z" fill="#fff"/><path d="M162.6-100.1c-.3.4.6,1.8,1.9,3.1s2.2,2.6,1.9,3.1c-.2.4.5,2.3,1.6,4.1s2,2.6,2,1.9c0-1.2.3-1.2,1.2-.3,1,1,1,1.5-.1,2.2-1.2.7-.8,1.4,1.7,3.8a28.5,28.5,0,0,0,3.2,2.8,28.145,28.145,0,0,0-1.6-3.5c-1.5-3.1-1.5-3.3.9-5.7,3-2.9,5-8.1,3.6-8.9-.5-.4-1-.1-1,.4a15.572,15.572,0,0,1-3.4,7.7c-1.3,1.4-4.9-.2-3.9-1.7.3-.5,0-.8-.7-.7-.7.2-1.3-.4-1.4-1.2-.1-1.8-3.7-8-4.7-8A1.7,1.7,0,0,0,162.6-100.1Z" fill="#fff"/><path d="M150-97.5c-1.6,3-3,3.2-3.7.5-.6-2.4-1.9-2.6-2.7-.4-.3.8-1,1.3-1.5,1s-1.1.4-1.5,1.7c-.9,3.6-.7,4.5,1.2,4.2a2.038,2.038,0,0,0,1.6-2.4c0-1.4.5-2.1,1.8-2.1,1.1,0,1.7.4,1.3.9-1.3,2.3,1.4,1.8,2.9-.4.9-1.4,2.2-2.5,2.8-2.5s.4.8-.5,1.8a5.828,5.828,0,0,0-1.7,3c0,1.6,3.6,1.5,3.8-.1.1-.6.4-2.8.7-4.7.3-2.5.2-3.1-.5-2-.8,1.2-1.2,1.2-1.8.2C151.6-99.7,151-99.4,150-97.5Z" fill="#fff"/><path d="M180.8-98c1.6,1.3,2.2,2.6,1.7,3.9a2.631,2.631,0,0,0,.6,2.7q1.05.6.6-.3c-.3-.5,0-2.1.7-3.5,1.3-2.4,1.2-2.6-2.3-3.6l-3.6-1.1Z" fill="#fff"/><path d="M187-97c-.6,1.1-.7,2-.3,2,.5,0,1.4-.9,2.1-2s.8-2,.2-2C188.5-99,187.6-98.1,187-97Z" fill="#fff"/><path d="M208-97.9c0,.5.5.7,1,.4.6-.3,1-.8,1-1.1,0-.2-.4-.4-1-.4A1.1,1.1,0,0,0,208-97.9Z" fill="#fff"/><path d="M125.2-93c-.6,2.7-.9,5.6-.6,6.5.4,1,0,1.5-1.4,1.5a3.683,3.683,0,0,0-2.8,1.2c-.4.7-.3,1,.1.5.5-.4,2.2.5,3.9,2l3.1,2.8-2.3-2.7c-2.1-2.3-2.2-2.7-.6-3,2.7-.5,5.1-13.8,2.5-13.8C126.7-98,125.8-95.8,125.2-93Z" fill="#fff"/><path d="M199.9-96.8a17.749,17.749,0,0,1-.4,3c-.2,1,.1,1.8.6,1.8s.9-.6.9-1.4a11.4,11.4,0,0,1,.6-3c.3-.9.1-1.6-.5-1.6A1.379,1.379,0,0,0,199.9-96.8Z" fill="#fff"/><path d="M82-95a1.075,1.075,0,0,0,1,1,1,1,0,0,0,1-1,.945.945,0,0,0-1-1A1,1,0,0,0,82-95Z" fill="#fff"/><path d="M156-94a1.1,1.1,0,0,0,1.1,1c.5,0,.7-.5.4-1-.3-.6-.8-1-1.1-1C156.2-95,156-94.6,156-94Z" fill="#fff"/><path d="M98-91c0,1.1.5,2,1,2,.6,0,1-.9,1-2s-.4-2-1-2C98.5-93,98-92.1,98-91Z" fill="#fff"/><path d="M103.3-92.3c-3.4.7-2.8,2,.7,1.5,1.6-.2,2.7-.8,2.4-1.3s-.6-.8-.7-.8A10.74,10.74,0,0,1,103.3-92.3Z" fill="#fff"/><path d="M185.2-90.2c-1.1,2.5-1.1,2.5.4,1,.9-.9,1.5-2.1,1.3-2.7S185.9-91.7,185.2-90.2Z" fill="#fff"/><path d="M157-90.9c0,.5.5.7,1.1.3a1.489,1.489,0,0,1,1.8.2,18.355,18.355,0,0,0,3.1,2.9c2.1,1.6,2,1.4-.4-1.3C159.7-92,157-93,157-90.9Z" fill="#fff"/><path d="M197-91.5a6.8,6.8,0,0,0,1,2.5c.7,1.1,1.2,1.2,2,.4.9-.9.9-1.4.1-1.8-.6-.4-1.1-.4-1.1.1,0,.4-.5.1-1-.7S197-92.1,197-91.5Z" fill="#fff"/><path d="M135.9-88.3c-1.3,1.6-1.2,1.7.4.4s2.1-2.1,1.3-2.1A6.226,6.226,0,0,0,135.9-88.3Z" fill="#fff"/><path d="M151.6-89.1c-.4.5.3.7,1.4.4,2.3-.6,2.6-1.3.6-1.3A2.533,2.533,0,0,0,151.6-89.1Z" fill="#fff"/><path d="M166-88.5c0,.8.4,1.5,1,1.5.5,0,.7-.7.4-1.5-.4-.8-.8-1.5-1-1.5S166-89.3,166-88.5Z" fill="#fff"/><path d="M84.4-87.5c-.4.8-1.1,1.2-1.6.9-.6-.4-.6.1.1,1.3.7,1.4.7,2.4-.2,3.3-.8,1-.6,1,.7,0,1.1-.8,2.1-1.3,2.4-1s.6-1,.6-2.8C86.5-89.1,85.4-90.1,84.4-87.5Z" fill="#fff"/><path d="M180-87.3c-.8,1.3-1.3,1.4-1.6.5-.3-.6-1-1-1.5-.7-.5.4-.4,1.2.3,1.9,1.5,1.6,5.7.9,5.4-1C182.2-88.9,181.2-89.2,180-87.3Z" fill="#fff"/><path d="M193.2-87.6a6.945,6.945,0,0,0-.5,3.1c.2,1.6,0,1.5-1-.5a5.62,5.62,0,0,0-2.7-2.8c-1.1-.3-1.1,0,.3,1.5,1.3,1.5,1.4,2.2.4,3.3-.7.8-.8,1-.1.7,1.7-1,3.9,1.9,2.3,2.9-.8.4-.9.3-.5-.4,1.1-1.9-.2-1.4-2.4.8-2.1,2.1-1.9,4,.5,4,1.9,0,2.7,3,1,3.6-1.7.7-2,2.4-.5,2.4,1.7,0,3.3-4,2.1-5.4a1.731,1.731,0,0,1-.3-2.1c.4-.5-.2-.5-1.3-.1-1.6.6-1.7.5-.8-.5,1-1,1.8-1,3.8.1,1.4.7,2.8,1,3.2.7.3-.4-.1-.7-1-.7a1.773,1.773,0,0,1-1.8-1.3c-.3-3.1.4-6.1,1.7-7.4a4.781,4.781,0,0,0,1.4-2.2C197-89.1,194-88.8,193.2-87.6Z" fill="#fff"/><path d="M147-86c.6,1.1,1.2,2,1.4,2s.2-.9-.1-2-.9-2-1.5-2C146.3-88,146.4-87.1,147-86Z" fill="#fff"/><path d="M154.5-87a1.216,1.216,0,0,0,1.6.5c1.4-.9,1.1-1.5-.7-1.5C154.6-88,154.2-87.5,154.5-87Z" fill="#fff"/><path d="M136.7-86.3c-.2.4.4,1.7,1.4,2.7,2.2,2.2,2.5,1,.5-1.7C137.8-86.3,137-86.8,136.7-86.3Z" fill="#fff"/><path d="M183.4-83.5c-.9,1.9-2,3.3-2.4,3-1.6-1-3.9.7-4.9,3.7-1.3,3.7-1.3,3.8-.2,3.8.5,0,1.4-1.4,2-3.1.9-2.5,1.4-2.9,3.2-2.4,1.5.5,1.9.4,1.5-.4-.4-.6-.2-1.1.4-1.1s.8-.5.5-1c-.3-.6.1-1,1.1-1,1.2,0,1.5-.6,1.1-2.1s-.2-1.9.9-1.5c.9.3,1.2.1.9-.4C186.4-87.8,185.1-87,183.4-83.5Z" fill="#fff"/><path d="M167-85.3c-5,1.8-8,3.7-7.6,4.8.2.7-.4,1.5-1.4,1.8-1.1.3-2.1,0-2.3-.7-.2-.6-.8-.8-1.2-.4-.5.4-.4,1.7.1,2.9l.9,2L158-77c1.4-1.2,2.4-2.7,2.2-3.2-.1-.5.2-.7.7-.4a1.1,1.1,0,0,0,1.6-.4c.3-.5,2.2-1,4.2-1,2.8,0,3.3-.3,2.4-1.3-.6-.8-.8-1.7-.4-2C169.4-86.1,169.1-86.1,167-85.3Z" fill="#fff"/><path d="M197.4-84.6c.5,1.4.2,1.7-.9,1.2-.8-.3-1.5-.1-1.5.4a1,1,0,0,0,1,1c.6,0,1,.7,1,1.6,0,.8-.4,1.2-1,.9-.5-.3-1-.1-1,.5,0,.7.5,1,1.2.8,1.8-.6,3-6,1.6-7.3C197-86.2,196.9-86,197.4-84.6Z" fill="#fff"/><path d="M95.6-81.8c.8,2.7,1.2,3.3,1.9,2.7.7-.8-.7-4.9-1.7-4.9C95.3-84,95.2-83,95.6-81.8Z" fill="#fff"/><path d="M116.8-82c-2.1,2.4-.8,3.5,1.8,1.5q1.8-1.35.6-1.5c-.7,0-1-.5-.7-1C119.5-84.7,118.5-84.1,116.8-82Z" fill="#fff"/><path d="M135.9-78.6c-.1,3.1-.2,6.2-.3,6.8a8.006,8.006,0,0,1-2.5,3.4c-1.8,1.6-2,2.3-1,3,2.5,1.5,5-3.7,5.3-10.9.2-3.7,0-7-.5-7.3S135.9-81.6,135.9-78.6Z" fill="#fff"/><path d="M147.1-81.7c1.6,3.6.4,4.6-2.4,1.9-3.1-2.9-3.7-2.8-3.7.9,0,1.7-.4,2.8-1,2.4-.5-.3-1-.3-1,.1,0,1.6,2.4,7.4,3.1,7.4,1.6,0,2-2.1.8-3.6-1-1.2-.9-1.8.5-3.2,1.3-1.4,2-1.4,3.6-.4,2.6,1.6,4.3,1.5,3.7-.2-.8-2.1,2-5.5,4.2-4.9,1,.3,2.1.1,2.4-.4s-1.3-.9-3.6-.8c-3.2,0-4.1.4-3.9,1.5.1.8-.7.4-1.8-1l-2.1-2.5ZM144-79.1a1.9,1.9,0,0,1-1,1.6c-.5.3-1-.1-1-.9,0-.9.5-1.6,1-1.6A.923.923,0,0,1,144-79.1Z" fill="#fff"/><path d="M171.3-81.3c.4.7,0,1.6-1,2.2-1.6.9-1.6,1,.4,1.1,2.9,0,3.7-1.5,1.6-3.1C171.3-81.9,170.9-82,171.3-81.3Z" fill="#fff"/><path d="M121-80.2c0,1.6,2.7,4.5,3.9,4.1.8-.3.7-1.1-.4-2.7C122.9-81,121-81.8,121-80.2Z" fill="#fff"/><path d="M165.1-78.8c-.9,2.6.3,4,2.7,3,1-.3,1.3,0,1,.9-.2.8-2,1.6-3.9,1.9l-3.4.6,2.8.7c2.8.8,3.8,3.7,1.2,3.7-.8,0-1.5.4-1.5,1,0,1.5,4.9-1.1,5.4-2.9,1.6-6,1.6-7.1.1-7.1a1.453,1.453,0,0,1-1.5-1.4C168-81,166-81.2,165.1-78.8Z" fill="#fff"/><path d="M187.5-80c-.3.5-.1,1,.4,1a1.1,1.1,0,0,0,1.1-1c0-.6-.2-1-.4-1C188.3-81,187.8-80.6,187.5-80Z" fill="#fff"/><path d="M113-79c0,.7-.6,1-1.3.7-.8-.3-1.8.7-2.4,2.4-1.4,3.6-.7,3.7,1.9.4,2.1-2.8,4.1-3.4,3.2-1-.4.8-1,1.2-1.5,1-1.4-.9-2.3,4.5-1,5.8.9.9,1.1.8.6-.4-.3-.9.3-2.3,1.5-3.4,2.4-2.2,2.5-3.8.5-5.5C113.3-80,113-80,113-79Z" fill="#fff"/><path d="M97.5-77c.3.5-.1,1-.9,1-.9,0-1.6.4-1.6.9,0,1.5,5.3-.4,5.8-2,.3-1.1.2-1.1-.7.1-.7,1-1.1,1.1-1.1.2A1.2,1.2,0,0,0,97.9-78C97.4-78,97.2-77.6,97.5-77Z" fill="#fff"/><path d="M118.4-76.4a17.322,17.322,0,0,1-1,2.4c-.1.3,1.1.6,2.7.7,3.4.3,3.7-.7.9-3.2C119.1-78.2,119-78.2,118.4-76.4Z" fill="#fff"/><path d="M152-76.1a2.335,2.335,0,0,0,1,1.6c.6.3,1,.2,1-.4a2.039,2.039,0,0,0-1-1.6C152.5-76.8,152-76.7,152-76.1Z" fill="#fff"/><path d="M158.6-74.8a8.742,8.742,0,0,0-1.6,3c0,1.3,2.8.9,3.7-.6a5.167,5.167,0,0,1,2.3-1.8c1.2-.4,1-.7-.7-1.6C160.4-76.8,159.9-76.7,158.6-74.8Z" fill="#fff"/><path d="M172.1-75.4c0,1.1.3,1.4.6.6a2.026,2.026,0,0,0-.1-1.9C172.3-77.1,172-76.5,172.1-75.4Z" fill="#fff"/><path d="M183-76a1.233,1.233,0,0,0,1.3,1c.6,0,.1.9-1.3,2-2,1.6-2.1,1.9-.5,1.3,2.5-.8,3.5-2.2,2.8-4C184.7-77.2,183-77.5,183-76Z" fill="#fff"/><path d="M145.3-74.5a5.3,5.3,0,0,0-.6,3.3,2.615,2.615,0,0,1-.5,2.5,17.916,17.916,0,0,0-1.6,3.1c-.5,1.6-.4,1.7.9.6.8-.7,1.2-1.6.9-2.1s.2-.6,1-.3c2.1.8,2.9-1.6,1.8-5.7C146.4-76.2,146.3-76.3,145.3-74.5Z" fill="#fff"/><path d="M179-73.3c0,2.1.3,2.4.9,1.4a3.513,3.513,0,0,0,.4-2.8C179.5-76.8,179-76.2,179-73.3Z" fill="#fff"/><path d="M105.5-74a2.452,2.452,0,0,1-.5,2.5c-1,1.2-1,1.5.1,1.5,1.2,0,1.2.2.1.9s-1.1.9.2,1.4a2.475,2.475,0,0,1,1.6,1.9c0,.9-.3.9-1.1-.2s-.9-.9-.4,1a9.793,9.793,0,0,0,1.6,3.4,4.845,4.845,0,0,1,.9,2.7,3.172,3.172,0,0,0,1,2.4c.7.4.9-.3.5-2.2-.3-1.5-.3-2.3.1-1.6a1.521,1.521,0,0,0,2,.6c1.3-.5,1.8.7,1.5,3.5-.1.7.8,2.6,2,4.3l2.2,3.1,1.3-2.3c1.7-3.1,1.7-3.9-.1-3.9-.8,0-1.4.3-1.2.7.1.5-.3.8-.8.8s-.9-.6-.9-1.3c.1-.6-.2-1.2-.7-1.2s-.6-.7-.2-1.6c.5-1.5.8-1.5,1.7-.2a7.981,7.981,0,0,0,3.3,2.2c1.5.5,2,1.2,1.6,2.3-.5,1.2-.3,1.4.7.8s1.1-.2.6,1.9c-.9,3.6,0,3.3,1.3-.6.6-1.7.8-2.9.5-2.5-1,.9-6.2-6.4-5.9-8.2a2.482,2.482,0,0,1,1.3-1.9c.7-.2,1,.2.6,1.1a1.606,1.606,0,0,0,1,2c.9.4,1.6,1.1,1.6,1.7s-.6.8-1.2.4c-.7-.4-.4.2.6,1.4,1.1,1.2,2.1,2,2.4,1.7s1.1,0,1.9.6c2.3,1.9,1.4.1-2.3-5.2-2.3-3-4.2-4.8-5-4.5-1.6.6-4.9-3.8-3.9-5.4a2.41,2.41,0,0,0-.2-2.3c-.5-.8-.9-.2-1.3,1.7-.4,2.3-1,3-3.2,3-1.4.1-2.6-.1-2.6-.4a8.317,8.317,0,0,0-.2-1.3,15,15,0,0,1-.9-4.2,1.443,1.443,0,0,0-1.2-1.5C105.4-75,105.2-74.5,105.5-74ZM115-64c-2.1,1.3-2.7,1.2-2.7-.5,0-.8.4-1.2.9-.9.4.3.8,0,.8-.7,0-1,.3-1,1.2-.1C116.2-65.2,116.2-64.7,115-64Zm-3.7.9c.3,1.2-.1,1.8-1.2,1.7a3.233,3.233,0,0,1-3.1-2.9C107-65.9,110.8-64.9,111.3-63.1Zm5.1,1.6c.3.8.1,1.5-.4,1.5-.6,0-1-.7-1-1.5s.2-1.5.4-1.5S116-62.3,116.4-61.5Z" fill="#fff"/><path d="M96.4-73.1c-.8.9.8,2,2.1,1.4,1.1-.4,1.3-.1.9,1.1-.4,1-.1,1.6.9,1.6.9,0,1.4-.9,1.3-2.3-.1-1.6-.7-2.2-2.4-2.2A7.418,7.418,0,0,0,96.4-73.1Z" fill="#fff"/><path d="M149.5-73c-.4.6.7,1,2.7,1,2.5,0,2.9-.3,1.8-1C152.1-74.3,150.3-74.3,149.5-73Z" fill="#fff"/><path d="M207.1-72.4c0,1.1.3,1.4.6.6a2.026,2.026,0,0,0-.1-1.9C207.3-74.1,207-73.5,207.1-72.4Z" fill="#fff"/><path d="M209-71.6a10,10,0,0,1-.6,2.9c-.6,1.8,2.6,3.3,3.6,1.6.6-.8.9-.8,1.4,0a1.266,1.266,0,0,0,1.6.6c1.3-.8.5-3.8-1.1-4.3-1-.2-1.1-.1-.2.5.8.6.4,1.2-1.2,2-2.3,1-2.4.9-2.1-1.8.2-1.6-.1-2.9-.5-2.9C209.4-73,209-72.4,209-71.6Z" fill="#fff"/><path d="M121.2-69.2a8.627,8.627,0,0,0,2.8,5.7c2.7,2.6,2.7,2.6,3.3.5.3-1.2,1-1.9,1.6-1.5.7.4.6,1.4-.4,2.9-1.4,2.1-1.4,2.4.2,3.7,1.7,1.3,1.7,1.3.3-.5s-1.3-1.9,1.2-1.3c2.3.6,2.5.4,2-1.5-.4-1.6-.2-1.9.8-1.3q1.35.75.6-.3a2.717,2.717,0,0,0-2.1-1.2c-.8,0-2.1-1.4-3-3-.9-1.7-2.3-3-3.3-3a4.688,4.688,0,0,1-2.9-1.1C121.4-72,121.1-71.5,121.2-69.2Zm3.3,1.1c-.3.5.2,1.6,1,2.5.8.8,1.1,1.7.6,2s-1.6-.5-2.5-1.8c-1.2-1.8-1.2-2.6-.3-2.9C125.1-69.1,125.2-69.1,124.5-68.1Z" fill="#fff"/><path d="M172-71.5c0,.3,1.2,1,2.8,1.6,2.5,1,2.6,1.2.7,1.9-1.9.8-1.9.9.1.9,2.1.1,4.1-2.4,2.6-3.2C176.8-71.1,172-72,172-71.5Z" fill="#fff"/><path d="M151.1-68.4c-.6,1.4-.9,3-.6,3.5.4.5.1.9-.6.9-.8,0-1,1.2-.5,4.1.7,4.7-.9,4.6-1.9-.2-.4-1.8-.2-3.6.5-4.4,1.5-1.9.1-1.9-2.2-.1-1.9,1.4-2.5,3.2-.8,2.1.6-.3,1,.5,1,1.9s-.4,2.7-1,3.1c-1.1.7-.2,3.5,1.2,3.5.5,0,.6-.9.3-2-.9-2.9.2-2.5,1.9.7,1.1,2,1.5,2.3,1.6,1,0-.9.4-1.7,1-1.7.5,0,.7-.7.4-1.5-.8-1.9,0-1.9,3.8.1,2.9,1.5,3.1,1.5,5.1-.7,1.8-1.9,1.9-2.2.3-1.6a11.792,11.792,0,0,1-2.2.7c-.3,0-.2.4.1,1,.9,1.5,0,1.2-3.9-.9-1.9-1.1-3.7-1.7-4.1-1.3s-.2-.3.4-1.6a3.748,3.748,0,0,1,2.9-2.1c1.6.1,1.6.2,0,.6-2.4.6-2.3,2.2.2,2,1.5-.1,1.9-.8,1.7-3.2-.2-2.7.1-3,2.8-3.3,2.8-.4,2.9-.3,1.4,1.5-2.5,2.8-3.1,5.3-1.3,5.3.8,0,1.7-1.3,2-3,.4-1.6,1.1-2.7,1.6-2.4.6.4.5-.3-.1-1.5-1.3-2.3-7.1-3-7.1-.9-.1.8-.6.6-1.4-.4C152.4-70.8,152.2-70.8,151.1-68.4Zm2.4,1.4c.3.5.1,1-.4,1a1.1,1.1,0,0,1-1.1-1c0-.6.2-1,.4-1C152.7-68,153.2-67.6,153.5-67Z" fill="#fff"/><path d="M184.5-70c-.3.6-2.3,1.9-4.3,2.9-3,1.6-3.4,2.1-2,2.6,1,.4,1.5,1.1,1.2,1.6s-.1.9.4.9c1.3,0,2.4-2.9,1.6-4.2-.3-.5,0-.9.7-.7,2.7.3,4-.1,3.4-1.1-.3-.6-.1-1,.4-1a1.1,1.1,0,0,0,1.1-1C187-71.3,185.3-71.3,184.5-70ZM181-65c0,.5-.2,1-.4,1-.3,0-.8-.5-1.1-1-.3-.6-.1-1,.4-1A1.028,1.028,0,0,1,181-65Z" fill="#fff"/><path d="M138-67.5c-1.6,2,.8,3.1,2.7,1.3,1.3-1.4,1.3-1.6,0-2.1A2.533,2.533,0,0,0,138-67.5Z" fill="#fff"/><path d="M169.4-65.9c-1.1,1.8,1.1,3.2,2.5,1.6.9-1.2.8-1.6-.3-2A1.875,1.875,0,0,0,169.4-65.9Z" fill="#fff"/><path d="M187.2-66.3a8.1,8.1,0,0,0-4.1,3.4c-1.8,3-1.8,3,1.1,6,1.6,1.6,3.4,2.6,4,2.3.7-.5.4-1.2-.8-2.2-1.4-1.1-1.5-1.3-.3-.9a3.074,3.074,0,0,0,2.8-.6c1.7-1.7,1.3-2.7-.6-2-1,.3-1.5.3-1.1-.2.4-.4-.3-1.6-1.5-2.6s-1.6-1.8-.9-1.9a1.12,1.12,0,0,1,1.2,1c0,.5.6,1,1.4,1,2.4,0,4.6,3,4.6,6.1,0,1.7.4,2.8.9,2.5a2.9,2.9,0,0,0,.6-2.3c-.3-2.5-3.7-10.3-4.4-10.2A26.159,26.159,0,0,1,187.2-66.3ZM187-60a1,1,0,0,1-1,1,1.075,1.075,0,0,1-1-1,1,1,0,0,1,1-1A.945.945,0,0,1,187-60Z" fill="#fff"/><path d="M136.1-62.4c0,1.1.3,1.4.6.6a2.026,2.026,0,0,0-.1-1.9C136.3-64.1,136-63.5,136.1-62.4Z" fill="#fff"/><path d="M162.3-63.4c1.1,1.1,6.8,1.4,6.2.4-.3-.6-2-1-3.7-1S161.9-63.7,162.3-63.4Z" fill="#fff"/><path d="M174.7-63.2c-.5.7-1.1,1-1.5.8s-1.3.2-2,1-.8,1.4-.3,1.4a5.078,5.078,0,0,1,2.4,1.5c1.3,1.2,1.7,1.2,3.2-.5,1-1.1,1.3-2,.7-2s-1.2-.8-1.4-1.8C175.5-64,175.2-64.2,174.7-63.2Zm.8,2.2c.3.5.1,1-.4,1a1.1,1.1,0,0,1-1.1-1c0-.6.2-1,.4-1C174.7-62,175.2-61.6,175.5-61Z" fill="#fff"/><path d="M140.7-62.4a2.7,2.7,0,0,0,0,2.2c.4.8.2,1.3-.3,1-.5-.4-.9.6-.9,2.2v2.8l2.2-2.2c1.5-1.5,2-3,1.6-4.4C142.8-63,141.9-63.5,140.7-62.4Z" fill="#fff"/><path d="M197-60c0,1.1.5,2,1,2,.6,0,.9-.6.8-1.3-.2-.6.3-1.1,1-.9.8.1,1.1-.2.7-.8A1.85,1.85,0,0,0,197-60Z" fill="#fff"/><path d="M134.1-60.1a4.727,4.727,0,0,0,2.7,2.2c1.6.6,2,.5,1.5-.7-.3-.8-.8-1.2-1.1-1-.3.3-1.2,0-2-.7C134-61.3,133.8-61.2,134.1-60.1Z" fill="#fff"/><path d="M177.4-54.2c.1,4.4.3,4.8,1.9,3.8.9-.6,1.7-1.4,1.7-1.8,0-.5.6-.8,1.4-.8,2.2,0,2.6,2.5.9,5-1.5,2.1-1.4,2.1.3,1.2,1.1-.6,2.7-1.7,3.7-2.4,1.8-1.3,1.8-1.5.1-2.9-1.6-1.2-1.7-1.2-.9.1.5.8-.5.1-2.2-1.5-3.3-3.3-6-5.5-6.6-5.5C177.5-59,177.4-56.8,177.4-54.2Z" fill="#fff"/><path d="M133.4-56.5c-.4.8-1,1.2-1.5.9-1.3-.7-1.1,1,.2,2.3.8.8,1.6.6,3-.8,2.3-2.3,2.3-2.5.4-3.3A1.627,1.627,0,0,0,133.4-56.5Z" fill="#fff"/><path d="M171.7-57.3a2.413,2.413,0,0,0-.7,1.7c0,.6.5.5,1.2-.2.6-.6.9-1.4.7-1.7A.841.841,0,0,0,171.7-57.3Z" fill="#fff"/><path d="M173.2-54.8c-.6.9-.4,1.9.8,3.1,1.3,1.4,2,1.5,2.6.6.4-.8.3-1-.5-.5-.8.6-1,0-.5-1.8C176.3-56.1,175-56.9,173.2-54.8Z" fill="#fff"/><path d="M190-54.1c0,1.2.5,2.1,1,2.1.6,0,1-.6,1-1.4a2.517,2.517,0,0,0-1-2.1C190.5-55.8,190-55.2,190-54.1Z" fill="#fff"/><path d="M167.3-54.3c-1.3.2-2.3.8-2.3,1.3,0,1.2-3.7,1.9-4.8.8-.5-.5-2.2-.6-4-.1-2.4.6-2.9,1.1-2.2,2.3.8,1.3,1.1,1.2,2.3-.4,1.4-1.8,3.7-1.5,3.7.5,0,.6-.4.8-.9.5-.5-.4-.7.4-.3,1.6.7,2.8,4,6,5.3,5.2.7-.4.9.1.4,1.5-.6,2-.5,2,2,.9,2.2-1,2.8-.9,3.6.3,1.2,1.9,1.2-.3-.1-3.5-.8-2.3-1.2-2.4-4.2-1.5-4.1,1.1-4.7,1.1-2.8-.1,1.3-.8,1.3-1,.1-1-1.1,0-.9-.4.5-1.5,1.3-1.1,1.4-1.4.4-1.3a6.411,6.411,0,0,0-2.7,1.8c-1.3,1.6-1.8.2-.5-1.6,1-1.6,7.3-4.7,8-4,.3.3,0,.6-.7.6-.8,0-1.1.8-.8,1.9a2.039,2.039,0,0,1-1.1,2.6c-.8.3-1.2.8-.9,1.2.4.3,1.4,0,2.3-.8,1-.8,1.9-1.3,2.1-1.2,1.2.9,2.3,0,2.3-2-.1-2.1-.1-2.1-1.4-.4-.8,1-1.7,1.4-2,.9a1.528,1.528,0,0,1,.1-1.6c.6-.5,1.5-3.9,1-3.5A10.74,10.74,0,0,1,167.3-54.3ZM169-43.1c0,.5-.7,1.1-1.5,1.5-.9.3-1.5,0-1.5-.9a1.538,1.538,0,0,1,1.5-1.5C168.3-44,169-43.6,169-43.1Z" fill="#fff"/><path d="M137.3-52.6a1.347,1.347,0,0,0,1.4,1.3c.7,0,1.3-.4,1.3-.8s-.6-.9-1.3-1.2C137.9-53.6,137.3-53.3,137.3-52.6Z" fill="#fff"/><path d="M119.5-49.1c-.5,1.8.9,7.1,2,7.1.3,0,.5-1.2.5-2.6,0-1.5-.4-2.3-1-1.9-.7.4-.9-.2-.4-1.9C121.3-51.4,120.4-52,119.5-49.1Z" fill="#fff"/><path d="M216-50.6a5.734,5.734,0,0,0,1.8,1.7c1.5,1.3,1.6,1.2.3-.4S216-51.4,216-50.6Z" fill="#fff"/><path d="M171.8-47.8c-1,1-1.3,1.9-.8,1.9,2.5.4,3,.3,2.9-.5A2.363,2.363,0,0,1,175-48c.9-.5.8-.8-.2-1.2A3.751,3.751,0,0,0,171.8-47.8Z" fill="#fff"/><path d="M141-44a1.075,1.075,0,0,0,1,1,1,1,0,0,0,1-1,.945.945,0,0,0-1-1A1,1,0,0,0,141-44Z" fill="#fff"/><path d="M158.6-43.1a1.522,1.522,0,0,0,.5,2.2c1.2.8,1.2,1,0,1.8-.9.6-.6.8,1.3.8,2.8,0,3.4-1.1,1.2-2.4a5.167,5.167,0,0,1-1.8-2.3C159.5-44.1,159.2-44.1,158.6-43.1Z" fill="#fff"/><path d="M122.6-41.3a1.665,1.665,0,0,0,.1,1.7c1,1,4.3.7,4.3-.4,0-.6,1.2-.2,2.8.9a18.016,18.016,0,0,0,7.2,2.6l4.5.5-4.2-1.3a19.688,19.688,0,0,1-6.5-3.1C128.3-42.6,123.3-43.1,122.6-41.3Z" fill="#fff"/><path d="M140.8-40.3a1.073,1.073,0,0,1,.5,1.6c-.3.7-.3.9.2.5a1.731,1.731,0,0,1,2.1.3c.9.8,1.1.5.7-1a2.448,2.448,0,0,0-2.7-2C140.5-40.9,140.1-40.6,140.8-40.3Z" fill="#fff"/><path d="M129.1-33.8c-.7,1.1-1.1,2.1-.9,2.3.2.1,3,.5,6.4.9,5.7.6,6.1.5,5.9-1.3-.2-2.7-.3-2.8-5.6-3.3C131.1-35.6,130.1-35.4,129.1-33.8Z" fill="#fff"/><path d="M136.2-23c0,1.4.2,1.9.5,1.2a5.278,5.278,0,0,0,0-2.5C136.4-24.9,136.2-24.4,136.2-23Z" fill="#fff"/><path d="M222.5-140.9c-2.6,1.7-2.7,1.9-.9,1.9a5.1,5.1,0,0,0,3.4-1.5C226.9-142.8,225.9-143,222.5-140.9Z" fill="#fff"/><path d="M147.2-18c0,1.9.2,2.7.5,1.7a10.278,10.278,0,0,0,0-3.5C147.4-20.7,147.2-19.9,147.2-18Z" fill="#fff"/></g></svg>