<svg xmlns="http://www.w3.org/2000/svg" width="176.717" height="57.138" viewBox="0 0 176.717 57.138"><path d="M2004,1847.487s35.04-.515,40.607.825,5.98,2.165,8.763,2.474,5.258-2.577,5.876-4.021,5.052-9.588,7.526-8.969c1.594.4,2.93,2.593,3.817,4.385.278.555,1.854,4.584,1.854,4.584a5.285,5.285,0,0,0,1.443,1.547c.722.387.722.206,1.443,0s1.443-.784,2.577.453,1.959,4.5,1.959,4.5c.876.619.755-21.288,1.8-34.125s2.439-19.806,3.485-19.806,2.575,10.424,2.962,19.806.825,17.114.825,17.114.825,17.423,1.443,18.763,2.268-.412,2.784-3.711,1.134-3.465,1.649-3.815,7.526.1,10.619,0,8.042-.1,14.846-5.98,11.341-8.248,15.361-7.835,10.413,4.846,12.887,7.32a20.525,20.525,0,0,0,16.186,6.495c9.073-.206,15.98,0,15.98,0" transform="translate(-2003.993 -1798.829)" fill="none" stroke="#fff" stroke-linejoin="round" stroke-width="1"/></svg>