<svg xmlns="http://www.w3.org/2000/svg" width="470" height="523.635" viewBox="0 0 470 523.635"><g transform="translate(-32.702 281.169)"><path d="M181.2-276.864c0,3.771.4,5.359.992,3.374a20.4,20.4,0,0,0,0-6.947C181.6-282.223,181.2-280.635,181.2-276.864Z" transform="translate(146.243 0)" fill="#fff"/><path d="M338.756-269.458l-7.542,7.741-2.183-5.16c-1.985-4.962-1.985-4.962-.794.794,1.786,8.733,1.786,8.138,0,29.971-1.191,14.291-.794,23.421.992,31.162,1.588,7.939,1.786,11.909.2,13.7-.992,1.389-2.977,6.351-4.168,10.916-1.588,5.954-3.97,9.13-7.542,10.916-2.977,1.389-6.748,4.764-8.138,7.542-2.58,4.764-2.779,4.764-1.786.4.6-2.58-.2-9.329-1.985-14.886a43.131,43.131,0,0,1-1.588-19.253c.794-4.962,1.786-12.9,2.382-17.863a66.748,66.748,0,0,1,2.779-14.688c2.779-8.733,1.786-11.115-1.191-3.176a50.676,50.676,0,0,0-2.779,14.489c-.2,4.565-.992,7.145-2.183,6.351-3.374-2.183-9.924-16.474-10.123-22.23,0-2.977-.6-4.367-1.191-2.977-1.786,4.367,1.389,15.68,5.954,21.436,3.573,4.565,4.367,8.535,4.565,20.642.2,8.138.992,21.039,1.786,28.383,1.389,12.7,1.191,13.894-3.374,18.856-3.374,3.573-5.557,8.733-6.351,15.085a115.05,115.05,0,0,1-3.374,16.871l-2.183,7.145-13.7-.6c-13.1-.6-13.894-.992-19.253-7.939-8.336-10.52-9.726-13.894-14.092-32.352-2.183-9.13-5.756-22.031-8.138-28.581l-4.367-11.909,4.168-18.856c2.382-10.321,6.748-23.619,9.726-29.574,7.145-14.489,7.741-16.672,1.786-7.145l-5.16,7.939-2.183-5.954c-2.183-5.756-1.985-9.527.794-17.863.992-2.58.4-2.382-1.588.992-3.573,5.756-3.97,12.7-1.191,18.062,2.183,3.771-1.389,26.4-5.954,38.505-3.176,8.535-2.382,18.062,2.977,31.161a253.427,253.427,0,0,1,7.939,26.993c3.573,17.069,3.771,17.665,15.878,33.146,5.161,6.55,14.092,21.237,20.047,32.749,6.351,12.7,14.489,25.009,20.642,31.36,5.359,5.756,9.924,10.321,9.924,9.924s-1.389-4.962-2.977-10.321a47.056,47.056,0,0,1-1.786-19.451c1.786-13.894,4.565-13.7,3.374.2-.794,8.138-.2,14.688,2.183,21.237,3.771,11.115,3.771,11.313,1.191,9.726-.992-.6-1.985-.4-1.985.794,0,.992-5.954-1.588-13.1-5.954-7.741-4.764-17.069-8.733-22.825-9.527-12.5-1.985-24.215-9.924-27.39-18.459-8.336-21.833-13.1-31.955-20.245-41.483-4.565-5.954-8.535-11.115-9.13-11.71-2.58-2.382,4.367,9.726,10.321,17.863,3.573,4.962,8.733,15.482,11.71,23.421,7.145,20.245,8.138,21.634,18.657,28.383,8.932,5.557,8.932,5.756,3.176,5.756-4.367,0-6.947-1.786-11.512-8.138-3.176-4.367-11.313-12.5-18.062-17.863C213.515-84.672,208.95-94.2,210.934-109.283a39.1,39.1,0,0,0-1.985-18.657c-4.168-12.107-3.771-14.688,3.374-18.062a40.336,40.336,0,0,0,11.313-9.924c4.962-6.748,4.764-6.748-4.168,1.389-5.16,4.764-10.52,8.535-11.71,8.535-2.382,0-2.382-.4,3.176-22.825,5.359-22.627,6.55-28.78,4.764-27.589-.992.4-2.183,4.168-2.779,8.336-.794,3.97-2.183,12.107-3.374,18.062L207.56-159.1l-3.771-4.962c-1.985-2.58-3.771-8.336-3.97-12.7-.2-7.741-.2-7.939-1.985-1.985-1.191,4.565-.794,7.344,2.183,12.5a31.11,31.11,0,0,1,3.97,13.7c0,5.756-1.389,8.336-7.344,13.5L189.1-132.7l-3.374-10.916c-1.786-5.954-2.977-13.7-2.382-17.069.794-5.954.794-5.954-1.389.6-1.588,5.557-1.389,8.535,1.389,15.879a55.2,55.2,0,0,1,3.176,20.047c-.4,9.329.6,12.5,5.557,20.444,3.771,5.954,5.954,12.107,5.954,16.474,0,8.932,4.168,17.069,12.306,23.421l6.55,5.161-7.145-2.382c-8.932-3.176-31.36-27.192-36.917-39.3-4.168-9.13-9.726-26-9.329-27.787,3.176-11.512,3.176-11.313-.2-5.359-2.977,5.16-2.977,6.351,0,13.7,1.786,4.367,2.779,8.336,2.382,8.733-1.191,1.191-11.115-6.947-13.3-11.115-2.977-5.756,1.389-25.8,7.145-31.955,2.58-2.779,4.764-5.756,4.764-6.947-.2-.992-2.382.794-5.161,4.168l-5.16,5.954,1.191-5.954c.794-4.565.6-4.962-.794-1.985a97.035,97.035,0,0,0-3.374,16.871l-1.786,12.9v-14.886c.2-8.932-.794-16.474-2.382-18.856-2.382-3.771-2.382-3.573-1.191.992.794,2.779,1.588,12.107,1.786,21.039.2,18.062,2.58,23.619,13.7,30.368,4.565,2.779,7.939,7.145,10.123,12.9,1.985,4.962,7.939,13.1,14.092,19.253,5.954,5.756,10.718,11.313,10.718,12.107,0,.992-4.565-.6-10.123-3.374C173.819-75.74,143.649-106.5,136.5-119.8c-4.367-8.336-4.962-12.5-5.954-39.1-.992-24.016-1.389-26.2-1.588-11.313l-.4,18.26-4.962-3.176c-2.977-1.985-6.153-7.145-7.939-12.5l-2.977-9.13.992,7.939c.794,5.557,2.977,9.726,7.741,13.894,5.557,4.962,6.748,7.741,7.741,17.069.6,6.153,2.58,14.092,4.367,17.665,3.771,7.344,3.573,7.939-3.176,6.55-3.771-.6-5.756-2.779-7.344-8.138-1.985-6.947-1.985-6.947-1.191-.992,1.389,7.939-1.389,8.336-6.748,1.588-2.183-2.779-4.565-4.962-5.557-4.962-.794,0,.992,2.779,4.168,5.954a33.143,33.143,0,0,0,14.489,8.336c5.557,1.389,13.1,5.954,21.436,13.1,13.7,11.71,16.672,16.474,6.351,10.321A82.145,82.145,0,0,0,139.481-94.6c-10.916-2.58-20.245-7.542-25.8-13.7-1.985-2.183-4.367-3.97-5.359-3.97-1.191,0,1.588,2.977,6.153,6.748l8.138,6.748L117.45-95.39c-3.97,2.58-5.557,2.779-7.939.794-1.588-1.191-3.374-1.786-3.97-1.191s.794,2.183,3.176,3.374c3.374,1.786,5.161,1.588,9.329-.992,4.764-3.176,5.756-3.176,17.268,0,15.878,4.367,31.36,11.71,36.124,17.069,1.985,2.382,9.13,6.947,15.879,9.924,11.313,5.161,12.306,6.153,14.688,14.688,2.58,9.13,11.313,18.856,17.069,18.856,1.588,0,2.779.992,2.779,2.183,0,.992,6.351,4.764,13.894,8.138,16.275,7.145,18.459,10.52,3.573,5.359-5.756-1.985-14.489-3.771-19.451-3.771-9.329,0-23.222-5.359-26.993-10.123-3.374-4.367-5.16-19.253-2.779-24.215,2.183-4.367,2.183-4.367-.992-.4-2.382,2.779-2.977,6.153-2.183,11.909.992,5.954.6,7.145-.794,4.565-1.191-1.985-7.741-7.145-14.489-11.71-9.329-6.153-10.718-6.55-5.756-2.183s5.756,6.153,3.771,6.947a5.837,5.837,0,0,1-4.565-.2c-.992-.794-.794-.2.6,1.389,1.985,2.382,2.977,2.382,5.557.2,2.977-2.382,4.764-1.389,14.489,8.932,13.1,13.3,18.26,15.878,37.116,17.863,15.283,1.786,15.878,1.389-11.512,6.947-6.153,1.191-10.916,3.176-10.321,4.168.794.992.2,1.786-.794,1.786a2.2,2.2,0,0,1-2.183-2.183c0-1.191-2.382-5.16-5.359-8.932-3.176-3.573-7.741-9.329-10.123-12.7-2.58-3.374-9.527-8.336-15.482-11.115a38.014,38.014,0,0,1-21.237-26.6c-1.389-5.557-13.3-24.413-14.688-23.222-.4.6,1.985,5.359,5.359,10.519,3.374,5.359,6.947,13.1,8.138,17.466,1.389,5.161,5.954,11.71,13.1,18.856,5.954,6.153,10.321,9.924,9.527,8.535-1.786-3.374,1.191-2.977,6.947.794,5.359,3.573,9.924,8.535,9.924,10.916,0,2.779-10.123-.794-12.7-4.565-1.985-2.779-2.977-3.176-3.573-1.191-.992,2.977-8.733-1.588-18.459-10.718-3.176-3.176-8.138-6.153-10.916-6.947a23.42,23.42,0,0,1-7.344-2.977,5.19,5.19,0,0,0-4.962-.992c-1.588.794-1.389,1.191.794,1.191,4.962.2,6.55,4.168,1.588,4.168-2.183,0-7.741-3.374-12.5-7.741-4.565-4.168-11.71-9.13-15.878-10.916-5.359-2.183-8.336-5.16-10.321-9.924-3.97-9.13-3.771-16.275.2-17.863,1.786-.794,2.779-1.786,2.183-2.58C90.06-95.787,84.9-90.229,84.9-85.863v3.97l-4.565-3.97A59.448,59.448,0,0,0,72.99-91.42c-1.588-.794.2,1.588,4.367,5.359,6.748,6.153,12.7,14.886,11.115,16.474-2.183,2.183-18.657-15.085-25.207-26.4-7.939-13.5-14.489-20.642-24.413-26.795-8.733-5.359-6.55-2.183,3.374,4.764,5.954,4.168,12.107,11.71,17.863,21.237,4.962,8.138,8.932,15.085,8.932,15.482,0,1.786-13.3-1.985-16.275-4.764-1.985-1.588-3.573-1.985-3.573-.992,0,3.573,4.565,5.954,13.5,7.542C72.792-77.923,92.441-65.221,100.777-55.1c6.55,7.939,8.138,12.9,2.382,7.741-1.985-1.985-4.168-2.977-4.764-2.382s-3.97-2.382-7.542-6.947-6.947-7.741-7.344-7.145c-.6.4,2.779,5.557,7.145,11.115,9.527,12.107,10.123,14.291,2.779,11.909-3.176-.794-8.138-2.183-11.512-2.779l-5.954-.992L81.922-41.8a36.974,36.974,0,0,0,10.123,2.977c2.382,0,6.55,1.786,9.13,3.97,2.779,1.985,5.359,3.374,5.954,2.977.6-.6.992.4.992,1.985,0,1.985-1.191,2.779-2.779,1.985-1.588-.6-6.748-.992-11.313-.992-6.55,0-10.321-1.389-16.077-5.954-5.954-4.764-9.329-5.954-15.68-5.557l-8.138.2,8.932.992L72-38.426l-6.55,2.58c-3.573,1.588-7.939,2.382-9.924,1.786-3.176-.992-3.176-.992.2,1.191,2.58,1.588,5.161,1.588,10.123-.2,5.756-2.183,7.344-1.985,12.306,1.588,3.573,2.58,10.123,4.367,17.466,4.962,8.336.794,12.5,1.985,14.886,4.962,4.168,5.161,21.436,14.886,22.825,12.9.4-.794-3.573-3.573-8.932-5.954-5.359-2.58-9.726-4.962-9.726-5.359,0-1.786,7.145.4,15.68,4.764,5.954,3.176,7.939,4.962,6.153,6.153s-1.389,2.183,1.985,3.97c2.382,1.191,3.771,2.779,3.176,3.374s-2.58,0-4.367-1.588-4.367-2.779-5.557-2.779c-1.191-.2-8.336-.992-15.68-1.786-11.313-1.389-14.688-2.779-19.65-7.542-3.97-3.97-7.344-5.557-9.924-4.764-2.382.4-8.138-1.389-13.7-4.367-7.741-4.367-9.924-4.962-12.107-2.779s-1.985,2.382.992,1.191c2.183-.794,6.351.6,11.313,3.97,5.359,3.573,9.527,4.764,12.5,4.168,2.779-.794,5.557-.2,6.947,1.588,3.771,4.565-18.657,10.519-29.177,7.741-4.565-.992-7.741-1.191-7.145-.4,2.382,3.97,17.665,4.367,27.986.794,8.932-2.977,11.313-3.176,15.482-.992,2.58,1.588,10.123,3.374,16.474,3.97L127.572-3.89,120.03-2.3c-3.97.992-9.13,1.191-11.313.6s-3.573-.2-2.779.794c1.389,2.382,10.718,2.183,17.863-.2C128.366-2.7,132.138-2.3,140.474.675L151.39,4.248l-8.336,2.382c-4.565,1.191-8.932,3.176-9.527,4.168-.6,1.191-2.779,1.985-4.565,1.985s-5.756,1.389-8.932,2.977c-4.367,2.183-7.145,2.382-15.283.4-5.557-1.191-9.924-3.374-9.924-4.764C94.823,9.011,77.158-3.89,75.57-2.5c-.4.6,2.977,3.573,7.542,6.55,4.565,3.176,8.733,6.947,9.329,8.138,1.191,4.367-5.161,5.161-12.306,1.786A33.2,33.2,0,0,0,66.639,11c-6.351.2-6.153.2,1.786,1.786,4.565.992,10.321,2.779,12.5,3.97,2.382,1.191,7.542,1.786,11.512,1.191a32.743,32.743,0,0,1,13.3.6c7.741,2.382,6.55,2.58-31.757,4.367-3.176.2-13.1-1.191-21.833-2.779-8.733-1.786-16.077-2.779-16.672-2.382-.794.794.4,1.191,21.634,5.359l12.9,2.58L58.3,32.432c-9.726,5.359-13.3,6.351-19.848,5.557-5.161-.794-6.947-.4-4.962.794,5.359,3.374,13.5,1.786,30.963-6.748C79.342,24.89,83.51,23.7,92.838,24.1A70.713,70.713,0,0,0,124.6,18.141c2.779-1.191,10.321-2.779,16.871-3.573a154.9,154.9,0,0,0,16.871-2.779L163.3,10.4l-4.962,4.367c-2.779,2.382-4.962,5.359-4.962,6.748a2.561,2.561,0,0,1-2.382,2.382c-1.389.2-3.573.4-4.764.6a1.117,1.117,0,0,0-.992,1.786c.6.992-3.573,1.588-9.329,1.191-8.932-.4-9.329-.4-3.374.992l6.947,1.588-5.954.4c-3.176,0-11.313,2.977-17.863,6.153-9.527,4.962-13.5,5.954-20.047,4.962a28.626,28.626,0,0,0-15.68,2.183c-6.153,2.58-9.13,2.779-15.68.992a35.311,35.311,0,0,0-17.069-.4l-8.932,1.985,9.924-.794c15.68-1.389,17.466,1.191,7.344,10.718-4.764,4.565-7.542,8.138-6.351,8.138.992,0,5.557-3.573,9.924-7.939s9.726-7.939,11.909-7.939c2.382,0,6.748-1.389,9.924-2.977q5.657-2.977,14.291-1.786c6.947.992,10.718.2,18.657-3.771,10.321-5.161,31.558-10.123,34.933-8.138,3.573,2.183-5.359,6.351-12.306,5.557l-6.947-.794,5.954,1.985c3.374.992,7.145,1.588,8.535.992,4.367-1.588,2.382,2.183-4.962,9.924-6.55,6.351-6.748,6.947-1.786,3.97,2.977-1.985,7.741-7.145,10.321-11.313s5.756-7.542,6.748-7.542,4.962-2.779,8.932-6.153c3.97-3.573,7.542-5.954,7.939-5.359.6.4-2.382,5.954-6.351,12.306l-7.145,11.512,4.367,5.161c7.145,8.932,8.733,14.489,6.351,21.634a31.342,31.342,0,0,0-1.786,12.9,19.846,19.846,0,0,1-12.7,19.253c-3.374,1.191-12.7,2.183-20.642,2.183s-14.886.6-15.283,1.588c-.6.794,3.374.992,8.932.6,9.527-.6,9.726-.4,7.542,3.771-2.977,5.557-7.542,7.145-12.306,4.168-2.183-1.389-4.367-1.985-4.764-1.588-.6.4,1.985,2.183,5.557,3.97,6.351,2.977,6.351,3.176,1.588,4.168-2.779.6-7.542,1.389-10.916,1.786-4.367.6-3.573.794,2.779,1.191,7.542.2,9.329-.6,15.283-7.145,3.771-3.97,6.748-8.138,6.748-8.932s2.977-1.588,6.55-1.588c11.71-.2,19.253-5.954,26.993-20.047,3.97-7.145,8.733-15.283,10.718-17.863s6.153-8.535,9.329-13.1c3.374-4.962,10.52-11.115,16.474-14.489,10.916-6.153,21.634-15.878,17.665-15.878-1.389,0-2.382.794-2.382,1.985,0,.992-1.191,1.389-2.779.794-3.176-1.191-28.383,20.047-32.154,27.192-1.389,2.977-5.16,8.138-8.138,11.909a79.349,79.349,0,0,0-8.932,13.5l-3.374,7.145,1.191-7.939a43.343,43.343,0,0,1,3.374-11.909c1.191-2.183,2.382-12.107,2.58-21.833.6-27.39.6-27.192,8.535-33.742,4.168-3.374,7.145-6.55,6.55-7.344-.4-.794.4-.992,1.985-.4s3.573.2,4.367-.992c.794-1.389,9.924-2.183,24.016-2.183h23.024l-7.344,9.726c-3.97,5.557-7.542,11.71-7.939,13.7-.4,2.183-6.351,11.115-13.3,20.245-19.848,25.8-21.436,28.184-26.6,38.9-2.58,5.557-8.932,13.894-13.894,18.26-8.535,7.939-8.932,8.535-5.954,12.7,4.764,6.748,3.97,8.336-7.939,17.466-5.954,4.565-10.52,8.733-9.924,9.329s5.161-2.382,10.123-6.351c10.123-8.336,12.7-8.138,8.336.794a62.215,62.215,0,0,0-4.367,11.909c-.6,3.176-3.374,7.741-6.153,10.123-2.58,2.58-4.764,5.359-4.764,6.153,0,3.771,10.52-8.733,13.1-15.482l2.977-7.542-1.191,11.909c-.794,6.55-1.588,13.7-2.183,15.878-.794,3.176-.6,3.374.992.794.992-1.588,2.779-11.909,3.97-22.825,1.588-16.077,3.176-21.833,8.535-31.558,3.374-6.55,8.932-13.894,11.909-16.672,7.542-6.153,11.115-13.7,13.7-27.589a49.4,49.4,0,0,1,9.329-20.84c7.741-9.924,9.527-11.512,7.542-5.954-.992,2.977-.794,2.977,1.786-.2,1.588-2.183,2.977-5.359,2.977-6.947a27.018,27.018,0,0,1,3.176-8.138c1.985-3.374,2.58-3.771,1.786-.992-.794,2.183-2.183,6.153-2.977,8.932s-3.97,9.924-6.748,15.878c-2.977,6.153-5.161,14.688-5.359,19.848-.2,7.344-.4,8.138-1.786,3.97-2.977-8.932-2.183-17.268,2.183-22.627,2.382-2.977,3.771-5.954,3.176-6.55-2.183-1.985-9.329,12.306-9.329,18.856a44.831,44.831,0,0,0,2.977,13.7c3.771,8.932,1.588,18.062-6.748,28.581-3.374,3.97-6.947,11.512-8.138,16.672a48.384,48.384,0,0,1-7.741,16.474c-3.176,4.168-6.351,10.52-7.145,14.291-.6,3.771-1.786,8.733-2.183,10.916-.794,2.977-.6,3.374.794.992.992-1.588,2.58-6.55,3.374-10.916,1.191-6.748,1.588-7.344,3.374-4.168,1.191,1.985,1.588,6.947.992,10.916l-.992,7.145,2.58-5.756c1.786-4.168,1.786-7.542.6-11.909-1.786-5.359-1.191-7.542,2.977-13.5A50.384,50.384,0,0,0,202.8,128.5c.6-4.168,4.168-11.313,8.138-16.275,3.771-4.764,6.947-10.52,7.145-12.9,0-3.771.2-3.771,1.985.794,2.382,5.756-2.382,16.077-8.733,19.054-2.183.992-4.367,3.176-4.764,4.764-.6,1.985-.2,1.786,1.389-.6,1.191-1.786,2.977-3.374,3.97-3.374,3.374,0,2.183,4.962-2.977,11.909-2.779,3.771-4.962,8.138-4.962,9.726,0,1.786,1.389.4,3.176-2.779,5.756-11.115,7.344-10.718,6.153,1.786-.794,7.741-2.779,14.092-6.153,19.253-4.168,5.954-5.16,9.924-4.962,18.062l.4,10.519,1.191-10.916c.6-5.954,2.58-12.9,4.367-15.482l3.176-4.367,3.573,3.97c1.985,2.382,4.367,7.939,5.16,12.5l1.191,8.336.4-7.542a19,19,0,0,0-3.771-12.7c-3.374-4.367-3.771-6.947-2.58-20.245,1.191-14.688,5.954-27.192,17.069-44.063a37.2,37.2,0,0,0,4.565-11.909c.794-3.573,2.977-8.336,4.962-10.321,2.183-1.985,3.771-4.367,3.771-5.161,0-.992,2.382-2.382,5.557-3.176,7.741-1.786,12.306-6.748,12.306-12.9a13.914,13.914,0,0,1,4.168-9.13c6.947-6.351,9.726-13.894,9.726-26.6,0-18.062,2.183-17.069,22.23,9.726,11.512,15.283,18.856,21.237,31.162,26,6.55,2.382,12.9,5.557,14.092,6.947,1.588,1.985-1.985,6.748-15.283,20.245-9.527,9.726-23.619,24.215-31.36,32.352-7.542,8.138-18.26,17.466-23.818,20.84-13.894,8.336-19.451,17.268-18.26,29.375.6,6.947,2.382,11.115,6.55,15.482,4.962,5.359,39.3,29.574,41.681,29.574,1.985,0-10.321-9.329-24.413-18.657-7.741-4.962-15.482-11.512-17.268-14.092-9.329-14.291-4.565-27.787,13.5-38.505,7.344-4.367,23.421-18.657,41.681-36.719,28.383-28.383,29.772-29.574,31.36-24.81,2.183,5.756.6,17.863-3.573,26-4.168,7.939-18.26,21.436-22.627,21.436-1.985,0-8.138,3.176-13.7,6.947s-11.512,6.947-13.1,6.947c-3.374,0-3.97,1.389-5.756,11.71-1.588,8.535.794,6.748,2.58-2.183.794-4.367,2.58-6.748,5.16-7.145a18.535,18.535,0,0,0,7.542-3.97c3.176-2.779,3.374-2.58,2.183,3.176-.794,4.168-.6,6.351.992,6.351,1.191,0,2.183-2.58,2.183-5.954,0-5.161,1.389-6.55,9.924-10.916,11.512-5.756,11.313-5.756,11.313-2.183,0,1.588-.6,2.779-1.389,2.58s-5.16,2.58-9.726,6.153c-6.153,4.962-8.336,8.336-9.329,14.291-.794,4.367-1.985,7.939-2.779,7.939s-.992-2.382-.6-5.557c.6-4.168.2-3.573-1.985,2.183-1.588,3.97-3.771,8.535-4.962,9.924-3.374,4.168-4.962,17.069-2.382,20.047a34.516,34.516,0,0,1,3.97,8.535c1.191,4.168,1.588,4.565,1.786,1.588.2-2.183-1.191-6.153-2.977-8.535-3.97-5.557-2.382-15.878,3.176-22.627l3.771-4.565.2,11.115c0,13.5,2.977,23.024,9.13,29.772,2.58,2.779,4.764,5.954,4.764,7.344s.794,2.382,1.588,2.382c.992,0,2.779,1.985,3.97,4.367,2.183,4.367,2.183,4.168,1.191-.992-.794-2.977-.4-5.359.6-5.359,3.176,0,10.718,6.351,12.7,10.718,3.771,8.138,7.741,14.092,7.741,11.512,0-1.389-1.588-4.764-3.374-7.741-3.374-4.962-3.374-5.161.4-2.977,2.183.992,6.55,4.764,9.726,8.138,3.374,3.374,7.344,6.153,8.932,6.153,1.786,0-.2-2.183-4.367-4.962-3.97-2.779-7.344-5.756-7.344-6.55,0-2.779-22.23-16.474-25.009-15.482-2.58.992-14.688-11.71-14.688-15.68a13.5,13.5,0,0,1,1.985-4.962c1.786-2.58,3.176-1.786,8.138,3.97,5.557,6.351,5.756,6.351,3.573,1.588a25.5,25.5,0,0,0-6.55-8.336c-3.374-2.183-4.367-4.962-4.764-14.489-.6-11.115-.2-12.5,6.351-20.245,3.771-4.565,7.542-9.924,8.138-12.107.6-1.985,4.367-5.756,8.138-7.939,3.573-2.382,6.748-4.962,6.748-5.557,0-.794,2.382-2.58,5.557-3.771,2.977-1.389,7.542-6.153,10.321-10.718,8.138-13.1,10.718-13.3,15.085-.6,3.573,10.52,3.573,10.916,0,17.466-1.985,3.771-2.977,7.939-2.183,9.13.794,1.389.4,4.565-.992,7.145-1.985,3.573-2.183,5.756-.4,9.13l2.382,4.565-1.191-4.565a9.915,9.915,0,0,1,1.191-7.344c1.389-1.588,1.786-5.161.992-8.733l-1.191-5.954,6.748,6.351c4.168,3.771,7.344,8.733,7.939,12.306l.794,5.954.4-6.153c.2-4.367-1.588-7.542-6.55-12.5-6.153-5.954-6.55-6.947-4.168-11.313,2.183-4.168,1.985-6.55-1.389-15.878-2.183-6.153-3.374-11.512-2.779-12.107.992-.992,32.551,31.162,35.528,36.521,2.779,4.565-.2,12.306-7.542,19.65-3.771,3.771-6.947,7.939-6.947,9.13s-1.191,3.771-2.382,5.557c-1.389,1.786-.794,1.191,1.389-1.191a69.4,69.4,0,0,0,6.351-7.939c2.382-3.771,2.58-3.771,5.557,0,1.786,2.382,2.58,5.756,1.786,7.939-1.588,5.359-10.718,15.085-13.894,15.085a4.5,4.5,0,0,0-3.573,1.786c-1.786,2.977,7.542,0,10.122-3.176,1.786-2.382,2.58-1.588,4.565,4.367,1.389,3.97,2.779,6.947,3.176,6.351.4-.4-.2-3.573-1.389-6.947-1.786-4.962-1.588-7.145.992-10.718,3.771-5.16,3.97-10.123.992-15.085-1.786-2.779-1.588-4.962.794-9.527,2.779-4.962,3.176-5.161,3.374-1.588,0,2.382,1.786,8.336,3.97,13.3,3.176,6.947,3.573,10.123,1.985,14.291a36.691,36.691,0,0,0-1.985,9.924c0,5.557,3.573,15.878,5.161,14.489.4-.6,0-3.374-1.389-6.153-2.58-5.557-.794-20.047,2.382-18.26.992.794,1.985,4.168,1.985,7.542l.4,6.351.794-5.756a19.992,19.992,0,0,0-.992-9.924c-7.145-15.085-10.123-23.222-11.313-30.963-1.786-11.313-5.954-19.65-12.306-25.009-5.161-4.367-9.527-18.459-7.542-24.612,1.389-4.367-2.183-13.7-7.344-19.253-5.359-5.756-4.367-6.748,4.367-3.771,6.748,2.183,6.947,2.58,7.939,14.291.992,12.9,3.573,17.268,14.489,25.009,3.176,2.183,5.954,3.573,6.55,2.977.6-.4-2.183-2.977-6.153-5.359-8.535-5.359-12.9-13.1-12.9-23.222l.2-7.542,5.756,6.947c3.374,3.771,8.733,12.7,12.107,19.848,5.557,11.512,6.153,14.092,4.962,25.406-.794,10.321-.4,14.092,2.779,20.444,2.183,4.168,3.97,10.321,3.97,13.7s1.389,9.13,2.977,13.1c1.588,3.771,2.183,8.336,1.588,10.123-.992,2.183-.6,2.779,1.191,1.588,1.588-.794,2.183-3.573,1.588-6.55l-.992-5.161,3.771,4.962c1.985,2.58,3.771,4.168,3.771,3.573s-2.58-4.565-5.954-8.733c-5.756-7.344-7.939-14.886-3.97-14.886.992,0,3.176,2.382,4.962,5.359,2.977,5.359,2.977,5.359,1.786.6-1.191-4.367-2.779-6.153-6.748-8.336-.6-.4-2.977-4.764-5.557-9.924-3.97-8.138-4.168-10.321-2.382-17.863,1.786-7.145,1.588-10.321-.992-17.466-1.786-4.962-3.573-11.71-3.573-14.886-.2-3.573-1.389-5.756-2.977-5.359-1.389.2-3.176-1.588-4.168-3.97-.992-2.58-5.557-8.932-10.321-14.489-8.733-9.726-7.542-10.321,2.58-1.389,6.55,5.954,14.886,10.321,21.436,11.71,10.321,1.786,16.871,7.344,19.451,16.474a162.274,162.274,0,0,0,6.351,17.268c2.183,4.764,3.176,8.535,2.382,8.535-2.779,0-10.519-9.13-9.13-10.52.794-.794-1.588-5.161-4.962-9.726C442.76,98.923,438.2,92.175,436.012,88.4c-2.183-3.573-4.367-6.153-4.962-5.756-1.389,1.389,8.535,18.26,13.1,22.428,2.183,1.985,3.97,4.565,3.97,5.557,0,1.191-1.985.2-4.565-2.183s-5.954-4.367-7.741-4.367-4.565-1.985-6.153-4.367c-1.786-2.58-3.176-3.374-3.176-2.183-.2,3.771,7.145,10.52,11.512,10.52,2.183,0,6.153,2.779,8.733,5.954,3.97,4.565,4.962,7.542,4.168,12.5a24.81,24.81,0,0,0,2.183,13.3c2.977,6.351,2.779,3.97-.2-5.954-.794-2.779-.4-3.97,1.786-3.97,1.786,0,3.573,1.985,3.97,4.367.794,4.565.794,4.565,1.191,0,.2-3.176-1.191-5.161-3.771-5.756-2.183-.6-3.97-1.786-3.97-2.779,0-3.374,3.176-3.176,7.741.4,4.565,3.771,4.764,4.168,2.183,14.688-1.985,8.138-1.985,12.306-.4,17.268l2.183,6.55-.992-6.748c-1.389-7.344,2.183-7.145,5.16.6l1.786,4.168v-4.168c.2-2.382-1.588-5.557-3.771-6.947-3.573-2.58-3.771-3.573-1.786-11.313,2.183-8.138,2.382-8.336,5.954-5.161,3.771,3.374,8.336,16.474,7.344,21.237-.6,3.374,4.764,17.268,6.748,17.268.992,0,.4-2.58-1.389-5.954-2.977-5.756-3.97-13.894-1.786-13.894,3.374,0,9.13,4.962,10.917,9.329.992,2.779,2.382,4.565,2.977,4.168,1.985-2.183-3.771-10.718-9.726-14.489-3.573-2.183-6.55-5.954-6.947-8.535-.4-2.382-3.771-7.542-7.542-11.512-4.565-4.962-8.535-12.5-12.107-23.421-5.557-17.466-13.894-27.986-23.818-29.971-8.138-1.786-16.474-6.55-24.612-14.291-6.947-6.55-14.688-7.542-12.306-1.389.794,2.183,0,2.382-5.16.6-7.741-2.779-8.138-6.748-.6-4.962,5.161,1.191,5.161,1.191,1.588-1.786-2.183-1.588-2.977-2.977-1.786-2.977a4.169,4.169,0,0,1,3.573,1.985,4.635,4.635,0,0,0,3.176,1.985c4.565,0-1.389-4.764-11.909-9.527-6.153-2.779-11.71-5.161-12.5-5.161a9.525,9.525,0,0,1-2.977-1.985c-.992-.992-.4-1.191,1.191-.2,1.985,1.191,2.382.6,1.389-2.58-1.191-3.374-.2-4.168,6.153-4.962,4.168-.4,12.9-1.985,19.253-3.176,14.489-3.176,21.436-1.786,32.948,5.756,4.962,3.176,10.718,5.954,12.9,5.954s8.932,2.58,14.886,5.756c6.351,3.176,15.482,6.153,21.833,6.748,6.748.6,9.329.4,6.947-.6-2.183-.992-7.542-1.786-11.909-1.786l-7.741-.2L476.9,48.31a62.8,62.8,0,0,1,16.871-5.756l8.932-1.389-7.542-.4a40.2,40.2,0,0,0-15.283,3.771c-9.726,4.962-14.092,4.962-22.23,0-3.573-2.183-7.939-3.97-9.726-3.97-4.168,0-7.741-8.336-7.741-17.863C440.18,8.416,424.3.675,410.21,7.82c-3.176,1.786-6.748,2.58-7.741,1.985s-4.565.2-8.138,1.985c-3.374,1.786-6.55,2.977-6.947,2.58-.4-.6,1.588-5.557,4.565-11.313l5.161-10.52,8.138,1.588c4.565.992,18.459,1.389,31.162,1.191,21.634-.4,23.421-.2,30.765,4.565l7.741,5.16L468.166-1.31l-6.748-6.351L441.768-6.47c-14.489.992-21.436.4-27.787-1.786a45.93,45.93,0,0,0-19.253-1.786c-12.306,1.191-16.077,2.977-6.351,2.977,5.557,0,5.954.4,3.771,3.176-6.153,7.741-17.466,18.657-19.253,18.657-.992,0-2.58,1.191-3.374,2.382-.794,1.389-.794,1.985,0,1.191.794-.6,3.176.2,5.16,1.786,3.374,2.977,3.374,3.573.6,7.939-2.183,3.176-3.771,4.168-5.161,2.779s-1.191-2.977.6-5.161c2.977-3.771.992-6.748-2.382-3.374a10.75,10.75,0,0,0-1.588,12.5c1.389,2.382.794,4.168-1.588,6.351-5.16,4.565-5.359,13.5-.4,14.688,2.183.6,3.97,2.58,3.97,4.367,0,2.58-.4,2.779-1.786.4-1.389-2.183-1.985-1.191-2.58,3.97l-.794,6.748L361.979,63c-.992-4.565-2.779-8.138-3.97-7.939s-1.786-.992-1.389-2.58.992-5.756,1.389-8.932c.794-8.932,2.977-14.886,5.359-14.886,1.191,0,1.389-.6.794-1.191-.6-.794-.6-2.779.4-4.565,2.779-5.557,4.367-14.092,2.382-14.092-.992,0-2.779,2.977-4.367,6.351-1.389,3.573-2.58,6.748-2.977,7.145-.6.992-8.733-4.367-8.733-5.756,0-.794,1.985-1.985,4.565-2.58,2.382-.6,8.336-4.764,13.1-8.932,8.932-8.138,15.878-9.13,11.909-1.985-1.191,2.183-1.191,3.771,0,3.771.992,0,2.779-2.779,3.97-5.954,1.985-5.756.992-7.145-4.367-6.153-.992.2-1.389-.794-.992-2.183.6-1.389,3.374-2.779,6.153-3.176,2.977-.4,5.359-1.786,5.359-2.977,0-1.389.794-1.191,1.985.6,1.389,2.382,1.985,2.382,1.985.2,0-1.389,1.191-2.183,2.977-1.588,1.588.794,3.374.4,3.97-.6s5.954-2.779,11.909-3.97c13.7-2.779,22.428-9.726,23.222-18.459.6-5.756,1.191-6.351,8.138-6.947,5.954-.6,8.733.4,12.306,3.97,7.741,7.542,16.672,13.894,18.856,13.1,1.191-.4-2.382-3.573-7.939-7.145-12.306-8.138-12.7-10.916-1.191-10.123,4.764.4,8.336.2,7.741-.794-.4-.794.2-1.389,1.389-1.389,3.176,0,20.245-10.123,19.054-11.512-.6-.4-3.374.6-5.954,2.382-6.153,3.97-6.55,3.97-7.741-.4-.794-2.58-.992-2.183-1.191,1.191-.2,5.954-5.557,7.741-23.619,8.138-13.894.4-14.489.2-12.306-3.573,3.176-6.153,5.557-6.748,9.329-2.183,1.985,2.183,4.565,3.97,5.954,3.97s0-2.382-3.176-5.557c-3.374-2.977-6.153-6.947-6.55-8.932-.6-3.176.992-3.771,9.329-4.367a138.927,138.927,0,0,0,18.856-2.779l8.932-1.985-8.932.794c-4.962.4-11.909,1.389-15.283,1.985-7.741,1.588-7.939.794-2.382-7.542l4.168-6.351-5.756,6.748-5.756,6.55.794-12.107A71.385,71.385,0,0,0,451.3-106.5c-3.176-11.115-3.176-12.5,0-20.841,1.786-4.764,2.779-9.329,1.985-10.123-.6-.6-1.191.2-1.191,1.985s-.794,3.374-1.786,3.374c-.794,0-2.779,5.16-4.168,11.71-1.786,8.733-1.985,14.092-.2,21.833,2.977,13.7.992,30.566-3.97,33.543-4.565,2.977-4.962.4-1.588-9.329,1.786-4.764,1.588-11.115-.2-24.612-2.183-17.069-1.985-18.856,1.985-28.978,3.176-8.138,3.97-14.092,3.573-24.81-.4-7.741,0-16.275.794-19.054s.2-1.786-1.588,1.985-3.97,15.482-4.764,25.8c-.992,10.321-2.58,22.031-3.771,25.8s-1.786,11.71-.992,17.863c.794,7.542.2,13.7-1.985,19.65-1.786,4.764-3.176,11.115-3.176,14.291,0,3.97-.992,5.756-3.176,5.756-1.588,0-2.58-.794-1.985-1.588s0-5.557-1.191-10.52c-2.977-12.9-1.985-27.39,2.58-33.742,2.58-3.771,3.771-8.336,3.573-15.085l-.4-9.527L428.47-120.8c-.794,5.557-1.786,10.916-2.58,11.512-2.779,2.779-5.756-1.588-4.764-6.748.992-4.367.992-4.565-.992-1.389-1.588,2.58-1.588,4.764,0,7.939,1.786,2.977,1.786,5.954.4,9.527a20.543,20.543,0,0,0-.794,9.726c1.191,4.168.6,3.97-5.954-2.183-7.145-6.748-7.344-7.344-5.954-17.466.992-8.733,1.985-10.916,5.756-12.5,5.756-1.985,6.351-3.771.794-2.382-5.16,1.389-4.962.4.992-8.535,3.573-5.16,4.962-9.726,4.764-15.482l-.4-8.138-1.191,8.932a45.945,45.945,0,0,1-6.748,16.474,45.715,45.715,0,0,0-6.351,16.871c-2.183,16.077-4.764,20.642-3.771,6.351,1.588-19.848,1.588-20.841-3.374-30.765-3.97-7.741-4.168-10.123-2.382-16.871.992-4.367,1.191-7.344.4-6.748-4.168,2.58-4.168,14.886.2,25.207,3.771,9.13,4.168,12.306,2.779,20.444l-1.786,9.726-4.764-7.542c-6.153-10.123-8.733-29.971-4.764-37.91,1.786-3.374,1.985-4.962.6-4.168a13.63,13.63,0,0,0-3.771,5.557c-1.389,3.771-1.786,3.374-4.168-3.374-2.183-6.947-1.985-8.336,4.168-21.039,5.16-10.718,7.741-14.291,12.5-15.878,3.176-.992,5.359-2.58,4.764-3.176-.794-.6-3.97.4-7.344,2.183-4.367,2.183-7.939,6.748-11.909,15.482-6.55,14.092-8.138,10.718-2.183-4.565,2.183-5.557,3.97-11.909,3.97-14.092,0-6.55,5.756-15.482,12.5-19.848,5.557-3.573,5.756-3.97,1.389-2.779-6.351,1.588-13.5,9.527-14.886,16.474-.6,2.977-2.58,10.519-4.565,17.069l-3.374,11.512-8.932-8.535c-6.351-6.55-7.741-7.145-4.565-2.779a59.133,59.133,0,0,0,8.336,9.726c2.382,2.183,4.168,4.962,4.168,6.351,0,1.588,2.382,9.527,5.161,17.665,2.779,8.336,4.764,16.871,4.168,19.054-1.191,4.168,4.168,15.482,10.52,22.627,4.764,5.557,5.954,13.7,2.779,22.428-2.58,7.344-3.771,17.863-1.786,15.879.6-.6,1.985-4.962,2.977-9.726l1.786-8.733-.6,9.527c-.992,13.7-3.97,15.482-8.932,5.756-5.161-10.123-7.542-11.313-25.009-13.3-22.825-2.58-25.6-2.183-34.933,4.565-4.565,3.573-10.321,6.351-12.5,6.351-3.374,0-2.779-1.191,3.374-6.153,13.5-11.115,18.657-27.192,12.5-39.3-5.359-10.123-8.535-10.321-3.573-.2,4.565,9.13,4.764,10.916,2.58,18.062-2.183,7.542-17.466,25.009-19.65,22.627-.6-.4,0-1.985.992-3.374,2.779-3.573,6.153-22.428,8.535-47.437a329.353,329.353,0,0,1,5.756-35.727c4.565-17.466,5.16-29.375,2.183-41.483-1.786-6.748-1.786-14.092.2-30.765,2.382-21.634,2.58-21.833,10.321-29.375,4.367-3.97,7.344-7.344,6.351-7.344C347.092-277,342.924-273.626,338.756-269.458Zm-9.924,92.492c-1.389,6.153-2.779,10.718-3.176,10.321-.6-.4.2-5.954,1.389-12.107s2.779-10.718,3.374-10.321C331.016-188.477,330.222-182.92,328.832-176.966Zm-3.97,17.069c.2,2.58,0,2.58-1.786,0-1.389-2.183-1.985-2.382-1.985-.4,0,1.389-2.382,6.748-5.359,11.71-5.359,9.13-5.359,9.13-6.748,3.97-1.985-7.145,2.58-19.253,8.336-22.428,4.168-2.183,4.962-1.985,6.153.794A19.322,19.322,0,0,1,324.863-159.9Zm-2.977,17.268c-1.588,18.856-2.58,20.841-5.954,11.512-2.58-7.344-2.382-8.535,1.786-16.474,2.382-4.565,4.565-8.336,4.764-8.336S322.481-149.972,321.885-142.628Zm121.669,1.985c-.4,3.176-.794.6-.794-5.359s.4-8.535.794-5.557A50.172,50.172,0,0,1,443.554-140.643ZM307.4-131.712c-1.191,3.374-2.183,12.9-2.183,21.237,0,19.253-1.985,22.627-7.741,14.291-2.382-3.374-3.573-6.153-2.382-6.153.992,0,3.374,1.985,4.962,4.367,1.786,2.382,3.176,3.374,3.176,2.183s-2.382-4.168-5.359-6.55c-5.161-4.168-5.359-4.367-2.977-15.68a99.3,99.3,0,0,0,2.382-16.275,18.508,18.508,0,0,1,3.374-9.527l3.176-4.764,2.779,5.359C308.786-139.056,308.984-136.277,307.4-131.712Zm-99.439,22.23c0,17.268,4.962,28.383,15.878,35.925,8.733,6.153,24.612,22.627,23.222,24.016-.4.6-6.947-1.389-14.092-4.367-11.115-4.367-13.894-6.55-17.069-12.7a47.609,47.609,0,0,0-9.924-12.5c-3.771-3.176-5.954-6.947-5.954-10.321,0-2.779-2.779-9.924-6.153-16.077-7.741-13.7-7.145-22.627,2.382-31.36l6.351-5.756,2.58,9.726C206.568-127.544,207.759-117.024,207.957-109.482Zm106.981-18.459a54.152,54.152,0,0,1,2.183,14.489c-.2,10.321-6.947,36.322-8.733,33.345-1.588-2.58-1.389-40.49.2-48.826C309.977-135.88,312.358-135.483,314.939-127.941ZM451.891-86.458A37.085,37.085,0,0,1,450.3-75.74c-.794,2.382-1.389-.794-1.389-7.939a132.981,132.981,0,0,0-1.191-20.642l-1.588-8.932,2.977,9.924A74.234,74.234,0,0,1,451.891-86.458ZM286.953-105.115c2.382.794,4.367,2.183,4.367,3.176s2.779,5.359,6.153,9.527l6.153,7.741-2.382,12.9c-1.389,7.145-1.786,15.482-.992,18.459l1.389,5.557-6.351-5.954c-3.573-3.374-10.718-14.886-16.275-25.8s-11.313-21.436-13.1-23.421c-2.779-3.176-2.382-3.374,6.748-3.374A81.656,81.656,0,0,1,286.953-105.115ZM412.194-90.428l6.748,5.756-6.153,5.161c-4.168,3.374-7.145,8.733-9.329,15.878-1.588,5.954-3.97,10.916-5.16,10.916s-1.389-1.191-.6-2.382c1.985-3.176,2.58-6.748,3.97-26,.794-8.336,1.786-15.283,2.58-15.283A61.664,61.664,0,0,1,412.194-90.428Zm26,15.68c-2.977,12.5-5.954,17.466-5.954,9.924,0-6.55,6.748-28.184,7.741-24.215C440.379-87.252,439.585-80.7,438.2-74.748Zm-58.949-8.535c1.786.6,6.351,5.756,10.123,11.512,5.16,7.939,6.351,11.909,5.557,16.275-1.389,7.542-19.848,26.6-31.162,32.352-4.962,2.58-15.085,10.718-22.627,18.26-7.344,7.542-14.688,13.7-16.275,13.7-4.367,0-6.947-21.436-6.947-54.582.2-26,.4-27.787,4.168-28.581,2.183-.4,6.947-3.374,10.916-6.55,6.947-5.756,7.145-5.756,24.81-4.565C367.735-84.672,377.262-83.679,379.246-83.283Zm41.88,8.932c2.183,11.313,1.389,14.886-3.771,17.268a24.915,24.915,0,0,1-9.329,2.382c-3.176,0-3.771-.794-2.779-4.565a37.368,37.368,0,0,0,1.191-6.748c0-2.779,9.527-14.489,11.909-14.489C419.141-80.5,420.332-77.725,421.126-74.351ZM212.324-67.6c2.183,3.97,2.183,3.97-2.183,0a28.9,28.9,0,0,1-6.55-7.939c-2.183-3.97-2.183-3.97,2.183,0A28.9,28.9,0,0,1,212.324-67.6ZM314.74-58.274c.6,16.275-2.58,16.871-4.764,1.191-1.191-7.939,0-12.107,4.168-15.482C314.343-72.564,314.542-66.015,314.74-58.274Zm130.6.992a33.51,33.51,0,0,1-5.954,8.336c-2.779,2.382-3.176,1.985-3.176-2.977,0-4.168,1.588-6.748,5.359-9.13C448.516-65.221,449.112-64.427,445.341-57.281ZM112.686-51.724q10.123,8.932,15.482,8.932c3.176,0,6.748,1.191,8.138,2.382,2.183,1.985,2.58,1.985,1.389,0-2.977-5.161,4.367-1.985,12.9,5.557,4.764,4.367,11.313,8.932,14.688,10.321a35.867,35.867,0,0,1,9.329,5.954C176.6-16.593,179.376-15,180.964-15c1.389,0,3.97,1.588,5.359,3.374,2.58,2.977,2.183,3.176-2.183,1.985a40.937,40.937,0,0,0-9.527-1.389c-2.382,0-6.351-2.382-8.932-5.161a46.315,46.315,0,0,0-11.313-8.733c-3.771-1.985-8.733-5.359-10.718-7.741-2.977-3.176-5.954-4.168-12.9-3.771l-9.13.2,7.939.794c4.367.6,9.726,2.58,11.909,4.565a66.164,66.164,0,0,0,9.924,6.55,33.418,33.418,0,0,1,9.726,7.145c3.771,4.168,3.771,4.168-1.985,4.168-3.176,0-7.542-1.389-9.527-2.977-2.183-1.588-5.756-2.977-7.741-2.977-2.183,0-8.733-3.97-14.489-8.932-10.916-9.527-29.971-32.749-26.6-32.749C101.77-60.656,107.129-56.686,112.686-51.724ZM216.1-57.877c2.779,0,2.977.992,1.588,4.962-1.191,2.58-1.389,7.344-.794,10.52,1.588,6.748-.794,7.145-6.351.992C207.163-44.976,202-56.488,202-60.259c0-.4,2.382-.2,5.557.6A47.023,47.023,0,0,0,216.1-57.877Zm217.734,11.71c-.2,6.947-1.389,14.291-2.779,16.275-2.977,3.97-23.421,11.313-27.589,9.726-3.374-1.389-5.359-6.351-3.176-7.741.992-.6,2.183.4,2.977,1.985,1.786,4.764,6.748,3.374,11.512-2.977,2.382-3.374,5.756-5.954,7.542-5.954a13.508,13.508,0,0,0,6.947-2.779c3.573-2.58,3.374-2.779-1.588-2.779-3.176,0-4.764.992-3.97,2.183q.893,1.786-1.191.6c-3.176-1.985-.6-5.359,3.374-4.764,2.58.4,3.573-1.191,3.97-7.939C430.852-63.434,434.027-60.06,433.829-46.167ZM223.042-54.9c-1.588,2.58,21.039,17.466,28.978,19.054,3.374.794,7.741,3.176,9.329,5.16,1.786,1.985,8.733,5.756,15.68,8.336s12.5,5.359,12.5,5.954a26.732,26.732,0,0,0-.2,4.367c0,5.954-26,2.183-34.734-4.962-7.741-6.351-24.215-15.879-27.589-15.879-5.16,0-9.924-18.26-5.756-22.428C223.042-57.281,224.233-56.884,223.042-54.9Zm205.229,4.168q0,5.954-2.977,5.954c-3.374,0-3.573-.794-1.786-7.542C425.294-58.671,428.271-57.678,428.271-50.732ZM253.211-42.4c1.588,1.389,2.382,1.389,2.382-.2,0-1.389,4.565-2.183,12.5-2.183,10.123,0,13.5.794,16.275,3.97,3.573,3.97,3.374,3.97-10.52,3.97-7.741,0-14.489-.794-15.085-1.786s-2.977-1.389-5.161-.794-7.542-1.191-12.306-3.97c-15.482-9.13-16.672-11.313-3.573-5.954C244.875-46.563,251.822-43.388,253.211-42.4Zm167.121-6.153A39.748,39.748,0,0,1,417.95-41.8c-.4.2-3.374,1.389-6.947,2.779-8.932,3.573-13.5,9.329-12.9,16.275.4,3.771-.4,5.756-1.786,5.359a2.707,2.707,0,0,1-1.985-2.183c.2-.794.2-5.954.2-11.313,0-5.954.794-9.924,2.183-9.924,1.191,0,1.588,1.389.992,3.374-.794,2.183.6,1.389,3.771-1.985,2.779-2.977,6.748-5.359,8.535-5.359a14.852,14.852,0,0,0,6.351-1.985c2.183-1.588,1.389-1.786-2.977-.794l-5.954,1.191,5.954-3.97C421.523-55.892,422.317-55.694,420.332-48.548Zm-11.909-3.374c0,.4-1.389,1.191-2.977,1.985-1.588.6-2.977.2-2.977-.794,0-1.191,1.389-1.985,2.977-1.985S408.423-52.319,408.423-51.922Zm-7.939,2.977A3.773,3.773,0,0,1,398.5-45.77c-.992.6-1.985-.2-1.985-1.786,0-1.786.992-3.176,1.985-3.176A1.833,1.833,0,0,1,400.484-48.945ZM105.74-40.609c1.786,3.176,2.183,5.756,1.191,5.756-2.58,0-8.138-7.939-8.138-11.512C98.793-50.136,102.365-47.357,105.74-40.609Zm285.813-.4c-1.588,3.374-2.382,7.542-1.588,9.527.6,1.985.6,2.977-.2,2.382-.794-.794-3.374.4-5.756,2.58-3.771,3.374-33.146,16.077-33.146,14.291,0-.2,5.557-3.771,12.107-7.741,6.748-3.97,16.275-11.512,21.039-17.069,4.962-5.359,9.329-9.726,9.726-9.726C394.331-46.762,393.339-44.182,391.552-41.006ZM132.138-21.158c3.573,2.58,8.733,4.764,11.512,5.161,2.58.2,5.557,1.191,6.351,1.985s-.794.794-3.374,0c-3.176-.992-4.168-.794-3.374.794.794,1.191,3.771,2.183,6.748,2.382,5.359,0,5.359,0,.794,1.985-2.58.992-5.756,1.191-6.947.6-1.389-.6-.2.794,2.58,2.977A36.811,36.811,0,0,0,157.345.675c4.962,1.588,5.16,1.786,1.389,1.985-6.55.2-20.047-9.329-19.253-13.7.4-2.58-1.191-4.367-5.557-6.153-10.321-4.168-26.795-20.047-27.192-26.2,0-.794,4.168,2.779,9.527,8.138C121.42-29.891,128.565-23.54,132.138-21.158Zm165.93-14.688c2.779,2.183,3.176,2.977.992,2.977-1.588,0,.2,1.786,3.771,3.97,4.367,2.779,6.351,5.359,6.351,8.932,0,5.359-1.191,5.954-8.336,3.176-3.771-1.389-4.565-3.176-4.565-9.329,0-4.565-1.191-8.733-2.977-10.123C289.136-39.815,293.5-39.22,298.068-35.845Zm114.921.794c-2.382,1.985-3.97,4.168-3.374,4.565.4.6-.6,2.183-2.58,3.771-1.786,1.588-2.779,1.786-1.985.4a2.169,2.169,0,0,0-.992-3.176c-1.588-.4.4-2.58,4.367-4.962C416.958-39.815,418.943-40.014,412.988-35.052ZM290.128-28.5c.992,2.977,1.389,5.954.992,6.55-1.786,1.588-25.207-6.947-27.787-10.123-2.183-2.58-.6-2.977,11.313-2.382C287.548-33.861,288.342-33.464,290.128-28.5Zm23.818-2.779c.6.992-.2,1.786-1.786,1.786s-2.977-.794-2.977-1.786a1.75,1.75,0,0,1,1.786-1.588A4.049,4.049,0,0,1,313.946-31.28ZM116.259-26.318c4.367,4.565,4.367,4.764.4,4.367-4.565-.4-6.55-1.985-7.145-5.954C108.915-32.273,111.3-31.479,116.259-26.318Zm116.508-.992c-.6.6-2.183,0-3.573-1.389-1.786-1.985-1.588-2.183,1.191-.992C232.37-29.1,233.363-27.906,232.767-27.311Zm157.594,7.542c-1.389,1.588-3.573,2.58-4.962,1.985s-3.176.6-3.771,2.58c-.794,2.977-16.275,11.313-40.689,21.634-4.565,1.985-4.565,2.183-.794,2.183,2.382.2,11.313-3.374,19.848-7.542,8.535-4.367,15.878-7.741,16.077-7.542.2.4-3.771,3.374-8.932,6.748-11.71,7.939-26.993,12.5-30.566,8.932C332.8,5.439,347.489-8.257,359.6-12.226a114.447,114.447,0,0,0,16.672-6.947c3.771-2.183,7.344-3.374,8.336-2.779s2.183.2,2.977-.992a2.175,2.175,0,0,1,3.176-.794C391.949-22.944,391.751-21.555,390.361-19.769Zm-206.222.794c4.764,2.977,1.389,3.771-3.97.992-2.977-1.588-3.771-2.779-1.985-2.779A9.908,9.908,0,0,1,184.14-18.975ZM196.048-6.669c0,3.771-2.58,4.168-8.733,1.786-3.573-1.389-3.573-1.588-.4-2.779,2.183-.794,3.176-2.58,2.382-4.367-.794-2.382-.4-2.58,2.779-.4C194.262-11.234,196.048-8.455,196.048-6.669Zm108.966-5.161c.4.4-.4,1.985-1.588,3.573-3.176,3.771-8.138,1.786-8.138-3.176,0-2.977.794-3.573,4.565-2.382A18.126,18.126,0,0,1,305.015-11.829ZM317.122-1.111c.992,7.145.6,9.924-1.191,9.924-1.588,0-2.58-4.168-3.176-11.909C311.961-17.188,315.137-15.8,317.122-1.111Zm-68.476-9.924c4.367.794,10.123,2.183,12.9,2.977a37.879,37.879,0,0,0,8.535,1.389c1.786-.2,3.374.794,3.374,2.183,0,1.588.6,1.588,2.382-.2,2.779-2.779,13.5-3.176,13.5-.794,0,.992-2.779,1.389-5.954.794-5.756-.794-6.153-.6-4.962,3.97.992,4.168.4,5.359-4.764,7.542-8.138,3.374-16.672,13.3-24.215,27.986-3.374,6.748-6.351,11.71-6.748,11.512-.4-.4,1.389-6.947,3.771-14.489,3.573-10.916,5.954-14.688,12.107-19.253,4.168-3.176,6.748-5.756,5.557-5.756S259.761,8.614,256.784,11c-2.779,2.183-5.161,3.176-5.161,2.183,0-3.374,9.924-8.535,13.894-7.344a10.9,10.9,0,0,0,7.145-.6c3.176-1.786,3.176-1.985-.4-3.771a11.567,11.567,0,0,0-7.741-.794C256.784,3.057,247.455,9.011,248.844,11c.6.992.2,3.176-1.191,4.764-1.191,1.389-2.58,6.153-2.779,10.321-.4,4.168-2.977,12.107-5.756,17.863-4.168,7.939-5.359,13.3-5.359,22.825-.2,7.145-1.389,14.688-2.977,17.466a29.775,29.775,0,0,0-2.977,11.115c0,8.733-2.382,9.726-5.359,2.58-3.374-7.939-3.176-24.612.2-33.543,6.748-17.466,12.5-28.978,16.672-32.948,5.16-5.359,5.756-9.13.992-7.344-3.771,1.588-2.382-1.786,3.97-8.932,2.183-2.382,3.374-4.367,2.58-4.367s-.4-1.786.794-3.97c1.786-3.374,1.191-3.97-5.359-5.756a114.653,114.653,0,0,0-12.5-2.779c-4.168-.6-3.573-.992,3.374-2.977,9.13-2.779,13.1-6.351,6.947-6.351-1.985,0-8.535,1.588-14.489,3.573-6.947,2.382-12.9,3.176-16.672,2.183-7.145-1.588-7.145-1.588,8.932-4.764C234.157-13.02,238.722-13.219,248.646-11.035ZM175.8-8.455c1.191,0,2.382.794,2.382,1.786,0,2.58-7.145,1.786-13.1-1.588l-5.756-3.176,6.947,1.389C170.047-9.249,174.414-8.654,175.8-8.455ZM163.1-4.089c.6,1.588,2.183,2.977,3.573,2.977,1.786,0,1.786-.6-.4-2.183s-1.786-1.786,1.985-.794c6.55,1.786,8.932,4.168,5.756,5.954-1.588.992-1.985.794-.992-.6,1.588-2.779-.6-2.977-4.565-.6-2.977,1.786-10.52-1.389-9.13-3.97.6-.6-1.191-.794-3.771-.4-2.58.6-5.359,0-5.954-1.191-.992-1.389.992-2.183,5.359-2.183S162.307-5.875,163.1-4.089ZM308.389-2.7c-2.382,7.939-2.779,13.5-.794,13.5.992,0,1.191.794.6,1.985-.794,1.389.6,1.389,3.771,0,3.97-1.389,5.16-1.191,5.16.794,0,3.573-3.573,6.351-10.52,7.939-4.565,1.191-5.954.4-8.733-4.367a30.262,30.262,0,0,0-8.733-9.329c-2.779-1.985-6.153-5.161-7.145-6.947C280.2-1.707,280.8-2.3,285.166-2.5a39.843,39.843,0,0,0,9.726-1.588c2.58-.992,4.367-.6,4.367.794,0,1.191-1.588,1.588-3.374.794-2.779-.992-3.176-.6-1.191,1.389C296.48.874,298.068.675,302.633-2.7,309.58-8.058,309.977-8.058,308.389-2.7ZM205.377.08c-.6.6-2.382.794-3.771.2-1.588-.6-.992-1.191,1.191-1.191C204.98-1.111,206.171-.516,205.377.08Zm-13.3,2.779c0,.992-3.176,1.985-7.145,1.985-4.168,0-6.55-.794-5.756-1.985.6-1.191,3.771-1.985,7.145-1.985C189.5.874,192.079,1.667,192.079,2.858ZM310.572,8.217c-.6,1.985-.992.794-.992-2.382,0-3.374.4-4.764.992-3.573A15,15,0,0,1,310.572,8.217ZM168.857,7.026c-.992.992-4.367.794-7.542-.2-5.954-1.985-5.954-1.985-.4-1.191,2.977.4,5.359-.2,5.359-1.191s.992-1.191,2.183-.4A1.772,1.772,0,0,1,168.857,7.026Zm-13.5,1.588c1.191,2.183-10.718,4.962-16.275,3.771-2.58-.794-1.786-1.588,3.374-2.977C151.589,6.629,153.97,6.431,155.36,8.614Zm29.971.6c.794,1.389.6,1.588-.992.794-1.191-.794-3.573-.4-5.16.794C176.8,12.782,176.2,12.584,176.2,10,176.2,6.431,183.147,5.637,185.33,9.21Zm247.9,2.58c3.771,3.573,4.962,6.947,4.962,13.5,0,4.565.992,9.527,2.382,10.916,4.367,4.367-.992,2.58-9.13-3.176-6.947-4.764-9.527-5.359-22.825-5.161-8.336,0-18.459,1.191-22.627,2.58s-8.138,1.985-8.733,1.389c-1.786-1.588,5.359-9.13,8.733-9.13,3.771,0,15.085-5.954,13.894-7.145-.6-.6-3.771.4-7.344,2.183s-6.748,2.779-7.344,2.183c-.6-.4,1.985-2.382,5.359-4.168,5.954-3.176,6.947-3.176,15.085,0,4.764,1.786,9.527,2.779,10.718,1.985.992-.6,1.985-.2,1.985.794a2.2,2.2,0,0,0,2.183,2.183c.992,0,1.389-1.191.6-2.58-.794-1.191.4-.6,2.58,1.588,2.183,2.382,4.565,5.359,5.161,6.947q1.191,3.573,1.191-.6c.4-5.557-6.947-11.313-14.688-11.313-7.939,0-8.932-2.382-2.382-5.557C420.53,5.637,428.073,6.431,433.233,11.79ZM174.215,10.8c0,.992-1.985,2.183-4.367,2.183l-4.565.4,4.565.794c5.954,1.191,5.557,3.771-1.191,7.344a31.963,31.963,0,0,0-8.138,5.954c-3.374,3.97-11.512,4.168-11.512.4,0-1.588.992-2.382,2.382-1.985,1.191.6,5.557-3.176,9.726-8.138C168.261,9.408,174.215,6.232,174.215,10.8ZM274.448,25.882a34.121,34.121,0,0,1-8.138,16.871c-4.168,5.161-6.351,9.527-5.756,11.71,1.191,3.771-3.573,8.733-10.52,10.916-2.382.6-5.954,3.573-7.741,6.351-2.977,4.565-3.374,4.764-4.565,1.389-.794-2.183-.6-6.55.4-9.924C241.1,52.479,259.364,22.111,267.1,15.164c7.145-6.55,7.344-6.55,7.939-2.183A50.408,50.408,0,0,1,274.448,25.882ZM383.415,14.569c-1.985,3.374-4.367,5.359-5.359,4.764-.794-.6.4-3.176,2.779-5.756C386.789,7.225,387.583,7.622,383.415,14.569Zm-201.26.2a2.174,2.174,0,0,1-2.183,1.985c-.992,0-1.389-.992-.794-1.985.6-1.191,1.588-1.985,2.183-1.985C181.758,12.782,182.155,13.576,182.155,14.767Zm170.1,7.145c5.756,4.367,6.153,5.359,4.168,9.726-1.786,3.771-2.977,4.367-5.756,2.977a16.28,16.28,0,0,0-7.344-1.985c-2.183,0-4.565-1.389-5.16-2.977-1.389-3.771-14.489-9.527-18.26-8.138-3.374,1.389-3.771-1.985-.2-3.374,1.191-.6,7.741-.992,14.291-.992C343.321,17.149,347.291,18.34,352.253,21.912Zm-20.841,5.954c3.176,1.588,5.557,3.374,5.161,3.771s-4.764,1.191-9.527,1.786c-10.122,1.191-21.833-1.786-21.833-5.557S324.069,24.1,331.412,27.867Zm-159.38,10.52c-1.985,7.741-1.985,11.512-.2,17.665,3.573,11.71,2.779,14.291-1.389,5.161-1.985-4.565-4.764-8.932-5.954-9.527a5.946,5.946,0,0,1-2.183-4.565c0-3.374,10.321-20.642,11.512-19.451C174.215,28.065,173.422,32.829,172.032,38.386Zm66.094-7.344c-1.389,1.389-2.382,1.588-2.382.4,0-2.779,2.382-5.161,3.771-3.771C239.913,28.264,239.317,29.852,238.126,31.043Zm-16.275,2.58c0,.4-2.977,2.382-6.351,3.97l-6.55,3.176,4.962-3.97C218.675,32.829,221.851,31.638,221.851,33.623Zm112.142,8.932A70.045,70.045,0,0,0,346.3,51.288c4.367,2.183,5.954,4.168,5.161,6.351-.6,1.588-1.588,2.58-2.382,2.382-.6-.4-7.939-3.97-16.077-7.939-12.107-5.756-23.818-13.7-23.818-16.077,0-.2,4.168-.2,9.527.2C325.657,36.8,329.626,38.386,333.993,42.555Zm6.351-1.985,2.183,5.954-5.756-4.168c-6.55-4.565-7.344-7.741-2.183-7.741C336.573,34.615,338.955,37,340.344,40.57Zm9.13-4.168c3.97,1.588,4.565,2.977,3.771,7.939-1.389,9.13-5.756,7.344-10.122-4.367C340.94,34.218,341.932,33.623,349.474,36.4Zm20.047,9.329a4.421,4.421,0,0,1,.992,7.939c-2.382,1.389-5.756-2.382-5.756-6.748C364.757,44.142,365.154,44.142,369.521,45.73Zm-130.6,8.138c-3.573,6.55-4.168,5.16-1.191-2.58,1.191-2.977,2.58-4.764,3.176-4.168S240.707,50.692,238.92,53.868Zm141.319.2c.4,1.389-.992,2.382-3.374,2.382-2.779,0-3.771-.992-2.779-2.977C375.277,50.1,379.048,50.494,380.239,54.066Zm2.382,10.718c0,.992-1.786.794-3.97-.4s-3.97-2.382-3.97-2.779,1.786-.4,3.97.2S382.621,63.594,382.621,64.784ZM358.8,65.975c0,1.786,1.588,6.55,3.771,10.321,4.764,8.932,3.374,12.306-9.924,24.81-9.13,8.733-9.726,9.13-5.557,2.977,3.771-5.557,4.764-9.726,4.962-20.841.2-14.291,1.786-20.841,4.962-20.841C358.009,62.4,358.8,63.99,358.8,65.975ZM384.01,75.5c1.588,5.161,1.389,7.542-.794,10.718-3.374,4.565-2.183,5.161,1.985.992,2.58-2.58,3.374-2.382,5.756,1.588a37.424,37.424,0,0,1,4.168,10.321,79.058,79.058,0,0,0,2.58,9.924c.794,2.183-2.977-1.389-8.535-7.939-9.924-11.909-18.459-27.986-18.459-34.933,0-3.374.4-3.374,5.557-.4A18.983,18.983,0,0,1,384.01,75.5ZM202.8,79.274c-2.183,8.535-5.16,14.092-10.52,19.848a106.094,106.094,0,0,0-12.5,16.474l-4.962,8.336-2.382-5.359c-2.382-5.161-1.985-5.756,4.764-11.313,3.97-3.176,9.924-11.115,13.3-17.863,6.351-12.9,13.5-23.619,14.688-22.627C205.576,67.166,204.385,72.922,202.8,79.274Zm166.724-6.351c.794,3.771.6,5.161-.794,4.367-.992-.6-1.985-3.573-1.985-6.351C366.742,64.586,367.735,65.38,369.521,72.922Zm24.612,11.313c-.6,3.97-1.191,3.374-4.962-3.97-5.954-10.718-5.756-11.909.6-5.756C392.942,77.884,394.728,81.457,394.133,84.236ZM373.49,87.808c-.794,4.367-.6,4.764,1.191,2.382s2.183-2.382,1.588-.2c-1.786,6.351-5.756,4.565-5.161-2.382.2-3.97,1.191-6.55,1.985-6.153C373.887,82.052,374.086,84.831,373.49,87.808ZM232.966,92.373l-3.176,6.748,1.191-6.947c1.389-8.138,3.176-11.71,4.168-8.535C235.546,84.831,234.554,88.8,232.966,92.373Zm132.188,6.351c-2.382,2.382-4.168,5.161-4.168,6.351-.2,3.176-8.336,13.3-9.726,12.107-.6-.794,1.588-3.97,4.764-7.344,3.176-3.573,4.367-5.954,2.779-5.359-1.588.4-6.351,5.161-10.321,10.52-7.741,10.321-13.5,14.886-13.5,10.718,0-3.176,32.551-35.33,33.543-33.146C368.925,93.564,367.338,96.343,365.154,98.725Zm41.483,20.642c2.58,3.176,2.382,3.374-.6.794-3.374-2.58-4.367-4.168-2.779-4.168C403.66,115.993,405.247,117.58,406.637,119.367Zm-76.812,17.268c-.6,1.786-1.985,2.779-2.977,2.183-.794-.6-2.977,1.389-4.565,4.565a31.963,31.963,0,0,1-5.954,8.138c-2.58,2.183-3.176,2.183-3.176-.4,0-4.168,11.71-17.665,14.092-16.077.992.6,1.786,0,1.786-1.389s.4-1.985.992-1.389S330.619,134.848,329.825,136.635Zm-14.886,35.33c0,11.115-.6,15.085-1.786,12.5-2.779-6.55-1.985-28.78,1.191-28.78C314.74,155.689,315.137,163.033,314.939,171.964Z" transform="translate(0 4.106)" fill="#fff"/><path d="M191.945-164.687c11.71,12.7,13.7,17.069,10.916,24.413a27.34,27.34,0,0,0-.794,11.512c.6,4.962-.2,7.939-3.771,11.909l-4.565,5.359,5.359-4.962c4.764-4.565,5.557-6.947,6.351-20.245l.992-15.283-10.321-11.909C190.556-170.641,185-176,183.609-176,182.418-176,186.189-170.84,191.945-164.687Z" transform="translate(148.399 103.572)" fill="#fff"/><path d="M130.109-97.808a10.477,10.477,0,0,0,4.962,0c1.191-.6.2-.992-2.58-.992S128.72-98.4,130.109-97.808Z" transform="translate(95.314 179.599)" fill="#fff"/><path d="M176.465-121.023c2.183,1.588,4.962,2.977,5.954,2.977,1.191,0,.4-1.389-1.588-2.977-2.183-1.588-4.962-2.977-5.954-2.977C173.687-124,174.481-122.611,176.465-121.023Z" transform="translate(139.466 154.782)" fill="#fff"/><path d="M128.107-256.1c-.2,2.183,1.588,9.726,3.771,16.871s3.573,9.726,2.977,5.954C133.466-243.2,128.107-260.867,128.107-256.1Z" transform="translate(93.942 23.898)" fill="#fff"/><path d="M184.2-242.519c0,3.176.4,4.367.992,2.382a15,15,0,0,0,0-5.954C184.6-247.283,184.2-245.893,184.2-242.519Z" transform="translate(149.197 34.131)" fill="#fff"/><path d="M229.8-229.14c-1.985,5.756-1.985,9.13-.2,14.291,1.786,5.756,1.588,7.741-.992,11.909-1.786,2.58-3.97,10.123-4.962,16.474-.794,6.351-2.183,13.3-2.977,15.482-.794,2.58-.2,2.382,1.786-.992,1.588-2.779,3.573-10.123,4.168-16.275.992-8.336,2.977-13.5,7.145-18.657,6.748-8.535,8.336-13.5,7.145-22.825-.6-6.153-.794-5.954-.992,1.786-.4,8.932-3.176,16.275-6.351,16.275-2.779,0-4.367-11.512-1.985-15.878,1.191-2.382,1.786-5.161,1.389-6.55S231.188-233.11,229.8-229.14Z" transform="translate(184.777 45.96)" fill="#fff"/><path d="M244.219-208.159c-.2,4.367.4,7.939,1.588,7.939.992,0,1.985-3.573,1.985-7.939C247.791-218.48,245.013-218.48,244.219-208.159Z" transform="translate(208.267 64.278)" fill="#fff"/><path d="M200.067-208.95c2.382,3.374,6.351,7.344,8.733,8.535a57.7,57.7,0,0,1,8.932,6.351c2.58,2.382,4.367,2.977,4.367,1.588,0-1.191-2.977-3.97-6.351-5.756-3.573-1.786-9.527-6.55-13.3-10.321L195.7-215.5Z" transform="translate(160.523 64.672)" fill="#fff"/><path d="M138.761-197.015a13.5,13.5,0,0,0,4.962,1.985c1.191,0,.6-.992-.992-1.985S138.959-199,137.768-199C136.776-199,137.173-198.008,138.761-197.015Z" transform="translate(102.938 80.921)" fill="#fff"/><path d="M40.119-183c0,2.183.6,2.779,1.191,1.191.6-1.389.4-3.176-.2-3.771C40.516-186.371,39.921-185.181,40.119-183Z" transform="translate(7.267 93.897)" fill="#fff"/><path d="M66.109-147.808a10.477,10.477,0,0,0,4.962,0c1.191-.6.2-.992-2.58-.992S64.72-148.4,66.109-147.808Z" transform="translate(32.286 130.359)" fill="#fff"/><path d="M73.705-134.081c-3.97.992.6,1.191,10.916.6,9.924-.6,18.26-1.389,18.657-1.786C104.867-136.661,80.851-135.669,73.705-134.081Z" transform="translate(38.981 143.03)" fill="#fff"/><path d="M239.339-112.547c-1.985,5.16-1.588,12.7.6,14.092,1.191.794,1.389-1.191.6-5.161-1.191-6.55-1.191-6.55,2.779-2.58a18.294,18.294,0,0,1,5.161,7.741c.794,3.176.992,2.779,1.191-1.191.2-3.176-.992-5.756-2.779-6.55-1.786-.6-3.771-2.977-4.764-5.359C240.728-115.524,240.53-115.524,239.339-112.547Z" transform="translate(202.231 163.971)" fill="#fff"/><path d="M69.684-81.364c4.367,3.374,7.939,3.97,6.351,1.191-.6-.992-3.176-2.183-5.557-2.779C66.111-84.143,66.111-83.944,69.684-81.364Z" transform="translate(33.872 194.516)" fill="#fff"/><path d="M96-81.015a2.174,2.174,0,0,0,2.183,1.985c.992,0,1.389-.992.794-1.985C98.382-82.206,97.389-83,96.794-83,96.4-83,96-82.206,96-81.015Z" transform="translate(62.337 195.159)" fill="#fff"/><path d="M250-78.133c0,.4,2.382,2.382,5.557,4.168l5.359,3.573-3.771-4.168C253.771-78.53,250-80.316,250-78.133Z" transform="translate(213.998 199.025)" fill="#fff"/><path d="M118.2-59.519c0,3.176.4,4.367.992,2.382a15,15,0,0,0,0-5.954C118.6-64.283,118.2-62.893,118.2-59.519Z" transform="translate(84.2 214.352)" fill="#fff"/><path d="M165-39.574c0,6.153,1.191,6.748,2.58,1.191.6-2.183.2-4.565-.794-5.161S165-42.352,165-39.574Z" transform="translate(130.289 233.904)" fill="#fff"/><path d="M193.119-17c0,2.183.6,2.779,1.191,1.191.6-1.389.4-3.176-.2-3.771C193.516-20.371,192.921-19.181,193.119-17Z" transform="translate(157.943 257.375)" fill="#fff"/><path d="M204.726-18.808a20.4,20.4,0,0,0,6.947,0c1.786-.6.2-.992-3.573-.992S202.742-19.4,204.726-18.808Z" transform="translate(168.566 257.399)" fill="#fff"/></g></svg>