<svg xmlns="http://www.w3.org/2000/svg" width="132.714" height="131.7" viewBox="0 0 132.714 131.7"><g transform="translate(-84.286 171.7)"><path d="M149-169.4a4.217,4.217,0,0,0,.8,2.8c.4.2.9,2.2.9,4.3.2,2.7,0,3.2-.6,1.9-1-2.7-2.5-.3-1.6,2.5.6,1.7.9,1.9,1.6.8s.9-1,.9.3c0,1-.5,1.8-1.1,1.8a.552.552,0,0,0-.5.9.958.958,0,0,1-.1,1.4c-.5.2-.2.2.5,0a30.722,30.722,0,0,1,3.4-.3c1.5,0,1.8-.4,1.3-1.8-.8-1.9-.8-6.7.1-9.5.3-1,.2-1.7-.3-1.6-2.3.4-2.5-.3-.5-1.7,3.3-2.3,2.8-4.1-1.3-4.1C149.5-171.7,149-171.3,149-169.4Z" fill="#fff"/><path d="M125.3-165c-1.3.5-2.3,1.1-2.3,1.4,0,.2,1.6,2.7,3.5,5.6s3.5,5.8,3.5,6.5c0,.8.8,1.3,1.9,1.2,1.7-.1,1.7-.3.3-3.7a26.371,26.371,0,0,1-1.6-7.5C130.5-165.8,129.2-166.6,125.3-165Z" fill="#fff"/><path d="M172-158.5c-1,1.2-1,2.1-.1,4.1,1.4,3.1,1.4,3.1-.5,3.8-1.8.7-5.4-1-5.4-2.5,0-.6.8-.6,2.1.1,2.3,1.3,3.5.8,2.4-.9-.9-1.6-4.5-1.3-5.1.3-.7,1.8,1.4,5.8,2.7,5.1.5-.4.9,0,.9.7.1.9.5.7,1.4-.4.7-1,1.5-1.5,1.8-1.2s1.2-.8,1.9-2.5c.7-1.6,1.7-2.7,2.1-2.5,1.4.9,2.1-2.6.8-4.1C175.4-160.4,173.6-160.4,172-158.5Z" fill="#fff"/><path d="M187.9-158.5c-.1.3-.2.8-.3,1.2-.5,2.3-4,8.3-4.8,8.3-.5,0-.6.4-.3,1,.9,1.5-4.1,2.3-6.4,1-2.1-1.1-3.1.3-1.1,1.5a2.449,2.449,0,0,1,.5,2.6c-.4,1.1-.2,1.9.5,1.9.6,0,.8-.5.5-1-.3-.6-.1-1,.5-1s.8-.5.5-1c-.9-1.5.7-1.2,3.2.5,2,1.4,2.2,1.4,2.8-.5a22.536,22.536,0,0,1,4.3-5.7c2-2,2.9-3.3,2-3-1,.4-1.8.2-1.8-.3,0-.6,1.4-1,3-1,1.7,0,3-.4,3-.8C194-156.9,188.3-160.3,187.9-158.5Z" fill="#fff"/><path d="M122.2-155.8a3.835,3.835,0,0,0-1.2,2.1c0,1.2,4.8,5.7,6.1,5.7.9,0,.3-6.3-.8-8.3C125.7-157.4,123.6-157.2,122.2-155.8Z" fill="#fff"/><path d="M142-152.5c-1.4,1.7-3.5,2.1-2.5.5.4-.6-.4-.5-1.9.1-2.9,1.3-2.4,3.3.6,2.6,1.2-.4,1.8-.1,1.5.6-.6,1.8-3.8,2.1-4.9.5-.7-1-.8-.8-.6.6.4,2.4,3.9,4.6,4.5,2.8.3-.6.9-1,1.4-.6.5.3.9-.9.9-2.5,0-3.1,2.1-4.3,3.5-2.1.3.6,3,1,5.8,1,6.9-.1,9.5.4,11,1.9,1,1,.6,1.1-1.8.7-2.4-.5-2.6-.4-1,.3,1.1.5,1.4,1,.7,1-.7.1-1,.5-.7,1.1.4.6-.6,1-2.2,1-2.4.1-2.6.2-1,1.1,1.3.7,2.7.7,4.9,0,4-1.4,4.3-1,1.6,1.9-1.6,1.7-1.9,2.5-.9,2.8,3.5,1.2,5,4.1,4.8,9.2-.1,3.6.2,5.3,1.3,6,2,1.2,2.6.4,1-1.5-1.1-1.3-.9-1.5,1.1-1.5,4,0,4.8,1.2,4.4,6.3-.3,2.9-.1,4.7.6,4.7.5,0,.7-.5.4-1-.3-.6-.1-1,.5-1s.8-.5.5-1c-.3-.6-.1-1,.5-1,.7,0,.8-.6,0-1.9-1.2-2.4-1.3-7.1-.2-7.1.5,0,.9-.6.9-1.4,0-1.1-.4-1.2-1.9-.3-1,.7-1.8,1.4-1.8,1.7s-1.6.5-3.5.6c-1.9,0-3.5-.3-3.5-.8,0-.4.7-.8,1.5-.8,1.8,0,1.9-1.2.4-2.7a2.091,2.091,0,0,1-.5-2.2c1.3-2.1,2.6-1.1,2.7,2.1,0,1.8.3,2.8.5,2.1a1.436,1.436,0,0,1,1.9-.7,1.5,1.5,0,0,0,1.9-.5c.4-.5-.3-1.2-1.4-1.6-1.1-.3-2-1-2-1.4,0-1.6,1.3-2,3.1-1,1.1.6,1.9.6,1.9,0,0-1.3-2.7-2.2-4.5-1.5a3.088,3.088,0,0,1-3-.6c-1.2-1-1.5-1-1.5,0,0,.8-.3,1-.7.6-1.1-1.1-1.1-7.6,0-7.6.4,0,.5-.5.2-1-.3-.6-.1-1,.5-1s.8-.5.5-1c-.7-1.2-2.6-1.4-2.4-.3.3,2.1-.3,3-2.1,2.8-2.4-.2-3.9-1.5-1.9-1.6a8.021,8.021,0,0,1,2.2,0,.808.808,0,0,0,.7-.9,1.126,1.126,0,0,0-1.2-1c-.9,0-.9-.3-.1-1.1a3.679,3.679,0,0,0,.6-3c-.5-1.9-.7-1.9-2.4-.3-1.6,1.4-2.4,1.5-4.4.6-1.4-.6-2.5-.8-2.5-.4s-2.1.8-4.6,1c-3.1.2-4.4-.1-3.9-.8.4-.6.1-.9-.7-.8a.762.762,0,0,1-1-1Q144.25-155.2,142-152.5Zm20,3.5c0,.5-.2,1-.4,1-.3,0-.8-.5-1.1-1-.3-.6-.1-1,.4-1A1.028,1.028,0,0,1,162-149Z" fill="#fff"/><path d="M158.5-153a2.335,2.335,0,0,0,1.6,1c.6,0,.7-.5.4-1a2.039,2.039,0,0,0-1.6-1C158.3-154,158.2-153.6,158.5-153Z" fill="#fff"/><path d="M106.2-150.4c-.7.8-.8,1.4-.3,1.4,1,0,2.5-1.9,2-2.5C107.7-151.6,106.9-151.2,106.2-150.4Z" fill="#fff"/><path d="M109.3-151.3c.4.3-.4,1.4-1.9,2.3-2.4,1.7-3.3,3.5-1.6,3.5,1.9.1,9.1,5.6,9.7,7.5.8,2.5-.6,5.2-1.4,2.8-.5-1.4-.8-1.4-1.9-.2s-1,1.4.5,1.4c1.7.1,1.7.1.1,1a3.082,3.082,0,0,0-1.2,3.3c.4,2.6-2.1,3.4-3,1A3.02,3.02,0,0,0,106-130a11.116,11.116,0,0,1-7.7-3.9c-1.1-1.4-1.4-1.4-2.4-.1-.9,1.3-1,1.2-.5-.3.3-.9.1-1.7-.5-1.7s-.7-.5-.4-1c1.4-2.3-1.6-.8-3.1,1.5-1.3,2.1-1.4,2.8-.4,4.1a2.779,2.779,0,0,0,2.7,1c1.6-.6,9.4,2.2,10.6,3.8.5.7,1.2.5,2.1-.7,1.4-1.8,1.4-1.8,2.1.2.3,1.1-.1,3.6-1,5.7-1.2,2.9-1.3,4-.4,4.8s1,.8.5-.2a2.923,2.923,0,0,1,.5-2.9,6.766,6.766,0,0,0,1.5-2.7c.4-4.4.6-5,1.1-3.8.3.9,1.8,0,4.4-2.7,2.1-2.3,4.2-4.1,4.7-4.1.6,0,1.2-.9,1.5-2s1-2,1.7-2c.6,0,.8.6.4,1.2-.4.8-.2.8.7-.1,1.1-1,1.1-1.5.2-1.8-1-.4-1-1-.1-2.6,1-1.9.9-2-.4-1-.8.7-1.8,1-2.1.7-.4-.4-.4.3-.2,1.5a2.569,2.569,0,0,1-1,2.8c-.8.3-1.2,1-.8,1.7.3.6.3.8-.1.4-.4-.3-2,.8-3.6,2.5-1.6,1.8-3.1,2.9-3.5,2.5s1.1-2.4,3.4-4.6c4.1-3.8,5.2-6.2,3-6.2-1.5,0-3.5-2.5-6-7.8-1.2-2.3-2.6-4.2-3.2-4.2S109-151.7,109.3-151.3Zm1.4,4.5c-.3.8-.6.5-.6-.6-.1-1.1.2-1.7.5-1.3A2.026,2.026,0,0,1,110.7-146.8Zm1,2.4a2.026,2.026,0,0,1-1.9.1c-.8-.3-.5-.6.6-.6C111.5-145,112.1-144.7,111.7-144.4Z" fill="#fff"/><path d="M130.4-147.5c-1,.8-1.4,1.5-.8,1.5a4.313,4.313,0,0,0,2.4-1.5C133.6-149.4,132.9-149.4,130.4-147.5Z" fill="#fff"/><path d="M142.5-147c-.3.5-.1,1,.4,1a1.1,1.1,0,0,0,1.1-1c0-.6-.2-1-.4-1C143.3-148,142.8-147.6,142.5-147Z" fill="#fff"/><path d="M148.6-146.7c.3,1,.9,1.5,1.2,1.2s0-1.1-.7-1.8C148.1-148.2,148-148.1,148.6-146.7Z" fill="#fff"/><path d="M144.8-145.8c-.7,1.6,1.3,2.8,5.6,3.3,2.6.3,7.1-2.1,5.6-3a1.48,1.48,0,0,0-1.9.2c-1,1.4-7.4,1.6-6.5.2.4-.7.3-.9-.4-.5a.939.939,0,0,1-1.4-.6C145.5-147,145.2-146.8,144.8-145.8Z" fill="#fff"/><path d="M192.7-146.3c-.4.3-.2,1.2.5,2,.7.9.7,1.3.1,1.1-1.4-.4-6.4,5-5.3,5.7s8.2-3,7.4-3.8c-.3-.3.3-.4,1.2-.4,2.2.2,3.1-3.2,1.2-4.4C196.2-147.1,193.6-147.3,192.7-146.3Z" fill="#fff"/><path d="M121-144c-1,1-2.2,1.5-2.6,1.2-.4-.4-.4-.1,0,.6.6,1,1.2,1,2.9,0,2.3-1.3,2.7-1.4,9.1-1.7,5.5-.2,3.8-1.2-2.5-1.6C124-145.7,122.3-145.3,121-144Z" fill="#fff"/><path d="M170.4-145.1c.4.6.2,1.1-.5,1.1s-.4.7.7,1.6c1.8,1.5,1.8,1.5-.8.9-2.1-.4-2.8-.2-2.8,1,0,1.8,2.3,2,4.9.3,1.8-1.1,1.8-1.3.3-2.6-1.6-1.3-1.6-1.3.1-.8q1.8.6,1.5-.6a3.09,3.09,0,0,0-2.3-1.6C170.5-146.1,170-145.8,170.4-145.1Z" fill="#fff"/><path d="M141.7-144.3c-.9.9-.9,2.5.1,2,.4-.3,1.6-.1,2.7.4,1.8.7,1.8.8-.4.8-1.5.1-2.1.5-1.5,1,1.1,1.1,12.6.2,11.9-.9-.3-.5-1.4-.6-2.5-.3-2,.5-8-1.4-9.1-2.9A.7.7,0,0,0,141.7-144.3Z" fill="#fff"/><path d="M127.2-141.5c-1.2,1.9-1,3.5.3,3.5a2.4,2.4,0,0,0,2-1.1c.8-1.2,5.6-3.2,6.2-2.5.3.2-.9,1.2-2.6,2.1-4.3,2.2-2.9,3.9,1.4,1.8,3.7-1.8,4.2-2.7,2.3-4C135-142.8,127.9-142.7,127.2-141.5Zm1.8.5a1.1,1.1,0,0,1-1.1,1c-.5,0-.7-.5-.4-1,.3-.6.8-1,1.1-1C128.8-142,129-141.6,129-141Z" fill="#fff"/><path d="M178.3-141.3c1.1,1.8-3,3.8-4.8,2.3-.7-.6-1.6-.7-1.9-.2s.6,1.4,2,2.1c3.1,1.4,3.7,1.4,2.9.1-.3-.6-.2-1,.4-1,1.7,0,2.2,1.9,1.1,4-.9,1.7-.7,2.2,1.2,2.9,4.4,1.6,9.1-2.6,6.6-6-.8-1.1-.8-1-.4.5.6,1.6.4,1.7-.9.6-1.1-.9-1.2-1.6-.5-2.5.8-1,.8-1.5-.1-2.1-.7-.4-.9-.3-.5.4.3.6-.2,1.5-1.1,2.1-1.7.9-1.6,1.2.7,3.6,2.2,2.4,2.3,2.7.6,2.4-1.9-.4-5.7-5.8-4.9-7.1.2-.4,1.1-.4,2.1-.1,1.8.7,1.7.5-1.2-1.7C178.5-141.8,177.9-142,178.3-141.3Z" fill="#fff"/><path d="M140-138c1.2.8,1.2,1,.1,1-.8,0-1.1.7-.8,2,.3,1.1.1,1.8-.4,1.4-.5-.3-.9-.1-.9.4,0,.4,2.3.9,5,.9,2.8,0,5-.3,5-.8s-.8-.9-1.7-1c-1.1,0-.4-.7,1.6-1.5,1.8-.8,3.6-1.3,3.9-1,.3.4,0,.6-.6.6-.7,0-1.2.4-1.2.9,0,.4,2,.4,4.4-.2,2.7-.6,4.2-1.5,4-2.2a2.317,2.317,0,0,0-1.9-1.2c-.8,0-1.2.4-.9.9s-2,.5-5.2.2c-3.4-.4-5.5-.3-5.1.2.3.5-.6,1.5-2,2.1-2.1,1-2.3,1-1.3-.2,1.4-1.7.5-3.5-1.8-3.5C138.7-139,138.7-138.8,140-138Z" fill="#fff"/><path d="M125.6-135.3a2.4,2.4,0,0,1-2.1,1.3,1.538,1.538,0,0,0-1.5,1.5c0,2.6,2,1.7,5.3-2.1,1.4-1.7,1.4-2.1.2-2.1A2.149,2.149,0,0,0,125.6-135.3Z" fill="#fff"/><path d="M128.6-134.4c-1.1.8-1.7,1.4-1.3,1.4s.1,1-.8,2.3c-.8,1.3-1.2,2.7-.8,3.1.5.4-.1.6-1.2.4-1.4-.2-2,.3-2.1,1.9-.1,1.3.3,2.3.7,2.3.5,0,.4.9-.3,2-.7,1-.9,2.2-.5,2.6,1.2,1.2,2-.4,2.1-4,.1-1.9.5-3.4,1-3.3s1.2-1.1,1.7-2.6c1.2-4.3,2.8-5.8,4.9-4.7a2.973,2.973,0,0,0,3.6-.6c1.7-1.4,1.7-1.5.2-1-1,.3-1.8,0-1.8-.6,0-.7-.4-.7-1.4.1-.8.7-1.5.8-1.8.2C130.7-135.4,129.7-135.2,128.6-134.4Z" fill="#fff"/><path d="M161.7-134.9c.7.7,1.5,1,1.8.7s-.2-.9-1.2-1.2C160.9-136,160.8-135.9,161.7-134.9Z" fill="#fff"/><path d="M157.5-134a3.105,3.105,0,0,0,2.3,1c1.5,0,1.5-.2.2-1C158-135.3,156.7-135.3,157.5-134Z" fill="#fff"/><path d="M151.4-132.8c-.4.7-.3.8.4.4s1.2-.2,1.2.3c0,.6.8,1.1,1.7,1.1,1.5,0,1.4.2-.2,1.4-1.8,1.3-1.8,1.4.8.9,1.5-.3,2.7-.9,2.7-1.3s.6-.8,1.3-.7c3.6.1,5.7-.4,5.2-1.3-.4-.6-1.3-.7-2.3-.1-1.1.6-2.9.4-5.1-.5C153.1-134.3,152.3-134.3,151.4-132.8Z" fill="#fff"/><path d="M187-132.9a1.2,1.2,0,0,0,2.3.6c.3-.8-.1-1.4-.9-1.4S187-133.3,187-132.9Z" fill="#fff"/><path d="M203.5-130.5c-3.6,3-10,4.7-10,2.7-.1-1.4-2.4-4.7-2.9-4.1-.3.3.3,2.2,1.4,4.2,2.4,4.5,2.7,8.2.5,7.4-2.2-.9-2.9,1.2-1.1,3.2a10.538,10.538,0,0,1,1.8,5.5c.1,2.5.4,3.3.9,2.3.5-.8.4-2.8-.1-4.6-1.5-5.3.9-9.3,6.8-11.4a23.194,23.194,0,0,1,5.8-1.6c2.8.5,4.5-.3,4.2-1.9-.3-1.9-2.2-4.2-3.5-4.2A22.026,22.026,0,0,0,203.5-130.5Z" fill="#fff"/><path d="M117.1-129c-1.2,1.7-2,3.6-1.8,4.3a3.677,3.677,0,0,1-1,2.9c-.8.9-1.2,2.2-.8,2.8.5.8,1.4,0,2.6-1.9,2.1-3.5,2.4-4.5.9-3.6-1.6,1,.2-2.8,2.2-4.6,1.9-1.7,2.3-2.9,1-2.9C119.7-132,118.4-130.6,117.1-129Z" fill="#fff"/><path d="M129-130.5a2.39,2.39,0,0,0-.6,2.4,3.213,3.213,0,0,1-.3,2.8,24.008,24.008,0,0,0-3,9.3c-.1,1.3-.2,1.3-1.1,0-.6-1-1-1.1-1-.2,0,.6-.3,1.1-.7,1.1-2.2-.4-3.3.3-3.3,1.8,0,1.6.1,1.6,1.3,0,.8-1.2,1.6-1.4,2.7-.7s1.1,1,.2,1c-.7,0-1.1.4-.8.9.4.5,0,1.1-.6,1.4-.7.2-1,.8-.6,1.2.9,1,3.8-1.3,3.8-3a9.255,9.255,0,0,1,2-3.8c2.1-2.6,2.7-5.3,1-4.2-.6.4-.5-.5.2-1.9.6-1.4,1.7-2.6,2.5-2.6a1.229,1.229,0,0,0,1.3-1.1.552.552,0,0,0-.9-.5c-.5.3-1.1-.1-1.5-.9-.3-.9,0-1.5.9-1.5,2,0,2.8-1.7,1.1-2.3A2.428,2.428,0,0,0,129-130.5Z" fill="#fff"/><path d="M134-129.9a5,5,0,0,0-.7,3.4c.3.7-.5,1.7-1.9,2.4-1.3.6-2.4,1.5-2.4,2s1.1.4,2.5-.2c1.4-.7,2.5-1.5,2.5-2,0-.4,1.2-.7,2.6-.7s2.3-.4,2-.9c-.4-.5.2-.7,1.2-.4,1.2.3,2.3-.4,3.2-2.1,1.4-2.8.9-4.3-1-3.1-.9.6-.9,1,.1,1.6s.8.9-.7.9a5.1,5.1,0,0,0-3.4,1.5c-1.4,1.7-4,2-4,.5,0-.6,1.1-1.6,2.5-2.2,1.9-.8,2.2-1.4,1.3-2C135.8-132.4,135.2-132.2,134-129.9Z" fill="#fff"/><path d="M146-129.6a1.215,1.215,0,0,0,2,0c.6-.6.3-1-1-1S145.4-130.2,146-129.6Z" fill="#fff"/><path d="M148.2-128.2c-1.3,1.5-2.1,2.1-1.7,1.4.7-1.4-.4-1.6-2.4-.3s-.5,3,2.1,2.3c3.8-1,6.3-2.6,6.6-4.5C153.2-131.8,150.8-131.3,148.2-128.2Z" fill="#fff"/><path d="M185.6-130.1c-.3.5.1,1.1.9,1.5.8.3,1.5.1,1.5-.4C188-130.3,186.2-131.2,185.6-130.1Z" fill="#fff"/><path d="M120.2-128.4c-2.4,1.6-3,3.7-.9,2.8,1.1-.4,4.2-4.4,3.4-4.4A15.565,15.565,0,0,0,120.2-128.4Z" fill="#fff"/><path d="M156.3-127.4c-1.8.8-3.3,1.9-3.3,2.4,0,1.5,1.6,1.2,3.1-.6a3.654,3.654,0,0,1,3.1-1.1c1,.3,1.6.1,1.3-.3s.4-.6,1.5-.3,2,0,2-.6C164-129.4,160.2-129.2,156.3-127.4Z" fill="#fff"/><path d="M182-128.6a17.976,17.976,0,0,0,3,3.4c1.7,1.7,3,3.6,3,4.4,0,.7-1.3-.3-3-2.2-1.6-1.9-3.2-3.1-3.6-2.7s.9,2.2,2.9,4.1c2.1,1.9,3.7,3.9,3.7,4.4a4.289,4.289,0,0,0,1.5,2.2c1.7,1.4,2.1,0,.5-1.6-.6-.6-1.1-2.7-1.2-4.7s-.5-3.7-1-3.7-.6-.4-.3-1c.4-.6-.1-.7-1.1-.3-1.1.4-1.5.2-1.1-.4s0-1.4-.9-1.7C182.6-129.1,182-129.2,182-128.6Z" fill="#fff"/><path d="M178.3-126.5c-1,1-.9,1.6.2,2.5a3.606,3.606,0,0,1,1.4,2.4c0,.7-.2.6-.6-.2a2.391,2.391,0,0,0-2.1-1.2c-1.2,0-1,.6.9,2.7,1.3,1.4,1.9,2.3,1.3,2-.6-.4-1.7.6-2.3,2.1-1.4,2.9-1.4,3.8,0,3.5.4-.2.6.4.2,1.3-.5,1.3-.8,1.3-2.4-.2-1.5-1.3-2.2-1.5-3.1-.6-1.6,1.6.7,6.6,2.7,5.8.9-.3,1.2,0,.8,1-.3.7-.1,1.4.5,1.4s1.5-1.4,2.1-3c.5-1.7,1.2-3,1.5-3s.3.7,0,1.5c-1.2,3.1,1.6,1.4,3.2-2,.9-1.9,2-3.2,2.5-2.9s1.2-.2,1.5-1c.7-1.8-2.2-5.1-3.1-3.6-.3.5-.2,1,.4,1s.8.7.4,1.6c-.5,1.4-.8,1.4-2,.1-1.2-1.2-1.3-1.9-.3-3.7.8-1.5.8-2,.1-1.6-.6.4-1.1,0-1.1-1.1a4.767,4.767,0,0,0-1.2-3.1c-.9-.9-.9-1.2,0-1.2a1.126,1.126,0,0,0,1.2-1C181-128.4,179.7-128.2,178.3-126.5Zm3.5,12.6c1.6,2.6-.4,3.5-2.8,1.4-1.1-1-1.8-2.1-1.5-2.5C178.3-116.3,180.7-115.7,181.8-113.9Zm-6.2,4.4c1.4,1.3,1.3,1.5-.5,1.5-1.2,0-2.1-.6-2.1-1.5,0-.8.3-1.5.6-1.5A5.774,5.774,0,0,1,175.6-109.5Z" fill="#fff"/><path d="M189.5-126c.3.5.8,1,1.1,1,.2,0,.4-.5.4-1a1.028,1.028,0,0,0-1.1-1C189.4-127,189.2-126.6,189.5-126Z" fill="#fff"/><path d="M101.6-124.4a4.471,4.471,0,0,0,.3,3.2c.8,1.5,1.1,1.4,1.9-.8.5-1.4.8-2.8.5-3.3C103.6-126.5,102.2-126.1,101.6-124.4Z" fill="#fff"/><path d="M161.3-124.5c-.6,1.8,2.3,5.5,4.4,5.5a2.389,2.389,0,0,1,1.9,1.5c.4.8,1,1.2,1.5.9s.9.5.9,1.8c.1,2,.2,2.1,1.1.6a7.113,7.113,0,0,0,.5-4.2c-.2-1.4,0-2.6.6-2.8s.3-1-.6-1.7c-1.4-1.2-1.6-1.2-1,.3a1.564,1.564,0,0,1-1,2.2c-1.9.7-8.2-4.2-6.3-4.9.9-.4.9-.6-.1-.6C162.5-126,161.7-125.3,161.3-124.5Z" fill="#fff"/><path d="M111.3-121.8c-.9,1.8-1.6,3.9-1.4,4.6.1.8-.7,1.6-1.9,1.9-1.7.4-1.9.8-.8,1.4.8.6.1.8-2.2.7-1.9-.2-3.7-.6-4-1a25.936,25.936,0,0,0-5-2.7c-4.2-1.9-4.6-1.9-5.8-.3a4.507,4.507,0,0,0,.9,6.5c1.3.8,2.2.4,4.3-1.8,1.4-1.5,2.6-2.4,2.6-1.8a3.835,3.835,0,0,1-1.2,2.1c-.9.9-.4,1.1,2.1.7,3.6-.4,8.1,1.2,8.1,2.9,0,.6.7.2,1.5-.8a5.266,5.266,0,0,0,.9-3.9c-.4-1.4-.2-1.8.7-1.4a1.562,1.562,0,0,1,1.2,1.6c-.4,1.7,1.4,1.3,2.1-.4a5.835,5.835,0,0,0-.1-3.2c-.6-1.5-.7-1.5-1.4.3-.7,1.7-.8,1.7-.8.1-.1-1,.6-3.3,1.3-5.2C114.3-125.9,113.6-126,111.3-121.8ZM92-115c0,1.6-.4,3-.8,3-.5,0-.7-1.4-.4-3,.2-1.7.6-3,.8-3S92-116.7,92-115Z" fill="#fff"/><path d="M119.3-123.3A8.775,8.775,0,0,1,118-121a6.91,6.91,0,0,0-1.5,2.8c-.6,2.1-.4,2.3,1.7,2,2-.3,2.3-.8,2-3.7-.2-1.8.1-3.1.6-2.8.5.4.9,0,.9-.8C121.7-125.6,120.1-125.4,119.3-123.3ZM119-118a1.1,1.1,0,0,1-1.1,1c-.5,0-.7-.5-.4-1,.3-.6.8-1,1.1-1C118.8-119,119-118.6,119-118Z" fill="#fff"/><path d="M149.9-124.1a3.338,3.338,0,0,1-2.3,1.3c-1.8.3-7.6,5-7.6,6.2,0,1,6.4-2.5,7.6-4.2a2.969,2.969,0,0,1,3.3-.9c1.7.4,2.1.1,1.9-1C152.5-124.6,150.4-125.6,149.9-124.1Z" fill="#fff"/><path d="M156.5-124c.3.5-.1,1-1,1s-1.3.4-1,1c.3.5,1.8,1,3.2,1,1.9,0,2.4-.4,1.9-1.6a15.633,15.633,0,0,1-.6-2c0-.2-.7-.4-1.6-.4C156.6-125,156.2-124.6,156.5-124Z" fill="#fff"/><path d="M135.7-123.3a16.437,16.437,0,0,0-.5,4.3c-.1,3.1.1,3.3,1.1,1.5a4.359,4.359,0,0,1,3.1-2c2.1,0,4.5-3,3.3-4.2-.4-.4-1.7-.2-2.7.5a7.812,7.812,0,0,1-2.7,1.2c-.5,0-.1-.5.7-1,1.3-.8,1.3-1-.2-1C136.9-124,135.9-123.7,135.7-123.3Z" fill="#fff"/><path d="M130.6-119c-.7,1.7-1.6,2.7-2.1,2.3-.4-.5-.5-.3-.1.4a1.465,1.465,0,0,1-.2,1.7c-.5.3-.8,1.5-.6,2.8.1,1.3.3,3.3.3,4.6.1,1.6.5,2.1,1.4,1.6,1-.6,1-.4,0,.7-2,2-1.5,3.1.7,1.9,1.1-.6,1.7-1.6,1.4-2.2-.4-.6-.3-.8.4-.4.6.3,1.3-.6,1.7-2.4.4-1.6,1.1-3.2,1.6-3.5,1.4-.9,1.1-3.5-.5-3.5-.9,0-1.2-.8-.8-2.6.4-2.1.2-2.5-.8-1.9s-1.2.4-.7-.8C133.4-123.3,131.9-122.1,130.6-119Zm1.9,4c.1,1.6-.3,3-.8,3-.4,0-.7,1-.5,2.2a2.372,2.372,0,0,1-1.1,2.6c-1.1.4-1.2-.2-.6-2.4a26.116,26.116,0,0,0,.8-4.4c0-1.2,1.5-4,2.1-4C132.4-118,132.5-116.7,132.5-115Z" fill="#fff"/><path d="M149-120a3.9,3.9,0,0,0,1.1,1.7c.9.9.6,1-1.1.6s-2.1-.2-1.8.8c.3.9,1.9,1.4,4.2,1.4,4,0,5.9,1.8,5,4.7-.3,1-.2,1.8.3,1.8.4,0,.8,1.4.9,3,.1,1.9-.4,3-1.2,3s-1.4.9-1.4,2.1c0,2,.8,1.9,3.6-.2.7-.6.8-2.5.4-5.3-.6-4.1-.5-4.5,1.4-4.8a2.063,2.063,0,0,0,2-2c-.2-2.4,4-1.7,4.5.8.3,1.6.2,1.7-1.5.4-1.6-1.4-1.7-1.3-1.1.8.4,1.8.2,2.2-.9,1.8-.8-.3-1.3-.2-1,.3s0,1.4-.8,2a4.1,4.1,0,0,0-.9,3.4,3.735,3.735,0,0,1-1.1,3.6,4.5,4.5,0,0,0-1.6,2.9c0,1.6-4.5,6.2-6.1,6.2-.5,0-.9-.7-.9-1.6,0-.8.4-1.3.8-1,1.4.9,4.5-3.5,3.3-4.7s-4.4.9-3.6,2.3a1.266,1.266,0,0,1-.6,1.6c-.8.5-.9.3-.4-.6.5-.8.4-1.1-.3-.6a2.045,2.045,0,0,0-.5,2.3c.5,1.2.3,1.4-.8.7-2-1.2-3.9-1.4-3.9-.3a.974.974,0,0,0,.8,1c3.1.3,4.8,1,6,2.6,1,1.4,1.4,1.5,2.1.5a3.291,3.291,0,0,1,1.7-1.5c.5-.1.8-.4.7-.7-.4-1.2,3.6-.8,4.7.5a2.428,2.428,0,0,0,2.6.8c1.9-.7,1.8,1.2-.3,2.8-1.1,1-1.4,1-.9.1.4-.6.3-1.2-.2-1.2-1.4,0-2.5,5.1-1.3,6.3,1.1,1.1,4.4-1,3.6-2.3-.7-1.1,2.2-3.3,3.4-2.6.5.3,2,.1,3.3-.4,2.2-1,2.2-1-.4-.7-2,.3-2.9-.1-3.3-1.4a3.048,3.048,0,0,0-3.1-1.9c-1.5,0-2.4-.6-2.4-1.6,0-1.1-.6-1.4-2.2-.8-2,.6-2.1.5-.9-1,1.7-2.1,3-2,4.8.1.8,1,1.2,1.2.8.5a2.772,2.772,0,0,1,.5-2.7c.8-.9.8-1.5.2-1.5a1.846,1.846,0,0,0-1.5,1.2c-.4.8-.6.7-.6-.4a3.427,3.427,0,0,0-.8-2.1c-.5-.2-.2-.2.5-.1.7.2,1.2-.6,1.2-1.9,0-1.8-.2-1.9-1-.7-.8,1.3-1,1.2-1-.4,0-1,1.1-3.1,2.5-4.8,2.2-2.6,2.6-2.8,3.2-1.1a17.7,17.7,0,0,0,2.5,4.2A8.853,8.853,0,0,1,172-100a2.5,2.5,0,0,0,1.4,2.3c1.9.7,5-2.8,4-4.5-.5-.8-1.1-.4-2,1.6l-1.1,2.9-.7-3.6c-.4-1.9-1.3-4-2.1-4.7a4.824,4.824,0,0,1-1.5-3.2c0-1.2-.4-1.7-1.2-1.2-.7.5-.9.2-.5-.9.7-1.9-2.9-6.3-4.9-5.9-.8.2-1.4-.4-1.4-1.3,0-1.2-.8-1.5-2.7-1.3-2.1.2-2.7.8-2.6,2.3.1,1.1,0,1.4-.3.7-.3-.6-1-1-1.5-.6a2.3,2.3,0,0,1-2.1-.2c-.8-.5-.6-1,.8-1.4,1.5-.6,1.3-.8-1.4-1.2C150.5-120.4,149-120.4,149-120Zm11.1,3.2c1,1.8.9,2-.6,1.4-1.5-.5-1.6-.4-.5.9.7.9,1.1,1.8.8,2-1.1,1.1-2.7-2.2-2.1-4.3C158.4-119.5,158.6-119.5,160.1-116.8ZM162-97.4c0,.2-.7.4-1.5.4s-1.5-.4-1.5-1c0-.5.7-.7,1.5-.4C161.3-98,162-97.6,162-97.4Z" fill="#fff"/><path d="M197-118.9c0,.5-.4.7-1,.4-.5-.3-1-.2-1,.4a1.574,1.574,0,0,0,1.2,1.3,3.052,3.052,0,0,1,1.4,2.2c.2,1.4,0,1.5-1.2.5-1.8-1.5-2,1.1-.2,2.9.9.9,1,1.5.2,2-.7.4-1.5,2.9-1.8,5.5-.5,3.4-.3,4.7.4,4.2a2.585,2.585,0,0,0,.9-2.3c-.3-3,.1-3.7,1.2-2.2.9,1.3,1,1.3.6-.1a3.558,3.558,0,0,1,.6-3c1-1.1.9-1.1-.5,0-1.8,1.4-2.5.2-.9-1.5,1.4-1.5,2.3-7.1,1.2-7.8a1.633,1.633,0,0,1-.4-2.1c.3-.8.2-1.5-.1-1.5S197-119.5,197-118.9Z" fill="#fff"/><path d="M137.2-114.5c.2,2.3,1.8,3.7,1.8,1.5a1.028,1.028,0,0,1,1.1-1c.5,0,.7.4.4,1-1.1,1.7,1.7,1.1,3.2-.8.8-.9,1.2-1.1.8-.5a4.032,4.032,0,0,0,.3,3c1.8,3.5,2.3,7.3,1,6.8-1.8-.7-2.1,6.4-.3,8.1,1.1,1.1,1.9.8,4.7-1.9a28.829,28.829,0,0,0,4.4-5.2c1.2-2.4.7-5.8-.8-4.9-1.1.7-2.8-1.3-2.8-3.5,0-1,.3-1.1,1.3-.2,1.4,1.1,2.7.5,2.7-1.3,0-.6-.4-.5-.9.3-.6.9-1.1,1-1.5.2-1.2-2-2.6-1.2-2.6,1.5,0,2.5-2.4,3.1-2.6.6-.1-.7-.2-1.8-.3-2.6-.2-2-2.5-2.6-6.1-1.6-2.6.7-3.1.6-2.6-.5.3-.8.1-1.5-.4-1.5S137.1-115.9,137.2-114.5Zm11.3,6.4a1.216,1.216,0,0,1-.5,1.6c-.5.3-1-.1-1-.9C147-109.2,147.6-109.5,148.5-108.1Zm2.3,1.6c-.3,1.4-.1,2.5.3,2.5.5,0,.9-.7.9-1.6,0-.8.4-1.3.9-1,1.4.9.1,4.5-2.1,5.7-1,.5-1.6,1.4-1.3,1.9.3.4-.3.7-1.2.6a2.968,2.968,0,0,1-2.1-1.6c-.3-.7,0-1,.6-.7.5.4,1.6-.1,2.3-1,1.2-1.5,1.2-1.6-.3-1-1.6.6-1.6.4,0-2.8C150.8-109.6,151.4-109.9,150.8-106.5Z" fill="#fff"/><path d="M114.3-112.3a11.013,11.013,0,0,1-2,3.1c-1.6,1.7-1.7,3.6-.1,2.6.6-.4.8-.3.5.3-.9,1.4.7,10.9,1.7,10.5.5-.2,1.3.2,1.7,1,.7,1,.9.9.9-.4a2.3,2.3,0,0,0-1-2c-1.5-.5-2.4-12.8-1-12.8.6,0,.9-.4.5-.9a1.387,1.387,0,0,1,.6-1.7c.9-.5,1,.6.6,4.2-.5,3.3-.4,4.4.3,3.4a9.592,9.592,0,0,0,1.1-3.5c.1-1.7.2-1.7.6-.3.4,1.6,2.3,2.6,2.3,1.3,0-1.1-4.4-6.5-5.2-6.5C115.3-114,114.6-113.2,114.3-112.3Z" fill="#fff"/><path d="M187.3-112.4c-.3.8.3,2.5,1.4,3.7,2.6,2.8,3.5,6.7,2.1,8.4a1.906,1.906,0,0,0,.1,2.7c.9,1.1.8,1.5-.4,2-.9.3-1.3,1-1,1.6,1.7,2.8,4-1.4,2.3-4.4-.6-1-.5-1.6.2-1.6,1.6,0,1.2-4.4-1-9.4C188.7-114.4,188.2-114.8,187.3-112.4Z" fill="#fff"/><path d="M124.6-109.8a12.611,12.611,0,0,0-.5,2.8,26.937,26.937,0,0,1-.6,4.1c-.5,1.9-.2,2.8.9,3.2.9.4,1.6.1,1.7-.6.5-6,.4-9.9-.3-10.3C125.4-110.9,124.8-110.5,124.6-109.8Z" fill="#fff"/><path d="M135.6-110.2c-.8,1.4-.3,11.2.6,11.2.4,0,.8-.7.8-1.5s.4-1.5,1-1.5c.5,0,.7.8.3,1.7-.5,1.5-.3,1.6.7.6,1.1-1.1.9-1.7-1.1-3.9l-2.4-2.6,2.5.7a6.627,6.627,0,0,1,3.1,1.7c.3.5.9.2,1.2-.7.4-.9.3-1.4-.1-1.1-1.2.7-5.3-2.4-4.7-3.5.9-1.4,2.5-1.1,2.5.5,0,.7,1.1,1.6,2.5,1.8,1.7.4,2.5.1,2.5-.9s-.6-1.3-1.6-.9c-1.1.4-1.5.2-1.1-.6C142.8-110.7,136.5-111.6,135.6-110.2Z" fill="#fff"/><path d="M101.1-108.4c0,1.1.3,1.4.6.6a2.026,2.026,0,0,0-.1-1.9C101.3-110.1,101-109.5,101.1-108.4Z" fill="#fff"/><path d="M183.2-108.8c-1.5,1.5-1.6,3.8-.2,3.8a1.028,1.028,0,0,0,1-1.1c0-.5.4-.8.9-.4.6.3.6,1.8-.1,3.8-1.5,4.6-2.5,5.3-2,1.5.5-3,.4-3.2-1.2-1.9-2.3,1.9-1.7,5.6.9,5.6,1.3,0,2.1-.8,2.3-2.3.2-1.2.8-2.2,1.4-2.2.5,0,.8.7.4,1.5-.3.8-.1,1.5.4,1.5s1.1.8,1.4,1.7c.3,1,.4.6.2-1-.2-1.5.1-3,.5-3.3a2.036,2.036,0,0,0,.9-1.6c0-.7-.5-.7-1.4.1-1,.9-1.5.8-1.9-.3-.3-.8-.1-1.6.5-1.8.8-.3.7-1-.1-2.6C185.8-110.3,184.9-110.5,183.2-108.8Z" fill="#fff"/><path d="M199.9-108a29.286,29.286,0,0,0,0,4.2,2.585,2.585,0,0,1-.9,2.3,3.851,3.851,0,0,0-1,2.8c0,1.8-.2,1.9-1,.7-.7-1.1-1-1.1-1-.2,0,.7-.4,1-1,.7-.5-.3-.7,0-.4.8a1.931,1.931,0,0,1-.5,2.2c-1.4.8-1.4,2.5-.1,2.5.6,0,1-.8,1-1.8,0-1.3.2-1.4.9-.3.6,1,1.2.4,2.2-2.3.7-2,2.1-3.8,3.1-4.2,3-.9,9.4-.7,11.6.5,3.4,1.8,4.2,1.3,4.2-2.4,0-3.2-.2-3.5-2.2-3-7.9,1.9-12.8,2.2-14.1.7q-1.2-1.65,0-.9c1.9,1.2,2.7-1.4.9-3.1C200.1-110.3,200-110.2,199.9-108Z" fill="#fff"/><path d="M103.5-108.1a1.216,1.216,0,0,0,.5,1.6c.5.3,1-.1,1-.9C105-109.2,104.4-109.5,103.5-108.1Z" fill="#fff"/><path d="M108.3-106.4a2.045,2.045,0,0,0,.5,2.3c1.3.8,1.9,3.9.8,4.3-.5.2-1.5-1.3-2.2-3.2-1-2.7-1.3-3-1.3-1.2-.1,2.5,1.7,6.3,3.7,7.5.6.4,1.2,2.2,1.2,3.8,0,3.3,1.5,6.9,3,6.9.5,0,.3-1.2-.5-2.7s-1.1-3.1-.7-3.7c.3-.6.9,0,1.3,1.4.6,2.1.7,2.2.9.5.1-1.8.2-1.7,1.1.4a12.177,12.177,0,0,1,.5,5.4c-.2,1.6-.2,2.6.1,2.3s1.8.1,3.4,1c3.5,1.8,3.7.7.4-2.5-1.4-1.3-2.5-3.2-2.5-4.3s-1.8-3.8-4-6c-3.3-3.3-3.8-4.3-2.8-5.5.9-1.1.8-2-.5-4.2-.9-1.6-1.4-3.1-1-3.5.3-.3.3-.6-.1-.6C109.3-108,108.7-107.3,108.3-106.4Z" fill="#fff"/><path d="M120.1-106.1a2.634,2.634,0,0,0-.8,3c.5,2.2-.8,3-1.6.8-.7-2-1.9,0-1.2,2.2.5,1.7.9,1.9,2.5.9a5.983,5.983,0,0,0,2.3-2.8c.3-.8.8-2.3,1.2-3.3C123.3-107.1,122.3-107.5,120.1-106.1Z" fill="#fff"/><path d="M166-106.2c0,.8-.5,1-1.2.6q-1.35-.9,0,.9a4.2,4.2,0,0,1,.7,3.8c-.5,1.6-.4,1.9.5,1.4.8-.5,1.8-.1,2.7,1,.7,1.1,1.3,1.7,1.4,1.4a20.206,20.206,0,0,1,.5-2.6c.3-1.7,0-2.1-1.3-1.6-1.1.4-1.4.3-.9-.5.4-.7,0-2.2-.8-3.4C166.7-106.4,166-106.9,166-106.2Z" fill="#fff"/><path d="M84.5-105a5.964,5.964,0,0,0,.1,3.5c.7,2.6,3.2,3.3,5.1,1.4.7-.7,3.4-1.2,6.2-1.3,4.3-.1,5-.4,5.4-2.4.4-1.9.1-2.1-1.5-1.6-2.9.9-10.7,1-10.1.1.2-.4-.7-.7-2.1-.7S84.9-105.6,84.5-105Z" fill="#fff"/><path d="M178.2-104.1c.2.7.7,1.2,1.1,1.2,1.2-.1.9-1.5-.3-2C178.3-105.1,177.9-104.7,178.2-104.1Z" fill="#fff"/><path d="M133-102.6a2.517,2.517,0,0,1-1,2.1c-.6.4-.7-.1-.3-1,.5-1.5.3-1.5-1.6-.4-1.2.8-1.7,1.5-1.1,1.7a2.781,2.781,0,0,1,1,2.3,11.767,11.767,0,0,0,1,4c1.6,2.8.3,2.3-3.8-1.6-4.1-3.8-7.7-4.5-8.7-1.6-1.5,4.8,3.3,7.7,6.5,3.9,1.1-1.3,1.9-1.8,2-1.1a2.616,2.616,0,0,1-.9,1.8c-.6.3-.9,1.5-.8,2.8.3,2.8,2.3,6.4,3.2,5.5.4-.4.3-1.3-.1-2-1.1-1.8-1.2-4.8-.2-4.8.5,0,.6-.5.2-1.1-.3-.6.5-.3,2,.6,1.4,1,2.6,2.5,2.6,3.4-.1,1.4-.3,1.3-1.5-.3-.8-1.1-1.7-1.7-2.1-1.4-.9,1,1.5,4.8,3,4.8,1.8,0,1.6-9.2-.2-9.8-2-.6-1.4-2.1.8-1.9a1.944,1.944,0,0,1,2,2c0,1.6.2,1.7,1.5.7,1.3-1.1,1.4-1,.8.6-.6,1.7-.5,1.7,1,.5s1.7-1.1,1.7.3c0,.9.5,1.6,1,1.6.6,0,.9-.5.8-1.1-.4-1.6-4.1-5.6-4.9-5.2a5.646,5.646,0,0,1-2.5-1.1c-1.5-1.1-1.6-1.7-.6-2.9.9-1,1-1.7.2-2.2C133.5-103.8,133-103.4,133-102.6ZM123-95c0,1.1-.5,2-1.1,2-.5,0-.7-.5-.3-1.1a1.707,1.707,0,0,0-.7-2c-1.1-.7-1-.9.4-.9A1.775,1.775,0,0,1,123-95Z" fill="#fff"/><path d="M103.6-102.2c-.4.7-.1,4.7.4,4.7a14.668,14.668,0,0,1,.5,3.7c.2,2.3-.1,3.5-.7,3.2-.6-.4-.5.3.1,1.5,1.4,2.5,2.3,2.8,1.4.3-.6-1.4-.4-1.5.8-.5,3.2,2.6,5-3.1,1.8-6.1-.8-.8-.9,0-.5,2.9.3,2.2.3,3.2,0,2.2-.3-.9-.9-1.7-1.3-1.7s-.6-1.3-.3-3a11.488,11.488,0,0,0-.3-4.7,6.72,6.72,0,0,1-.7-2.6C105.1-103.2,104.2-103.2,103.6-102.2Z" fill="#fff"/><path d="M141.2-100.7c-2.6,2.8-2.8,4.2-.6,3.3,1.2-.4,1.5-.2,1,.9-.3.8-.1,1.5.5,1.5s.9.7.5,1.5c-.3.8-.1,1.5.4,1.5,1.3,0,1.3-1-.1-5-.9-2.6-.9-3.4.2-4.1.7-.4,1.1-1,.8-1.3S142.4-102,141.2-100.7Z" fill="#fff"/><path d="M177.5-98.1a9.874,9.874,0,0,0-.3,3.8,10.418,10.418,0,0,1-1.7,5.5c-2.1,2.6-7.1,5.1-8.7,4.2-.5-.3-.8-.2-.7.3.3,1.9-1.4,5.3-2.7,5.3a1.266,1.266,0,0,0-1.4,1.1c0,.7,1,.9,2.5.7,1.4-.3,2.8-.1,3.1.3.8,1.3,3.4,1.1,3.4-.2,0-.6-.7-.8-1.6-.5s-1.2.2-.9-.5c.4-.5.1-1.6-.5-2.4-1-1.2-.9-1.5.3-1.5a2.585,2.585,0,0,1,2.1,1.7c.6,1.4.9,1.5,1.5.4a1.54,1.54,0,0,1,2.1-.6c.7.4.8,1,.4,1.4a17.092,17.092,0,0,0-2.7,3.8c-1.4,2.6-1.5,3.3-.4,3.3.8,0,2.2-.9,3.3-2.1,1.4-1.6,1.6-2.2.5-2.8-1.1-.7-1-1.1.4-1.9,1.7-.9,1.7-1-.4-2.1-1.2-.7-2.6-.9-3.1-.6-.6.3-1-.4-1-1.7,0-1.7.3-1.9.9-.9a1.54,1.54,0,0,0,2.1.6q1.35-.75.6.3c-.4.7-.3,1.2.3,1.2,1.8,0,2.1-1.8.4-2.4-1.3-.5-1.4-.9-.4-1.9.9-.9,1.4-.9,2.2.3.9,1.2,1,1.2.5-.3-.3-1.1,0-2,.9-2.3a2.675,2.675,0,0,0,1.5-2.1c0-.8.5-1.1,1-.8.6.3,1-.1,1-1s.5-1.3,1-1c.6.3,1-.1,1-1.1,0-1.5-.2-1.5-2.5,0-3,2-3.2,2-3.2.1,0-.8.4-1.2.9-.9.4.3.8-.2.8-1C180-98.2,178.4-99.4,177.5-98.1Z" fill="#fff"/><path d="M185.4-96.3c-1.1,3.5-2.9,6.8-4.5,8.3a13.741,13.741,0,0,0-2.6,4.1c-.9,2.1-.8,2.7.8,3.7,2.4,1.5,2.6,1.5,3.2-.2q.6-1.5-.9-.9c-1,.4-1.2,0-.8-1.1.3-.9,1-1.6,1.5-1.6a.923.923,0,0,0,.9-1c0-.5-.8-.6-1.7-.3-1.2.5-.8-.3,1-2.1,1.5-1.5,3.2-2.4,3.8-2a1.707,1.707,0,0,0,2-.7c.6-.9.9-1,.9-.2,0,.6.9,1,2,.8a2.631,2.631,0,0,1,2.5.6,1.281,1.281,0,0,0,1.6.4c1.7-1.1.9-2.3-1.4-2.3-3.7,0-7.9-3.1-7.2-5.3.4-1.1.4-1.9,0-1.9C186.2-98,185.7-97.2,185.4-96.3Z" fill="#fff"/><path d="M102-95.4c0,.8.5,1.2,1,.9a1.216,1.216,0,0,0,.5-1.6C102.6-97.5,102-97.2,102-95.4Z" fill="#fff"/><path d="M169.2-95.7c-1.7.8-2.1,1.5-1.6,3.1,1.4,4.5,6.7,4.8,7.2.4C175.2-95.5,172.5-97.2,169.2-95.7Zm3.4,2.2c-1,.7-1.5,1.8-1.1,2.4.3.7,0,.8-.9.5-1.8-.7-1.8-.7-1-2.8a3.039,3.039,0,0,1,2.8-1.6C174.4-94.9,174.4-94.9,172.6-93.5Z" fill="#fff"/><path d="M199-91.5c0,.8-.5,1.5-1.1,1.5s-.8.7-.5,1.6c.3.8.2,1.2-.4.9-1.8-1.1-1,1,1.1,2.8,2,1.7,2,1.7,1.9,0-.4-3.4,0-5.3,1.1-5.3.6,0,.8.9.4,2s-.2,2,.4,2c1.9,0,1.2-4.9-.9-6C199.4-92.9,199-92.8,199-91.5Z" fill="#fff"/><path d="M135-90.4c0,.8.5,1.2,1,.9.6-.3,1,.1,1,1s.5,1.3,1,1c.7-.4.7-1.3,0-2.6C136.7-92.4,135-92.6,135-90.4Z" fill="#fff"/><path d="M119-89.2c0,.8.6,1.2,1.5.8,1.1-.4,1.5.1,1.5,1.9,0,1.4.5,2.5,1,2.5a1.12,1.12,0,0,1,1,1.2c.1,1.8,4.4,4.7,8.1,5.5,3,.6,3,.5,1.8-1.6-.8-1.1-1.7-2.1-2.2-2.1-.4,0-.5.4-.2,1,1.5,2.5-1.3.6-4.7-3.1-2.8-3.1-3.5-4.5-2.8-5.4.8-1,.3-1.4-2-1.7C119.9-90.5,119-90.2,119-89.2Z" fill="#fff"/><path d="M143.3-89.8a2.055,2.055,0,0,0,1.8,1.4c.8.1,1.9.2,2.5.3.6,0,2.4,1.2,3.9,2.5,2.7,2.3,3,2.4,4.2.8.8-1.1,1.2-1.2,1.3-.5a1.23,1.23,0,0,0,1.1,1.3c.6,0,.9-.6.6-1.4a2.618,2.618,0,0,1,.6-2.5c2.1-2.1,0-2.1-2.7,0l-2.7,2.1L151.5-88c-1.3-1.2-2.8-1.9-3.4-1.6a1.1,1.1,0,0,1-1.6-.4C145.6-91.4,142.8-91.2,143.3-89.8Z" fill="#fff"/><path d="M141-87c0,1.6-.5,1.9-3,1.3-2.4-.4-2.9-.3-2.5,1,.6,1.5,5.5,1.9,5.5.4,0-.4,1.1-.7,2.5-.7,2.9,0,3.2-.8.8-2.6C141.8-89.5,141-89.3,141-87Z" fill="#fff"/><path d="M203.3-85.9c-1.2,3.1-.8,3.9,1.8,3.9,2.4,0,4.5-3.8,3-5.3C206.1-89.3,204.4-88.8,203.3-85.9Z" fill="#fff"/><path d="M108-86.4c-1.5.8-1.9,1.4-1,1.4,2.4.1-4.3,2.7-8.8,3.5-4.7.8-4.9,1-2.7,3.1A6.086,6.086,0,0,1,97-74.9c0,3.3,1.8,2.1,3.3-2.4.9-2.3,1.6-3.4,1.6-2.5.1,1.6.4,1.6,3.4-.2a13.331,13.331,0,0,1,6-2c3.1,0,3.6-1.9,1-4.2C110.8-87.5,110.1-87.5,108-86.4Zm-8.3,7a2.026,2.026,0,0,1-1.9.1c-.8-.3-.5-.6.6-.6C99.5-80,100.1-79.7,99.7-79.4Z" fill="#fff"/><path d="M186.4-86.8a1.011,1.011,0,0,1-1.3.4c-.4-.3-.8.5-.8,1.7-.1,1.2-.5,3.7-.8,5.4-.4,2.1-.2,3.3.5,3.3.6,0,.8-.5.5-1-.3-.6.1-1.3.9-1.6.9-.3,1.6-1,1.6-1.6,0-.5-.4-.6-1-.3-1.3.8-1.3-.8.2-3.9.8-2,1.4-2.3,2.2-1.3.6.7,1,1,.9.8-.2-.2.4-.9,1.3-1.6,1.3-.9,1.2-1.1-1.1-1.1C188.1-87.6,186.6-87.2,186.4-86.8Z" fill="#fff"/><path d="M146.1-84.6c-1.3,1.5-5.8,3.1-7.8,2.7a1.034,1.034,0,0,0-1.3.9c0,.7,1.2.9,3,.6,1.7-.2,2.8,0,2.4.5-.3.5,0,.9.6.9s.8.4.5,1c-.3.5.1,1,.9,1,1.8,0,2.1-1.6.6-2.5-.8-.5-.8-1.1,0-1.9,1.4-1.8,5.8-.8,7.1,1.6.8,1.4,1.4,1.6,2.3.9s1.6-.7,2.3,0a3.56,3.56,0,0,0,2.9.7c1.6-.3,1.7-.4.1-2a6.636,6.636,0,0,0-4.4-1.4,4.79,4.79,0,0,1-4.6-2C148.6-86.4,147.7-86.5,146.1-84.6Z" fill="#fff"/><path d="M191.5-85a2.126,2.126,0,0,0-.1,1.9c.3.5-.1,1.4-.9,2.1-1.8,1.5-1.9,3.6-.3,4.6.6.4.8.3.4-.4-.3-.6.2-1.8,1.1-2.8,1.9-1.9,2.7-4.8,1-3.7-.6.4-.8,0-.4-1C193-86.2,192.5-86.6,191.5-85Z" fill="#fff"/><path d="M132-82.5c3.1,1.8,4.1,1.9,3.4.2-.2-.7-1.7-1.4-3.2-1.5l-2.7-.1Z" fill="#fff"/><path d="M187.7-82.4c.3.7.9,1.4,1.4,1.4,1.4,0,1-1.7-.5-2.3Q187.1-83.9,187.7-82.4Z" fill="#fff"/><path d="M112-79.3c0,1.5-.2,1.6-1,.3-.8-1.2-1-1.1-.7.5.3,1.9,5.7,8.6,5.7,7,0-.4.7-.2,1.5.5.8.6,1.8.9,2.3.6.6-.3,1.5.1,2.2.9,1,1.2.9,1.5-.5,1.5s-1.5.3-.6,1.4a5.6,5.6,0,0,0,4.1,1.2l3-.2-2.7,3a22.582,22.582,0,0,1-3.6,3.4.71.71,0,0,0-.2,1.1c.2.5-.7,1.4-2,2.1-1.4.7-2.5,1.9-2.5,2.6,0,1.6,2.8,4.4,4.3,4.4.7,0,.1-.9-1.3-2s-2-2-1.4-2,1.9.9,3,2.1c1.7,1.9,1.9,1.9,2.5.2.9-2.6-.1-5.7-1.4-4.4a3.9,3.9,0,0,1-2.1,1.1c-.6,0,0-.7,1.3-1.6,1.8-1.3,2.5-1.4,3.1-.5.4.8.9.1,1.3-1.8a12.835,12.835,0,0,1,3.3-5.6c2.7-2.5,4.7-2.5,3.8,0-.4.8-1,1.2-1.5.9s-.9-.1-.9.5a2.335,2.335,0,0,0,1,1.6c.6.3,1,.1,1-.4,0-.6,1.5-1.1,3.4-1.1s3.7-.4,4.1-.9c.3-.6-1-.8-3.2-.6-2.1.3-3,.2-2-.1,1.8-.5,1.8-.7-.2-2-1.2-.9-2.5-1.3-3-1s-1.4-.1-2.1-.9c-.9-1-.9-1.5-.1-1.5a1.135,1.135,0,0,0,1.1-1.2c0-.9-.3-.9-1.2,0-1.9,1.9-3.2,1.4-5.2-1.8-.9-1.7-2.2-2.7-2.8-2.4-.6.4-.8.3-.5-.3.4-.6-.2-1.8-1.3-2.8s-1.7-2.2-1.4-2.7c.4-.6-.2-.5-1.3.1s-2.4.7-2.8.3-.4.3-.1,1.5c.6,1.8.3,2.2-1.3,2-1.1,0-1.7-.5-1.5-.9a.984.984,0,0,1,1.4-.3c.4.3.6-.4.3-1.5C112.6-81.5,112-81.6,112-79.3Zm14.1,12.6c-1.1,1.1-3.4,0-2.6-1.3s-2.4-4-3.9-3.4a1.665,1.665,0,0,1-2-1.1c-.3-.9-.2-1.3.4-1,1.6,1,1.2-1.1-.5-2.5a4.313,4.313,0,0,1-1.5-2.4c0-.6,2.5,1.6,5.5,4.8C125.1-69.8,126.7-67.3,126.1-66.7ZM117-75.3a6.128,6.128,0,0,1-1,2.3c-.8,1.2-1,1.1-1-.8,0-1.2.5-2.2,1-2.2C116.6-76,117-75.7,117-75.3Z" fill="#fff"/><path d="M146.2-79.9c.5,1.4,4.8,3.2,4.8,2,0-.4-1.2-1.3-2.6-2C146.4-80.8,145.9-80.8,146.2-79.9Z" fill="#fff"/><path d="M105.1-78.4c-2.8,1.5-4.5,4-3.6,5.4.9,1.5,3.5,1.2,3.5-.4a4.859,4.859,0,0,1,2.2-3C110.1-78.5,108.3-80.1,105.1-78.4Z" fill="#fff"/><path d="M120-79.6a39.745,39.745,0,0,0,3.2,3.7c2.4,2.5,4.2,3.4,6.5,3.4,1.8.1,3.8.6,4.5,1.3a5.1,5.1,0,0,0,3.3,1.2c1.8,0,1.7-.2-.8-1.8-1.5-1-2.4-2.2-2-2.5.3-.4,1.6.1,2.7,1,2,1.7,2,1.7.6-.1s-1.3-1.9.4-1.3c1.2.5,2.3.3,2.8-.5,1.2-2,1-3.2-.4-2a11.344,11.344,0,0,1-4.3,1.4,7.107,7.107,0,0,0-4.2,1.8c-1,1.3-1.4,1.3-3.1-.3-1.5-1.4-2.1-1.5-2.5-.5-.4.8-.6.7-.6-.5a1.82,1.82,0,0,0-1.6-1.7c-.8,0-1.5-.4-1.5-.9s-.7-1.1-1.5-1.5C120.7-79.7,120-79.8,120-79.6Z" fill="#fff"/><path d="M124.5-79a2.335,2.335,0,0,0,1.6,1c.6,0,.7-.5.4-1a2.039,2.039,0,0,0-1.6-1C124.3-80,124.2-79.6,124.5-79Z" fill="#fff"/><path d="M135.6-78.9c.7,1.3,4.3,1.7,4.7.5.3-.6-.7-1.1-2.3-1.1S135.4-79.2,135.6-78.9Z" fill="#fff"/><path d="M177.7-77.5a1.575,1.575,0,0,0,.3,2c.6.4,1,.1,1-.5s.5-.8,1.1-.5c1.3.9-2.7,4.8-5,5-1.8.1-7.6,5.5-6,5.5a15.7,15.7,0,0,0,3.9-1.5c2.2-1.1,2.9-1.2,3.3-.2.5,1.4,1.8.5,2-1.5a16.219,16.219,0,0,1,1.9-3.7c1.3-1.8,1.4-2.9.7-4.3C179.7-79.4,178.4-79.5,177.7-77.5Zm-.8,7.4c.9.6.6.8-1.3.8-1.4,0-2.3-.3-2-.8C174.3-71.2,175.1-71.2,176.9-70.1Z" fill="#fff"/><path d="M94-77.3A6.87,6.87,0,0,0,95-75c.8,1.3,1,1.3,1-.2a2.783,2.783,0,0,0-1-2.3C94.5-77.8,94-77.8,94-77.3Z" fill="#fff"/><path d="M186.3-76.1c-.9,1.4-.9,2.1,0,3s.7,1.1-.8.6c-1.1-.4-.1.5,2.3,2,2.3,1.4,4.2,3,4.2,3.6,0,.5,1.2.7,2.8.3,2.5-.6,2.6-.5.8.8a3.042,3.042,0,0,0-1.2,3.6c.9,2.8,1.9,2.8,5.2-.3,2.1-2,2.5-2.8,1.6-3.7s-1.2-.9-1.2,0c0,.6-1.7,0-3.7-1.4-4.5-3-6.5-5.1-7.8-8.2C187.5-77.9,187.5-78,186.3-76.1Z" fill="#fff"/><path d="M129-76.2c0,1.2,1.9,2.6,2.6,1.9.2-.2-.2-1-1.1-1.7C129.6-76.8,129-76.8,129-76.2Z" fill="#fff"/><path d="M145.5-76.3c-2.9.7-4.3,2.3-1.9,2.3,1.5,0,1.6.2.5.9a3.938,3.938,0,0,1-3,.4c-1.3-.4-1.3-.3-.2.5s1.1,1,0,1.5c-.8.3-.3.6,1,.6,1.3.1,2.2-.2,1.9-.5-1-.9,3-4.4,5-4.4,1.3,0,1.4.2.3.9-.8.5-.9,1.1-.3,1.5.9.6,3.9-2.1,3.1-2.8C151-76.2,147.4-76.7,145.5-76.3Z" fill="#fff"/><path d="M153-75.9c0,1.3,2.9,1.7,3.8.6.8-.9.4-1.2-1.4-1.2C154.1-76.5,153-76.2,153-75.9Z" fill="#fff"/><path d="M160.3-76.3c-.7.3-1.3.9-1.3,1.4,0,.6.6.9,1.3.8a40.938,40.938,0,0,1,4.7.1c2.5.2,2.9.4,1.3.7-1.3.2-2.3.9-2.3,1.4,0,1.2.7,1.1,3.1-.1,2.5-1.4,2.4-3-.2-3a9.164,9.164,0,0,1-3.7-.9A5.219,5.219,0,0,0,160.3-76.3Z" fill="#fff"/><path d="M154.6-73.3a18.4,18.4,0,0,0-5.5,2.1c-1.4.9-2.6,1.6-2.8,1.4a2.509,2.509,0,0,0-1-.2c-.4,0,.2.7,1.3,1.5,1.8,1.4,1.8,1.4-.6,1.6a29.2,29.2,0,0,1-4.2,0c-1-.1-1.8.3-1.8.8,0,.6.9,1.1,2,1.1,1.2,0,1.7.5,1.4,1.4a1.665,1.665,0,0,0,1.1,2c.9.3,1.3.2,1-.4-.4-.6,1-1.1,3.2-1.1,3.3-.2,3.4-.3.8-.6q-7.95-1.05-3-2.4c2-.6,3.2-.5,3.7.4.4.6,1,.8,1.4.4s-.1-1.4-1.2-2.1c-1.5-1.2-1.6-1.7-.7-2.7,1-1,1.4-.6,2.3,1.5a18.857,18.857,0,0,1,1,4.2c0,.8.4,1.4,1,1.4,1.1,0,.9-2.8-.4-4.9-.7-1.1-.5-1.3.7-.8s1.9-.1,2.3-1.9c.6-2.2.8-2.3,1.9-.8.9,1.3,1.6,1.4,3.1.6,1.8-1,1.7-1.1-.9-2.1a30.019,30.019,0,0,0-3-1A15.6,15.6,0,0,1,154.6-73.3Z" fill="#fff"/><path d="M165.4-68.8c-4.4,5.1-4,6.5,1.9,6,1-.1,1.6.2,1.3.7s.1,1.2.9,1.5c1.2.4,1.3.2.6-1.3-.6-1-.7-2.2-.3-2.6s-.3-.3-1.5.4c-2.9,1.5-3.8,1.4-2.4-.3a3.909,3.909,0,0,0,.5-3.2c-.4-1.1-.4-1.6.1-1.2,1.1,1,4.7-1.1,4-2.3C169.5-72.6,168.5-72.2,165.4-68.8Z" fill="#fff"/><path d="M180-68.9c-1.4,1.7-3.5,3.1-4.7,3.2s-2,.4-1.7.8c.2.4-.3,1.2-1.2,1.7-1.1.6-1.3,1.1-.5,1.6.6.4,1.1.2,1.1-.4s.5-.8,1-.5c.6.3,1-.1,1-1.1,0-1.1.6-1.5,2-1.1,1.1.3,1.8.1,1.4-.4-.3-.5-.1-.9.4-.9,1,0,4.6-4.9,4-5.5C182.6-71.7,181.3-70.5,180-68.9Z" fill="#fff"/><path d="M134-68c1.8,1.4,2.9,1.6,4.3.8,2.3-1.2,2.1-1.4-2.8-2.1l-4-.6Z" fill="#fff"/><path d="M160.2-68.5c-1.8.8-3.1,1.9-2.7,2.5.3.5.1,1-.6,1s-1,.2-.8.5c1,.9,4.9-.8,4.9-2.1a1.453,1.453,0,0,1,1.5-1.4c.8,0,1.5-.5,1.5-1C164-70.2,164.2-70.2,160.2-68.5Z" fill="#fff"/><path d="M185.8-67.7c1.2,1.3,2.2,2.8,2.2,3.4,0,1.6,3.8,4.6,5,3.8,2.2-1.3-4.6-9.4-7.9-9.5C184.1-70,184.3-69.3,185.8-67.7Z" fill="#fff"/><path d="M111.6-63.4c-2.7,2.9-5.2,5.3-5.5,5.2-2.1-.2-2.2.5-.1,2.7,1.3,1.4,2.7,2.5,3.1,2.5s2.1-2.5,3.8-5.5c1.8-3.1,4.1-5.9,5.2-6.3,1.9-.8,1.9-.8.2-2.4C116.6-68.6,116.2-68.4,111.6-63.4Z" fill="#fff"/><path d="M157-62a12.325,12.325,0,0,0,4.5,1.1l3,.1-2.8,1-2.8,1,2,2.2c2.2,2.4,4.8,11.9,3.3,12.4-1.4.4-.2,4.2,1.3,4.2,2.2,0,4.5-1.2,4.5-2.3a27.955,27.955,0,0,0-2.1-5.5c-2.2-4.4-2.8-8.3-1.7-11.2.2-.8.3-1.1,0-.7-.2.4-.9.2-1.6-.6-.6-.8-2.9-1.7-5.1-2.1C156.8-62.8,156-62.6,157-62Z" fill="#fff"/><path d="M152.3-60.3a5.107,5.107,0,0,0-2.3,3.4c0,2.5,4.5,4.7,6.8,3.3,2.5-1.6,2.5-3,0-5.7C154.7-61.6,154.3-61.6,152.3-60.3Zm4.4,3.9c.2.5-.8.9-2.2.9-2.7,0-3.3-1-1.2-1.8C154.9-58,156.3-57.6,156.7-56.4Z" fill="#fff"/><path d="M135-60.5c0,.5,8,4.5,8.9,4.5.3,0,.1-.4-.4-.9C142.3-58,135-61.1,135-60.5Z" fill="#fff"/><path d="M140.3-60.3a7.557,7.557,0,0,0,3,0c.6-.3-.1-.5-1.8-.5C139.9-60.8,139.3-60.6,140.3-60.3Z" fill="#fff"/><path d="M144.7-59.3c-.3.5.6.9,1.9.9,1.3.1,2.1-.2,1.8-.7C147.8-60.2,145.3-60.3,144.7-59.3Z" fill="#fff"/><path d="M131.6-56a13.989,13.989,0,0,1-3.1,5.5c-3,3.4-3.1,4.1-.4,5.5,3,1.7,4.9.5,4.9-3a18.946,18.946,0,0,1,1.4-6.4c1.3-3.1,1.3-3.5-.4-3.9C132.7-58.6,132.1-58.1,131.6-56Z" fill="#fff"/><path d="M145.5-57c-.3.5.1,1,1,1s1.3-.5,1-1c-.3-.6-.8-1-1-1S145.8-57.6,145.5-57Z" fill="#fff"/><path d="M161-51a12.158,12.158,0,0,0,1,5c.7,1.1,1,.6,1-2a12.158,12.158,0,0,0-1-5C161.3-54.1,161-53.6,161-51Z" fill="#fff"/></g></svg>