<?xml version="1.0" standalone="no"?>
<!DOCTYPE svg PUBLIC "-//W3C//DTD SVG 20010904//EN"
 "http://www.w3.org/TR/2001/REC-SVG-20010904/DTD/svg10.dtd">
<svg version="1.0" xmlns="http://www.w3.org/2000/svg"
 width="396.000000pt" height="396.000000pt" viewBox="0 0 396.000000 396.000000"
 preserveAspectRatio="xMidYMid meet">
<metadata>
Created by potrace 1.11, written by Peter Selinger 2001-2013
</metadata>
<g transform="translate(0.000000,396.000000) scale(0.100000,-0.100000)"
fill="#000000" stroke="none">
<path d="M1613 3198 c-27 -22 -82 -71 -123 -108 -135 -121 -305 -274 -316
-284 -6 -6 -44 -40 -85 -76 -40 -36 -141 -126 -224 -200 -82 -74 -211 -189
-285 -255 -74 -66 -141 -127 -150 -135 -14 -13 -147 -132 -190 -170 -51 -45
-165 -147 -176 -158 -11 -10 -14 -53 -14 -187 l0 -173 42 -15 c24 -8 508 -177
1076 -376 l1034 -361 141 124 142 124 3 -74 3 -75 122 108 c67 59 127 113 133
119 7 6 12 37 12 70 0 32 1 67 1 76 1 9 73 80 160 157 l159 141 -1 -70 c0 -38
2 -72 5 -76 6 -5 41 22 87 66 9 9 48 43 86 75 39 33 74 67 80 75 5 8 11 44 11
80 1 36 2 70 3 76 1 10 224 214 234 214 2 0 3 -38 3 -84 -1 -63 1 -83 10 -78
13 7 126 107 209 184 l50 46 -1 86 c0 77 2 88 23 108 22 21 23 28 23 174 0
109 -3 154 -12 161 -7 6 -74 31 -148 56 -74 25 -241 82 -370 127 -129 45 -305
106 -390 135 -281 96 -472 162 -725 250 -248 86 -305 105 -316 105 -3 0 -14
-8 -25 -17 -10 -10 -80 -72 -154 -138 -74 -66 -140 -124 -146 -130 -6 -5 -48
-44 -94 -85 -46 -41 -104 -94 -129 -116 -26 -23 -66 -60 -90 -81 -35 -32 -42
-44 -37 -61 4 -12 13 -22 20 -22 12 0 147 115 276 234 25 23 105 96 179 161
74 66 151 135 170 152 20 18 42 33 49 33 7 0 129 -40 270 -89 141 -49 390
-135 552 -191 162 -56 351 -121 420 -145 128 -44 576 -199 597 -206 7 -2 -68
-72 -165 -156 -97 -83 -186 -160 -197 -170 -20 -18 -127 -110 -174 -148 -13
-11 -29 -24 -35 -30 -15 -14 -154 -134 -190 -165 -16 -14 -34 -30 -40 -36 -6
-5 -43 -37 -82 -70 -93 -78 -625 -535 -642 -551 -8 -8 -29 -25 -48 -39 l-33
-26 -148 52 c-81 29 -251 88 -378 132 -126 44 -279 97 -340 118 -60 21 -177
61 -260 90 -82 28 -238 82 -345 120 -107 37 -262 91 -345 120 -82 28 -169 58
-192 67 l-41 15 151 135 c84 75 186 166 227 203 93 83 281 251 296 265 16 14
150 134 172 154 10 9 56 50 102 91 102 92 119 107 161 145 150 133 205 183
224 200 66 62 190 171 201 178 19 11 18 53 -1 61 -9 3 -34 -12 -62 -36z"/>
<path d="M1610 3077 c-81 -77 -61 -65 32 21 31 29 54 52 50 52 -4 0 -41 -33
-82 -73z"/>
<path d="M1645 3052 c-11 -9 -27 -26 -35 -37 -8 -11 3 -4 23 14 33 31 42 42
35 41 -2 -1 -12 -8 -23 -18z"/>
<path d="M1505 2990 c-3 -5 -46 -46 -95 -90 -50 -44 -87 -80 -84 -80 9 0 170
143 183 163 6 9 9 17 7 17 -3 0 -8 -4 -11 -10z"/>
<path d="M1485 2909 c-55 -49 -113 -104 -130 -121 -26 -27 89 71 180 154 16
16 33 28 36 28 4 0 9 7 13 15 3 8 4 15 3 15 -1 -1 -47 -41 -102 -91z"/>
<path d="M1550 2894 c-52 -47 -106 -97 -120 -112 -14 -14 8 3 48 39 114 99
177 158 172 158 -3 1 -48 -38 -100 -85z"/>
<path d="M1267 2774 c-21 -20 -37 -37 -35 -39 2 -2 22 14 45 36 23 21 39 39
35 39 -4 0 -24 -17 -45 -36z"/>
<path d="M1264 2712 c-86 -80 -216 -197 -228 -204 -6 -4 -8 -9 -6 -12 3 -2 39
27 80 65 41 38 103 93 137 122 34 28 64 58 67 65 8 17 6 16 -50 -36z"/>
<path d="M1244 2622 c-213 -194 -283 -259 -260 -242 11 8 34 27 51 43 16 15
103 91 192 170 89 78 164 148 167 155 3 6 4 12 3 11 -1 0 -70 -62 -153 -137z"/>
<path d="M1010 2544 c-113 -102 -216 -197 -230 -211 -31 -33 14 6 253 221 164
147 196 178 185 176 -2 -1 -95 -84 -208 -186z"/>
<path d="M1514 2476 c-17 -12 -44 -43 -59 -70 -15 -27 -35 -58 -44 -68 -9 -10
-27 -38 -41 -62 -76 -131 -119 -185 -149 -186 -14 0 -41 -18 -68 -45 -40 -39
-43 -46 -30 -59 9 -9 23 -12 37 -9 l23 6 -19 -26 c-21 -29 -34 -33 -52 -15
-17 17 -24 -9 -20 -78 3 -50 6 -59 22 -59 18 0 78 68 92 105 32 81 34 84 122
127 72 35 210 78 219 69 2 -2 4 -67 6 -145 3 -128 5 -143 24 -162 l21 -21 40
38 c45 43 53 78 33 129 -7 17 -15 60 -18 97 -5 66 -5 68 20 77 15 6 49 12 76
14 36 3 59 12 83 32 46 38 51 50 29 69 -17 16 -22 16 -48 3 -15 -7 -46 -13
-68 -11 -22 1 -45 -2 -51 -7 -7 -5 -25 -8 -42 -7 -29 2 -31 5 -37 57 -4 31 -9
64 -11 76 -3 11 -10 46 -16 78 -14 70 -31 82 -74 53z m-37 -138 c1 -30 25 -99
36 -104 7 -2 13 -22 14 -44 2 -38 1 -40 -35 -46 -20 -3 -64 -13 -97 -22 -33
-9 -62 -14 -65 -12 -9 9 1 33 28 68 14 19 27 40 28 47 2 14 37 66 68 103 23
26 23 26 23 10z"/>
<path d="M865 2354 c-82 -74 -163 -149 -180 -166 -16 -17 25 18 93 78 67 60
147 129 177 154 43 36 76 73 62 69 -1 0 -69 -61 -152 -135z"/>
<path d="M2505 2428 c-101 -72 -134 -102 -201 -185 -41 -50 -74 -98 -74 -105
0 -8 -5 -19 -11 -25 -15 -15 -49 -157 -42 -182 3 -11 9 -21 13 -21 4 0 10 -11
14 -23 6 -25 56 -53 110 -63 16 -3 32 -7 36 -9 10 -6 117 32 183 66 87 44 187
112 187 127 0 6 4 12 9 12 5 0 20 15 34 34 21 27 24 36 14 50 -11 15 -18 13
-74 -14 -65 -30 -76 -43 -46 -54 14 -6 11 -12 -16 -40 -18 -18 -42 -38 -54
-44 -80 -39 -125 -53 -186 -57 -63 -3 -69 -2 -99 26 -19 18 -33 41 -33 57 -1
15 -2 40 -3 55 -1 16 2 31 6 33 4 3 8 15 8 27 0 38 47 125 96 177 26 27 51 50
56 50 6 0 22 9 36 21 25 19 27 19 39 3 16 -22 13 -36 -21 -107 -29 -62 -29
-79 2 -96 16 -9 24 -5 43 21 13 17 30 37 36 44 7 7 16 29 19 50 3 20 9 47 13
58 3 12 6 28 5 36 -1 8 -2 26 -3 40 -2 34 -11 46 -41 53 -17 4 -35 -1 -55 -15z"/>
<path d="M2141 2424 c-15 -11 -43 -17 -80 -16 -60 1 -166 -39 -176 -67 -14
-35 31 -72 50 -41 3 6 10 10 15 10 12 0 21 -30 13 -43 -15 -23 -16 -37 -25
-294 -2 -54 -5 -63 -21 -63 -24 0 -55 -17 -90 -50 -27 -25 -28 -28 -12 -44 10
-9 25 -14 35 -11 22 7 45 11 103 20 25 4 55 16 66 26 11 10 23 19 27 19 4 0
15 10 25 22 19 21 19 21 0 35 -11 7 -24 13 -28 12 -4 -1 -13 -1 -19 0 -41 4
25 381 67 381 6 0 24 11 41 25 16 14 35 25 41 25 7 0 18 9 25 20 7 12 8 20 2
20 -5 0 -10 7 -10 15 0 20 -20 19 -49 -1z"/>
<path d="M690 2258 c-30 -28 -135 -123 -232 -210 -98 -87 -175 -158 -170 -158
4 0 23 15 43 33 119 108 216 195 305 273 83 73 126 116 111 114 -1 -1 -27 -24
-57 -52z"/>
<path d="M635 2150 c-3 -5 -1 -10 4 -10 6 0 11 5 11 10 0 6 -2 10 -4 10 -3 0
-8 -4 -11 -10z"/>
<path d="M2809 1883 c-19 -15 -36 -30 -39 -33 -3 -3 -34 -30 -70 -60 -36 -30
-67 -57 -70 -60 -10 -10 -156 -137 -191 -165 -20 -17 -81 -68 -135 -115 -54
-47 -107 -91 -116 -99 -15 -11 -31 -9 -110 19 -51 18 -156 54 -233 80 -77 27
-225 78 -330 115 -104 36 -195 63 -202 61 -15 -6 -17 -42 -3 -51 5 -3 94 -35
197 -71 103 -36 278 -97 388 -136 316 -110 292 -105 328 -71 42 39 59 54 93
83 522 447 565 485 562 505 -4 30 -31 29 -69 -2z"/>
</g>
</svg>
