<svg xmlns="http://www.w3.org/2000/svg" width="551.075" height="831.248" viewBox="0 0 551.075 831.248"><g transform="translate(-870.925 -74.771)"><g opacity="0.7"><path d="M2655.9,479.375l28.817,7.367-45.5,27.625Z" transform="translate(-1685 -351)" fill="none" stroke="#fff" stroke-linejoin="round" stroke-width="2"/><path d="M2639.219,514.367l-13.325-19.608,30.117-15.383Z" transform="translate(-1685 -351)" fill="none" stroke="#fff" stroke-linejoin="round" stroke-width="2"/><path d="M2625.894,494.65l-17.008-1.3,12.242,59.692Z" transform="translate(-1685 -351)" fill="none" stroke="#fff" stroke-linejoin="round" stroke-width="2"/><path d="M2620.91,552.392l18.525-38.35,17.008,28.817Z" transform="translate(-1685 -351)" fill="none" stroke="#fff" stroke-linejoin="round" stroke-width="2"/><path d="M2684.719,486.959h22.317l-17.117,19.608Z" transform="translate(-1685 -351)" fill="none" stroke="#fff" stroke-linejoin="round" stroke-width="2"/><path d="M2690.135,506.567l-33.692,36.183,35.317-17.875Z" transform="translate(-1685 -351)" fill="none" stroke="#fff" stroke-linejoin="round" stroke-width="2"/><path d="M2691.76,524.659l20.583,4.875,1.842,31.958Z" transform="translate(-1685 -351)" fill="none" stroke="#fff" stroke-linejoin="round" stroke-width="2"/><path d="M2707.036,486.959l5.308,42.683-22.208-23.508Z" transform="translate(-1685 -351)" fill="none" stroke="#fff" stroke-linejoin="round" stroke-width="2"/><path d="M2656.444,542.75l43.767,26.433-36.183,7.15Z" transform="translate(-1685 -351)" fill="none" stroke="#fff" stroke-linejoin="round" stroke-width="2"/><path d="M2700.211,569.292l14.083-8.233v28.6Z" transform="translate(-1685 -351)" fill="none" stroke="#fff" stroke-linejoin="round" stroke-width="2"/><path d="M2664.027,576.334l-4.117,39.867,32.283,13.867,13-13.108-5.308-47.775" transform="translate(-1685 -351)" fill="none" stroke="#fff" stroke-linejoin="round" stroke-width="2"/><path d="M2620.91,550.767l6.067,64.458,11.375-23.4-16.358-39.758" transform="translate(-1685 -351)" fill="none" stroke="#fff" stroke-linejoin="round" stroke-width="2"/><path d="M2638.352,592.042l25.892-16.033" transform="translate(-1685 -351)" fill="none" stroke="#fff" stroke-width="2"/><path d="M2714.294,589.117l-8.992,27.625" transform="translate(-1685 -351)" fill="none" stroke="#fff" stroke-width="2"/><path d="M2659.911,616.742l-21.536-24.96" transform="translate(-1685 -351)" fill="none" stroke="#fff" stroke-width="2"/><path d="M2692.033,630.067l7.886,22.555,5.634-36.758" transform="translate(-1685 -351)" fill="none" stroke="#fff" stroke-linejoin="round" stroke-width="2"/><path d="M2627.108,614.6l-1.268,60.7,13.238-44.644,29.857,39.715,23.378-40.56" transform="translate(-1685 -351)" fill="none" stroke="#fff" stroke-linejoin="round" stroke-width="2"/><path d="M2626.827,613.893l11.689,17.745V591.782" transform="translate(-1685 -351)" fill="none" stroke="#fff" stroke-linejoin="round" stroke-width="2"/><path d="M2669.077,670.368l-9.013-53.939" transform="translate(-1685 -351)" fill="none" stroke="#fff" stroke-width="2"/><path d="M2625.841,674.733l43.518-4.084,32.251,36.758-29.153,10.7L2624.01,737.4l-38.729,48.306,31.124-62.53,9.436-49.855,5.633,37.18-14.083,13.52" transform="translate(-1685 -351)" fill="none" stroke="#fff" stroke-linejoin="round" stroke-width="2"/><path d="M2616.264,723.321l1.127.7,6.2,13.52,8.027-27.463" transform="translate(-1685 -351)" fill="none" stroke="#fff" stroke-linejoin="round" stroke-width="2"/><path d="M2672.6,718.11l-3.38-48.024" transform="translate(-1685 -351)" fill="none" stroke="#fff" stroke-width="2"/><path d="M2627.249,674.733,2672.6,718.11l-41.405-7.746" transform="translate(-1685 -351)" fill="none" stroke="#fff" stroke-linejoin="round" stroke-width="2"/><path d="M2585.281,785.71l-25.261,50.652,14.042-5.95,12.615-46.888" transform="translate(-1685 -351)" fill="none" stroke="#fff" stroke-linejoin="round" stroke-width="2"/><path d="M2574.538,830.174l24.039,5.712-12.615-50.458,15.233,6.426,27.847-47.6,33.559,23.325-2.38-25.229,11.9-16.185,17.375,8.806,18.565-13.09,25.229,4.284,15.947,14.519,28.085,17.851,4.522,19.279-11.662,20.945-7.854,17.851-17.613,9.52-28.323,28.323-22.135,9.758-13.091,16.661L2645.7,900.624l-21.421,24.039-21.659,23.8-20.231,32.845-18.565-35.7-1.19-51.648-5.712-20.469,3.332-37.605,6.426,33.8,65.452,15.233,5.712-68.308,51.41-13.328,17.851-48.316,26.181,27.371,23.563-30.941,17.137,12.376,3.332,12.138L2734.48,805.9l-31.893,33.083L2662.6,858.021" transform="translate(-1685 -351)" fill="none" stroke="#fff" stroke-linejoin="round" stroke-width="2"/><path d="M2598.815,836.362l2.38-44.27,61.644-24.515,26.419-32.607,59.978,5.474,7.616,11.186,20.469,7.378-3.332,4.522,7.616,14.042-4.284-1.19-7.378,22.135-24.991,27.371-10.472-19.517-18.089,47.6-13.8-14.995-8.092,25.229-48.554,36.415-14.281-15.709-7.14,39.509-21.659,5.712v19.517l-21.183-9.044v24.753l-17.851-20.231" transform="translate(-1685 -351)" fill="none" stroke="#fff" stroke-linejoin="round" stroke-width="2"/><path d="M2582.63,981.309l-.952-16.9,20.707-15.233" transform="translate(-1685 -351)" fill="none" stroke="#fff" stroke-linejoin="round" stroke-width="2"/><path d="M2563.828,943.228l17.851-2.38,21.183-10.472L2631.9,885.63l-68.071,8.33,3.094-23.8,31.893-34.749,39.033-18.327-37.129-24.753" transform="translate(-1685 -351)" fill="none" stroke="#fff" stroke-linejoin="round" stroke-width="2"/><path d="M2556.925,873.729l10.472-4.046,6.664-39.985" transform="translate(-1685 -351)" fill="none" stroke="#fff" stroke-linejoin="round" stroke-width="2"/><path d="M2563.828,893.722l18.089,47.126,49.982-55.456" transform="translate(-1685 -351)" fill="none" stroke="#fff" stroke-linejoin="round" stroke-width="2"/><path d="M2689.072,803.454l45.067,2.817" transform="translate(-1685 -351)" fill="none" stroke="#fff" stroke-width="2"/><path d="M2702.733,839.367l-13.661-36.053-26.617,54.362-24.787-40.7" transform="translate(-1685 -351)" fill="none" stroke="#fff" stroke-linejoin="round" stroke-width="2"/><path d="M2694.283,864.435l-31.547-6.619-30.843,27.322Z" transform="translate(-1685 -351)" fill="none" stroke="#fff" stroke-linejoin="round" stroke-width="2"/><path d="M2585.981,784.723l43.236-40.419,43.095-17.745,36.194-5.07" transform="translate(-1685 -351)" fill="none" stroke="#fff" stroke-linejoin="round" stroke-width="2"/><path d="M2629.217,744.163l30.843-1.408,29.293-7.887" transform="translate(-1685 -351)" fill="none" stroke="#fff" stroke-linejoin="round" stroke-width="2"/><path d="M2707.25,721.88l41.6,18.47" transform="translate(-1685 -351)" fill="none" stroke="#fff" stroke-width="2"/><path d="M2690.891,734.97l65.758,16.755-49.617,3.358-44.2,12.783,26.108,35.642" transform="translate(-1685 -351)" fill="none" stroke="#fff" stroke-linejoin="round" stroke-width="2"/><path d="M2733.25,782.275l44.417-5.958-21.125-25.133" transform="translate(-1685 -351)" fill="none" stroke="#fff" stroke-linejoin="round" stroke-width="2"/><path d="M2769.975,798.525l-35.642,7.8" transform="translate(-1685 -351)" fill="none" stroke="#fff" stroke-width="2"/><path d="M2798.75,426.771,2765.364,467.8l9.251,25.743v29.363l-33.788,30.168-28.559,56.715-6.436,57.52,16.894,51.888,21.318,4.425,22.927,22.525,16.089-38.615,22.927-33.788,4.022-29.363,20.112-22.123,18.905,1.609,32.179-3.62,32.179-15.285,24.536-5.631V578.816l-18.5-37.006-23.732-22.927,8.045-43.844-8.045-29.765h-19.307l8.447,43.844v40.224l-45.05-18.905h33.788V426.771l-43.441,6.034-11.263,74.011-6.436-36.2Z" transform="translate(-1685 -351)" fill="none" stroke="#fff" stroke-linejoin="round" stroke-width="2"/><path d="M2812.533,470.708s-13-9.52-14.1-10.436,0-32.772,0-32.772l-19.956,50.348-13-9.7" transform="translate(-1685 -351)" fill="none" stroke="#fff" stroke-linejoin="round" stroke-width="2"/><path d="M2778.479,477.849l-3.662,15.562,24.35-11.9,13.365-10.619" transform="translate(-1685 -351)" fill="none" stroke="#fff" stroke-linejoin="round" stroke-width="2"/><path d="M2774.818,522.887l24.167-41.011,19.773,23.618-42.109,16.661-26.547,56.39-8.788-26.181v45.588l-28.857,11.154,46.475,17.886-44.363,20.28-8.591,19.858,17.886,24.223-.986,27.463" transform="translate(-1685 -351)" fill="none" stroke="#fff" stroke-linejoin="round" stroke-width="2"/><path d="M2712.456,609.387l2.394,37.743" transform="translate(-1685 -351)" fill="none" stroke="#fff" stroke-width="2"/><path d="M2723.582,691.352l-8.591-44.5" transform="translate(-1685 -351)" fill="none" stroke="#fff" stroke-width="2"/><path d="M2723.582,689.944l20.28,33.659,23.66-16.337v38.166" transform="translate(-1685 -351)" fill="none" stroke="#fff" stroke-linejoin="round" stroke-width="2"/><path d="M2724.99,691.352l42.391,16.2h15.633l-4.929-23.1,27.322-9.436-5.352-18.168,9.858-11.83-.7-30.42,20.562,8.028,13.52-8.028,5.492,9.013,21.829-51.686,10.422,48.306,16.759-23.378L2913,605.3l24.927-26.336-19.012-13.379V541.505l-35.068-11.971,11.971-10.562-10.985-27.744,10.14-10.7V445.457" transform="translate(-1685 -351)" fill="none" stroke="#fff" stroke-linejoin="round" stroke-width="2"/><path d="M2885.118,490.664l10-45.067" transform="translate(-1685 -351)" fill="none" stroke="#fff" stroke-width="2"/><path d="M2895.117,480.806l.563,37.6" transform="translate(-1685 -351)" fill="none" stroke="#fff" stroke-width="2"/><path d="M2918.777,566.01l-34.645-36.758-66.615,8.168,23.378-26.477V463.2l32.955-.845-18.872-17.745,18.872-17.745" transform="translate(-1685 -351)" fill="none" stroke="#fff" stroke-linejoin="round" stroke-width="2"/><path d="M2841.319,431.655l13.52,12.675-14.224,18.731-10.422-30.7" transform="translate(-1685 -351)" fill="none" stroke="#fff" stroke-linejoin="round" stroke-width="2"/><path d="M2840.755,463.061l12.534,17.463,20,29.716-23.8-16.478-8.732,3.38" transform="translate(-1685 -351)" fill="none" stroke="#fff" stroke-linejoin="round" stroke-width="2"/><path d="M2849.487,493.411l-8.309-29.927" transform="translate(-1685 -351)" fill="none" stroke="#fff" stroke-width="2"/><path d="M2841.178,510.24l-23.378-4.225L2841.178,497" transform="translate(-1685 -351)" fill="none" stroke="#fff" stroke-linejoin="round" stroke-width="2"/><path d="M2817.8,505.734l23.238-42.532" transform="translate(-1685 -351)" fill="none" stroke="#fff" stroke-width="2"/><path d="M2816.814,506.579V537.7l-40.419-15.492,23.519,30.279L2750.2,579.108l-9.013,18.731,17.745,29.293-17.182,39.011,58.3-8.732-21.97,26.9-10.422,23.238" transform="translate(-1685 -351)" fill="none" stroke="#fff" stroke-linejoin="round" stroke-width="2"/><path d="M2758.509,627.132l41.124,30.42,9.858-42.673Z" transform="translate(-1685 -351)" fill="none" stroke="#fff" stroke-linejoin="round" stroke-width="2"/><path d="M2750.2,578.545l8.591,48.588" transform="translate(-1685 -351)" fill="none" stroke="#fff" stroke-width="2"/><path d="M2809.49,614.88l-59.432-35.631,61.544,6.2Z" transform="translate(-1685 -351)" fill="none" stroke="#fff" stroke-linejoin="round" stroke-width="2"/><path d="M2843.431,614.88H2809.35" transform="translate(-1685 -351)" fill="none" stroke="#fff" stroke-width="2"/><path d="M2799.773,552.631l11.971,32.533,31.547,29.434-13.238-25.068,40.419-17.041-23.66-24.364Z" transform="translate(-1685 -351)" fill="none" stroke="#fff" stroke-linejoin="round" stroke-width="2"/><path d="M2847.093,548.125l-16.618,41.405-30.7-37.462" transform="translate(-1685 -351)" fill="none" stroke="#fff" stroke-linejoin="round" stroke-width="2"/><path d="M2816.814,537.985l-16.337,14.506" transform="translate(-1685 -351)" fill="none" stroke="#fff" stroke-width="2"/><path d="M2884.414,529.642l-37.884,18.764" transform="translate(-1685 -351)" fill="none" stroke="#fff" stroke-width="2"/><path d="M2883.146,529.642l-12.675,42.424,48.447-6.478-5.774,39.574" transform="translate(-1685 -351)" fill="none" stroke="#fff" stroke-linejoin="round" stroke-width="2"/><path d="M2870.471,572.348l27.322,24.787" transform="translate(-1685 -351)" fill="none" stroke="#fff" stroke-width="2"/><path d="M3085.783,629.057l-10.948-30.941-17.375-1.666-49.744-3.094-35.463,3.094-40.224,8.568-47.364,19.517-43.556,9.044-10.71-2.38-13.566,35.225-28.8,44.984-9.521,35.7,28.561,13.8,10.948,16.661,26.657,1.666,39.986,15.947-6.9-24.039,9.282-53.79,26.657-32.607,38.082-26.9,43.555-10.71h53.076l23.087,3.094Z" transform="translate(-1685 -351)" fill="none" stroke="#fff" stroke-linejoin="round" stroke-width="2"/><path d="M2841.348,633.341,2816.833,666.9l-10.948,40.938,1.9,53.552L2845.394,779,2878,771.624l-6.9-44.984,15.947-9.044,5-30.7,21.421-2.142-8.568-35.225h27.371l19.041,8.092,26.9-25.943,16.185,15.233,30.465-11.662,23.087,11.662-4.046-16.423,41.413-1.19L3057.7,596.45l-43.794,7.14-6.664-10.71L2995.815,619.3l-23.087-22.849-29.037,16.9-11.425-8.092" transform="translate(-1685 -351)" fill="none" stroke="#fff" stroke-linejoin="round" stroke-width="2"/><path d="M2884.132,624.535l-3.275,17.137-39.747-7.854,13.09,32.845h-37.367" transform="translate(-1685 -351)" fill="none" stroke="#fff" stroke-linejoin="round" stroke-width="2"/><path d="M2853.724,666.662l-47.364,40.7-17.851,3.808" transform="translate(-1685 -351)" fill="none" stroke="#fff" stroke-linejoin="round" stroke-width="2"/><path d="M2779,747.109l27.123-39.985" transform="translate(-1685 -351)" fill="none" stroke="#fff" stroke-width="2"/><path d="M2808.027,761.39l25.467-11.186,12.138,28.8" transform="translate(-1685 -351)" fill="none" stroke="#fff" stroke-linejoin="round" stroke-width="2"/><path d="M2805.885,709.742h23.325l24.515-43.08,26.9-25.229,24.753,8.33-21.9-25.7" transform="translate(-1685 -351)" fill="none" stroke="#fff" stroke-linejoin="round" stroke-width="2"/><path d="M2905.372,649.764l27.133-44.746" transform="translate(-1685 -351)" fill="none" stroke="#fff" stroke-width="2"/><path d="M2932.148,649.764l11.782-36.177,34.511,18.565Z" transform="translate(-1685 -351)" fill="none" stroke="#fff" stroke-linejoin="round" stroke-width="2"/><path d="M2995.815,619.537l18.089-16.185,11.187,32.131Z" transform="translate(-1685 -351)" fill="none" stroke="#fff" stroke-linejoin="round" stroke-width="2"/><path d="M3013.9,603.352l29.989,26.895,14.042-33.559" transform="translate(-1685 -351)" fill="none" stroke="#fff" stroke-linejoin="round" stroke-width="2"/><path d="M3043.417,630.247l27.847,19.517" transform="translate(-1685 -351)" fill="none" stroke="#fff" stroke-width="2"/><path d="M2913.464,684.513l18.8-34.749" transform="translate(-1685 -351)" fill="none" stroke="#fff" stroke-width="2"/><path d="M2892.52,687.369l-38.8,11.9V666.424Z" transform="translate(-1685 -351)" fill="none" stroke="#fff" stroke-linejoin="round" stroke-width="2"/><path d="M2903.468,649.764,2853.724,666.9" transform="translate(-1685 -351)" fill="none" stroke="#fff" stroke-width="2"/><path d="M2833.256,750.2l-3.808-40.7,41.651,17.375Z" transform="translate(-1685 -351)" fill="none" stroke="#fff" stroke-linejoin="round" stroke-width="2"/><path d="M2910.939,696.794l42.389,10.829,29.7,18.565,4.022,23.206,19.184,18.874,13,21.659-5.879,29.7-13.924-5.26-35.273-2.166L2922.7,814.37l-20.112-8.664-16.708-34.963,6.807-46.721Z" transform="translate(-1685 -351)" fill="none" stroke="#fff" stroke-linejoin="round" stroke-width="2"/><path d="M2932.505,709.742l20.823-1.81,34.035,42.08-9.592,17.636,28.775,1.238v15.471l12.686,6.188-19.8,23.206-35.582-23.206v21.349l-18.874-12.067-21.349,13.923-13.924-16.4-6.5,8.354V767.649l-16.708,3.094,19.493-27.847-13.3-18.874,30.941,2.166-12.686-29.7Z" transform="translate(-1685 -351)" fill="none" stroke="#fff" stroke-linejoin="round" stroke-width="2"/><path d="M2922.866,725.878l10.041-16.4,15.471,45.174,5.26-47.031" transform="translate(-1685 -351)" fill="none" stroke="#fff" stroke-linejoin="round" stroke-width="2"/><path d="M2987.363,750.2l-38.676,4.759,29.085,13.3" transform="translate(-1685 -351)" fill="none" stroke="#fff" stroke-linejoin="round" stroke-width="2"/><path d="M2905.372,742.586l43.315,12.376-45.174,13.614Z" transform="translate(-1685 -351)" fill="none" stroke="#fff" stroke-linejoin="round" stroke-width="2"/><path d="M2903.513,768.577l6.188,29.394,35.344,1.963Z" transform="translate(-1685 -351)" fill="none" stroke="#fff" stroke-linejoin="round" stroke-width="2"/><path d="M2945.045,799.934l3.575-45.175,15.167,35.425Z" transform="translate(-1685 -351)" fill="none" stroke="#fff" stroke-linejoin="round" stroke-width="2"/><path d="M2963.786,790.834h55.358" transform="translate(-1685 -351)" fill="none" stroke="#fff" stroke-width="2"/><path d="M3006.578,784.256l-29.033-16.388" transform="translate(-1685 -351)" fill="none" stroke="#fff" stroke-width="2"/><path d="M2781.605,755.582l13.309,6.5,17.636,20.731,41.771,10.52,32.8,11.139,38.367,14.233,47.34-1.238,32.8,1.238,25.99,17.018,33.417,50.744-24.444,19.8-20.112,45.484-99.94-30.013-54.147,5.569L2809.457,953.3l-62.5,42.08-31.869,54.147-28.466-46.412,15.161-72.712-18.874-47.34,16.4-17.946,19.184-6.188,25.681-29.394,17.018-4.951,25.991-41.771Z" transform="translate(-1685 -351)" fill="none" stroke="#fff" stroke-linejoin="round" stroke-width="2"/><path d="M2794.605,762.7l-7.116,19.8h24.753l2.166,15.161,39.6-4.332,11.139,14.233,22.587-3.4,2.785,21.968,35.582-6.807,25.372,8.354,21.968-10.52,7.426,10.52,24.753-8.354,10.52,14.852,15.47,1.856,12.686,43.008,20.421,6.807" transform="translate(-1685 -351)" fill="none" stroke="#fff" stroke-linejoin="round" stroke-width="2"/><path d="M3040.588,906.885l4.022-27.538-28.156-45.174-34.964-6.807v48.268l-30.322-48.268-40.842,25.991,16.089-34.345" transform="translate(-1685 -351)" fill="none" stroke="#fff" stroke-linejoin="round" stroke-width="2"/><path d="M2910.325,853.976l-19.493-27.228-25.991-19.493-50.743-9.592-26.609-15.471v32.179l-26.609,10.52,21.968,53.219-64.358-19.184L2701.782,930.4l45.174,64.667" transform="translate(-1685 -351)" fill="none" stroke="#fff" stroke-linejoin="round" stroke-width="2"/><path d="M2781.844,878.419l-80.062,52.291,106.747,23.206Z" transform="translate(-1685 -351)" fill="none" stroke="#fff" stroke-linejoin="round" stroke-width="2"/><path d="M2814.1,797.044l-25.681,16.708-5.879,65.286,63.739-52.291Z" transform="translate(-1685 -351)" fill="none" stroke="#fff" stroke-linejoin="round" stroke-width="2"/><path d="M2787.489,813.751l57.551,13.306,19.8-20.112" transform="translate(-1685 -351)" fill="none" stroke="#fff" stroke-linejoin="round" stroke-width="2"/><path d="M2845.632,827.057l24.47,52.909,50.125,42.08-9.592-69.618,70.546,22.278,35.273-40.842" transform="translate(-1685 -351)" fill="none" stroke="#fff" stroke-linejoin="round" stroke-width="2"/><path d="M3044.61,879.038l-63.739-4.332,39.6,77.044" transform="translate(-1685 -351)" fill="none" stroke="#fff" stroke-linejoin="round" stroke-width="2"/><path d="M2919.608,922.047l61.573-47.34" transform="translate(-1685 -351)" fill="none" stroke="#fff" stroke-width="2"/><path d="M2871.1,881.2l-88.87-3.4,83.851,49.506Z" transform="translate(-1685 -351)" fill="none" stroke="#fff" stroke-linejoin="round" stroke-width="2"/><path d="M2682.908,885.138l34.995-25.964" transform="translate(-1685 -351)" fill="none" stroke="#fff" stroke-width="2"/><path d="M2702.733,930.249l-40.1-21.439-14.118-3.137-40.264,44.97-20.916,31.9-4.183,17.779,44.447,60.134,43.924,46.539,64.317,53.859,57.52,34.512,48.63,18.3,71.638,17.256,54.905,17.256,34.512,7.844,30.329-7.844,30.328-39.218,30.329-75.3,9.935-73.207-4.183-65.886-12.027-59.088-24.054-3.137,12.55,50.2,11.5,44.447-67.978-76.344L2947.1,965.807l-81.05-38.172-17.779,77.913L2808,953.78" transform="translate(-1685 -351)" fill="none" stroke="#fff" stroke-linejoin="round" stroke-width="2"/><path d="M3088.281,936.524l-23.531-50.2V931.3l-25.1-24.054" transform="translate(-1685 -351)" fill="none" stroke="#fff" stroke-linejoin="round" stroke-width="2"/><path d="M3065.031,932.32l-44.992,19.435,55.911,29.293,12.112-45.067" transform="translate(-1685 -351)" fill="none" stroke="#fff" stroke-linejoin="round" stroke-width="2"/><path d="M3075.81,981.048l23.942,13.943-11.548,31.828,15.633,33.518-19.858,56.052,9.154,18.59-36.053,53.094,6.76,20.843-31.687,21.97,1.127,17.182-26.336-1.127-3.521,9.013L2986.1,1241.59l-18.308,5.352-59.15-57.038,5.352,40.983-27.885-20.139-43.658,3.239-30.843-29.153-18.027,10.422-29.012-30-28.871-4.648-8.591-44.5-56.193-9.858-36.194-67.178-7.323,19.858-40.7-76.9,32.392,5.774-10.422-38.87,29.857.7,9.858-44.363" transform="translate(-1685 -351)" fill="none" stroke="#fff" stroke-linejoin="round" stroke-width="2"/><path d="M2682.908,883.45l-34.529,22.533" transform="translate(-1685 -351)" fill="none" stroke="#fff" stroke-width="2"/><path d="M2638.8,949.178l23.378-40.1,20.562-25.491" transform="translate(-1685 -351)" fill="none" stroke="#fff" stroke-linejoin="round" stroke-width="2"/><path d="M2701.782,929.785l-63.261,19.858-19.435,38.025,15.773,51.827-48.024-57.038" transform="translate(-1685 -351)" fill="none" stroke="#fff" stroke-linejoin="round" stroke-width="2"/><path d="M2686.84,1003.5l-48.583-53.917" transform="translate(-1685 -351)" fill="none" stroke="#fff" stroke-width="2"/><path d="M2619.006,987.669l67.5,15.583-51.833,35.917,80.333,10.167,12.167,66.75,33.833,5.583,46.083,32.417,79.167,56.417,22.167-20.333,77.417,51.083,15.167-37.75,6.167,42.917,25.25-15.583,24.833-42.75-32-44.583,6.917-78.834-37.25-38.917-48.25-60.167-29.667,70.583-68.917-31-55.167-4,9,74.083,88.583,51" transform="translate(-1685 -351)" fill="none" stroke="#fff" stroke-linejoin="round" stroke-width="2"/><path d="M2735.508,1160.6l25.062-38.986,4.641,44.246,42.08-11.139-13.614,39.6" transform="translate(-1685 -351)" fill="none" stroke="#fff" stroke-linejoin="round" stroke-width="2"/><path d="M2811.314,1185.356l-4.332-31.251" transform="translate(-1685 -351)" fill="none" stroke="#fff" stroke-width="2"/><path d="M2885.882,1210.728l-74.259-25.991" transform="translate(-1685 -351)" fill="none" stroke="#fff" stroke-width="2"/><path d="M2760.482,1121.617l-45.067-72.969,86.472,26.477,5.352,79.571,82.951-29.012,18.59,64.361,38.87-67.318,53.376,81.12,24.505-60.558-43.8-58.446,50.418-19.858,56.333-37.6-93.513-1.69,25.35-74.5" transform="translate(-1685 -351)" fill="none" stroke="#fff" stroke-linejoin="round" stroke-width="2"/><path d="M3032.15,1064.844l71.4-4.507" transform="translate(-1685 -351)" fill="none" stroke="#fff" stroke-width="2"/><path d="M3093.272,1135.4l-67.6,8.168,58.023-27.04-51.4-51.263" transform="translate(-1685 -351)" fill="none" stroke="#fff" stroke-linejoin="round" stroke-width="2"/><path d="M3007.645,1246.42l-21.688-4.829" transform="translate(-1685 -351)" fill="none" stroke="#fff" stroke-width="2"/><path d="M3032.15,1231.45l-31.828-27.6,57.178-15.632" transform="translate(-1685 -351)" fill="none" stroke="#fff" stroke-linejoin="round" stroke-width="2"/><path d="M3000.322,1203.847l-91.964-13.238-101.682-36.053" transform="translate(-1685 -351)" fill="none" stroke="#fff" stroke-linejoin="round" stroke-width="2"/><path d="M2866.53,927.307l50.278,108.948,78.3-10.14-13.1,58.868,18.731,118.864" transform="translate(-1685 -351)" fill="none" stroke="#fff" stroke-linejoin="round" stroke-width="2"/><path d="M2916.948,1035.973l64.924,49.01-34.223,38.025-57.883,2.676-42.109-120.554-45.489,69.149-54.925-79.289" transform="translate(-1685 -351)" fill="none" stroke="#fff" stroke-linejoin="round" stroke-width="2"/><path d="M2889.2,1125.684l27.6-89.852" transform="translate(-1685 -351)" fill="none" stroke="#fff" stroke-width="2"/><path d="M2634.858,1039.494l91.683,76.472" transform="translate(-1685 -351)" fill="none" stroke="#fff" stroke-width="2"/></g><circle cx="3" cy="3" r="3" transform="translate(938 141)" fill="#ff6464"/><circle cx="3" cy="3" r="3" transform="translate(951 160)" fill="#ff6464"/><circle cx="3" cy="3" r="3" transform="translate(933 199)" fill="#ff6464"/><circle cx="3" cy="3" r="3" transform="translate(976 222)" fill="#ff6464"/><circle cx="3" cy="3" r="3" transform="translate(1012 215)" fill="#ff6464"/><circle cx="3" cy="3" r="3" transform="translate(1053 199)" fill="#ff6464"/><circle cx="3" cy="3" r="3" transform="translate(1024 174)" fill="#ff6464"/><circle cx="3" cy="3" r="3" transform="translate(1077 115)" fill="#ff6464"/><circle cx="3" cy="3" r="3" transform="translate(1087 139)" fill="#ff6464"/><circle cx="3" cy="3" r="3" transform="translate(1123 117)" fill="#ff6464"/><circle cx="3" cy="3" r="3" transform="translate(1129 152)" fill="#ff6464"/><circle cx="3" cy="3" r="3" transform="translate(1088 168)" fill="#ff6464"/><circle cx="3" cy="3" r="3" transform="translate(1112 198)" fill="#ff6464"/><circle cx="3" cy="3" r="3" transform="translate(1062 225)" fill="#ff6464"/><circle cx="3" cy="3" r="3" transform="translate(1024 255)" fill="#ff6464"/><circle cx="3" cy="3" r="3" transform="translate(1004 276)" fill="#ff6464"/><circle cx="3" cy="3" r="3" transform="translate(951 277)" fill="#ff6464"/><circle cx="3" cy="3" r="3" transform="translate(938 321)" fill="#ff6464"/><circle cx="3" cy="3" r="3" transform="translate(984 363)" fill="#ff6464"/><circle cx="3" cy="3" r="3" transform="translate(944 356)" fill="#ff6464"/><circle cx="3" cy="3" r="3" transform="translate(928 369)" fill="#ff6464"/><circle cx="3" cy="3" r="3" transform="translate(941 391)" fill="#ff6464"/><circle cx="3" cy="3" r="3" transform="translate(897 431)" fill="#ff6464"/><circle cx="3" cy="3" r="3" transform="translate(911 482)" fill="#ff6464"/><circle cx="3" cy="3" r="3" transform="translate(872 482)" fill="#ff6464"/><circle cx="3" cy="3" r="3" transform="translate(1002 381)" fill="#ff6464"/><circle cx="3" cy="3" r="3" transform="translate(1020 367)" fill="#ff6464"/><circle cx="3" cy="3" r="3" transform="translate(1079 391)" fill="#ff6464"/><circle cx="3" cy="3" r="3" transform="translate(1118 354)" fill="#ff6464"/><circle cx="3" cy="3" r="3" transform="translate(1182 373)" fill="#ff6464"/><circle cx="3" cy="3" r="3" transform="translate(1205 370)" fill="#ff6464"/><circle cx="3" cy="3" r="3" transform="translate(1198 417)" fill="#ff6464"/><circle cx="3" cy="3" r="3" transform="translate(1145 397)" fill="#ff6464"/><circle cx="3" cy="3" r="3" transform="translate(1120 407)" fill="#ff6464"/><circle cx="3" cy="3" r="3" transform="translate(1124 429)" fill="#ff6464"/><circle cx="3" cy="3" r="3" transform="translate(1126 444)" fill="#ff6464"/><circle cx="3" cy="3" r="3" transform="translate(1166 438)" fill="#ff6464"/><circle cx="3" cy="3" r="3" transform="translate(1177 453)" fill="#ff6464"/><circle cx="3" cy="3" r="3" transform="translate(1199 450)" fill="#ff6464"/><circle cx="3" cy="3" r="3" transform="translate(1218 389)" fill="#ff6464"/><circle cx="3" cy="3" r="3" transform="translate(1215 414)" fill="#ff6464"/><circle cx="3" cy="3" r="3" transform="translate(1222 444)" fill="#ff6464"/><circle cx="3" cy="3" r="3" transform="translate(1237 465)" fill="#ff6464"/><circle cx="3" cy="3" r="3" transform="translate(1257 447)" fill="#ff6464"/><circle cx="3" cy="3" r="3" transform="translate(1276 438)" fill="#ff6464"/><circle cx="3" cy="3" r="3" transform="translate(1295 372)" fill="#ff6464"/><circle cx="3" cy="3" r="3" transform="translate(1290 414)" fill="#ff6464"/><circle cx="3" cy="3" r="3" transform="translate(1318 414)" fill="#ff6464"/><circle cx="3" cy="3" r="3" transform="translate(1331 436)" fill="#ff6464"/><circle cx="3" cy="3" r="3" transform="translate(1325 465)" fill="#ff6464"/><circle cx="3" cy="3" r="3" transform="translate(1311 460)" fill="#ff6464"/><circle cx="3" cy="3" r="3" transform="translate(1285 463)" fill="#ff6464"/><circle cx="3" cy="3" r="3" transform="translate(1328 480)" fill="#ff6464"/><circle cx="3" cy="3" r="3" transform="translate(1344 482)" fill="#ff6464"/><circle cx="3" cy="3" r="3" transform="translate(1377 532)" fill="#ff6464"/><circle cx="3" cy="3" r="3" transform="translate(1352 552)" fill="#ff6464"/><circle cx="3" cy="3" r="3" transform="translate(1293 521)" fill="#ff6464"/><circle cx="3" cy="3" r="3" transform="translate(1202 472)" fill="#ff6464"/><circle cx="3" cy="3" r="3" transform="translate(1222 500)" fill="#ff6464"/><circle cx="3" cy="3" r="3" transform="translate(1157 473)" fill="#ff6464"/><circle cx="3" cy="3" r="3" transform="translate(1100 460)" fill="#ff6464"/><circle cx="3" cy="3" r="3" transform="translate(1099 429)" fill="#ff6464"/><circle cx="3" cy="3" r="3" transform="translate(1081 444)" fill="#ff6464"/><circle cx="3" cy="3" r="3" transform="translate(1068 398)" fill="#ff6464"/><circle cx="3" cy="3" r="3" transform="translate(1073 470)" fill="#ff6464"/><circle cx="3" cy="3" r="3" transform="translate(1056 472)" fill="#ff6464"/><circle cx="3" cy="3" r="3" transform="translate(1001 450)" fill="#ff6464"/><circle cx="3" cy="3" r="3" transform="translate(1014 485)" fill="#ff6464"/><circle cx="3" cy="3" r="3" transform="translate(1011 511)" fill="#ff6464"/><circle cx="3" cy="3" r="3" transform="translate(1031 505)" fill="#ff6464"/><circle cx="3" cy="3" r="3" transform="translate(1095 525)" fill="#ff6464"/><circle cx="3" cy="3" r="3" transform="translate(1182 527)" fill="#ff6464"/><circle cx="3" cy="3" r="3" transform="translate(1178 573)" fill="#ff6464"/><circle cx="3" cy="3" r="3" transform="translate(1232 567)" fill="#ff6464"/><circle cx="3" cy="3" r="3" transform="translate(1332 598)" fill="#ff6464"/><circle cx="3" cy="3" r="3" transform="translate(1388 627)" fill="#ff6464"/><circle cx="3" cy="3" r="3" transform="translate(1400 582)" fill="#ff6464"/><circle cx="3" cy="3" r="3" transform="translate(1416 706)" fill="#ff6464"/><circle cx="3" cy="3" r="3" transform="translate(1396 762)" fill="#ff6464"/><circle cx="3" cy="3" r="3" transform="translate(1294 731)" fill="#ff6464"/><circle cx="3" cy="3" r="3" transform="translate(1307 672)" fill="#ff6464"/><circle cx="3" cy="3" r="3" transform="translate(1229 682)" fill="#ff6464"/><circle cx="3" cy="3" r="3" transform="translate(1202 772)" fill="#ff6464"/><circle cx="3" cy="3" r="3" transform="translate(1114 721)" fill="#ff6464"/><circle cx="3" cy="3" r="3" transform="translate(1027 695)" fill="#ff6464"/><circle cx="3" cy="3" r="3" transform="translate(984 752)" fill="#ff6464"/><circle cx="3" cy="3" r="3" transform="translate(1048 806)" fill="#ff6464"/><circle cx="3" cy="3" r="3" transform="translate(1119 800)" fill="#ff6464"/><circle cx="3" cy="3" r="3" transform="translate(1124 831)" fill="#ff6464"/><circle cx="3" cy="3" r="3" transform="translate(1154 859)" fill="#ff6464"/><circle cx="3" cy="3" r="3" transform="translate(1221 836)" fill="#ff6464"/><circle cx="3" cy="3" r="3" transform="translate(1226 877)" fill="#ff6464"/><circle cx="3" cy="3" r="3" transform="translate(1280 893)" fill="#ff6464"/><circle cx="3" cy="3" r="3" transform="translate(1313 850)" fill="#ff6464"/><circle cx="3" cy="3" r="3" transform="translate(1319 893)" fill="#ff6464"/><circle cx="3" cy="3" r="3" transform="translate(1345 894)" fill="#ff6464"/><circle cx="3" cy="3" r="3" transform="translate(1039 762)" fill="#ff6464"/><circle cx="3" cy="3" r="3" transform="translate(1405 781)" fill="#ff6464"/><circle cx="3" cy="3" r="3" transform="translate(1369 834)" fill="#ff6464"/><circle cx="3" cy="3" r="3" transform="translate(1376 855)" fill="#ff6464"/><circle cx="3" cy="3" r="3" transform="translate(1121 599)" fill="#ff6464"/><circle cx="3" cy="3" r="3" transform="translate(1105 647)" fill="#ff6464"/><circle cx="3" cy="3" r="3" transform="translate(1013 576)" fill="#ff6464"/><circle cx="3" cy="3" r="3" transform="translate(995 530)" fill="#ff6464"/><circle cx="3" cy="3" r="3" transform="translate(960 552)" fill="#ff6464"/><circle cx="3" cy="3" r="3" transform="translate(871 519)" fill="#ff6464"/><circle cx="3" cy="3" r="3" transform="translate(874 539)" fill="#ff6464"/><circle cx="3" cy="3" r="3" transform="translate(877 591)" fill="#ff6464"/><circle cx="3" cy="3" r="3" transform="translate(894 586)" fill="#ff6464"/><circle cx="3" cy="3" r="3" transform="translate(915 576)" fill="#ff6464"/><circle cx="3" cy="3" r="3" transform="translate(936 570)" fill="#ff6464"/><circle cx="3" cy="3" r="3" transform="translate(921 596)" fill="#ff6464"/><circle cx="3" cy="3" r="3" transform="translate(950 596)" fill="#ff6464"/><circle cx="3" cy="3" r="3" transform="translate(894 612)" fill="#ff6464"/><circle cx="3" cy="3" r="3" transform="translate(899 629)" fill="#ff6464"/><circle cx="3" cy="3" r="3" transform="translate(895 647)" fill="#ff6464"/><circle cx="3" cy="3" r="3" transform="translate(947 685)" fill="#ff6464"/><circle cx="3" cy="3" r="3" transform="translate(944 531)" fill="#ff6464"/><circle cx="3" cy="3" r="3" transform="translate(1318 465)" fill="#ff6464"/><circle cx="3" cy="3" r="3" transform="translate(1293 473)" fill="#ff6464"/><circle cx="3" cy="3" r="3" transform="translate(1263 473)" fill="#ff6464"/><circle cx="3" cy="3" r="3" transform="translate(1276 458)" fill="#ff6464"/><circle cx="3" cy="3" r="3" transform="translate(1107 407)" fill="#ff6464"/><circle cx="3" cy="3" r="3" transform="translate(1092 402)" fill="#ff6464"/><circle cx="3" cy="3" r="3" transform="translate(1027 293)" fill="#ff6464"/><circle cx="3" cy="3" r="3" transform="translate(1018 313)" fill="#ff6464"/><circle cx="3" cy="3" r="3" transform="translate(1037 337)" fill="#ff6464"/><circle cx="3" cy="3" r="3" transform="translate(1090 331)" fill="#ff6464"/><circle cx="3" cy="3" r="3" transform="translate(1129 313)" fill="#ff6464"/><circle cx="3" cy="3" r="3" transform="translate(1153 279)" fill="#ff6464"/><circle cx="3" cy="3" r="3" transform="translate(1161 270)" fill="#ff6464"/><circle cx="3" cy="3" r="3" transform="translate(1183 218)" fill="#ff6464"/><circle cx="3" cy="3" r="3" transform="translate(1196 176)" fill="#ff6464"/><circle cx="3" cy="3" r="3" transform="translate(1231 212)" fill="#ff6464"/><circle cx="3" cy="3" r="3" transform="translate(1193 266)" fill="#ff6464"/><circle cx="3" cy="3" r="3" transform="translate(1225 251)" fill="#ff6464"/><circle cx="3" cy="3" r="3" transform="translate(1250 245)" fill="#ff6464"/><circle cx="3" cy="3" r="3" transform="translate(1256 260)" fill="#ff6464"/><circle cx="3" cy="3" r="3" transform="translate(1320 240)" fill="#ff6464"/><circle cx="3" cy="3" r="3" transform="translate(1370 243)" fill="#ff6464"/><circle cx="3" cy="3" r="3" transform="translate(1397 275)" fill="#ff6464"/><circle cx="3" cy="3" r="3" transform="translate(1384 296)" fill="#ff6464"/><circle cx="3" cy="3" r="3" transform="translate(1356 276)" fill="#ff6464"/><circle cx="3" cy="3" r="3" transform="translate(1307 293)" fill="#ff6464"/><circle cx="3" cy="3" r="3" transform="translate(1290 278)" fill="#ff6464"/><circle cx="3" cy="3" r="3" transform="translate(1264 304)" fill="#ff6464"/><circle cx="3" cy="3" r="3" transform="translate(1216 296)" fill="#ff6464"/><circle cx="3" cy="3" r="3" transform="translate(1222 343)" fill="#ff6464"/><circle cx="3" cy="3" r="3" transform="translate(1204 333)" fill="#ff6464"/><circle cx="3" cy="3" r="3" transform="translate(1166 313)" fill="#ff6464"/><circle cx="3" cy="3" r="3" transform="translate(1245 356)" fill="#ff6464"/><circle cx="3" cy="3" r="3" transform="translate(1308 265)" fill="#ff6464"/><circle cx="3" cy="3" r="3" transform="translate(1095 354)" fill="#ff6464"/><circle cx="3" cy="3" r="3" transform="translate(1079 353)" fill="#ff6464"/><circle cx="3" cy="3" r="3" transform="translate(1121 261)" fill="#ff6464"/><circle cx="3" cy="3" r="3" transform="translate(1152 109)" fill="#ff6464"/><circle cx="3" cy="3" r="3" transform="translate(1144 78)" fill="#ff6464"/><circle cx="3" cy="3" r="3" transform="translate(1185 108)" fill="#ff6464"/></g></svg>