<svg xmlns="http://www.w3.org/2000/svg" width="457.054" height="457.053" viewBox="0 0 457.054 457.053">
  <g id="_007" data-name="007" transform="translate(0)">
    <path id="Path_133" data-name="Path 133" d="M390.119,66.934a228.687,228.687,0,0,0-266.284-41.6,230.554,230.554,0,0,0-79.3,67.617,6.761,6.761,0,0,0,10.88,8.031A216.016,216.016,0,0,1,228.527,13.523c118.553,0,215,96.452,215,215s-96.452,215-215,215-215-96.452-215-215A215.382,215.382,0,0,1,38.912,127.078a6.761,6.761,0,0,0-11.919-6.388A228.553,228.553,0,1,0,390.12,66.933Zm0,0" fill="rgba(255,255,255,0.5)"/>
    <path id="Path_134" data-name="Path 134" d="M397.456,150.682A183.446,183.446,0,0,0,233.945,50.493c-101.155,0-183.453,82.3-183.453,183.453S132.789,417.4,233.945,417.4,417.4,335.1,417.4,233.946a183.547,183.547,0,0,0-7.713-52.794,6.761,6.761,0,1,0-12.951,3.888,170.042,170.042,0,0,1,7.141,48.906c0,93.7-76.23,169.93-169.93,169.93s-169.93-76.23-169.93-169.93,76.23-169.93,169.93-169.93a169.339,169.339,0,0,1,151.467,92.811,6.76,6.76,0,1,0,12.044-6.144Zm0,0" transform="translate(-5.419 -5.419)" fill="rgba(255,255,255,0.5)"/>
    <path id="Path_135" data-name="Path 135" d="M366.21,179.021a33.8,33.8,0,0,0-1.757-43.33A152.22,152.22,0,0,0,251.936,85.84a33.805,33.805,0,1,0,0,67.61,84.5,84.5,0,0,1,62.446,27.673,33.806,33.806,0,0,0,41.238,6.953,115.15,115.15,0,0,1,11.256,49.662,6.761,6.761,0,0,0,13.523,0,128.638,128.638,0,0,0-14.189-58.718ZM324.4,172.036a98.036,98.036,0,0,0-72.461-32.109,20.284,20.284,0,0,1,0-40.568,138.672,138.672,0,0,1,102.5,45.415A20.283,20.283,0,1,1,324.4,172.036Zm0,0" transform="translate(-23.409 -9.212)" fill="rgba(255,255,255,0.5)"/>
    <path id="Path_136" data-name="Path 136" d="M205.772,266.605a22.987,22.987,0,1,0,22.987,22.987A23.012,23.012,0,0,0,205.772,266.605Zm0,32.454a9.467,9.467,0,1,1,9.467-9.467A9.475,9.475,0,0,1,205.772,299.059Zm0,0" transform="translate(-19.616 -28.612)" fill="rgba(255,255,255,0.5)"/>
    <path id="Path_137" data-name="Path 137" d="M266.887,291.488a7.211,7.211,0,1,1-7.211-7.211A7.21,7.21,0,0,1,266.887,291.488Zm0,0" transform="translate(-27.094 -30.508)" fill="rgba(255,255,255,0.5)"/>
    <path id="Path_138" data-name="Path 138" d="M211.348,241.5a7.213,7.213,0,1,1-7.211-7.211A7.212,7.212,0,0,1,211.348,241.5Zm0,0" transform="translate(-21.133 -25.144)" fill="rgba(255,255,255,0.5)"/>
    <path id="Path_139" data-name="Path 139" d="M184.082,330.367a7.213,7.213,0,1,1-7.215-7.211A7.212,7.212,0,0,1,184.082,330.367Zm0,0" transform="translate(-18.207 -34.681)" fill="rgba(255,255,255,0.5)"/>
    <path id="Path_140" data-name="Path 140" d="M170.954,271.8a7.213,7.213,0,1,1-7.215-7.211A7.212,7.212,0,0,1,170.954,271.8Zm0,0" transform="translate(-16.798 -28.395)" fill="rgba(255,255,255,0.5)"/>
    <path id="Path_141" data-name="Path 141" d="M243.664,328.348a7.213,7.213,0,1,1-7.215-7.211A7.212,7.212,0,0,1,243.664,328.348Zm0,0" transform="translate(-24.602 -34.464)" fill="rgba(255,255,255,0.5)"/>
    <path id="Path_142" data-name="Path 142" d="M291.706,264.142a6.759,6.759,0,0,0-7.832-5.485l-11.385,2.009a77.537,77.537,0,0,0-4.683-12.836l10.022-5.785a6.761,6.761,0,1,0-6.761-11.71l-10.039,5.8a78.714,78.714,0,0,0-8.78-10.454l7.455-8.885a6.762,6.762,0,1,0-10.36-8.693l-7.452,8.881a78.039,78.039,0,0,0-11.814-6.845l3.958-10.876a6.761,6.761,0,0,0-12.707-4.624L217.373,205.5a77.185,77.185,0,0,0-13.456-2.364V191.566a6.761,6.761,0,0,0-13.523,0v11.566a77.513,77.513,0,0,0-13.456,2.364l-3.954-10.862a6.761,6.761,0,0,0-12.707,4.624l3.958,10.876a78.042,78.042,0,0,0-11.814,6.845l-7.452-8.881a6.762,6.762,0,0,0-10.36,8.693l7.455,8.885a78.718,78.718,0,0,0-8.78,10.454l-10.039-5.8a6.761,6.761,0,1,0-6.761,11.71L126.5,247.83a77.221,77.221,0,0,0-4.683,12.836l-11.385-2.009a6.761,6.761,0,0,0-2.347,13.317l11.389,2.009c-.2,2.253-.3,4.53-.3,6.831s.108,4.578.3,6.831l-11.389,2.009a6.761,6.761,0,0,0,2.347,13.317l11.385-2.009a77.183,77.183,0,0,0,4.683,12.832l-10.022,5.788a6.761,6.761,0,1,0,6.761,11.71l10.039-5.8a78.683,78.683,0,0,0,8.78,10.451l-7.455,8.888a6.76,6.76,0,1,0,10.357,8.69l7.452-8.878a78.37,78.37,0,0,0,11.818,6.845l-3.958,10.873a6.762,6.762,0,1,0,12.707,4.627l3.954-10.862a77.513,77.513,0,0,0,13.456,2.364v11.566a6.761,6.761,0,0,0,13.523,0V358.494a77.513,77.513,0,0,0,13.456-2.364l3.951,10.862a6.763,6.763,0,0,0,12.71-4.627l-3.961-10.873a78.373,78.373,0,0,0,11.818-6.845l7.452,8.878a6.761,6.761,0,0,0,10.36-8.69l-7.459-8.888a78.423,78.423,0,0,0,8.78-10.451l10.039,5.8a6.761,6.761,0,1,0,6.761-11.71L267.8,313.794a77.2,77.2,0,0,0,4.687-12.832l11.382,2.009a6.761,6.761,0,0,0,2.35-13.317l-11.392-2.009q.3-3.379.3-6.831t-.3-6.831l11.392-2.009a6.761,6.761,0,0,0,5.485-7.832Zm-72.457,77.224c-.014.007-.031.01-.049.017a.059.059,0,0,0-.017.007,64.451,64.451,0,0,1-44.055,0l-.017-.007-.049-.017a64.458,64.458,0,0,1-.014-121.1l.063-.021c.007,0,.01-.007.017-.007a64.451,64.451,0,0,1,44.055,0c.007,0,.01,0,.017.007l.063.021a64.46,64.46,0,0,1-.014,121.1Zm0,0" transform="translate(-11 -19.833)" fill="rgba(255,100,100,0.5)"/>
    <path id="Path_143" data-name="Path 143" d="M302.862,385.766a6.761,6.761,0,0,0-6.761,6.761,16.694,16.694,0,0,1-16.675,16.678,6.761,6.761,0,0,0,0,13.523,30.233,30.233,0,0,0,30.2-30.2,6.761,6.761,0,0,0-6.761-6.761Zm0,0" transform="translate(-29.262 -41.4)" fill="rgba(255,255,255,0.5)"/>
    <path id="Path_144" data-name="Path 144" d="M319.82,233.671A16.7,16.7,0,0,1,336.5,250.35a6.761,6.761,0,0,0,13.523,0,30.233,30.233,0,0,0-30.2-30.2,6.761,6.761,0,1,0,0,13.523Zm0,0" transform="translate(-33.597 -23.626)" fill="rgba(255,255,255,0.5)"/>
    <path id="Path_145" data-name="Path 145" d="M127.945,164.2a6.761,6.761,0,0,0,6.761-6.761,16.694,16.694,0,0,1,16.675-16.678,6.761,6.761,0,1,0,0-13.523,30.233,30.233,0,0,0-30.2,30.2,6.761,6.761,0,0,0,6.761,6.761Zm0,0" transform="translate(-13.005 -13.655)" fill="rgba(255,255,255,0.5)"/>
    <path id="Path_146" data-name="Path 146" d="M392.862,313.072a29.3,29.3,0,1,0-29.3,29.3A29.331,29.331,0,0,0,392.862,313.072Zm-45.077,0a15.777,15.777,0,1,1,15.779,15.775A15.8,15.8,0,0,1,347.785,313.072Zm0,0" transform="translate(-35.873 -30.454)" fill="rgba(255,255,255,0.5)"/>
    <path id="Path_147" data-name="Path 147" d="M426.52,207.451a9.016,9.016,0,1,1-9.014-9.014A9.018,9.018,0,0,1,426.52,207.451Zm0,0" transform="translate(-43.839 -21.296)" fill="rgba(255,255,255,0.5)"/>
    <path id="Path_148" data-name="Path 148" d="M433.59,279.154a9.016,9.016,0,1,1-9.018-9.017A9.015,9.015,0,0,1,433.59,279.154Zm0,0" transform="translate(-44.597 -28.991)" fill="rgba(255,255,255,0.5)"/>
    <path id="Path_149" data-name="Path 149" d="M198.29,153.932a9.014,9.014,0,1,1-9.014-9.017A9.015,9.015,0,0,1,198.29,153.932Zm0,0" transform="translate(-19.346 -15.552)" fill="rgba(255,255,255,0.5)"/>
    <path id="Path_150" data-name="Path 150" d="M104.372,207.451a9.014,9.014,0,1,1-9.014-9.014A9.015,9.015,0,0,1,104.372,207.451Zm0,0" transform="translate(-9.266 -21.296)" fill="rgba(255,255,255,0.5)"/>
    <path id="Path_151" data-name="Path 151" d="M355.828,379.131a9.016,9.016,0,1,1-9.014-9.017A9.017,9.017,0,0,1,355.828,379.131Zm0,0" transform="translate(-36.252 -39.72)" fill="rgba(255,255,255,0.5)"/>
  </g>
</svg>
