<svg xmlns="http://www.w3.org/2000/svg" width="511.997" height="510" viewBox="0 0 511.997 510">
  <g id="_017" data-name="017" transform="translate(-0.001 -1.002)">
    <path id="Path_126" data-name="Path 126" d="M152.782,206.005a32.98,32.98,0,1,0,32.966-32.978A32.995,32.995,0,0,0,152.782,206.005Zm32.966-17.977a17.963,17.963,0,1,1-17.965,17.977A18.006,18.006,0,0,1,185.748,188.028Z" fill="#ff6464"/>
    <path id="Path_127" data-name="Path 127" d="M144.051,97.654a32.978,32.978,0,1,0,32.994,32.978,33.024,33.024,0,0,0-32.994-32.978Zm0,50.955a17.978,17.978,0,1,1,17.994-17.977A18.006,18.006,0,0,1,144.051,148.609Z" fill="#ff6464"/>
    <path id="Path_128" data-name="Path 128" d="M275.563,267.826a32.968,32.968,0,0,0,0-46.635,29.335,29.335,0,0,0-6.038-4.7,115.353,115.353,0,0,0,14.129-48.355h37.133a32.978,32.978,0,1,0,0-15H283.638a114.261,114.261,0,0,0-23.432-62.6c-1.608-2.1-3.3-4.139-5.043-6.122l22.482-22.467a32.905,32.905,0,1,0-10.617-10.6l-22.494,22.48a116.26,116.26,0,0,0-39.918-22.9,36.423,36.423,0,0,0-72.636-.015A114.352,114.352,0,0,0,92.144,73.925L73.933,55.745A32.987,32.987,0,0,0,22.575,15.023,32.981,32.981,0,0,0,63.314,66.34L81.593,84.588a119.57,119.57,0,0,0-24.3,44.3,36.451,36.451,0,0,0-9.968-1.222,32.978,32.978,0,1,0,9.731,64.5A115.981,115.981,0,0,0,81.4,236.893L50.379,267.87a32.986,32.986,0,1,0,10.608,10.606L92.009,247.5a112.78,112.78,0,0,0,12.645,9.62c.176.121.352.236.528.35l.224.147a7.5,7.5,0,1,0,8.579-12.3c-.211-.147-.421-.285-.632-.422l-.224-.147q-.1-.067-.195-.132A98.456,98.456,0,0,1,97.6,232.229c-.138-.165-.281-.328-.436-.483s-.287-.267-.435-.394a100.7,100.7,0,0,1-27.191-51.446,7.5,7.5,0,0,0-11.74-4.664A17.979,17.979,0,1,1,47.32,142.663c3.474,0,6.006.444,7.58,1.351l.174.1c2.217,1.255,5.568,3.149,9.566,1.469,4.141-1.742,5.15-5.535,6.216-9.546,9.244-34.671,34.7-61.434,68.063-71.583.448-.134.809-.229,1.1-.306,6.108-1.618,7.125-5.983,6.9-9.36-.018-.27-.043-.626-.043-1.1a21.421,21.421,0,0,1,42.842,0,4.107,4.107,0,0,1-.045.445,8.527,8.527,0,0,0,6.482,9.888,100.576,100.576,0,0,1,59.11,147.209c-1.795,3.079-4.03,6.911-2.486,11.224,1.407,3.931,4.825,5.2,6.661,5.881a13.365,13.365,0,0,1,5.519,3.471,17.968,17.968,0,0,1,.008,25.407,18.085,18.085,0,0,1-25.48.007,13.012,13.012,0,0,1-3.724-5.795,9.328,9.328,0,0,0-5.372-6.333c-4.039-1.576-7.094.1-12.642,3.142l-1.106.606a100.839,100.839,0,0,1-48.331,12.346c-9.681,0-19.029-1.959-27.774-3.965a7.5,7.5,0,0,0-3.355,14.621,165.1,165.1,0,0,0,23.629,4.018v20.071a32.994,32.994,0,1,0,15,0V275.937a115.834,115.834,0,0,0,48.037-13.943l.262-.144a32.009,32.009,0,0,0,4.779,5.985,33.116,33.116,0,0,0,46.673-.009ZM45.69,308.6a17.979,17.979,0,1,1,0-25.442,18.018,18.018,0,0,1,0,25.442ZM33.18,51.043a18.008,18.008,0,1,1,25.451-.007l-.008.007A18.017,18.017,0,0,1,33.18,51.043Zm249.15-29.8a18.063,18.063,0,0,1,25.473,0,17.968,17.968,0,0,1,.008,25.407,18.063,18.063,0,0,1-25.476.011h0l0,0a17.968,17.968,0,0,1,0-25.415Zm70.58,121.417a17.978,17.978,0,1,1-17.994,17.978A18.006,18.006,0,0,1,352.91,142.661Zm-166.6,185.374a17.994,17.994,0,1,1-17.994-17.978A18.006,18.006,0,0,1,186.306,328.035Z" fill="rgba(255,255,255,0.8)"/>
    <path id="Path_129" data-name="Path 129" d="M479.435,361.8a34.068,34.068,0,0,0-7.409.752c-.281-.921-.6-1.948-.967-3.091a112.715,112.715,0,0,0-27.876-45.533,114.069,114.069,0,0,0-121.229-25.8,7.5,7.5,0,1,0,5.357,14.011,99.046,99.046,0,0,1,105.268,22.4,97.811,97.811,0,0,1,24.2,39.513c.758,2.366,1.307,4.215,1.731,5.642,1.308,4.406,2.253,7.59,6.061,9.222a9.019,9.019,0,0,0,7.969-.685c1.181-.6,2.8-1.43,6.9-1.43a17.562,17.562,0,1,1,0,35.124c-4.229,0-5.9-.855-7.007-1.42a8.915,8.915,0,0,0-7.884-.666c-3.759,1.609-4.7,4.759-5.885,8.748-.5,1.676-1.183,3.971-2.227,7.093A99,99,0,0,1,319.106,483c-3.525-1.73-6.018-3.054-7.838-4.021-4.046-2.148-7.241-3.844-11.164-1.995a8.876,8.876,0,0,0-4.746,6.741c-.265,1.3-.707,3.472-4.367,7.13a17.556,17.556,0,1,1-24.836-24.819c3.56-3.558,5.689-4,7.1-4.3a8.88,8.88,0,0,0,6.8-4.811c1.858-3.973.227-7.032-2.243-11.663-.869-1.629-1.95-3.656-3.328-6.378a98.463,98.463,0,0,1,18.339-114.341c2.163-2.162,4.5-4.282,7.133-6.482a7.5,7.5,0,0,0-9.612-11.516c-2.984,2.49-5.641,4.906-8.125,7.388A113.432,113.432,0,0,0,261.1,445.659q1.127,2.226,2.025,3.925a33.652,33.652,0,0,0-7.567,5.831A32.556,32.556,0,1,0,301.6,501.456a34.348,34.348,0,0,0,5.839-7.542c1.411.732,3.075,1.578,5.052,2.549a114,114,0,0,0,158.166-66.026c.54-1.614.988-3.016,1.367-4.234a35.04,35.04,0,0,0,7.408.728,32.563,32.563,0,1,0,0-65.127Z" fill="rgba(255,255,255,0.8)"/>
    <path id="Path_130" data-name="Path 130" d="M395.984,416.911a32.553,32.553,0,1,0-23.026-9.515,32.47,32.47,0,0,0,23.026,9.515Zm-12.421-44.967a17.535,17.535,0,1,1-5.158,12.421,17.515,17.515,0,0,1,5.158-12.421Z" fill="#ff6464"/>
    <path id="Path_131" data-name="Path 131" d="M341.152,408.976a24.954,24.954,0,1,0,24.965,24.954A24.987,24.987,0,0,0,341.152,408.976Zm0,34.907a9.953,9.953,0,1,1,9.964-9.953A9.971,9.971,0,0,1,341.152,443.883Z" fill="#ff6464"/>
    <path id="Path_132" data-name="Path 132" d="M348.511,320.928a74.356,74.356,0,0,0-57.607,52.5,7.5,7.5,0,1,0,14.4,4.184,59.417,59.417,0,0,1,46.034-41.956,7.5,7.5,0,0,0-2.832-14.731Z" fill="#ff6464"/>
  </g>
</svg>
