<svg xmlns="http://www.w3.org/2000/svg" width="61" height="126" viewBox="0 0 61 126"><g transform="translate(-820 -864)"><g transform="translate(2505 1215)" fill="rgba(255,255,255,0)"><path d="M -1654.499755859375 -226.5 C -1658.41552734375 -226.5 -1662.21337890625 -227.2665710449219 -1665.787719726563 -228.7783966064453 C -1669.240844726563 -230.2389678955078 -1672.342407226563 -232.3302154541016 -1675.006103515625 -234.9940490722656 C -1677.669921875 -237.6578521728516 -1679.761108398438 -240.7593994140625 -1681.221557617188 -244.2125549316406 C -1682.7333984375 -247.7868194580078 -1683.499877929688 -251.5845031738281 -1683.499877929688 -255.5001068115234 C -1683.499877929688 -255.6587219238281 -1683.49853515625 -255.818603515625 -1683.49609375 -255.9753265380859 L -1683.471435546875 -257.4996032714844 L -1683.499877929688 -257.4996032714844 L -1683.499877929688 -320.7737426757813 L -1683.49609375 -320.9761047363281 C -1683.433715820313 -324.8399963378906 -1682.623657226563 -328.5812377929688 -1681.088500976563 -332.095947265625 C -1679.603393554688 -335.495849609375 -1677.504028320313 -338.5458984375 -1674.848754882813 -341.161376953125 C -1672.191650390625 -343.7787475585938 -1669.108154296875 -345.832275390625 -1665.683959960938 -347.2649841308594 C -1662.139526367188 -348.748046875 -1658.376586914063 -349.5 -1654.499755859375 -349.5 C -1650.623046875 -349.5 -1646.860229492188 -348.748046875 -1643.315795898438 -347.2650146484375 C -1639.891723632813 -345.832275390625 -1636.808227539063 -343.7787170410156 -1634.151000976563 -341.161376953125 C -1631.49560546875 -338.5458679199219 -1629.396240234375 -335.4957885742188 -1627.9111328125 -332.0959167480469 C -1626.375854492188 -328.5812072753906 -1625.565795898438 -324.8399353027344 -1625.50341796875 -320.9761047363281 L -1625.499633789063 -320.7394409179688 L -1625.499633789063 -320.4999084472656 L -1625.499633789063 -257.4996032714844 L -1625.524047851563 -257.4996032714844 L -1625.50341796875 -255.9753265380859 C -1625.5009765625 -255.818603515625 -1625.499633789063 -255.6587219238281 -1625.499633789063 -255.5001068115234 C -1625.499633789063 -251.5845489501953 -1626.266235351563 -247.786865234375 -1627.778076171875 -244.2125701904297 C -1629.238647460938 -240.7594451904297 -1631.329833984375 -237.6578979492188 -1633.993774414063 -234.9940643310547 C -1636.657592773438 -232.3302307128906 -1639.759155273438 -230.2389831542969 -1643.212280273438 -228.7783966064453 C -1646.786499023438 -227.2665710449219 -1650.584228515625 -226.5 -1654.499755859375 -226.5 Z" stroke="none"/><path d="M -1654.499755859375 -228 C -1650.786010742188 -228 -1647.184936523438 -228.7266845703125 -1643.796630859375 -230.159912109375 C -1640.522216796875 -231.5448608398438 -1637.580932617188 -233.5281677246094 -1635.054321289063 -236.0547332763672 C -1632.52783203125 -238.5812835693359 -1630.544555664063 -241.5225830078125 -1629.159545898438 -244.7969055175781 C -1627.726318359375 -248.185302734375 -1626.999633789063 -251.7864074707031 -1626.999633789063 -255.5001068115234 C -1626.999633789063 -255.6502685546875 -1627.000854492188 -255.8019561767578 -1627.003295898438 -255.9509429931641 L -1627.048706054688 -258.9996032714844 L -1626.999633789063 -258.9996032714844 L -1626.999633789063 -320.4999084472656 L -1626.999633789063 -320.7254028320313 L -1627.003295898438 -320.9519348144531 C -1627.062377929688 -324.6162414550781 -1627.830322265625 -328.1636047363281 -1629.28564453125 -331.4954833984375 C -1630.693969726563 -334.7194213867188 -1632.68505859375 -337.6119384765625 -1635.20361328125 -340.0927124023438 C -1637.723876953125 -342.5751953125 -1640.648071289063 -344.5227355957031 -1643.894775390625 -345.8812255859375 C -1647.2548828125 -347.2871398925781 -1650.822875976563 -348 -1654.499755859375 -348 C -1658.1767578125 -348 -1661.744873046875 -347.2871398925781 -1665.10498046875 -345.8812255859375 C -1668.351806640625 -344.5227355957031 -1671.276000976563 -342.5751953125 -1673.796142578125 -340.0927429199219 C -1676.314697265625 -337.6119995117188 -1678.3056640625 -334.719482421875 -1679.7138671875 -331.4955139160156 C -1681.169189453125 -328.1636657714844 -1681.937133789063 -324.6163024902344 -1681.996215820313 -320.951904296875 L -1681.999877929688 -320.7431640625 L -1681.999877929688 -258.9996032714844 L -1681.94677734375 -258.9996032714844 L -1681.996215820313 -255.9509429931641 C -1681.998657226563 -255.8019561767578 -1681.999877929688 -255.6502685546875 -1681.999877929688 -255.5001068115234 C -1681.999877929688 -251.7863464355469 -1681.273193359375 -248.1852569580078 -1679.840087890625 -244.7968597412109 C -1678.455200195313 -241.5225067138672 -1676.471923828125 -238.5812377929688 -1673.945434570313 -236.0546875 C -1671.4189453125 -233.5281524658203 -1668.477661132813 -231.5448303222656 -1665.203369140625 -230.159912109375 C -1661.81494140625 -228.7266845703125 -1658.213623046875 -228 -1654.499755859375 -228 M -1654.499755859375 -225 C -1671.345092773438 -225 -1684.999877929688 -238.6556854248047 -1684.999877929688 -255.5001068115234 C -1684.999877929688 -255.6666564941406 -1684.99853515625 -255.8336944580078 -1684.995849609375 -255.9996032714844 L -1684.999877929688 -255.9996032714844 L -1684.999877929688 -321.0003051757813 L -1684.995849609375 -321.0003051757813 C -1684.727783203125 -337.61328125 -1671.177490234375 -351 -1654.499755859375 -351 C -1637.822875976563 -351 -1624.271606445313 -337.61328125 -1624.003662109375 -321.0003051757813 L -1623.999633789063 -321.0003051757813 L -1623.999633789063 -320.4999084472656 L -1623.999633789063 -255.9996032714844 L -1624.003662109375 -255.9996032714844 C -1624.0009765625 -255.8336944580078 -1623.999633789063 -255.6666564941406 -1623.999633789063 -255.5001068115234 C -1623.999633789063 -238.6556854248047 -1637.655395507813 -225 -1654.499755859375 -225 Z" stroke="none" fill="#fff"/></g><path d="M-1685-335.841c0-.026,0-.053,0-.079h0v-10.318h0a4.926,4.926,0,0,1,5-4.762,4.926,4.926,0,0,1,5,4.762h0v10.318h0c0,.026,0,.053,0,.079a4.923,4.923,0,0,1-5,4.841A4.923,4.923,0,0,1-1685-335.841Z" transform="translate(2531 1235)" fill="#fff"/></g></svg>