<?xml version="1.0" standalone="no"?>
<!DOCTYPE svg PUBLIC "-//W3C//DTD SVG 20010904//EN"
 "http://www.w3.org/TR/2001/REC-SVG-20010904/DTD/svg10.dtd">
<svg version="1.0" xmlns="http://www.w3.org/2000/svg"
 width="512.000000pt" height="512.000000pt" viewBox="0 0 512.000000 512.000000"
 preserveAspectRatio="xMidYMid meet">

<g transform="translate(0.000000,512.000000) scale(0.100000,-0.100000)"
fill="#000000" stroke="none">
<path d="M1694 4748 c-451 -205 -832 -381 -847 -391 -41 -26 -60 -72 -55 -129
7 -72 68 -128 139 -128 21 0 312 127 827 361 437 198 803 359 812 356 35 -9
1990 -900 1985 -905 -2 -3 -452 -202 -1000 -442 l-995 -437 -1157 508 c-1252
550 -1208 533 -1281 489 -66 -40 -62 49 -62 -1465 0 -1504 -4 -1411 57 -1452
16 -11 561 -265 1213 -566 1009 -466 1192 -547 1230 -547 38 0 222 82 1230
547 652 301 1197 555 1213 566 61 41 57 -53 57 1460 l0 1384 -23 34 c-20 31
-130 83 -1217 578 -1020 464 -1203 544 -1250 548 -54 4 -66 -1 -876 -369z
m-262 -1534 c904 -398 1090 -477 1128 -477 38 0 224 79 1128 477 595 262 1085
476 1087 476 3 0 4 -534 3 -1186 l-3 -1186 -1035 -477 -1035 -478 -5 947 c-5
895 -6 947 -23 974 -48 73 -186 73 -234 0 -17 -27 -18 -79 -23 -974 l-5 -947
-1035 478 -1035 477 -3 1186 c-1 652 0 1186 3 1186 2 0 492 -214 1087 -476z"/>
</g>
</svg>
