<svg height="504pt" viewBox="0 0 504 504.31325" width="504pt" xmlns="http://www.w3.org/2000/svg"><path d="m344.324219 142.699219c-23.179688 0-41.96875 18.789062-41.96875 41.96875 0 23.175781 18.789062 41.964843 41.96875 41.964843 23.175781 0 41.964843-18.789062 41.964843-41.964843-.027343-23.167969-18.800781-41.941407-41.964843-41.96875zm0 67.148437c-10.183594 0-19.367188-6.136718-23.265625-15.546875-3.894532-9.40625-1.742188-20.238281 5.460937-27.441406 7.199219-7.199219 18.03125-9.355469 27.441407-5.457031 9.40625 3.898437 15.542968 13.078125 15.542968 23.265625 0 13.90625-11.273437 25.179687-25.179687 25.179687zm0 0"/><path d="m134.488281 327.355469c-18.542969 0-33.574219 15.03125-33.574219 33.574219 0 18.542968 15.03125 33.574218 33.574219 33.574218s33.574219-15.03125 33.574219-33.574218c0-18.542969-15.03125-33.574219-33.574219-33.574219zm0 50.359375c-9.273437 0-16.789062-7.515625-16.789062-16.785156 0-9.273438 7.515625-16.789063 16.789062-16.789063 9.269531 0 16.785157 7.515625 16.785157 16.789063 0 9.269531-7.515626 16.785156-16.785157 16.785156zm0 0"/><path d="m319.144531 251.8125c-18.542969 0-33.574219 15.03125-33.574219 33.574219s15.03125 33.574219 33.574219 33.574219c18.539063 0 33.570313-15.03125 33.570313-33.574219s-15.03125-33.574219-33.570313-33.574219zm0 50.363281c-9.273437 0-16.789062-7.515625-16.789062-16.789062 0-9.269531 7.515625-16.785157 16.789062-16.785157 9.269531 0 16.785157 7.515626 16.785157 16.785157 0 9.273437-7.515626 16.789062-16.785157 16.789062zm0 0"/><path d="m223.625 294.402344c-1.015625.429687-1.953125 1.027344-2.769531 1.769531-1.535157 1.609375-2.402344 3.738281-2.433594 5.960937.011719 1.097657.242187 2.179688.671875 3.1875.40625 1.027344 1.003906 1.96875 1.761719 2.769532.820312.738281 1.753906 1.335937 2.769531 1.765625 1.011719.425781 2.09375.652343 3.191406.671875 2.21875-.039063 4.347656-.90625 5.957032-2.4375.757812-.800782 1.359374-1.742188 1.761718-2.769532.433594-1.007812.660156-2.089843.671875-3.1875-.03125-2.222656-.898437-4.351562-2.433593-5.960937-2.433594-2.339844-6.015626-3.035156-9.148438-1.769531zm0 0"/><path d="m206.839844 369.992188c-1.019532.425781-1.953125 1.023437-2.769532 1.765624-1.535156 1.609376-2.402343 3.734376-2.4375 5.957032.015626 1.097656.242188 2.179687.671876 3.191406.40625 1.027344 1.003906 1.964844 1.765624 2.769531.816407.738281 1.75 1.335938 2.769532 1.761719 1.007812.429688 2.089844.65625 3.1875.671875 2.222656-.03125 4.351562-.902344 5.960937-2.433594.757813-.804687 1.355469-1.742187 1.761719-2.769531.429688-1.011719.660156-2.09375.671875-3.191406-.03125-2.222656-.902344-4.347656-2.433594-5.957032-2.4375-2.339843-6.019531-3.03125-9.148437-1.765624zm0 0"/><path d="m257.199219 344.761719c-1.015625.429687-1.953125 1.027343-2.769531 1.773437-1.542969 1.617188-2.414063 3.761719-2.433594 6 .011718 1.097656.242187 2.179688.671875 3.1875.40625 1.027344 1.003906 1.96875 1.761719 2.773438.816406.734375 1.753906 1.332031 2.769531 1.761718 1.011719.425782 2.09375.652344 3.191406.671876 2.21875-.035157 4.347656-.90625 5.957031-2.433594.757813-.804688 1.359375-1.746094 1.761719-2.773438.429687-1.007812.660156-2.089844.671875-3.1875-.03125-2.222656-.898438-4.351562-2.433594-5.960937-2.425781-2.355469-6.007812-3.066407-9.148437-1.8125zm0 0"/><path d="m338.363281 106.691406c.816407.742188 1.753907 1.335938 2.769531 1.761719 1.011719.429687 2.09375.660156 3.191407.671875 2.222656-.03125 4.347656-.902344 5.957031-2.433594.761719-.804687 1.359375-1.742187 1.765625-2.769531.429687-1.007813.65625-2.09375.667969-3.191406-.03125-2.21875-.898438-4.347657-2.433594-5.957031-2.433594-2.339844-6.015625-3.03125-9.148438-1.761719-1.015624.425781-1.953124 1.019531-2.769531 1.761719-1.53125 1.609374-2.402343 3.738281-2.433593 5.957031.011718 1.097656.242187 2.183593.671874 3.191406.40625 1.027344 1.003907 1.964844 1.761719 2.769531zm0 0"/><path d="m399.886719 126.53125c-1.015625.429688-1.953125 1.03125-2.769531 1.773438-1.542969 1.617187-2.414063 3.765624-2.433594 6 .011718 1.097656.242187 2.179687.671875 3.191406.40625 1.027344 1.003906 1.964844 1.761719 2.769531.820312.738281 1.753906 1.332031 2.769531 1.761719 1.011719.425781 2.09375.65625 3.191406.671875 2.21875-.035157 4.347656-.90625 5.957031-2.433594.761719-.804687 1.359375-1.742187 1.765625-2.769531.429688-1.011719.65625-2.09375.671875-3.191406-.03125-2.222657-.902344-4.351563-2.4375-5.957032-2.421875-2.359375-6.007812-3.066406-9.148437-1.816406zm0 0"/><path d="m392.023438 3.367188c-10.15625-2.210938-20.519532-3.335938-30.914063-3.3554692-66.054687-.8007808-123.824219 44.3359372-139.027344 108.6250002-16.484375 71.289062-50.078125 113.128906-94.578125 117.820312-38.03125 3.789063-72.945312 22.707031-96.886718 52.5-23.0625 28.417969-33.726563 64.914063-29.585938 101.277344 8.71875 71.398437 69.722656 124.832031 141.648438 124.070313 5.148437-.007813 10.296874-.289063 15.417968-.839844 63.738282-6.714844 276.78125-50.613282 342.167969-333.429688 8.328125-35.683594 1.882813-73.214844-17.871094-104.078125-20.453125-32.191406-53.042969-54.761719-90.371093-62.589843zm91.890624 162.910156c-62.890624 271.996094-266.625 314.089844-327.605468 320.554687-4.535156.480469-9.09375.71875-13.65625.71875-63.378906.726563-117.175782-46.304687-124.917969-109.214843-3.609375-31.910157 5.765625-63.933594 26.019531-88.859376 21.140625-26.304687 51.972656-42.996093 85.554688-46.316406 52.171875-5.515625 90.941406-51.9375 109.164062-130.738281 13.464844-56.644531 64.417969-96.378906 122.636719-95.625 9.207031.007813 18.382813.992187 27.378906 2.9375 32.941407 6.902344 61.695313 26.816406 79.738281 55.230469 17.335938 27.074218 22.992188 60.003906 15.6875 91.3125zm0 0"/><path d="m383.144531 44.34375c-7.242187-1.566406-14.628906-2.359375-22.035156-2.367188-46.335937-.253906-86.855469 31.175782-98.128906 76.121094-28.117188 121.519532-94.199219 146.207032-131.078125 150.101563-26.902344 2.648437-51.609375 15.996093-68.566406 37.046875-16.015626 19.710937-23.429688 45.035156-20.574219 70.269531 6.335937 50.148437 49.339843 87.53125 99.882812 86.824219 3.683594-.003906 7.367188-.199219 11.03125-.589844 56.746094-5.976562 246.53125-45.367188 305.671875-301.148438 5.773438-24.75 1.292969-50.785156-12.421875-72.183593-14.449219-22.6875-37.449219-38.582031-63.78125-44.074219zm59.886719 112.472656c-56.648438 244.964844-237.125 282.546875-291.09375 288.230469-3.066406.328125-6.148438.492187-9.234375.496094-42.003906.71875-77.84375-30.242188-83.238281-71.90625-2.347656-20.804688 3.777344-41.675781 16.988281-57.914063 14.160156-17.535156 34.765625-28.640625 57.195313-30.832031 41.328124-4.363281 115.207031-31.347656 145.652343-163.015625 9.476563-37.371094 43.257813-63.429688 81.808594-63.109375 6.207031.007813 12.398437.671875 18.464844 1.988281 21.953125 4.550782 41.136719 17.785156 53.191406 36.6875 11.289063 17.601563 14.992187 39.015625 10.265625 59.382813zm0 0"/></svg>