<svg id="Layer" enable-background="new 0 0 64 64" height="512" viewBox="0 0 64 64" width="512" xmlns="http://www.w3.org/2000/svg"><path d="m32 8c-13.233 0-24 10.767-24 24s10.767 24 24 24 24-10.767 24-24-10.767-24-24-24zm0 46c-12.131 0-22-9.869-22-22s9.869-22 22-22 22 9.869 22 22-9.869 22-22 22z"/><path d="m14.403 35.806c-.267-1.242-.403-2.522-.403-3.806 0-9.925 8.075-18 18-18 1.277 0 2.553.135 3.79.399.539.121 1.072-.228 1.188-.768s-.229-1.072-.769-1.188c-1.375-.294-2.791-.443-4.209-.443-11.028 0-20 8.972-20 20 0 1.425.15 2.848.448 4.228.101.469.516.789.977.789.07 0 .141-.007.211-.023.54-.116.883-.648.767-1.188z"/><path d="m23.475 47.856c-3.112-1.678-5.644-4.206-7.322-7.313-.263-.486-.87-.668-1.355-.404-.486.263-.667.869-.405 1.355 1.864 3.45 4.676 6.259 8.132 8.121.151.082.313.12.474.12.356 0 .701-.19.881-.525.262-.485.08-1.092-.405-1.354z"/><path d="m51.553 27.778c-.116-.541-.65-.887-1.188-.768-.54.116-.883.649-.767 1.188.267 1.242.402 2.52.402 3.802 0 8.436-5.978 15.838-14.212 17.602-2.479.53-5.106.528-7.578-.001-.538-.117-1.072.229-1.188.768-.116.54.229 1.072.769 1.188 1.375.294 2.79.443 4.209.443 1.415 0 2.83-.149 4.206-.443 9.151-1.959 15.794-10.185 15.794-19.557 0-1.423-.15-2.844-.447-4.222z"/><path d="m40.533 16.146c3.114 1.68 5.647 4.216 7.327 7.334.181.335.525.525.881.525.16 0 .322-.038.473-.119.486-.263.668-.869.406-1.355-1.865-3.462-4.679-6.279-8.138-8.145-.486-.265-1.093-.08-1.354.405-.262.486-.081 1.093.405 1.355z"/><path d="m26 20c-3.86 0-7 3.141-7 7s3.14 7 7 7 7-3.141 7-7-3.14-7-7-7zm0 12c-2.757 0-5-2.243-5-5s2.243-5 5-5 5 2.243 5 5-2.243 5-5 5z"/><path d="m32 46c3.309 0 6-2.691 6-6s-2.691-6-6-6-6 2.691-6 6 2.691 6 6 6zm0-10c2.206 0 4 1.794 4 4s-1.794 4-4 4-4-1.794-4-4 1.794-4 4-4z"/><path d="m40 34c2.206 0 4-1.794 4-4s-1.794-4-4-4-4 1.794-4 4 1.794 4 4 4zm0-6c1.103 0 2 .897 2 2s-.897 2-2 2-2-.897-2-2 .897-2 2-2z"/></svg>