<svg viewBox="0 -54 511.99895 511" xmlns="http://www.w3.org/2000/svg"><path d="m97.328125 158.035156 69.742187 26.859375c-8.898437 63.546875 55.730469 112.164063 114.273438 86.175781 2.539062-1.128906 5.003906-2.375 7.386719-3.730468l29.738281 32.09375c-25.160156 38.867187-6.105469 91.519531 38.832031 104.804687 3.992188 1.179688 8.183594-1.097656 9.363281-5.085937 1.179688-3.992188-1.101562-8.183594-5.089843-9.363282-31.082031-9.195312-46.898438-42.734374-35.589844-72.097656 10.859375-28.1875 42.613281-42.183594 70.6875-31.371094 48.640625 18.734376 45.6875 88.738282-4.210937 103.476563-3.988282 1.175781-6.269532 5.367187-5.089844 9.359375 1.179687 3.992188 5.375 6.265625 9.359375 5.089844 20.988281-6.199219 37.527343-21.445313 45.378906-41.828125 22.746094-59.0625-39.074219-115.550781-95.886719-87.609375l-30.285156-32.679688c13.566406-20.132812 17.617188-45.042968 10.8125-68.546875l50.417969-28.152343c36.882812 46.105468 110.519531 35.125 131.949219-20.515626 1.003906-2.609374 1.890624-5.367187 2.632812-8.199218 1.058594-4.023438-1.351562-8.144532-5.375-9.199219s-8.140625 1.351563-9.199219 5.375c-.601562 2.292969-1.316406 4.515625-2.121093 6.609375-18.417969 47.824219-83.457032 53.609375-110.339844 10.59375-9.972656-15.96875-12.597656-36.265625-5.328125-55.148438 12.285156-31.886718 48.222656-47.835937 80.113281-35.554687 18.535156 7.140625 32.617188 22.902344 37.671875 42.167969 1.054687 4.023437 5.175781 6.429687 9.199219 5.375 4.023437-1.054688 6.429687-5.175782 5.375-9.199219-6.28125-23.9375-23.789063-43.527344-46.832032-52.40625-56.246093-21.664063-114.726562 27.125-103.335937 86.324219l-52.898437 29.539062c-15.984376-17.636718-38.402344-26.960937-61.03125-26.832031l-8.273438-34.660156c27.328125-20.699219 21.34375-63.769531-10.828125-76.160157-36.496094-14.058593-71.941406 23.226563-56.082031 58.964844 5.699218 12.835938 16.953125 22.027344 30.667968 25.117188l8.445313 35.378906c-12.730469 6.332031-23.382813 15.707031-31.199219 27.273438l-69.722656-26.851563c1.074219-40.308594-40.433594-68.566406-77.761719-51.992187-27.941406 12.402343-40.523437 45.050781-28.117187 73 16.566406 37.316406 66.292968 44.230468 92.550781 13.605468zm268.628906-31.570312c.882813 2.152344 1.863281 4.261718 2.941407 6.328125l-47.664063 26.617187c-1.042969-2.078125-2.171875-4.105468-3.386719-6.082031zm-32.675781 156.546875c-1.367188 1.09375-4.207031 3.636719-5.207031 4.621093l-26.882813-29.011718c1.769532-1.503906 3.464844-3.085938 5.097656-4.734375zm-107.527344-165.519531-6.976562-29.226563c2.183594-.308594 4.492187-.796875 6.792968-1.5l6.949219 29.109375c-2.269531.445312-4.527343.976562-6.765625 1.617188zm-40.070312-83.269532c4.425781-11.496094 15.429687-18.558594 27.066406-18.558594 33.457031 0 39.90625 47.351563 8.09375 56.78125-22.710938 6.65625-43.835938-15.703124-35.160156-38.222656zm86.457031 99.6875c34.371094 13.238282 51.5625 51.972656 38.324219 86.34375-13.246094 34.386719-51.984375 51.5625-86.34375 38.328125-33.480469-12.894531-50.609375-49.933593-39.316406-83.566406 12.152343-36.195313 52.027343-54.703125 87.335937-41.105469zm-164.039063 4.671875 64.953126 25.019531c-.710938 1.640626-1.867188 4.613282-2.5 6.492188l-64.953126-25.019531c1.027344-2.234375 1.855469-4.445313 2.5-6.492188zm-52.78125-56.863281c15 0 29.972657 8.554688 36.800782 23.9375 14.601562 32.898438-18.121094 66.648438-51.25 53.886719-10.03125-3.863281-17.960938-11.402344-22.320313-21.226563-11.84375-26.6875 7.804688-56.597656 36.769531-56.597656zm0 0"/></svg>