<?xml version="1.0" encoding="iso-8859-1"?>
<!-- Generator: Adobe Illustrator 19.0.0, SVG Export Plug-In . SVG Version: 6.00 Build 0)  -->
<svg version="1.1" id="Layer_1" xmlns="http://www.w3.org/2000/svg" xmlns:xlink="http://www.w3.org/1999/xlink" x="0px" y="0px"
	 viewBox="0 0 488.063 488.063" style="enable-background:new 0 0 488.063 488.063;" xml:space="preserve">
<g>
	<g>
		<path d="M485.113,257.682L485.113,257.682l-27.6-27.8v-94.8l27.6-27.8c3.9-3.9,3.9-10.3-0.1-14.1c-3.9-3.9-10.3-3.9-14.1,0.1
			l-25.2,25.4l-59.9-33.2v-45.9c0-5.5-4.5-10-10-10s-10,4.5-10,10v34.8l-5-2.8c-3-1.7-6.7-1.7-9.7,0l-5.7,3.2v-35.2
			c0-5.5-4.5-10-10-10s-10,4.5-10,10v46.3l-65.7,36.5c-3.2,1.8-5.1,5.1-5.1,8.7v96.8l-30.9,15l-81.8-45.4v-34.9c0-5.5-4.5-10-10-10
			c-5.5,0-10,4.5-10,10v34.9l-86.3,47.9c-3.2,1.8-5.1,5.1-5.1,8.7v98.9l-27.6,27.8c-3.9,3.9-3.9,10.3,0.1,14.1c2,1.9,4.5,2.9,7,2.9
			c2.6,0,5.1-1,7.1-3l25.2-25.4l59.9,33.2v45.9c0,5.5,4.5,10,10,10s10-4.5,10-10v-34.8l5,2.8c1.5,0.8,3.2,1.3,4.9,1.3
			c1.7,0,3.3-0.4,4.9-1.3l5.7-3.2v35.2c0,5.5,4.5,10,10,10s10-4.5,10-10v-46.3l59.1-32.8l25.2,25.4c2,2,4.5,3,7.1,3
			c2.5,0,5.1-1,7-2.9c3.9-3.9,3.9-10.2,0.1-14.1l-27.6-27.8v-92.6l30.9-15l86.9,48.2c1.5,0.8,3.2,1.3,4.9,1.3c1.7,0,3.3-0.4,4.9-1.3
			l84.8-47.1l25.2,25.4c2,2,4.5,3,7.1,3c2.5,0,5.1-1,7-2.9C489.013,267.982,489.013,261.582,485.113,257.682z M147.813,387.482
			c0,0,0,0-0.1,0l-15.8,8.7l-15-8.3c0,0,0,0-0.1,0l-66.4-36.8v-91.2l81.5-45.2l81.5,45.2v91.2h0L147.813,387.482z M437.513,228.081
			L437.513,228.081l-81.5,45.2l-81.5-45.2v-91.2l65.6-36.4c0,0,0,0,0.1,0l15.8-8.8l15,8.3c0,0,0,0,0.1,0l66.4,36.8V228.081z"/>
	</g>
</g>
<g>
</g>
<g>
</g>
<g>
</g>
<g>
</g>
<g>
</g>
<g>
</g>
<g>
</g>
<g>
</g>
<g>
</g>
<g>
</g>
<g>
</g>
<g>
</g>
<g>
</g>
<g>
</g>
<g>
</g>
</svg>
