<?xml version="1.0" encoding="iso-8859-1"?>
<!-- Generator: Adobe Illustrator 19.0.0, SVG Export Plug-In . SVG Version: 6.00 Build 0)  -->
<svg version="1.1" id="Capa_1" xmlns="http://www.w3.org/2000/svg" xmlns:xlink="http://www.w3.org/1999/xlink" x="0px" y="0px"
	 viewBox="0 0 511.998 511.998" style="enable-background:new 0 0 511.998 511.998;" xml:space="preserve">
<g>
	<g>
		<path d="M477.867,222.187c-15.873,0-29.206,11.021-33.01,25.954h-75.544l-50.837-88.41l36.508-65.894
			c1.125,0.113,2.265,0.084,3.417,0.084c18.825,0,34.133-15.356,34.133-34.178c0-18.82-15.308-34.155-34.133-34.155
			c-18.825,0-34.133,15.302-34.133,34.123c0,11.536,5.767,22.082,14.552,28.264l-36.64,66.3h-92.358l-36.64-66.305
			c8.788-6.182,14.552-16.557,14.552-28.093c0-18.821-15.308-34.222-34.133-34.222s-34.133,15.269-34.133,34.089
			c0,18.822,15.308,34.111,34.133,34.111c1.154,0,2.292-0.072,3.417-0.184l36.508,66.066l-50.844,88.405H67.144
			c-3.802-14.933-17.138-25.954-33.01-25.954C15.308,222.187,0,237.322,0,256.143c0,18.821,15.308,34.399,34.133,34.399
			c15.873,0,29.208-10.401,33.01-25.334h75.537l50.844,87.702l-36.508,65.539c-1.125-0.112-2.263-0.261-3.417-0.261
			c-18.825,0-34.133,15.269-34.133,34.089c0,18.822,15.308,34.111,34.133,34.111s34.133-15.323,34.133-34.144
			c0-11.535-5.764-21.385-14.552-27.567l36.64-65.603h100.371c0.169,0,0.336-0.377,0.502-0.387l36.658,65.807
			c-8.786,6.182-14.552,16.292-14.552,27.827c0,18.821,15.308,34.089,34.133,34.089s34.133-15.334,34.133-34.155
			s-15.308-34.144-34.133-34.144c-1.152,0-2.292,0.055-3.417,0.167L323.19,345.69c-0.119-0.215-0.275-0.039-0.41-0.239
			l46.531-80.244h75.544c3.804,14.933,17.138,25.246,33.01,25.246c18.825,0,34.133-15.312,34.133-34.133
			S496.692,222.187,477.867,222.187z M358.4,42.633c9.408,0,17.067,7.654,17.067,17.067c0,9.413-7.658,17.067-17.067,17.067
			s-17.067-7.654-17.067-17.067S348.992,42.633,358.4,42.633z M153.6,76.766c-9.408,0-17.067-7.654-17.067-17.067
			c0-9.413,7.658-17.067,17.067-17.067c9.408,0,17.067,7.654,17.067,17.067C170.667,69.112,163.008,76.766,153.6,76.766z
			 M34.133,273.033c-9.408,0-17.067-7.654-17.067-17.067c0-9.413,7.658-17.067,17.067-17.067c9.408,0,17.067,7.654,17.067,17.067
			C51.2,265.379,43.542,273.033,34.133,273.033z M153.6,469.3c-9.408,0-17.067-7.654-17.067-17.067
			c0-9.413,7.658-17.067,17.067-17.067c9.408,0,17.067,7.654,17.067,17.067C170.667,461.646,163.008,469.3,153.6,469.3z
			 M366.933,435.166c9.408,0,17.067,7.654,17.067,17.067c0,9.413-7.658,17.067-17.067,17.067s-17.067-7.654-17.067-17.067
			C349.866,442.82,357.525,435.166,366.933,435.166z M305.267,342.008h-98.533l-49.275-85.333l49.275-85.333h98.533l49.267,85.333
			L305.267,342.008z M477.867,273.033c-9.408,0-17.067-7.654-17.067-17.067c0-9.413,7.658-17.067,17.067-17.067
			s17.067,7.654,17.067,17.067C494.933,265.379,487.275,273.033,477.867,273.033z"/>
	</g>
</g>
<g>
</g>
<g>
</g>
<g>
</g>
<g>
</g>
<g>
</g>
<g>
</g>
<g>
</g>
<g>
</g>
<g>
</g>
<g>
</g>
<g>
</g>
<g>
</g>
<g>
</g>
<g>
</g>
<g>
</g>
</svg>
