<?xml version="1.0" encoding="iso-8859-1"?>
<!-- Generator: Adobe Illustrator 18.0.0, SVG Export Plug-In . SVG Version: 6.00 Build 0)  -->
<!DOCTYPE svg PUBLIC "-//W3C//DTD SVG 1.1//EN" "http://www.w3.org/Graphics/SVG/1.1/DTD/svg11.dtd">
<svg version="1.1" id="Capa_1" xmlns="http://www.w3.org/2000/svg" xmlns:xlink="http://www.w3.org/1999/xlink" x="0px" y="0px"
	 viewBox="0 0 217.57 217.57" style="enable-background:new 0 0 217.57 217.57;" xml:space="preserve">
<g>
	<path d="M152.372,145.784c-4.782-2.026-10.026-3.905-15.455-5.778c8.807-20.117,5.481-43.415-11.355-58.642
		c-9.365-8.47-27.624-14.808-44.711-22.285c7.729-17.113,13.15-37.869,8.223-56.451c0.012-0.131-0.057-0.256-0.103-0.392
		c-0.116-0.425-0.208-0.854-0.335-1.276c-0.306-1.015-1.453-1.052-2.057-0.515c-1.917-0.696-4.194-0.565-5.973,0.327
		c-1.531,0.768-2.588,2.033-3.269,3.5c-0.722-0.253-1.752,0.328-1.592,1.35c0.049,0.315,0.074,0.624,0.121,0.938
		c-11.406,4.896-22.775,9.98-33.932,15.419c0.004-3.266,0.631-6.77,2.012-10.558c0.377-0.177,0.646-0.537,0.489-1.025
		c-0.017-0.052-0.051-0.093-0.07-0.144c0.081-0.203,0.129-0.393,0.214-0.598c0.334-0.801-0.716-1.326-1.338-0.938
		c-1.422-1.196-3.675-1.704-5.335-1.672c-2.015,0.039-3.861,0.797-5.213,2.159c-0.256-0.072-0.53-0.027-0.664,0.286
		c-0.166,0.388-0.276,0.78-0.427,1.169c-0.036,0.063-0.091,0.106-0.126,0.17c-0.051,0.094-0.041,0.185-0.037,0.275
		c-6.816,18.398,3.919,37.781,19.438,48.521c4.164,2.882,8.623,5,13.224,6.762c-10.441,23.619-6.288,48.135,14.612,64.766
		c11.826,9.41,27.655,13.584,43.036,17.917c-7.705,12.687-9.971,27.74-6.7,41.617c-0.023,0.127-0.011,0.258,0.074,0.356
		c2.086,8.587,6.293,16.712,12.686,23.525c0.246,0.262,0.554,0.29,0.857,0.235c3.6,5.402,12.858,2.362,12.091-4.503
		c-0.083-0.743-0.617-1.115-1.168-1.174c-3.073-4.347-5.318-8.695-6.897-13.078c3.107,0.643,6.725-1.778,9.595-2.991
		c9.461-3.999,18.865-8.121,28.26-12.271c1.59,3.822,2.79,8.093,3.411,13.035c0.062,0.49,0.346,0.817,0.697,1.017
		c1.851,3.132,5.599,4.755,9.206,3.949c1.518-0.339,2.944-1.13,3.682-2.525c0.39-0.209,0.686-0.584,0.679-1.168
		C187.935,170.896,174.081,154.982,152.372,145.784z M79.546,18.905c-0.156-4.025-0.574-7.959-1.208-11.631
		c0.362-1.759,1.325-3.277,2.962-4.149c1.871-0.997,3.609-0.521,5.385,0.207c4.652,18.323-0.977,37.74-7.62,54.961
		c-2.783-1.239-5.529-2.508-8.186-3.828c6.679-9.115,8.926-21.839,8.688-33.91l0.001-0.001
		C80.267,20.095,80.061,19.269,79.546,18.905z M74.553,39.315c-1.374,4.959-3.098,9.774-4.298,14.842
		c-4.503-2.263-8.724-4.679-12.478-7.305C63.256,44.941,69.87,42.849,74.553,39.315z M56.628,45.936
		c-0.026,0.01-0.029,0.037-0.052,0.049c-3.585-2.629-6.702-5.466-9.11-8.593c0.061,0,0.117,0.022,0.183-0.006
		c10.068-4.304,20.008-9.361,29.304-15.215c-0.045,3.233-0.242,6.478-0.743,9.782c-0.27,1.785-0.655,3.519-1.083,5.236
		c-0.006,0.002-0.012-0.003-0.018-0.001c-2.856,0.943-5.391,2.74-8.065,4.109C63.652,43.033,60.179,44.559,56.628,45.936z
		 M42.37,23.219c11.364-4.613,22.607-9.61,33.74-14.758c0.505,3.793,0.813,7.535,0.875,11.286
		c-9.889,5.714-19.718,11.457-29.769,16.901c-0.097,0.052-0.133,0.128-0.166,0.202c-2.974-4.037-4.808-8.539-5.055-13.651
		C42.109,23.241,42.23,23.276,42.37,23.219z M50.153,54.102c1.048,0.331,2.094,0.511,3.257,0.304
		c0.584-0.104,0.421-0.989-0.136-1.004c-1.341-0.036-2.564-0.193-3.812-0.697c-0.301-0.122-0.556,0.082-0.661,0.344
		c-1.508-1.226-2.967-2.492-4.315-3.84c2.26,0.045,4.435,0.075,6.679,0.548c0.774,0.163,1.077-0.931,0.326-1.183
		c-2.418-0.812-5.119-1.11-7.592-0.347c-0.096,0.029-0.149,0.096-0.205,0.158c-2.01-2.103-3.881-4.303-5.426-6.71
		c1.02,0.241,2.532-0.5,3.297,0.048c0.638,0.456,1.313-0.518,0.811-1.051c-0.888-0.944-2.51-0.79-3.692-0.583
		c0.577-0.101,0.445-1.054-0.138-1.023c-0.626,0.034-1.12,0.483-1.225,1.07c-1.017-1.753-1.923-3.573-2.659-5.487
		c1.768,0.047,3.494,0.276,5.264,0.555c0.603,0.095,0.826-0.692,0.252-0.914c-1.895-0.734-3.906-0.862-5.915-0.756
		c-0.6-1.723-1.125-3.488-1.476-5.343c1.748,0.262,3.511,0.461,5.269,0.561c0.637,0.036,0.597-0.888,0-0.967
		c-1.799-0.239-3.623-0.38-5.443-0.445c-0.283-1.708-0.49-3.454-0.545-5.275c1.552,0.242,3.1,0.497,4.664,0.655
		c0.486,0.049,0.602-0.775,0.116-0.858c-1.599-0.274-3.209-0.447-4.82-0.633c-0.016-1.616,0.049-3.271,0.224-4.977
		c1.242,0.49,2.56,0.663,3.959,0.436c0.556-0.09,0.394-0.931-0.129-0.949c-1.304-0.046-2.479-0.297-3.646-0.683
		c0.176-1.386,0.343-2.768,0.65-4.214c1.384-1.039,3.057-1.581,4.816-1.563c1.829,0.019,2.858,0.843,4.156,1.624
		c-8.681,19.541,7.435,36.223,24.671,44.389c14.871,7.046,31.101,11.104,45.255,19.71c23.088,14.039,33.588,39.029,22.259,64.083
		c-2.464-0.842-4.957-1.688-7.457-2.549c1.692-3.87,2.724-7.82,3.212-11.77c-0.027,0.489,0.371,1.051,0.912,0.83
		c1.799-0.735,3.63-1.414,5.351-2.322c0.71-0.374,0.223-1.566-0.552-1.308c-1.846,0.613-3.605,1.465-5.38,2.254
		c-0.175,0.078-0.263,0.217-0.314,0.368c0.676-5.677,0.2-11.351-1.338-16.779c1.444-0.195,2.856-0.568,4.157-1.268
		c0.467-0.252,0.149-1.037-0.365-0.867c-1.381,0.457-2.73,0.795-4.108,1.033c-0.931-2.994-2.157-5.913-3.696-8.702
		c1.166-0.079,2.363-0.244,3.455-0.589c0.592-0.187,0.51-1.131-0.151-1.114c-1.307,0.035-2.663,0.302-3.92,0.675
		c-0.823-1.408-1.68-2.801-2.65-4.136c1.134-0.247,2.272-0.477,3.394-0.785c0.567-0.156,0.328-1.007-0.242-0.879
		c-1.235,0.277-2.445,0.636-3.66,0.979c-1.701-2.258-3.585-4.413-5.688-6.407c1.44-0.295,2.877-0.604,4.293-1.006
		c0.577-0.164,0.324-0.968-0.242-0.879c-1.673,0.263-3.321,0.647-4.966,1.038c-0.312-0.282-0.605-0.58-0.925-0.856
		c-2.012-1.734-4.116-3.239-6.287-4.583c2.346-0.114,4.692-0.227,7.022-0.521c0.598-0.076,0.638-0.993,0-0.967
		c-2.747,0.116-5.478,0.478-8.208,0.8c-1.9-1.112-3.839-2.131-5.827-3.041c0.335-0.095,0.668-0.186,1.009-0.33
		c0.463-0.196,0.132-0.981-0.344-0.816c-0.753,0.262-1.488,0.405-2.225,0.457c-6.321-2.726-13-4.687-19.746-6.792
		c-1.019-0.318-2.015-0.703-3.023-1.055c1.374-0.292,2.744-0.598,4.096-0.987c0.646-0.186,0.365-1.09-0.272-0.986
		c-1.972,0.32-3.912,0.8-5.855,1.264c-2.434-0.905-4.843-1.867-7.202-2.922c1.441-0.177,2.819-0.594,4.179-1.344
		c0.49-0.27,0.06-0.963-0.432-0.739c-1.852,0.843-3.804,1.207-5.821,1.177C59.301,60.231,54.451,57.404,50.153,54.102z
		 M108.831,128.468c-0.5,0.194-0.615,0.7-0.483,1.097c-6.292-2.706-12.22-5.736-17.32-9.346c4.106-0.766,9.014-3.869,11.877-5.427
		c6.865-3.736,13.338-8.085,20.485-11.279c2.012,4.764,3.145,9.939,3.292,15.457C120.75,122.278,115.312,125.955,108.831,128.468z
		 M126.659,121.515c-0.128,4.51-0.877,9.226-2.391,14.146c-5.053-1.765-10.081-3.627-14.915-5.667
		C115.14,127.908,121.561,125.309,126.659,121.515z M94.046,76.342c5.459,2.318,10.351,5.202,14.631,8.537
		c-11.697,4.736-22.199,11.562-31.376,20.184c-2.118-4.218-3.429-8.947-3.595-14.379C80.739,86.458,87.882,81.783,94.046,76.342z
		 M73.712,89.27c0.021-5.496,1.105-11.642,3.533-18.591c4.481,1.326,8.977,2.64,13.372,4.261c0.503,0.186,0.974,0.406,1.469,0.6
		C85.804,79.836,79.756,84.644,73.712,89.27z M109.954,86.519c0.183-0.076,0.313-0.194,0.419-0.325
		c5.249,4.424,9.404,9.622,12.214,15.474c-11.432,4.899-21.804,12.18-33.006,17.473c-4.817-3.632-8.838-7.814-11.615-12.789
		C87.549,97.972,98.176,91.408,109.954,86.519z M138.183,210.503c-0.48,4.555-5.399,6.238-8.663,3.161
		c-0.024-0.121,0.011-0.239-0.077-0.359c-0.732-1.001-1.412-2.011-2.084-3.021c1.53,0.055,3.07,0.12,4.583-0.006
		c0.442-0.037,0.443-0.651,0-0.688c-1.669-0.14-3.372-0.047-5.056,0.009c-1.18-1.817-2.232-3.654-3.215-5.5
		c2.095-0.041,4.162,0.084,6.265,0.366c0.405,0.054,0.491-0.624,0.096-0.712c-2.225-0.498-4.492-0.536-6.756-0.391
		c-0.939-1.816-1.734-3.653-2.48-5.495c1.507-0.006,3.012,0.022,4.533-0.011c0.491-0.011,0.647-0.811,0.121-0.895
		c-1.665-0.266-3.37-0.184-5.055,0.018c-0.727-1.875-1.35-3.763-1.875-5.662c1.454,0.071,2.915,0.094,4.273-0.168
		c0.382-0.074,0.382-0.697,0-0.771c-1.435-0.276-2.985-0.236-4.52-0.155c-0.35-1.37-0.616-2.749-0.861-4.131
		c1.849,0.095,3.725,0.012,5.475-0.487c0.561-0.16,0.481-1.126-0.143-1.059c-1.888,0.202-3.689,0.432-5.531,0.478
		c-0.298-1.896-0.458-3.807-0.556-5.723c2.228,0.101,4.479,0.248,6.691,0.104c0.693-0.045,0.694-1.033,0-1.079
		c-2.222-0.145-4.484,0.005-6.722,0.105c-0.051-1.451-0.024-2.909,0.04-4.37c2.76,0.021,5.581-0.278,8.156-1.261
		c0.669-0.255,0.42-1.277-0.302-1.094c-2.609,0.665-5.134,1.2-7.792,1.337c0.153-2.464,0.53-4.947,1.014-7.437
		c1.436,0.059,2.884,0.116,4.284-0.057c0.727-0.09,0.729-1.044,0-1.134c-1.31-0.163-2.663-0.121-4.01-0.067
		c0.214-0.987,0.47-1.977,0.732-2.968c0.027-0.002,0.044,0.017,0.073,0.01c2.227-0.591,4.265-0.388,6.505-0.496
		c0.565-0.027,0.708-0.844,0.136-1.004c-2.062-0.58-4.442-0.091-6.471,0.558c1.021-3.636,2.382-7.294,4.177-10.975
		c2.973,0.842,5.923,1.698,8.821,2.604C124.582,170.805,123.014,195.187,138.183,210.503z M133.429,152.542
		c6.991,2.245,13.611,4.854,19.434,8.345c-3.889,2.084-7.762,4.193-11.618,6.339c-1.841,1.024-3.673,2.065-5.508,3.101
		c-0.475,0.268-5.269,2.676-5.272,2.708c0.037-0.361-0.317-0.527-0.619-0.469C130.336,166.111,131.645,159.472,133.429,152.542z
		 M154.459,185.361c-4.638,1.998-16.833,9.403-22.393,8.707c-2.027-6.455-2.693-12.994-2.344-19.734
		c1.694,1.283,4.663-1.266,6.113-2.051c6.087-3.301,12.147-6.646,18.158-10.084c0.195-0.111,0.272-0.273,0.33-0.435
		c6.502,4.173,11.865,9.614,15.429,17.122C164.649,181.032,159.543,183.171,154.459,185.361z M180.776,196.632
		c-1.636-0.278-3.126-1.078-4.268-2.255c0.056-0.159,0.078-0.342,0.051-0.557c-2.771-21.937-16.205-36.211-37.151-42.547
		c-18.517-5.601-37.735-7.553-54.301-18.619C60.68,116.337,57.597,93.144,65.555,66.942c3.204,1.169,6.471,2.184,9.756,3.165
		c-10.166,21.516-1.827,44.218,18.036,56.859c11.415,7.264,25.766,11.373,39.718,15.782c0.343,0.813,1.43,1.263,2.128,0.68
		c25.766,8.245,49.58,18.129,50.201,51.666c0.003,0.176,0.052,0.321,0.103,0.464C184.568,196.558,181.583,196.77,180.776,196.632z"
		/>
	<path d="M61.868,56.713c-1.98-0.098-3.967-0.034-5.95-0.019c-0.682,0.005-0.683,1.055,0,1.06c1.982,0.015,3.969,0.079,5.95-0.019
		C62.526,57.704,62.527,56.746,61.868,56.713z"/>
	<path d="M86.338,67.263c-1.318,0.026-2.641,0.128-3.949,0.298c-0.803,0.105-0.865,1.303,0,1.301
		c1.317-0.002,2.64-0.076,3.949-0.224C87.195,68.542,87.245,67.245,86.338,67.263z"/>
	<path d="M94.088,67.838c-2.269,0.44-4.453,1.131-6.654,1.828c-0.785,0.249-0.464,1.439,0.341,1.237
		c2.242-0.562,4.461-1.119,6.625-1.936C95.103,68.702,94.836,67.693,94.088,67.838z"/>
	<path d="M135.579,112.223c-1.612,0.944-3.025,1.449-4.916,0.978c-0.617-0.154-0.866,0.76-0.262,0.95
		c2.019,0.637,4.242,0.406,5.82-1.096C136.659,112.639,136.097,111.92,135.579,112.223z"/>
	<path d="M135.177,129.594c-2.05,0.838-4.069,1.731-6.09,2.638c-0.447,0.201-0.127,0.974,0.337,0.798
		c2.027-0.768,4.045-1.543,6.045-2.378C136.108,130.385,135.833,129.326,135.177,129.594z"/>
</g>
<g>
</g>
<g>
</g>
<g>
</g>
<g>
</g>
<g>
</g>
<g>
</g>
<g>
</g>
<g>
</g>
<g>
</g>
<g>
</g>
<g>
</g>
<g>
</g>
<g>
</g>
<g>
</g>
<g>
</g>
</svg>
