<?xml version="1.0" encoding="iso-8859-1"?>
<!-- Generator: Adobe Illustrator 19.0.0, SVG Export Plug-In . SVG Version: 6.00 Build 0)  -->
<svg version="1.1" id="Layer_1" xmlns="http://www.w3.org/2000/svg" xmlns:xlink="http://www.w3.org/1999/xlink" x="0px" y="0px"
	 viewBox="0 0 512 512" style="enable-background:new 0 0 512 512;" xml:space="preserve">
<g>
	<g>
		<g>
			<path d="M256,0C114.672,0.016,0.016,114.672,0,256c0,12.576,1.024,24.896,3.04,37.152c0,0.048,0.016,0.096,0.032,0.16
				c0.016,0.064,0.016,0.128,0.032,0.208H3.12C21.04,416.992,127.408,511.952,256,512c95.232-0.016,178.56-52.24,222.544-129.696
				l0.176-0.64C500.128,344.48,512,301.504,512,256C511.984,114.672,397.328,0.016,256,0z M97.632,97.632
				C138.224,57.056,194.128,32,256,32s117.76,25.056,158.368,65.632c33.664,33.68,56.4,78,63.248,127.424
				c-3.072-0.608-8.272-1.056-11.536-1.056c-26.512,0.064-50.08,21.488-50.08,48v64c0,8.688-7.312,15.984-16,16
				c-8.688-0.016-16-7.312-16-16v-64c0-24.288-16.032-44.096-39.424-47.328c-13.008-37.6-47.584-64.656-89.616-64.672
				c-42.288,0.016-77.6,27.408-90.4,65.376C143.344,230.368,128,249.264,128,272v32c0,8.688-7.312,15.984-16,16
				c-8.688-0.016-16-7.312-16-16v-32c0-26.512-21.488-47.936-48-48c-4.8,0.016-9.424,0.752-13.76,2.064
				C40.912,176.224,63.744,131.552,97.632,97.632z M193.344,269.312l-0.032-0.256C192.496,264.688,192,260.176,192,256
				c0.064-35.312,28.688-63.936,64-64c35.312,0.064,63.936,28.688,64,64c-0.016,8.624-1.536,16.352-4.544,23.648l-0.064,0.144
				c-7.904,19.664-25.328,34.544-46.464,38.896c-4.32,0.8-8.784,1.312-12.928,1.312c-14.288,0.016-28.016-4.928-38.352-12.768
				L217.6,307.2C205.36,297.984,196.784,284.912,193.344,269.312z M450.256,366.064l0.096,0.576
				C411.76,434.368,339.104,480,255.856,479.984c-112.56,0.064-205.696-83.36-221.2-191.376l-0.016-0.352
				c-1.184-7.088-1.808-14.192-2.208-21.344l1.088-1.568c2.272-5.216,8.016-9.424,14.48-9.344c8.688,0.016,16,7.312,16,16v32
				c0,26.512,21.488,47.936,48,48c26.512-0.064,48-21.488,48-48v-21.856c0,20.448,19.808,38.208,36.4,50.624
				c15.888,11.984,35.328,19.2,56.88,19.216c6.688,0,2.72-0.784,18.72-1.872v-1.984c32-6.272,54.992-26.496,67.36-56.368
				l2.496-0.048c0,0.016,1.6,0.032,1.6,0.032c4.016-9.728,4.672-20.16,5.2-30.848C351.472,263.824,352,267.728,352,272v64
				c0,26.512,21.488,47.936,48,48c26.512-0.064,48-21.488,48-48v-64c0-8.688,9.392-15.984,18.08-16
				c4.608-0.032,9.824,2.064,12.704,5.168C477.92,299.296,468.208,334.992,450.256,366.064z"/>
			<path d="M123.312,187.312l32-32c6.256-6.256,6.256-16.384,0-22.624c-6.256-6.256-16.384-6.256-22.624,0l-32,32
				c-6.256,6.256-6.256,16.384,0,22.624C106.928,193.568,117.056,193.568,123.312,187.312z"/>
			<path d="M260.688,123.312c6.256,6.256,16.384,6.256,22.624,0c6.256-6.256,6.256-16.384,0-22.624l-32-32
				c-6.256-6.256-16.384-6.256-22.624,0c-6.256,6.256-6.256,16.384,0,22.624L260.688,123.312z"/>
			<path d="M368,160h32c8.832,0,16-7.168,16-16c0-8.832-7.168-16-16-16h-32c-8.832,0-16,7.168-16,16
				C352,152.832,359.168,160,368,160z"/>
		</g>
	</g>
</g>
<g>
</g>
<g>
</g>
<g>
</g>
<g>
</g>
<g>
</g>
<g>
</g>
<g>
</g>
<g>
</g>
<g>
</g>
<g>
</g>
<g>
</g>
<g>
</g>
<g>
</g>
<g>
</g>
<g>
</g>
</svg>
