<?xml version="1.0" standalone="no"?>
<!DOCTYPE svg PUBLIC "-//W3C//DTD SVG 20010904//EN"
 "http://www.w3.org/TR/2001/REC-SVG-20010904/DTD/svg10.dtd">
<svg version="1.0" xmlns="http://www.w3.org/2000/svg"
 width="225.000000pt" height="225.000000pt" viewBox="0 0 225.000000 225.000000"
 preserveAspectRatio="xMidYMid meet">

<g transform="translate(0.000000,225.000000) scale(0.100000,-0.100000)"
fill="#000000" stroke="none">
<path d="M1186 1916 c-75 -129 -136 -238 -136 -241 0 -3 61 -111 136 -240
l137 -235 248 0 247 0 136 234 c75 128 136 237 136 242 0 5 -61 113 -134 239
l-134 230 -250 3 -250 2 -136 -234z"/>
<path d="M412 1568 c-76 -127 -252 -437 -252 -444 0 -5 61 -112 134 -239 l134
-230 249 -3 250 -2 136 234 c76 129 137 238 137 241 0 3 -61 112 -136 241
l-137 234 -248 0 -247 0 -20 -32z"/>
<path d="M1320 1045 c-14 -18 -270 -464 -270 -470 0 -4 61 -112 136 -241 l136
-234 250 2 250 3 134 230 c73 127 133 235 133 240 0 6 -60 114 -133 240 l-134
230 -247 5 c-159 3 -250 1 -255 -5z"/>
</g>
</svg>
